;TYPE=PLATED
;Layer: PTH_Through
;EasyEDA Pro v2.2.32.3, 2024-11-23 22:11:16
;Gerber Generator version 0.3
M48
METRIC,LZ,000.00000
;Hole size 1 = 0.30500 METRIC
T01C0.30500
;Hole size 2 = 2.20000 METRIC
T02C2.20000
%
G05
G90
T01
X6.6539Y9.0
X7.58623Y7.62425
X7.58623Y10.35035
X8.79312Y10.62975
X8.79312Y7.37025
X10.0Y10.62975
X10.0Y7.37025
X11.20688Y7.37025
X11.20688Y10.62975
X12.41377Y7.64965
X12.41377Y10.37575
X13.3461Y9.0
X6.6539Y-9.0
X7.58623Y-10.37575
X7.58623Y-7.64965
X8.79312Y-7.37025
X8.79312Y-10.62975
X10.0Y-7.37025
X10.0Y-10.62975
X11.20688Y-10.62975
X11.20688Y-7.37025
X12.41377Y-10.35035
X12.41377Y-7.62425
X13.3461Y-9.0
X53.6539Y-25.0
X54.58623Y-26.37575
X54.58623Y-23.64965
X55.79312Y-23.37025
X55.79312Y-26.62975
X57.0Y-23.37025
X57.0Y-26.62975
X58.20688Y-26.62975
X58.20688Y-23.37025
X59.41377Y-26.35035
X59.41377Y-23.62425
X60.3461Y-25.0
X86.6539Y-9.0
X87.58623Y-10.37575
X87.58623Y-7.64965
X88.79312Y-7.37025
X88.79312Y-10.62975
X90.0Y-7.37025
X90.0Y-10.62975
X91.20688Y-10.62975
X91.20688Y-7.37025
X92.41377Y-10.35035
X92.41377Y-7.62425
X93.3461Y-9.0
X86.6539Y9.0
X87.58623Y7.62425
X87.58623Y10.35035
X88.79312Y10.62975
X88.79312Y7.37025
X90.0Y10.62975
X90.0Y7.37025
X91.20688Y7.37025
X91.20688Y10.62975
X92.41377Y7.64965
X92.41377Y10.37575
X93.3461Y9.0
X53.6539Y25.0
X54.58623Y23.62425
X54.58623Y26.35035
X55.79312Y26.62975
X55.79312Y23.37025
X57.0Y26.62975
X57.0Y23.37025
X58.20688Y23.37025
X58.20688Y26.62975
X59.41377Y23.64965
X59.41377Y26.37575
X60.3461Y25.0
T02
X11.6Y9.0G85X8.4Y9.0
X11.6Y-9.0G85X8.4Y-9.0
X58.6Y-25.0G85X55.4Y-25.0
X91.6Y-9.0G85X88.4Y-9.0
X91.6Y9.0G85X88.4Y9.0
X58.6Y25.0G85X55.4Y25.0
M30