;TYPE=PLATED
;Layer: PTH_Through_Via
;EasyEDA Pro v2.2.32.3, 2024-11-02 15:36:31
;Gerber Generator version 0.3
M48
METRIC,LZ,000.00000
;Hole size 1 = 0.20000 METRIC
T01C0.20000
;Hole size 2 = 0.25000 METRIC
T02C0.25000
%
G05
G90
T01
X-84.83466Y-53.51944
X-83.18466Y-55.16944
X-84.83466Y-56.81944
X-86.48466Y-55.16944
X-83.66793Y-54.00271
X-86.00138Y-54.00271
X-86.00138Y-56.33616
X-83.66793Y-56.33616
X-83.31026Y-55.80087
X-83.31025Y-54.53802
X-84.20322Y-53.64504
X-85.46608Y-53.64503
X-86.35906Y-54.538
X-86.35906Y-55.80086
X-85.46609Y-56.69384
X-84.20324Y-56.69384
X-90.83466Y-31.15545
X-89.18466Y-32.80545
X-90.83466Y-34.45545
X-92.48466Y-32.80545
X-89.66793Y-31.63873
X-92.00138Y-31.63873
X-92.00138Y-33.97218
X-89.66793Y-33.97218
X-89.31026Y-33.43689
X-89.31025Y-32.17403
X-90.20322Y-31.28105
X-91.46608Y-31.28105
X-92.35906Y-32.17402
X-92.35906Y-33.43687
X-91.46609Y-34.32985
X-90.20324Y-34.32986
X-4.83466Y-53.51944
X-3.18466Y-55.16944
X-4.83466Y-56.81944
X-6.48466Y-55.16944
X-3.66793Y-54.00271
X-6.00139Y-54.00271
X-6.00139Y-56.33616
X-3.66793Y-56.33616
X-3.31026Y-55.80087
X-3.31026Y-54.53802
X-4.20323Y-53.64504
X-5.46608Y-53.64503
X-6.35906Y-54.538
X-6.35906Y-55.80086
X-5.46609Y-56.69384
X-4.20324Y-56.69384
X1.16534Y-31.15545
X2.81534Y-32.80545
X1.16534Y-34.45545
X-0.48466Y-32.80545
X2.33207Y-31.63873
X-0.00138Y-31.63873
X-0.00138Y-33.97218
X2.33207Y-33.97218
X2.68974Y-33.43689
X2.68975Y-32.17403
X1.79678Y-31.28105
X0.53392Y-31.28105
X-0.35906Y-32.17402
X-0.35906Y-33.43687
X0.53391Y-34.32985
X1.79676Y-34.32986
X-69.83466Y-1.51944
X-68.18466Y-3.16944
X-69.83466Y-4.81944
X-71.48466Y-3.16944
X-68.66793Y-2.00271
X-71.00138Y-2.00271
X-71.00138Y-4.33616
X-68.66793Y-4.33616
X-68.31026Y-3.80087
X-68.31025Y-2.53802
X-69.20322Y-1.64504
X-70.46608Y-1.64503
X-71.35906Y-2.538
X-71.35906Y-3.80086
X-70.46609Y-4.69384
X-69.20324Y-4.69384
X-19.83466Y-1.51944
X-18.18466Y-3.16944
X-19.83466Y-4.81944
X-21.48466Y-3.16944
X-18.66793Y-2.00271
X-21.00138Y-2.00271
X-21.00138Y-4.33616
X-18.66793Y-4.33616
X-18.31026Y-3.80087
X-18.31025Y-2.53802
X-19.20322Y-1.64504
X-20.46608Y-1.64503
X-21.35906Y-2.538
X-21.35906Y-3.80086
X-20.46609Y-4.69384
X-19.20324Y-4.69384
X-44.83466Y-31.15545
X-43.18466Y-32.80545
X-44.83466Y-34.45545
X-46.48466Y-32.80545
X-43.66793Y-31.63873
X-46.00138Y-31.63873
X-46.00138Y-33.97218
X-43.66793Y-33.97218
X-43.31026Y-33.43689
X-43.31025Y-32.17403
X-44.20322Y-31.28105
X-45.46608Y-31.28105
X-46.35906Y-32.17402
X-46.35906Y-33.43687
X-45.46609Y-34.32985
X-44.20324Y-34.32986
T02
X-92.59682Y-54.9129
X-92.59682Y-52.91289
X-92.59682Y-50.91289
X-92.59683Y-48.91289
X-92.59683Y-46.91289
X-92.59683Y-44.91289
X-92.59683Y-42.91289
X-92.59683Y-40.91289
X-92.59683Y-38.91289
X-92.59683Y-36.91289
X-92.59683Y-2.91287
X-92.59683Y-0.91287
X-90.59682Y-54.9129
X-90.59682Y-52.91289
X-90.59682Y-50.91289
X-90.59682Y-48.91289
X-90.59682Y-46.91289
X-90.59682Y-44.91289
X-90.59682Y-42.91289
X-90.59682Y-40.91289
X-90.59682Y-38.91289
X-90.59682Y-36.91289
X-88.59682Y-52.91289
X-88.59682Y-50.91289
X-88.59682Y-48.91289
X-88.59682Y-46.91289
X-88.59682Y-30.91288
X-88.59682Y-24.91288
X-88.59682Y-22.91288
X-88.59682Y-20.91288
X-88.59682Y-18.91288
X-88.59682Y-16.91287
X-88.59682Y-14.91287
X-88.59682Y-12.91287
X-88.59682Y-10.91287
X-88.59682Y-8.91287
X-86.59682Y-50.91289
X-86.59682Y-48.91289
X-86.59682Y-46.91289
X-86.59682Y-32.91288
X-86.59682Y-30.91288
X-86.59682Y-24.91288
X-86.59682Y-22.91288
X-86.59682Y-20.91288
X-86.59682Y-18.91288
X-86.59682Y-16.91287
X-86.59682Y-14.91287
X-86.59682Y-12.91287
X-86.59682Y-10.91287
X-86.59682Y-8.91287
X-84.59682Y-50.91289
X-84.59682Y-48.91289
X-84.59682Y-46.91289
X-84.59682Y-40.91289
X-84.59682Y-38.91289
X-84.59682Y-24.91288
X-84.59682Y-22.91288
X-84.59682Y-20.91288
X-84.59682Y-18.91288
X-84.59682Y-16.91287
X-84.59682Y-14.91287
X-84.59682Y-12.91287
X-84.59682Y-10.91287
X-84.59682Y-8.91287
X-82.59682Y-52.91289
X-82.59682Y-50.91289
X-82.59682Y-48.91289
X-82.59682Y-46.91289
X-82.59682Y-40.91289
X-82.59682Y-38.91289
X-82.59682Y-24.91288
X-82.59682Y-22.91288
X-82.59682Y-20.91288
X-82.59682Y-18.91288
X-82.59682Y-16.91287
X-82.59682Y-14.91287
X-82.59682Y-12.91287
X-82.59682Y-10.91287
X-82.59682Y-8.91287
X-80.59682Y-54.9129
X-80.59682Y-52.91289
X-80.59682Y-50.91289
X-80.59682Y-48.91289
X-80.59682Y-46.91289
X-80.59682Y-40.91289
X-80.59682Y-38.91289
X-80.59682Y-24.91288
X-80.59682Y-22.91288
X-80.59682Y-20.91288
X-80.59682Y-18.91288
X-80.59682Y-16.91287
X-80.59682Y-14.91287
X-80.59682Y-12.91287
X-80.59682Y-10.91287
X-80.59682Y-8.91287
X-78.59682Y-56.9129
X-78.59682Y-54.9129
X-78.59682Y-52.91289
X-78.59682Y-50.91289
X-78.59682Y-48.91289
X-78.59682Y-46.91289
X-78.59682Y-40.91289
X-78.59682Y-38.91289
X-78.59682Y-24.91288
X-78.59682Y-22.91288
X-78.59682Y-20.91288
X-78.59682Y-18.91288
X-78.59682Y-16.91287
X-78.59682Y-14.91287
X-78.59682Y-12.91287
X-78.59682Y-10.91287
X-78.59682Y-8.91287
X-76.59681Y-56.9129
X-76.59681Y-54.9129
X-76.59681Y-52.91289
X-76.59681Y-50.91289
X-76.59681Y-48.91289
X-76.59681Y-46.91289
X-76.59681Y-40.91289
X-76.59681Y-38.91289
X-74.59681Y-56.9129
X-74.59681Y-54.9129
X-74.59681Y-52.91289
X-74.59681Y-50.91289
X-74.59681Y-48.91289
X-74.59681Y-46.91289
X-74.59681Y-40.91289
X-74.59681Y-38.91289
X-72.59681Y-56.9129
X-72.59681Y-54.9129
X-72.59681Y-52.91289
X-72.59681Y-50.91289
X-72.59681Y-40.91289
X-72.59681Y-38.91289
X-70.59681Y-56.9129
X-70.59681Y-54.9129
X-70.59681Y-52.91289
X-70.59681Y-40.91289
X-70.59681Y-38.91289
X-70.59681Y-28.91288
X-70.59681Y-26.91288
X-70.59681Y-24.91288
X-70.59681Y-22.91288
X-70.59681Y-20.91288
X-70.59681Y-18.91288
X-70.59681Y-16.91287
X-70.59681Y-14.91287
X-70.59681Y-12.91287
X-70.59681Y-10.91287
X-70.59681Y-8.91287
X-70.59681Y-6.91287
X-68.59681Y-56.9129
X-68.59681Y-54.9129
X-68.59681Y-52.91289
X-68.59681Y-40.91289
X-68.59681Y-38.91289
X-68.59681Y-28.91288
X-68.59681Y-26.91288
X-68.59681Y-24.91288
X-68.59681Y-22.91288
X-68.59681Y-20.91288
X-68.59681Y-18.91288
X-68.59681Y-16.91287
X-68.59681Y-14.91287
X-68.59681Y-12.91287
X-68.59681Y-10.91287
X-68.59681Y-8.91287
X-68.59681Y-6.91287
X-66.59681Y-56.9129
X-66.59681Y-54.9129
X-66.59681Y-52.91289
X-66.59681Y-40.91289
X-66.59681Y-38.91289
X-66.59681Y-2.91287
X-64.59681Y-40.91289
X-64.59681Y-38.91289
X-62.59681Y-40.91289
X-62.59681Y-38.91289
X-62.59681Y-24.91288
X-62.59681Y-22.91288
X-62.59681Y-20.91288
X-62.59681Y-18.91288
X-62.59681Y-16.91287
X-62.59681Y-14.91287
X-62.59681Y-12.91287
X-62.59681Y-10.91287
X-62.59681Y-8.91287
X-60.59681Y-40.91289
X-60.59681Y-38.91289
X-60.59681Y-24.91288
X-60.59681Y-22.91288
X-60.59681Y-20.91288
X-60.59681Y-18.91288
X-60.59681Y-16.91287
X-60.59681Y-14.91287
X-60.59681Y-12.91287
X-60.59681Y-10.91287
X-60.59681Y-8.91287
X-58.5968Y-40.91289
X-58.5968Y-38.91289
X-58.5968Y-24.91288
X-58.5968Y-22.91288
X-58.5968Y-20.91288
X-58.5968Y-18.91288
X-58.5968Y-16.91287
X-58.5968Y-14.91287
X-58.5968Y-12.91287
X-58.5968Y-10.91287
X-58.5968Y-8.91287
X-56.5968Y-40.91289
X-56.5968Y-38.91289
X-56.5968Y-24.91288
X-56.5968Y-22.91288
X-56.5968Y-20.91288
X-56.5968Y-18.91288
X-56.5968Y-16.91287
X-56.5968Y-14.91287
X-56.5968Y-12.91287
X-56.5968Y-10.91287
X-56.5968Y-8.91287
X-54.5968Y-32.91288
X-54.5968Y-30.91288
X-54.5968Y-24.91288
X-54.5968Y-22.91288
X-54.5968Y-20.91288
X-54.5968Y-18.91288
X-54.5968Y-16.91287
X-54.5968Y-14.91287
X-54.5968Y-12.91287
X-54.5968Y-10.91287
X-54.5968Y-8.91287
X-52.5968Y-32.91288
X-52.5968Y-30.91288
X-52.5968Y-24.91288
X-52.5968Y-22.91288
X-52.5968Y-20.91288
X-52.5968Y-18.91288
X-52.5968Y-16.91287
X-52.5968Y-14.91287
X-52.5968Y-12.91287
X-52.5968Y-10.91287
X-52.5968Y-8.91287
X-50.5968Y-44.91289
X-50.5968Y-42.91289
X-50.5968Y-40.91289
X-50.5968Y-38.91289
X-50.5968Y-36.91289
X-50.5968Y-34.91288
X-50.5968Y-32.91288
X-50.5968Y-30.91288
X-50.5968Y-24.91288
X-50.5968Y-22.91288
X-50.5968Y-20.91288
X-50.5968Y-18.91288
X-50.5968Y-16.91287
X-50.5968Y-14.91287
X-50.5968Y-12.91287
X-50.5968Y-10.91287
X-50.5968Y-8.91287
X-48.5968Y-44.91289
X-48.5968Y-42.91289
X-48.5968Y-40.91289
X-48.5968Y-38.91289
X-48.5968Y-36.91289
X-48.5968Y-34.91288
X-48.5968Y-32.91288
X-48.5968Y-30.91288
X-46.5968Y-44.91289
X-46.5968Y-42.91289
X-46.5968Y-40.91289
X-46.5968Y-38.91289
X-46.5968Y-36.91289
X-46.5968Y-34.91288
X-46.5968Y-32.91288
X-46.5968Y-30.91288
X-46.5968Y-2.91287
X-46.5968Y-0.91287
X-44.5968Y-44.91289
X-44.5968Y-42.91289
X-44.5968Y-40.91289
X-44.5968Y-38.91289
X-44.5968Y-36.91289
X-44.5968Y-34.91288
X-44.5968Y-32.91288
X-44.5968Y-30.91288
X-44.5968Y-28.91288
X-44.5968Y-26.91288
X-44.5968Y-24.91288
X-44.5968Y-22.91288
X-44.5968Y-20.91288
X-44.5968Y-18.91288
X-44.5968Y-16.91287
X-44.5968Y-14.91287
X-44.5968Y-12.91287
X-44.5968Y-10.91287
X-44.5968Y-8.91287
X-44.5968Y-6.91287
X-44.5968Y-4.91287
X-44.5968Y-2.91287
X-44.5968Y-0.91287
X-42.5968Y-44.91289
X-42.5968Y-42.91289
X-42.5968Y-40.91289
X-42.5968Y-38.91289
X-42.5968Y-36.91289
X-42.5968Y-34.91288
X-42.5968Y-32.91288
X-42.5968Y-30.91288
X-42.5968Y-2.91287
X-42.5968Y-0.91287
X-40.59679Y-44.91289
X-40.59679Y-42.91289
X-40.59679Y-40.91289
X-40.59679Y-38.91289
X-40.59679Y-36.91289
X-40.59679Y-34.91288
X-40.59679Y-32.91288
X-40.59679Y-30.91288
X-38.59679Y-44.91289
X-38.59679Y-42.91289
X-38.59679Y-40.91289
X-38.59679Y-38.91289
X-38.59679Y-36.91289
X-38.59679Y-34.91288
X-38.59679Y-32.91288
X-38.59679Y-30.91288
X-38.59679Y-24.91288
X-38.59679Y-22.91288
X-38.59679Y-20.91288
X-38.59679Y-18.91288
X-38.59679Y-16.91287
X-38.59679Y-14.91287
X-38.59679Y-12.91287
X-38.59679Y-10.91287
X-38.59679Y-8.91287
X-36.59679Y-32.91288
X-36.59679Y-30.91288
X-36.59679Y-24.91288
X-36.59679Y-22.91288
X-36.59679Y-20.91288
X-36.59679Y-18.91288
X-36.59679Y-16.91287
X-36.59679Y-14.91287
X-36.59679Y-12.91287
X-36.59679Y-10.91287
X-36.59679Y-8.91287
X-34.59679Y-24.91288
X-34.59679Y-22.91288
X-34.59679Y-20.91288
X-34.59679Y-18.91288
X-34.59679Y-16.91287
X-34.59679Y-14.91287
X-34.59679Y-12.91287
X-34.59679Y-10.91287
X-34.59679Y-8.91287
X-32.59679Y-40.91289
X-32.59679Y-38.91289
X-32.59679Y-24.91288
X-32.59679Y-22.91288
X-32.59679Y-20.91288
X-32.59679Y-18.91288
X-32.59679Y-16.91287
X-32.59679Y-14.91287
X-32.59679Y-12.91287
X-32.59679Y-10.91287
X-32.59679Y-8.91287
X-30.59679Y-40.91289
X-30.59679Y-38.91289
X-30.59679Y-24.91288
X-30.59679Y-22.91288
X-30.59679Y-20.91288
X-30.59679Y-18.91288
X-30.59679Y-16.91287
X-30.59679Y-14.91287
X-30.59679Y-12.91287
X-30.59679Y-10.91287
X-30.59679Y-8.91287
X-28.59679Y-40.91289
X-28.59679Y-38.91289
X-28.59679Y-24.91288
X-28.59679Y-22.91288
X-28.59679Y-20.91288
X-28.59679Y-18.91288
X-28.59679Y-16.91287
X-28.59679Y-14.91287
X-28.59679Y-12.91287
X-28.59679Y-10.91287
X-28.59679Y-8.91287
X-26.59679Y-40.91289
X-26.59679Y-38.91289
X-26.59679Y-24.91288
X-26.59679Y-22.91288
X-26.59679Y-20.91288
X-26.59679Y-18.91288
X-26.59679Y-16.91287
X-26.59679Y-14.91287
X-26.59679Y-12.91287
X-26.59679Y-10.91287
X-26.59679Y-8.91287
X-24.59679Y-40.91289
X-24.59679Y-38.91289
X-22.59679Y-56.9129
X-22.59679Y-54.9129
X-22.59679Y-52.91289
X-22.59679Y-40.91289
X-22.59679Y-38.91289
X-20.59679Y-56.9129
X-20.59679Y-54.9129
X-20.59679Y-52.91289
X-20.59679Y-40.91289
X-20.59679Y-38.91289
X-20.59679Y-28.91288
X-20.59679Y-26.91288
X-20.59679Y-24.91288
X-20.59679Y-22.91288
X-20.59679Y-20.91288
X-20.59679Y-18.91288
X-20.59679Y-16.91287
X-20.59679Y-14.91287
X-20.59679Y-12.91287
X-20.59679Y-10.91287
X-20.59679Y-8.91287
X-20.59679Y-6.91287
X-18.59679Y-56.9129
X-18.59679Y-54.9129
X-18.59679Y-52.91289
X-18.59679Y-40.91289
X-18.59679Y-38.91289
X-18.59679Y-28.91288
X-18.59679Y-26.91288
X-18.59679Y-24.91288
X-18.59679Y-22.91288
X-18.59679Y-20.91288
X-18.59679Y-18.91288
X-18.59679Y-16.91287
X-18.59679Y-14.91287
X-18.59679Y-12.91287
X-18.59679Y-10.91287
X-18.59679Y-8.91287
X-18.59679Y-6.91287
X-16.59678Y-48.91289
X-16.59678Y-46.91289
X-16.59678Y-40.91289
X-16.59678Y-38.91289
X-16.59678Y-2.91287
X-14.59678Y-48.91289
X-14.59678Y-46.91289
X-14.59678Y-40.91289
X-14.59678Y-38.91289
X-12.59678Y-48.91289
X-12.59678Y-46.91289
X-12.59678Y-40.91289
X-12.59678Y-38.91289
X-12.59678Y-24.91288
X-12.59678Y-22.91288
X-12.59678Y-20.91288
X-12.59678Y-18.91288
X-12.59678Y-16.91287
X-12.59678Y-14.91287
X-12.59678Y-12.91287
X-12.59678Y-10.91287
X-12.59678Y-8.91287
X-10.59678Y-48.91289
X-10.59678Y-46.91289
X-10.59678Y-40.91289
X-10.59678Y-38.91289
X-10.59678Y-24.91288
X-10.59678Y-22.91288
X-10.59678Y-20.91288
X-10.59678Y-18.91288
X-10.59678Y-16.91287
X-10.59678Y-14.91287
X-10.59678Y-12.91287
X-10.59678Y-10.91287
X-10.59678Y-8.91287
X-8.59678Y-52.91289
X-8.59678Y-50.91289
X-8.59678Y-48.91289
X-8.59678Y-46.91289
X-8.59678Y-40.91289
X-8.59678Y-38.91289
X-8.59678Y-24.91288
X-8.59678Y-22.91288
X-8.59678Y-20.91288
X-8.59678Y-18.91288
X-8.59678Y-16.91287
X-8.59678Y-14.91287
X-8.59678Y-12.91287
X-8.59678Y-10.91287
X-8.59678Y-8.91287
X-6.59678Y-50.91289
X-6.59678Y-48.91289
X-6.59678Y-46.91289
X-6.59678Y-40.91289
X-6.59678Y-38.91289
X-6.59678Y-24.91288
X-6.59678Y-22.91288
X-6.59678Y-20.91288
X-6.59678Y-18.91288
X-6.59678Y-16.91287
X-6.59678Y-14.91287
X-6.59678Y-12.91287
X-6.59678Y-10.91287
X-6.59678Y-8.91287
X-4.59678Y-50.91289
X-4.59678Y-48.91289
X-4.59678Y-46.91289
X-4.59678Y-40.91289
X-4.59678Y-38.91289
X-4.59678Y-24.91288
X-4.59678Y-22.91288
X-4.59678Y-20.91288
X-4.59678Y-18.91288
X-4.59678Y-16.91287
X-4.59678Y-14.91287
X-4.59678Y-12.91287
X-4.59678Y-10.91287
X-4.59678Y-8.91287
X-2.59678Y-52.91289
X-2.59678Y-50.91289
X-2.59678Y-48.91289
X-2.59678Y-46.91289
X-2.59678Y-24.91288
X-2.59678Y-22.91288
X-2.59678Y-20.91288
X-2.59678Y-18.91288
X-2.59678Y-16.91287
X-2.59678Y-14.91287
X-2.59678Y-12.91287
X-2.59678Y-10.91287
X-2.59678Y-8.91287
X-0.59678Y-54.9129
X-0.59678Y-52.91289
X-0.59678Y-50.91289
X-0.59678Y-48.91289
X-0.59678Y-46.91289
X-0.59678Y-24.91288
X-0.59678Y-22.91288
X-0.59678Y-20.91288
X-0.59678Y-18.91288
X-0.59678Y-16.91287
X-0.59678Y-14.91287
X-0.59678Y-12.91287
X-0.59678Y-10.91287
X-0.59678Y-8.91287
X1.40323Y-56.9129
X1.40323Y-54.9129
X1.40323Y-52.91289
X1.40323Y-50.91289
X1.40323Y-48.91289
X1.40323Y-46.91289
X1.40323Y-44.91289
X1.40323Y-42.91289
X1.40323Y-40.91289
X1.40323Y-38.91289
X3.40323Y-56.9129
X3.40323Y-54.9129
X3.40323Y-52.91289
X3.40323Y-50.91289
X3.40323Y-48.91289
X3.40323Y-46.91289
X3.40323Y-44.91289
X3.40323Y-42.91289
X3.40323Y-40.91289
X3.40323Y-38.91289
X3.40323Y-36.91289
X3.40323Y-2.91287
X3.40323Y-0.91287
X-88.43131Y-0.381
X-90.90732Y-0.381
X-75.37953Y-0.381
X-77.85554Y-0.381
X-62.32716Y-0.381
X-64.80316Y-0.381
X-49.27538Y-0.381
X-51.75138Y-0.381
X-37.91793Y-0.381
X-40.39393Y-0.381
X-24.86615Y-0.381
X-27.34216Y-0.381
X-11.81378Y-0.381
X-14.28978Y-0.381
X1.238Y-0.381
X-1.238Y-0.381
X-46.07266Y-57.98853
X-43.59666Y-57.98853
M30