G04 Layer: TopLayer*
G04 EasyEDA Pro v2.2.32.3, 2024-11-23 22:11:16*
G04 Gerber Generator version 0.3*
G04 Scale: 100 percent, Rotated: No, Reflected: No*
G04 Dimensions in millimeters*
G04 Leading zeros omitted, absolute positions, 3 integers and 5 decimals*
%FSLAX35Y35*%
%MOMM*%
%ADD10O,8.0X4.4*%
%ADD11R,0.635X1.1176*%
%ADD12R,0.635X1.1176*%
%ADD13R,1.1176X0.635*%
%ADD14C,0.61*%
%ADD15C,0.4388*%
%ADD16C,0.43*%
G75*


G04 Image Start*
G36*
G01X9851378Y641999D02*
G01X9850776Y641999D01*
G01X9785732Y604378D01*
G01X9720687Y566758D01*
G01X9679762Y543156D01*
G01X9638837Y519554D01*
G01X9638837Y371384D01*
G01X9638837Y223215D01*
G01X9444737Y111152D01*
G01X9250637Y-912D01*
G01X9250651Y-1331D01*
G01X9250666Y-1750D01*
G01X9409840Y-93602D01*
G01X9569015Y-185453D01*
G01X9603894Y-205514D01*
G01X9638773Y-225576D01*
G01X9638972Y-374507D01*
G01X9639171Y-523439D01*
G01X9677925Y-545798D01*
G01X9716678Y-568156D01*
G01X9783636Y-606828D01*
G01X9850595Y-645499D01*
G01X9851287Y-645499D01*
G01X9851980Y-645499D01*
G01X9851980Y-1750D01*
G01X9851980Y641999D01*
G01X9851378Y641999D01*
G37*
G36*
G01X9514896Y447571D02*
G01X9514560Y447571D01*
G01X9127194Y224020D01*
G01X8739829Y468D01*
G01X8738011Y-663D01*
G01X8736193Y-1794D01*
G01X8828547Y-55186D01*
G01X8920900Y-108578D01*
G01X9006424Y-157981D01*
G01X9091949Y-207384D01*
G01X9302085Y-328627D01*
G01X9512221Y-449871D01*
G01X9513725Y-450821D01*
G01X9515228Y-451770D01*
G01X9515228Y-357654D01*
G01X9515228Y-263538D01*
G01X9287552Y-133079D01*
G01X9059877Y-2621D01*
G01X9059349Y-2125D01*
G01X9058820Y-1629D01*
G01X9286857Y129006D01*
G01X9514894Y259640D01*
G01X9515063Y353606D01*
G01X9515232Y447571D01*
G01X9514896Y447571D01*
G37*
G36*
G01X8158149Y-501152D02*
G01X8158149Y-471305D01*
G01X8129473Y-471305D01*
G01X8100798Y-471305D01*
G01X8100798Y-457259D01*
G01X8100798Y-443213D01*
G01X8072123Y-443213D01*
G01X8043447Y-443213D01*
G01X8043447Y-429753D01*
G01X8043447Y-416292D01*
G01X8072123Y-416292D01*
G01X8100798Y-416292D01*
G01X8100798Y-402247D01*
G01X8100798Y-388201D01*
G01X8113673Y-388201D01*
G01X8126547Y-388201D01*
G01X8126547Y-402247D01*
G01X8126547Y-416292D01*
G01X8141167Y-416292D01*
G01X8155787Y-416292D01*
G01X8155944Y-430777D01*
G01X8156100Y-445262D01*
G01X8198675Y-445412D01*
G01X8241249Y-445562D01*
G01X8241249Y-459604D01*
G01X8241249Y-473646D01*
G01X8256464Y-473646D01*
G01X8271680Y-473646D01*
G01X8271680Y-443799D01*
G01X8271680Y-413951D01*
G01X8257634Y-413951D01*
G01X8243589Y-413951D01*
G01X8243589Y-401076D01*
G01X8243589Y-388201D01*
G01X8271094Y-388201D01*
G01X8298599Y-388201D01*
G01X8298599Y-402247D01*
G01X8298599Y-416292D01*
G01X8313815Y-416292D01*
G01X8329030Y-416292D01*
G01X8329030Y-402247D01*
G01X8329030Y-388201D01*
G01X8343075Y-388201D01*
G01X8357120Y-388201D01*
G01X8357120Y-373570D01*
G01X8357120Y-358939D01*
G01X8371751Y-358939D01*
G01X8386381Y-358939D01*
G01X8386381Y-343723D01*
G01X8386381Y-328507D01*
G01X8371751Y-328507D01*
G01X8357120Y-328507D01*
G01X8357120Y-314461D01*
G01X8357120Y-300415D01*
G01X8343075Y-300415D01*
G01X8329030Y-300415D01*
G01X8329030Y-272909D01*
G01X8329030Y-245403D01*
G01X8343075Y-245403D01*
G01X8357120Y-245403D01*
G01X8357120Y-230772D01*
G01X8357120Y-216141D01*
G01X8370580Y-216141D01*
G01X8384040Y-216141D01*
G01X8384040Y-230772D01*
G01X8384040Y-245403D01*
G01X8398085Y-245403D01*
G01X8412130Y-245403D01*
G01X8412130Y-259449D01*
G01X8412130Y-273494D01*
G01X8440805Y-273494D01*
G01X8469481Y-273494D01*
G01X8469481Y-288125D01*
G01X8469481Y-302756D01*
G01X8484696Y-302756D01*
G01X8499912Y-302756D01*
G01X8499912Y-288125D01*
G01X8499912Y-273494D01*
G01X8527417Y-273494D01*
G01X8554921Y-273494D01*
G01X8554921Y-288125D01*
G01X8554921Y-302756D01*
G01X8584767Y-302756D01*
G01X8614613Y-302756D01*
G01X8614613Y-286955D01*
G01X8614613Y-271153D01*
G01X8585938Y-271153D01*
G01X8557262Y-271153D01*
G01X8557262Y-257108D01*
G01X8557262Y-243062D01*
G01X8528587Y-243062D01*
G01X8499912Y-243062D01*
G01X8499912Y-229602D01*
G01X8499912Y-216141D01*
G01X8528587Y-216141D01*
G01X8557262Y-216141D01*
G01X8557262Y-202095D01*
G01X8557262Y-188050D01*
G01X8570722Y-188050D01*
G01X8584182Y-188050D01*
G01X8584182Y-216726D01*
G01X8584182Y-245403D01*
G01X8599397Y-245403D01*
G01X8614613Y-245403D01*
G01X8614613Y-230772D01*
G01X8614613Y-216141D01*
G01X8627488Y-216141D01*
G01X8640362Y-216141D01*
G01X8640362Y-230772D01*
G01X8640362Y-245403D01*
G01X8656172Y-245403D01*
G01X8671983Y-245403D01*
G01X8671827Y-229748D01*
G01X8671671Y-214093D01*
G01X8657187Y-213936D01*
G01X8642703Y-213780D01*
G01X8642703Y-199744D01*
G01X8642703Y-185709D01*
G01X8614613Y-185709D01*
G01X8586523Y-185709D01*
G01X8586523Y-172833D01*
G01X8586523Y-159958D01*
G01X8629243Y-159958D01*
G01X8671964Y-159958D01*
G01X8671964Y-116182D01*
G01X8671964Y-116182D01*
G01X8671261Y-71704D01*
G01X8671261Y-71704D01*
G01X8641064Y-71704D01*
G01X8641064Y-71704D01*
G01X8640362Y-100381D01*
G01X8640362Y-128355D01*
G01X8613442Y-128355D01*
G01X8586523Y-128355D01*
G01X8586523Y-115480D01*
G01X8586523Y-102605D01*
G01X8600568Y-102605D01*
G01X8614613Y-102605D01*
G01X8614613Y-72758D01*
G01X8614613Y-42911D01*
G01X8600568Y-42911D01*
G01X8586523Y-42911D01*
G01X8586523Y-30035D01*
G01X8586523Y-17160D01*
G01X8600568Y-17160D01*
G01X8614613Y-17160D01*
G01X8614613Y-2529D01*
G01X8614613Y12102D01*
G01X8627488Y12102D01*
G01X8640362Y12102D01*
G01X8640362Y-2529D01*
G01X8640362Y-17160D01*
G01X8656163Y-17160D01*
G01X8671964Y-17160D01*
G01X8671964Y-1359D01*
G01X8671964Y14443D01*
G01X8657333Y14443D01*
G01X8642703Y14443D01*
G01X8642703Y27318D01*
G01X8642703Y40193D01*
G01X8657333Y40193D01*
G01X8671964Y40193D01*
G01X8671964Y70040D01*
G01X8671964Y99887D01*
G01X8657333Y99887D01*
G01X8642703Y99887D01*
G01X8642703Y112763D01*
G01X8642703Y125638D01*
G01X8657333Y125638D01*
G01X8671964Y125638D01*
G01X8671964Y141439D01*
G01X8671964Y157241D01*
G01X8657333Y157241D01*
G01X8642703Y157241D01*
G01X8642703Y171286D01*
G01X8642703Y185332D01*
G01X8627488Y185332D01*
G01X8612272Y185332D01*
G01X8612272Y171286D01*
G01X8612272Y157241D01*
G01X8599408Y157241D01*
G01X8586544Y157241D01*
G01X8586387Y171140D01*
G01X8586230Y185039D01*
G01X8571746Y185196D01*
G01X8557262Y185352D01*
G01X8557262Y199388D01*
G01X8557262Y213423D01*
G01X8543217Y213423D01*
G01X8529172Y213423D01*
G01X8529172Y228054D01*
G01X8529172Y242685D01*
G01X8500497Y242685D01*
G01X8471822Y242685D01*
G01X8471822Y255561D01*
G01X8471822Y268436D01*
G01X8485867Y268436D01*
G01X8499912Y268436D01*
G01X8499912Y284237D01*
G01X8499912Y300039D01*
G01X8484696Y300039D01*
G01X8469481Y300039D01*
G01X8469481Y285408D01*
G01X8469481Y270777D01*
G01X8455436Y270777D01*
G01X8441391Y270777D01*
G01X8441391Y228054D01*
G01X8441391Y185332D01*
G01X8427931Y185332D01*
G01X8414471Y185332D01*
G01X8414471Y228054D01*
G01X8414471Y270777D01*
G01X8400426Y270777D01*
G01X8386381Y270777D01*
G01X8386381Y298283D01*
G01X8386381Y325789D01*
G01X8399255Y325789D01*
G01X8412130Y325789D01*
G01X8412130Y311743D01*
G01X8412130Y297698D01*
G01X8427931Y297698D01*
G01X8443731Y297698D01*
G01X8443731Y326960D01*
G01X8443731Y356221D01*
G01X8429101Y356221D01*
G01X8414471Y356221D01*
G01X8414471Y383728D01*
G01X8414471Y411234D01*
G01X8429101Y411234D01*
G01X8443731Y411234D01*
G01X8443731Y441081D01*
G01X8443731Y470928D01*
G01X8427931Y470928D01*
G01X8412130Y470928D01*
G01X8412130Y456882D01*
G01X8412130Y442837D01*
G01X8399255Y442837D01*
G01X8386381Y442837D01*
G01X8386381Y469758D01*
G01X8386381Y496678D01*
G01X8400426Y496678D01*
G01X8414471Y496678D01*
G01X8414471Y512480D01*
G01X8414471Y528281D01*
G01X8399255Y528281D01*
G01X8384040Y528281D01*
G01X8384040Y513650D01*
G01X8384040Y499019D01*
G01X8370580Y499019D01*
G01X8357120Y499019D01*
G01X8357120Y513650D01*
G01X8357120Y528281D01*
G01X8327860Y528281D01*
G01X8298599Y528281D01*
G01X8298599Y513650D01*
G01X8298599Y499019D01*
G01X8271094Y499019D01*
G01X8243589Y499019D01*
G01X8243589Y513650D01*
G01X8243589Y528281D01*
G01X8199699Y528281D01*
G01X8155808Y528281D01*
G01X8155808Y498434D01*
G01X8155808Y468587D01*
G01X8171023Y468587D01*
G01X8186239Y468587D01*
G01X8186239Y482633D01*
G01X8186239Y496678D01*
G01X8199113Y496678D01*
G01X8211988Y496678D01*
G01X8211988Y483335D01*
G01X8211988Y483335D01*
G01X8212690Y469289D01*
G01X8212690Y469289D01*
G01X8255996Y468587D01*
G01X8298599Y468587D01*
G01X8298599Y455722D01*
G01X8298599Y442857D01*
G01X8284115Y442701D01*
G01X8269631Y442544D01*
G01X8269475Y428059D01*
G01X8269318Y413575D01*
G01X8256464Y413575D01*
G01X8243610Y413575D01*
G01X8243453Y428059D01*
G01X8243297Y442544D01*
G01X8228446Y442700D01*
G01X8228446Y442700D01*
G01X8213291Y441647D01*
G01X8211988Y427549D01*
G01X8211988Y413575D01*
G01X8185079Y413575D01*
G01X8158169Y413575D01*
G01X8158013Y428059D01*
G01X8157856Y442544D01*
G01X8143372Y442701D01*
G01X8128888Y442857D01*
G01X8128888Y456893D01*
G01X8128888Y470928D01*
G01X8114843Y470928D01*
G01X8100798Y470928D01*
G01X8100798Y483803D01*
G01X8100798Y496678D01*
G01X8114843Y496678D01*
G01X8128888Y496678D01*
G01X8128888Y512480D01*
G01X8128888Y528281D01*
G01X8113673Y528281D01*
G01X8098457Y528281D01*
G01X8098457Y513650D01*
G01X8098457Y499019D01*
G01X8070952Y499019D01*
G01X8043447Y499019D01*
G01X8043447Y513650D01*
G01X8043447Y528281D01*
G01X8013602Y528281D01*
G01X7983756Y528281D01*
G01X7983756Y513650D01*
G01X7983756Y499019D01*
G01X7956847Y499019D01*
G01X7929937Y499019D01*
G01X7929781Y513504D01*
G01X7929624Y527989D01*
G01X7913970Y528145D01*
G01X7898315Y528300D01*
G01X7898315Y512489D01*
G01X7898315Y496678D01*
G01X7912946Y496678D01*
G01X7927576Y496678D01*
G01X7927576Y483803D01*
G01X7927576Y470928D01*
G01X7898900Y470928D01*
G01X7870225Y470928D01*
G01X7870225Y442251D01*
G01X7870225Y413575D01*
G01X7842720Y413575D01*
G01X7815215Y413575D01*
G01X7815215Y442251D01*
G01X7815215Y470928D01*
G01X7801170Y470928D01*
G01X7787125Y470928D01*
G01X7787125Y499605D01*
G01X7787125Y528281D01*
G01X7771325Y528281D01*
G01X7755524Y528281D01*
G01X7755524Y499605D01*
G01X7755524Y470928D01*
G01X7742649Y470928D01*
G01X7729775Y470928D01*
G01X7729775Y499605D01*
G01X7729775Y528281D01*
G01X7671254Y528281D01*
G01X7612733Y528281D01*
G01X7612733Y512480D01*
G01X7612733Y496678D01*
G01X7641408Y496678D01*
G01X7670083Y496678D01*
G01X7670083Y483803D01*
G01X7670083Y470928D01*
G01X7656038Y470928D01*
G01X7641993Y470928D01*
G01X7641993Y455712D01*
G01X7641993Y440496D01*
G01X7657209Y440496D01*
G01X7672424Y440496D01*
G01X7672424Y454541D01*
G01X7672424Y468587D01*
G01X7685288Y468587D01*
G01X7698152Y468587D01*
G01X7698309Y454688D01*
G01X7698466Y440788D01*
G01X7712950Y440632D01*
G01X7727434Y440475D01*
G01X7727434Y427035D01*
G01X7727434Y413595D01*
G01X7712950Y413439D01*
G01X7698466Y413282D01*
G01X7698316Y370706D01*
G01X7698166Y328130D01*
G01X7685295Y328130D01*
G01X7672424Y328130D01*
G01X7672424Y342176D01*
G01X7672424Y356221D01*
G01X7642578Y356221D01*
G01X7612733Y356221D01*
G01X7612733Y312329D01*
G01X7612733Y268436D01*
G01X7627363Y268436D01*
G01X7641993Y268436D01*
G01X7641993Y240930D01*
G01X7641993Y213423D01*
G01X7627363Y213423D01*
G01X7612733Y213423D01*
G01X7612733Y198207D01*
G01X7612733Y182991D01*
G01X7627363Y182991D01*
G01X7641993Y182991D01*
G01X7641993Y112763D01*
G01X7641993Y42534D01*
G01X7627363Y42534D01*
G01X7612733Y42534D01*
G01X7612733Y-1359D01*
G01X7612733Y-45252D01*
G01X7628533Y-45252D01*
G01X7644334Y-45252D01*
G01X7644334Y-31206D01*
G01X7644334Y-17160D01*
G01X7658379Y-17160D01*
G01X7672424Y-17160D01*
G01X7672424Y25562D01*
G01X7672424Y68284D01*
G01X7685295Y68284D01*
G01X7698166Y68284D01*
G01X7698316Y25708D01*
G01X7698466Y-16868D01*
G01X7726995Y-17019D01*
G01X7755524Y-17171D01*
G01X7755524Y-31211D01*
G01X7755524Y-45252D01*
G01X7785370Y-45252D01*
G01X7815215Y-45252D01*
G01X7815215Y-31206D01*
G01X7815215Y-17160D01*
G01X7842720Y-17160D01*
G01X7870225Y-17160D01*
G01X7870225Y-44081D01*
G01X7870225Y-71002D01*
G01X7856297Y-71002D01*
G01X7856297Y-71002D01*
G01X7842194Y-72231D01*
G01X7840965Y-86335D01*
G01X7840965Y-100264D01*
G01X7784199Y-100264D01*
G01X7727434Y-100264D01*
G01X7727434Y-171663D01*
G01X7727434Y-243062D01*
G01X7698758Y-243062D01*
G01X7670083Y-243062D01*
G01X7670083Y-258278D01*
G01X7670083Y-273494D01*
G01X7698758Y-273494D01*
G01X7727434Y-273494D01*
G01X7727434Y-288125D01*
G01X7727434Y-302756D01*
G01X7742649Y-302756D01*
G01X7757865Y-302756D01*
G01X7757865Y-286955D01*
G01X7757865Y-271153D01*
G01X7743820Y-271153D01*
G01X7729775Y-271153D01*
G01X7729775Y-258278D01*
G01X7729775Y-245403D01*
G01X7758459Y-245403D01*
G01X7787144Y-245403D01*
G01X7786988Y-229748D01*
G01X7786833Y-214093D01*
G01X7772349Y-213936D01*
G01X7757865Y-213780D01*
G01X7757865Y-200915D01*
G01X7757865Y-188050D01*
G01X7799415Y-188050D01*
G01X7840965Y-188050D01*
G01X7840965Y-200914D01*
G01X7840965Y-213779D01*
G01X7827066Y-213936D01*
G01X7813167Y-214093D01*
G01X7813015Y-242623D01*
G01X7812863Y-271153D01*
G01X7798824Y-271153D01*
G01X7784784Y-271153D01*
G01X7784784Y-286955D01*
G01X7784784Y-302756D01*
G01X7812875Y-302756D01*
G01X7840965Y-302756D01*
G01X7840965Y-330848D01*
G01X7840965Y-358939D01*
G01X7856765Y-358939D01*
G01X7872566Y-358939D01*
G01X7872566Y-344893D01*
G01X7872566Y-330848D01*
G01X7885441Y-330848D01*
G01X7898315Y-330848D01*
G01X7898315Y-358354D01*
G01X7898315Y-385860D01*
G01X7884270Y-385860D01*
G01X7870225Y-385860D01*
G01X7870225Y-401076D01*
G01X7870225Y-416292D01*
G01X7884260Y-416292D01*
G01X7898295Y-416292D01*
G01X7898451Y-430777D01*
G01X7898608Y-445262D01*
G01X7913092Y-445418D01*
G01X7927576Y-445575D01*
G01X7927576Y-473656D01*
G01X7927576Y-501737D01*
G01X7941621Y-501737D01*
G01X7955666Y-501737D01*
G01X7955666Y-516368D01*
G01X7955666Y-530999D01*
G01X7985512Y-530999D01*
G01X8015357Y-530999D01*
G01X8015357Y-516368D01*
G01X8015357Y-501737D01*
G01X8029402Y-501737D01*
G01X8043447Y-501737D01*
G01X8043447Y-487691D01*
G01X8043447Y-473646D01*
G01X8056907Y-473646D01*
G01X8070367Y-473646D01*
G01X8070367Y-487691D01*
G01X8070367Y-501737D01*
G01X8084412Y-501737D01*
G01X8098457Y-501737D01*
G01X8098457Y-516368D01*
G01X8098457Y-530999D01*
G01X8128303Y-530999D01*
G01X8158149Y-530999D01*
G01X8158149Y-501152D01*
G37*
%LPC*%
G36*
G01X8414471Y-171663D02*
G01X8414471Y-157617D01*
G01X8385796Y-157617D01*
G01X8357120Y-157617D01*
G01X8357120Y-115012D01*
G01X8357120Y-115012D01*
G01X8356418Y-71704D01*
G01X8356418Y-71704D01*
G01X8342373Y-71002D01*
G01X8329030Y-71002D01*
G01X8329030Y-56956D01*
G01X8329030Y-42911D01*
G01X8314985Y-42911D01*
G01X8300940Y-42911D01*
G01X8300940Y-28865D01*
G01X8300940Y-14819D01*
G01X8271094Y-14819D01*
G01X8241249Y-14819D01*
G01X8241249Y-28865D01*
G01X8241249Y-42911D01*
G01X8227789Y-42911D01*
G01X8214329Y-42911D01*
G01X8214329Y-14234D01*
G01X8214329Y14443D01*
G01X8199113Y14443D01*
G01X8183898Y14443D01*
G01X8183898Y-188D01*
G01X8183898Y-14819D01*
G01X8171023Y-14819D01*
G01X8158149Y-14819D01*
G01X8158149Y-188D01*
G01X8158149Y14443D01*
G01X8100798Y14443D01*
G01X8043447Y14443D01*
G01X8043447Y27318D01*
G01X8043447Y40193D01*
G01X8100798Y40193D01*
G01X8158149Y40193D01*
G01X8158149Y54239D01*
G01X8158149Y68284D01*
G01X8171492Y68284D01*
G01X8171492Y68284D01*
G01X8185048Y69523D01*
G01X8186239Y83618D01*
G01X8186239Y97546D01*
G01X8200284Y97546D01*
G01X8214329Y97546D01*
G01X8214329Y184162D01*
G01X8214329Y270777D01*
G01X8200284Y270777D01*
G01X8186239Y270777D01*
G01X8186239Y285408D01*
G01X8186239Y300039D01*
G01X8171023Y300039D01*
G01X8155808Y300039D01*
G01X8155808Y285408D01*
G01X8155808Y270777D01*
G01X8128303Y270777D01*
G01X8100798Y270777D01*
G01X8100798Y284237D01*
G01X8100798Y297698D01*
G01X8114843Y297698D01*
G01X8128888Y297698D01*
G01X8128888Y341590D01*
G01X8128888Y385483D01*
G01X8114843Y385483D01*
G01X8100798Y385483D01*
G01X8100798Y399529D01*
G01X8100798Y413575D01*
G01X8085583Y413575D01*
G01X8070367Y413575D01*
G01X8070367Y399529D01*
G01X8070367Y385483D01*
G01X8056907Y385483D01*
G01X8043447Y385483D01*
G01X8043447Y399529D01*
G01X8043447Y413575D01*
G01X8028232Y413575D01*
G01X8013016Y413575D01*
G01X8013016Y370852D01*
G01X8013016Y328130D01*
G01X7998386Y328130D01*
G01X7983756Y328130D01*
G01X7983756Y299453D01*
G01X7983756Y270777D01*
G01X7970881Y270777D01*
G01X7958007Y270777D01*
G01X7958007Y285408D01*
G01X7958007Y300039D01*
G01X7942791Y300039D01*
G01X7927576Y300039D01*
G01X7927576Y285408D01*
G01X7927576Y270777D01*
G01X7914116Y270777D01*
G01X7900656Y270777D01*
G01X7900656Y285408D01*
G01X7900656Y300039D01*
G01X7886611Y300039D01*
G01X7872566Y300039D01*
G01X7872566Y355636D01*
G01X7872566Y411234D01*
G01X7885441Y411234D01*
G01X7898315Y411234D01*
G01X7898315Y397179D01*
G01X7898315Y383123D01*
G01X7913970Y383279D01*
G01X7929624Y383435D01*
G01X7929624Y398359D01*
G01X7929624Y413282D01*
G01X7915140Y413439D01*
G01X7900656Y413595D01*
G01X7900656Y427035D01*
G01X7900656Y440475D01*
G01X7915140Y440632D01*
G01X7929624Y440788D01*
G01X7929781Y454688D01*
G01X7929938Y468587D01*
G01X7971477Y468587D01*
G01X8013016Y468587D01*
G01X8013016Y454541D01*
G01X8013016Y440496D01*
G01X8028232Y440496D01*
G01X8043447Y440496D01*
G01X8043447Y454541D01*
G01X8043447Y468587D01*
G01X8070952Y468587D01*
G01X8098457Y468587D01*
G01X8098457Y454541D01*
G01X8098457Y440496D01*
G01X8112502Y440496D01*
G01X8126547Y440496D01*
G01X8126547Y425865D01*
G01X8126547Y411234D01*
G01X8141178Y411234D01*
G01X8155808Y411234D01*
G01X8155808Y397188D01*
G01X8155808Y383142D01*
G01X8185068Y383142D01*
G01X8214329Y383142D01*
G01X8214329Y397188D01*
G01X8214329Y411234D01*
G01X8227789Y411234D01*
G01X8241249Y411234D01*
G01X8241249Y397188D01*
G01X8241249Y383142D01*
G01X8255294Y383142D01*
G01X8269339Y383142D01*
G01X8269339Y368511D01*
G01X8269339Y353880D01*
G01X8285139Y353880D01*
G01X8300940Y353880D01*
G01X8300940Y369682D01*
G01X8300940Y385483D01*
G01X8286310Y385483D01*
G01X8271680Y385483D01*
G01X8271680Y398359D01*
G01X8271680Y411234D01*
G01X8299184Y411234D01*
G01X8326689Y411234D01*
G01X8326689Y382557D01*
G01X8326689Y353880D01*
G01X8340734Y353880D01*
G01X8354779Y353880D01*
G01X8354779Y341005D01*
G01X8354779Y328130D01*
G01X8340734Y328130D01*
G01X8326689Y328130D01*
G01X8326689Y299453D01*
G01X8326689Y270777D01*
G01X8313815Y270777D01*
G01X8300940Y270777D01*
G01X8300940Y285408D01*
G01X8300940Y300039D01*
G01X8286310Y300039D01*
G01X8271680Y300039D01*
G01X8271680Y314084D01*
G01X8271680Y328130D01*
G01X8243004Y328130D01*
G01X8214329Y328130D01*
G01X8214329Y342176D01*
G01X8214329Y356221D01*
G01X8199113Y356221D01*
G01X8183898Y356221D01*
G01X8183898Y341005D01*
G01X8183898Y325789D01*
G01X8197943Y325789D01*
G01X8211988Y325789D01*
G01X8211988Y312446D01*
G01X8211988Y312446D01*
G01X8211878Y303063D01*
G01X8214143Y298779D01*
G01X8241366Y297698D01*
G01X8269339Y297698D01*
G01X8269339Y284237D01*
G01X8269339Y270777D01*
G01X8255288Y270777D01*
G01X8241238Y270777D01*
G01X8241390Y241076D01*
G01X8241541Y211375D01*
G01X8256464Y211375D01*
G01X8271387Y211375D01*
G01X8271539Y239905D01*
G01X8271691Y268436D01*
G01X8285145Y268436D01*
G01X8298599Y268436D01*
G01X8298599Y226884D01*
G01X8298599Y185332D01*
G01X8283969Y185332D01*
G01X8269339Y185332D01*
G01X8269339Y170116D01*
G01X8269339Y154900D01*
G01X8283969Y154900D01*
G01X8298599Y154900D01*
G01X8298599Y141439D01*
G01X8298599Y127979D01*
G01X8269924Y127979D01*
G01X8241249Y127979D01*
G01X8241249Y112763D01*
G01X8241249Y97546D01*
G01X8271094Y97546D01*
G01X8300940Y97546D01*
G01X8300940Y111592D01*
G01X8300940Y125638D01*
G01X8314985Y125638D01*
G01X8329030Y125638D01*
G01X8329030Y140269D01*
G01X8329030Y154900D01*
G01X8341895Y154900D01*
G01X8354759Y154900D01*
G01X8354915Y140415D01*
G01X8355072Y125930D01*
G01X8383601Y125779D01*
G01X8412130Y125627D01*
G01X8412130Y112763D01*
G01X8412130Y99898D01*
G01X8383601Y99747D01*
G01X8355072Y99595D01*
G01X8354916Y84743D01*
G01X8354916Y84743D01*
G01X8354677Y74242D01*
G01X8356862Y69465D01*
G01X8384112Y68284D01*
G01X8412130Y68284D01*
G01X8412130Y54239D01*
G01X8412130Y40193D01*
G01X8427931Y40193D01*
G01X8443731Y40193D01*
G01X8443731Y54239D01*
G01X8443731Y68284D01*
G01X8456606Y68284D01*
G01X8469481Y68284D01*
G01X8469481Y54239D01*
G01X8469481Y40193D01*
G01X8483526Y40193D01*
G01X8497571Y40193D01*
G01X8497571Y27318D01*
G01X8497571Y14443D01*
G01X8441976Y14443D01*
G01X8386381Y14443D01*
G01X8386381Y28488D01*
G01X8386381Y42534D01*
G01X8356535Y42534D01*
G01X8326689Y42534D01*
G01X8326689Y27318D01*
G01X8326689Y12102D01*
G01X8355365Y12102D01*
G01X8384040Y12102D01*
G01X8384040Y-16575D01*
G01X8384040Y-45252D01*
G01X8398085Y-45252D01*
G01X8412130Y-45252D01*
G01X8412130Y-58127D01*
G01X8412130Y-71002D01*
G01X8398787Y-71002D01*
G01X8398787Y-71002D01*
G01X8385215Y-72317D01*
G01X8384040Y-87506D01*
G01X8384040Y-102605D01*
G01X8413886Y-102605D01*
G01X8443731Y-102605D01*
G01X8443731Y-73928D01*
G01X8443731Y-45252D01*
G01X8456606Y-45252D01*
G01X8469481Y-45252D01*
G01X8469481Y-59297D01*
G01X8469481Y-73343D01*
G01X8483526Y-73343D01*
G01X8497571Y-73343D01*
G01X8497571Y-86804D01*
G01X8497571Y-100264D01*
G01X8483526Y-100264D01*
G01X8469481Y-100264D01*
G01X8469481Y-115480D01*
G01X8469481Y-130696D01*
G01X8483526Y-130696D01*
G01X8497571Y-130696D01*
G01X8497571Y-144157D01*
G01X8497571Y-157617D01*
G01X8469481Y-157617D01*
G01X8441391Y-157617D01*
G01X8441391Y-171663D01*
G01X8441391Y-185709D01*
G01X8427931Y-185709D01*
G01X8414471Y-185709D01*
G01X8414471Y-171663D01*
G37*
%LPD*%
G36*
G01X8300940Y41364D02*
G01X8300940Y70625D01*
G01X8271094Y70625D01*
G01X8241249Y70625D01*
G01X8241249Y55409D01*
G01X8241249Y40193D01*
G01X8255294Y40193D01*
G01X8269339Y40193D01*
G01X8269339Y26147D01*
G01X8269339Y12102D01*
G01X8285139Y12102D01*
G01X8300940Y12102D01*
G01X8300940Y41364D01*
G37*
G36*
G01X7929653Y326532D02*
G01X7929653Y326532D01*
G01X7929781Y341602D01*
G01X7929624Y355929D01*
G01X7913970Y356085D01*
G01X7898315Y356241D01*
G01X7898315Y341015D01*
G01X7898315Y325789D01*
G01X7913842Y325789D01*
G01X7913842Y325789D01*
G01X7929653Y326532D01*
G37*
%LPC*%
G36*
G01X7929917Y98132D02*
G01X7929917Y125638D01*
G01X7943962Y125638D01*
G01X7958007Y125638D01*
G01X7958007Y141439D01*
G01X7958007Y157241D01*
G01X7899486Y157241D01*
G01X7840965Y157241D01*
G01X7840965Y142610D01*
G01X7840965Y127979D01*
G01X7812875Y127979D01*
G01X7784784Y127979D01*
G01X7784784Y113933D01*
G01X7784784Y99887D01*
G01X7771325Y99887D01*
G01X7757865Y99887D01*
G01X7757865Y113933D01*
G01X7757865Y127979D01*
G01X7743820Y127979D01*
G01X7729775Y127979D01*
G01X7729775Y141439D01*
G01X7729775Y154900D01*
G01X7743820Y154900D01*
G01X7757865Y154900D01*
G01X7757865Y182981D01*
G01X7757865Y211062D01*
G01X7772349Y211219D01*
G01X7786833Y211375D01*
G01X7786988Y227030D01*
G01X7787144Y242685D01*
G01X7772505Y242685D01*
G01X7757865Y242685D01*
G01X7757865Y255561D01*
G01X7757865Y268436D01*
G01X7785370Y268436D01*
G01X7812875Y268436D01*
G01X7812875Y254390D01*
G01X7812875Y240344D01*
G01X7826920Y240344D01*
G01X7840965Y240344D01*
G01X7840965Y226884D01*
G01X7840965Y213423D01*
G01X7826920Y213423D01*
G01X7812875Y213423D01*
G01X7812875Y199378D01*
G01X7812875Y185332D01*
G01X7798829Y185332D01*
G01X7784784Y185332D01*
G01X7784784Y170116D01*
G01X7784784Y154900D01*
G01X7800000Y154900D01*
G01X7815215Y154900D01*
G01X7815215Y168945D01*
G01X7815215Y182991D01*
G01X7843891Y182991D01*
G01X7872566Y182991D01*
G01X7872566Y197031D01*
G01X7872566Y211071D01*
G01X7901095Y211223D01*
G01X7929624Y211375D01*
G01X7929776Y239905D01*
G01X7929928Y268436D01*
G01X7942791Y268436D01*
G01X7955655Y268436D01*
G01X7955807Y239905D01*
G01X7955958Y211375D01*
G01X7969857Y211218D01*
G01X7983756Y211061D01*
G01X7983756Y197026D01*
G01X7983756Y182991D01*
G01X7999557Y182991D01*
G01X8015357Y182991D01*
G01X8015357Y197037D01*
G01X8015357Y211082D01*
G01X8028232Y211082D01*
G01X8041107Y211082D01*
G01X8041107Y197037D01*
G01X8041107Y182991D01*
G01X8055737Y182991D01*
G01X8070367Y182991D01*
G01X8070367Y155485D01*
G01X8070367Y127979D01*
G01X8055737Y127979D01*
G01X8041107Y127979D01*
G01X8041107Y113933D01*
G01X8041107Y99887D01*
G01X7998386Y99887D01*
G01X7955666Y99887D01*
G01X7955666Y85256D01*
G01X7955666Y70625D01*
G01X7942791Y70625D01*
G01X7929917Y70625D01*
G01X7929917Y98132D01*
G37*
%LPD*%
G36*
G01X8015357Y141439D02*
G01X8015357Y157241D01*
G01X7999557Y157241D01*
G01X7983756Y157241D01*
G01X7983756Y141439D01*
G01X7983756Y125638D01*
G01X7999557Y125638D01*
G01X8015357Y125638D01*
G01X8015357Y141439D01*
G37*
%LPC*%
G36*
G01X8072708Y-229602D02*
G01X8072708Y-216141D01*
G01X8100798Y-216141D01*
G01X8128888Y-216141D01*
G01X8128888Y-200925D01*
G01X8128888Y-185709D01*
G01X8099628Y-185709D01*
G01X8070367Y-185709D01*
G01X8070367Y-199754D01*
G01X8070367Y-213800D01*
G01X8056907Y-213800D01*
G01X8043447Y-213800D01*
G01X8043447Y-199754D01*
G01X8043447Y-185709D01*
G01X8029402Y-185709D01*
G01X8015357Y-185709D01*
G01X8015357Y-172833D01*
G01X8015357Y-159958D01*
G01X8043330Y-159958D01*
G01X8043330Y-159958D01*
G01X8070567Y-158841D01*
G01X8072823Y-154389D01*
G01X8072708Y-144625D01*
G01X8072708Y-130696D01*
G01X8085583Y-130696D01*
G01X8098457Y-130696D01*
G01X8098457Y-145327D01*
G01X8098457Y-159958D01*
G01X8113673Y-159958D01*
G01X8128888Y-159958D01*
G01X8128888Y-145327D01*
G01X8128888Y-130696D01*
G01X8157563Y-130696D01*
G01X8186239Y-130696D01*
G01X8186239Y-116651D01*
G01X8186239Y-102605D01*
G01X8200284Y-102605D01*
G01X8214329Y-102605D01*
G01X8214329Y-87974D01*
G01X8214329Y-73343D01*
G01X8227789Y-73343D01*
G01X8241249Y-73343D01*
G01X8241249Y-87974D01*
G01X8241249Y-102605D01*
G01X8256464Y-102605D01*
G01X8271680Y-102605D01*
G01X8271680Y-87506D01*
G01X8271680Y-87506D01*
G01X8270505Y-72317D01*
G01X8256932Y-71002D01*
G01X8243589Y-71002D01*
G01X8243589Y-58127D01*
G01X8243589Y-45252D01*
G01X8271094Y-45252D01*
G01X8298599Y-45252D01*
G01X8298599Y-59297D01*
G01X8298599Y-73343D01*
G01X8312644Y-73343D01*
G01X8326689Y-73343D01*
G01X8326689Y-86804D01*
G01X8326689Y-100264D01*
G01X8312644Y-100264D01*
G01X8298599Y-100264D01*
G01X8298599Y-114310D01*
G01X8298599Y-128355D01*
G01X8283969Y-128355D01*
G01X8269339Y-128355D01*
G01X8269339Y-142986D01*
G01X8269339Y-157617D01*
G01X8212573Y-157617D01*
G01X8155808Y-157617D01*
G01X8155808Y-172833D01*
G01X8155808Y-188050D01*
G01X8169853Y-188050D01*
G01X8183898Y-188050D01*
G01X8183898Y-200914D01*
G01X8183898Y-213779D01*
G01X8169999Y-213936D01*
G01X8156100Y-214093D01*
G01X8155944Y-228577D01*
G01X8155787Y-243062D01*
G01X8114248Y-243062D01*
G01X8072708Y-243062D01*
G01X8072708Y-229602D01*
G37*
G36*
G01X8557262Y85256D02*
G01X8557262Y99887D01*
G01X8528587Y99887D01*
G01X8499912Y99887D01*
G01X8499912Y113933D01*
G01X8499912Y127979D01*
G01X8484696Y127979D01*
G01X8469481Y127979D01*
G01X8469481Y113933D01*
G01X8469481Y99887D01*
G01X8456606Y99887D01*
G01X8443731Y99887D01*
G01X8443731Y113933D01*
G01X8443731Y127979D01*
G01X8429101Y127979D01*
G01X8414471Y127979D01*
G01X8414471Y141439D01*
G01X8414471Y154900D01*
G01X8429101Y154900D01*
G01X8443731Y154900D01*
G01X8443731Y168945D01*
G01X8443731Y182991D01*
G01X8456606Y182991D01*
G01X8469481Y182991D01*
G01X8469481Y168945D01*
G01X8469481Y154900D01*
G01X8498156Y154900D01*
G01X8526831Y154900D01*
G01X8526831Y140269D01*
G01X8526831Y125638D01*
G01X8569552Y125638D01*
G01X8612272Y125638D01*
G01X8612272Y98132D01*
G01X8612272Y70625D01*
G01X8584767Y70625D01*
G01X8557262Y70625D01*
G01X8557262Y85256D01*
G37*
G36*
G01X8072708Y-57659D02*
G01X8072708Y-57659D01*
G01X8072006Y-43613D01*
G01X8072006Y-43613D01*
G01X8014655Y-42911D01*
G01X7958007Y-42911D01*
G01X7958007Y-30035D01*
G01X7958007Y-17160D01*
G01X7972052Y-17160D01*
G01X7986097Y-17160D01*
G01X7986097Y-2529D01*
G01X7986097Y12102D01*
G01X8013602Y12102D01*
G01X8041107Y12102D01*
G01X8041107Y-2529D01*
G01X8041107Y-17160D01*
G01X8083827Y-17160D01*
G01X8126547Y-17160D01*
G01X8126547Y-30035D01*
G01X8126547Y-42911D01*
G01X8112502Y-42911D01*
G01X8098457Y-42911D01*
G01X8098457Y-56956D01*
G01X8098457Y-71002D01*
G01X8085583Y-71002D01*
G01X8072708Y-71002D01*
G01X8072708Y-57659D01*
G37*
G36*
G01X7929917Y-429753D02*
G01X7929917Y-416292D01*
G01X7943962Y-416292D01*
G01X7958007Y-416292D01*
G01X7958007Y-402247D01*
G01X7958007Y-388201D01*
G01X7972052Y-388201D01*
G01X7986097Y-388201D01*
G01X7986097Y-359524D01*
G01X7986097Y-330848D01*
G01X7999557Y-330848D01*
G01X8013016Y-330848D01*
G01X8013016Y-344893D01*
G01X8013016Y-358939D01*
G01X8027062Y-358939D01*
G01X8041107Y-358939D01*
G01X8041107Y-372400D01*
G01X8041107Y-385860D01*
G01X8027062Y-385860D01*
G01X8013016Y-385860D01*
G01X8013016Y-414537D01*
G01X8013016Y-443213D01*
G01X7971467Y-443213D01*
G01X7929917Y-443213D01*
G01X7929917Y-429753D01*
G37*
G36*
G01X8529172Y-28865D02*
G01X8529172Y-14819D01*
G01X8514542Y-14819D01*
G01X8499912Y-14819D01*
G01X8499912Y-1359D01*
G01X8499912Y12102D01*
G01X8514542Y12102D01*
G01X8529172Y12102D01*
G01X8529172Y27318D01*
G01X8529172Y42534D01*
G01X8514542Y42534D01*
G01X8499912Y42534D01*
G01X8499912Y55409D01*
G01X8499912Y68284D01*
G01X8527417Y68284D01*
G01X8554921Y68284D01*
G01X8554921Y40193D01*
G01X8554921Y12102D01*
G01X8569552Y12102D01*
G01X8584182Y12102D01*
G01X8584182Y-1359D01*
G01X8584182Y-14819D01*
G01X8569552Y-14819D01*
G01X8554921Y-14819D01*
G01X8554921Y-28865D01*
G01X8554921Y-42911D01*
G01X8542047Y-42911D01*
G01X8529172Y-42911D01*
G01X8529172Y-28865D01*
G37*
G36*
G01X7958007Y-157032D02*
G01X7958007Y-128355D01*
G01X7943962Y-128355D01*
G01X7929917Y-128355D01*
G01X7929917Y-100849D01*
G01X7929917Y-73343D01*
G01X7956836Y-73343D01*
G01X7983756Y-73343D01*
G01X7983756Y-87974D01*
G01X7983756Y-102605D01*
G01X7998386Y-102605D01*
G01X8013016Y-102605D01*
G01X8013016Y-130111D01*
G01X8013016Y-157617D01*
G01X7998386Y-157617D01*
G01X7983756Y-157617D01*
G01X7983756Y-171663D01*
G01X7983756Y-185709D01*
G01X7970881Y-185709D01*
G01X7958007Y-185709D01*
G01X7958007Y-157032D01*
G37*
G36*
G01X7757865Y26733D02*
G01X7757865Y68284D01*
G01X7771793Y68284D01*
G01X7771793Y68284D01*
G01X7785896Y69513D01*
G01X7787125Y83618D01*
G01X7787125Y97546D01*
G01X7800000Y97546D01*
G01X7812875Y97546D01*
G01X7812875Y83618D01*
G01X7812875Y83618D01*
G01X7814065Y69523D01*
G01X7827622Y68284D01*
G01X7840965Y68284D01*
G01X7840965Y55409D01*
G01X7840965Y42534D01*
G01X7826920Y42534D01*
G01X7812875Y42534D01*
G01X7812875Y28488D01*
G01X7812875Y14443D01*
G01X7798829Y14443D01*
G01X7784784Y14443D01*
G01X7784784Y-188D01*
G01X7784784Y-14819D01*
G01X7771325Y-14819D01*
G01X7757865Y-14819D01*
G01X7757865Y26733D01*
G37*
G36*
G01X7644334Y198197D02*
G01X7644334Y211061D01*
G01X7658233Y211218D01*
G01X7672131Y211375D01*
G01X7672283Y239905D01*
G01X7672435Y268436D01*
G01X7685294Y268436D01*
G01X7698152Y268436D01*
G01X7698309Y254536D01*
G01X7698466Y240637D01*
G01X7726995Y240485D01*
G01X7755524Y240333D01*
G01X7755524Y226884D01*
G01X7755524Y213435D01*
G01X7726995Y213283D01*
G01X7698466Y213131D01*
G01X7698309Y199231D01*
G01X7698152Y185332D01*
G01X7671243Y185332D01*
G01X7644334Y185332D01*
G01X7644334Y198197D01*
G37*
G36*
G01X7757865Y341590D02*
G01X7757865Y383142D01*
G01X7799415Y383142D01*
G01X7840965Y383142D01*
G01X7840965Y341590D01*
G01X7840965Y300039D01*
G01X7799415Y300039D01*
G01X7757865Y300039D01*
G01X7757865Y341590D01*
G37*
%LPD*%
G36*
G01X7815215Y341005D02*
G01X7815215Y356221D01*
G01X7800000Y356221D01*
G01X7784784Y356221D01*
G01X7784784Y341005D01*
G01X7784784Y325789D01*
G01X7800000Y325789D01*
G01X7815215Y325789D01*
G01X7815215Y341005D01*
G37*
%LPC*%
G36*
G01X7872566Y-142986D02*
G01X7872566Y-128355D01*
G01X7857936Y-128355D01*
G01X7843305Y-128355D01*
G01X7843305Y-115480D01*
G01X7843305Y-102605D01*
G01X7857936Y-102605D01*
G01X7872566Y-102605D01*
G01X7872566Y-87974D01*
G01X7872566Y-73343D01*
G01X7885441Y-73343D01*
G01X7898315Y-73343D01*
G01X7898315Y-115480D01*
G01X7898315Y-157617D01*
G01X7885441Y-157617D01*
G01X7872566Y-157617D01*
G01X7872566Y-142986D01*
G37*
G36*
G01X8100798Y-315046D02*
G01X8100798Y-273494D01*
G01X8128303Y-273494D01*
G01X8155808Y-273494D01*
G01X8155808Y-301001D01*
G01X8155808Y-328507D01*
G01X8141178Y-328507D01*
G01X8126547Y-328507D01*
G01X8126547Y-342552D01*
G01X8126547Y-356598D01*
G01X8113673Y-356598D01*
G01X8100798Y-356598D01*
G01X8100798Y-315046D01*
G37*
G36*
G01X7986097Y-229602D02*
G01X7986097Y-188050D01*
G01X7999557Y-188050D01*
G01X8013016Y-188050D01*
G01X8013016Y-202095D01*
G01X8013016Y-216141D01*
G01X8027062Y-216141D01*
G01X8041107Y-216141D01*
G01X8041107Y-243647D01*
G01X8041107Y-271153D01*
G01X8013602Y-271153D01*
G01X7986097Y-271153D01*
G01X7986097Y-229602D01*
G37*
G36*
G01X7900656Y-257108D02*
G01X7900656Y-243062D01*
G01X7886611Y-243062D01*
G01X7872566Y-243062D01*
G01X7872566Y-215556D01*
G01X7872566Y-188050D01*
G01X7885441Y-188050D01*
G01X7898315Y-188050D01*
G01X7898315Y-202095D01*
G01X7898315Y-216141D01*
G01X7912946Y-216141D01*
G01X7927576Y-216141D01*
G01X7927576Y-243647D01*
G01X7927576Y-271153D01*
G01X7914116Y-271153D01*
G01X7900656Y-271153D01*
G01X7900656Y-257108D01*
G37*
G36*
G01X8414471Y-229602D02*
G01X8414471Y-216141D01*
G01X8429101Y-216141D01*
G01X8443731Y-216141D01*
G01X8443731Y-202095D01*
G01X8443731Y-188050D01*
G01X8470651Y-188050D01*
G01X8497571Y-188050D01*
G01X8497571Y-200914D01*
G01X8497571Y-213779D01*
G01X8483672Y-213936D01*
G01X8469773Y-214093D01*
G01X8469617Y-228577D01*
G01X8469460Y-243062D01*
G01X8441966Y-243062D01*
G01X8414471Y-243062D01*
G01X8414471Y-229602D01*
G37*
G36*
G01X7700514Y85256D02*
G01X7700514Y99887D01*
G01X7686469Y99887D01*
G01X7672424Y99887D01*
G01X7672424Y112763D01*
G01X7672424Y125638D01*
G01X7699929Y125638D01*
G01X7727434Y125638D01*
G01X7727434Y111592D01*
G01X7727434Y97546D01*
G01X7741479Y97546D01*
G01X7755524Y97546D01*
G01X7755524Y84086D01*
G01X7755524Y70625D01*
G01X7728019Y70625D01*
G01X7700514Y70625D01*
G01X7700514Y85256D01*
G37*
G36*
G01X8329030Y226884D02*
G01X8329030Y268436D01*
G01X8356535Y268436D01*
G01X8384040Y268436D01*
G01X8384040Y255571D01*
G01X8384040Y242706D01*
G01X8369556Y242549D01*
G01X8355072Y242393D01*
G01X8355072Y226884D01*
G01X8355072Y211375D01*
G01X8369556Y211219D01*
G01X8384040Y211062D01*
G01X8384040Y198197D01*
G01X8384040Y185332D01*
G01X8356535Y185332D01*
G01X8329030Y185332D01*
G01X8329030Y226884D01*
G37*
G36*
G01X8043447Y312914D02*
G01X8043447Y325789D01*
G01X8057375Y325789D01*
G01X8057375Y325789D01*
G01X8067139Y325674D01*
G01X8071591Y327930D01*
G01X8072708Y355168D01*
G01X8072708Y383142D01*
G01X8085583Y383142D01*
G01X8098457Y383142D01*
G01X8098457Y341590D01*
G01X8098457Y300039D01*
G01X8070952Y300039D01*
G01X8043447Y300039D01*
G01X8043447Y312914D01*
G37*
G36*
G01X8243589Y-257108D02*
G01X8243589Y-243062D01*
G01X8228959Y-243062D01*
G01X8214329Y-243062D01*
G01X8214329Y-229602D01*
G01X8214329Y-216141D01*
G01X8241834Y-216141D01*
G01X8269339Y-216141D01*
G01X8269339Y-243647D01*
G01X8269339Y-271153D01*
G01X8256464Y-271153D01*
G01X8243589Y-271153D01*
G01X8243589Y-257108D01*
G37*
G36*
G01X7843305Y98132D02*
G01X7843305Y125638D01*
G01X7870810Y125638D01*
G01X7898315Y125638D01*
G01X7898315Y98132D01*
G01X7898315Y70625D01*
G01X7870810Y70625D01*
G01X7843305Y70625D01*
G01X7843305Y98132D01*
G37*
G36*
G01X8158149Y142610D02*
G01X8158149Y157241D01*
G01X8143518Y157241D01*
G01X8128888Y157241D01*
G01X8128888Y170116D01*
G01X8128888Y182991D01*
G01X8156393Y182991D01*
G01X8183898Y182991D01*
G01X8183898Y155485D01*
G01X8183898Y127979D01*
G01X8171023Y127979D01*
G01X8158149Y127979D01*
G01X8158149Y142610D01*
G37*
G36*
G01X8329030Y-199754D02*
G01X8329030Y-185709D01*
G01X8314985Y-185709D01*
G01X8300940Y-185709D01*
G01X8300940Y-172833D01*
G01X8300940Y-159958D01*
G01X8327860Y-159958D01*
G01X8354779Y-159958D01*
G01X8354779Y-186879D01*
G01X8354779Y-213800D01*
G01X8341905Y-213800D01*
G01X8329030Y-213800D01*
G01X8329030Y-199754D01*
G37*
G36*
G01X8271680Y-315046D02*
G01X8271680Y-273494D01*
G01X8285139Y-273494D01*
G01X8298599Y-273494D01*
G01X8298599Y-315046D01*
G01X8298599Y-356598D01*
G01X8285139Y-356598D01*
G01X8271680Y-356598D01*
G01X8271680Y-315046D01*
G37*
G36*
G01X8072708Y84086D02*
G01X8072708Y97546D01*
G01X8114258Y97546D01*
G01X8155808Y97546D01*
G01X8155808Y84086D01*
G01X8155808Y70625D01*
G01X8114258Y70625D01*
G01X8072708Y70625D01*
G01X8072708Y84086D01*
G37*
G36*
G01X8043447Y226884D02*
G01X8043447Y240344D01*
G01X8084997Y240344D01*
G01X8126547Y240344D01*
G01X8126547Y226884D01*
G01X8126547Y213423D01*
G01X8084997Y213423D01*
G01X8043447Y213423D01*
G01X8043447Y226884D01*
G37*
G36*
G01X7843305Y-272909D02*
G01X7843305Y-245403D01*
G01X7856765Y-245403D01*
G01X7870225Y-245403D01*
G01X7870225Y-272909D01*
G01X7870225Y-300415D01*
G01X7856765Y-300415D01*
G01X7843305Y-300415D01*
G01X7843305Y-272909D01*
G37*
G36*
G01X8128888Y-72758D02*
G01X8128888Y-45252D01*
G01X8142348Y-45252D01*
G01X8155808Y-45252D01*
G01X8155808Y-72758D01*
G01X8155808Y-100264D01*
G01X8142348Y-100264D01*
G01X8128888Y-100264D01*
G01X8128888Y-72758D01*
G37*
G36*
G01X7986097Y240930D02*
G01X7986097Y268436D01*
G01X7999557Y268436D01*
G01X8013016Y268436D01*
G01X8013016Y240930D01*
G01X8013016Y213423D01*
G01X7999557Y213423D01*
G01X7986097Y213423D01*
G01X7986097Y240930D01*
G37*
G36*
G01X7900656Y-44081D02*
G01X7900656Y-17160D01*
G01X7914116Y-17160D01*
G01X7927576Y-17160D01*
G01X7927576Y-44081D01*
G01X7927576Y-71002D01*
G01X7914116Y-71002D01*
G01X7900656Y-71002D01*
G01X7900656Y-44081D01*
G37*
G36*
G01X8158149Y-358354D02*
G01X8158149Y-330848D01*
G01X8171023Y-330848D01*
G01X8183898Y-330848D01*
G01X8183898Y-358354D01*
G01X8183898Y-385860D01*
G01X8171023Y-385860D01*
G01X8158149Y-385860D01*
G01X8158149Y-358354D01*
G37*
G36*
G01X7929917Y-358354D02*
G01X7929917Y-330848D01*
G01X7942791Y-330848D01*
G01X7955666Y-330848D01*
G01X7955666Y-358354D01*
G01X7955666Y-385860D01*
G01X7942791Y-385860D01*
G01X7929917Y-385860D01*
G01X7929917Y-358354D01*
G37*
G36*
G01X7958007Y-301001D02*
G01X7958007Y-273494D01*
G01X7970881Y-273494D01*
G01X7983756Y-273494D01*
G01X7983756Y-301001D01*
G01X7983756Y-328507D01*
G01X7970881Y-328507D01*
G01X7958007Y-328507D01*
G01X7958007Y-301001D01*
G37*
G36*
G01X7929917Y12687D02*
G01X7929917Y40193D01*
G01X7942791Y40193D01*
G01X7955666Y40193D01*
G01X7955666Y12687D01*
G01X7955666Y-14819D01*
G01X7942791Y-14819D01*
G01X7929917Y-14819D01*
G01X7929917Y12687D01*
G37*
G36*
G01X7958007Y55409D02*
G01X7958007Y68284D01*
G01X7985512Y68284D01*
G01X8013016Y68284D01*
G01X8013016Y55409D01*
G01X8013016Y42534D01*
G01X7985512Y42534D01*
G01X7958007Y42534D01*
G01X7958007Y55409D01*
G37*
G36*
G01X8471822Y198207D02*
G01X8471822Y211082D01*
G01X8499326Y211082D01*
G01X8526831Y211082D01*
G01X8526831Y198207D01*
G01X8526831Y185332D01*
G01X8499326Y185332D01*
G01X8471822Y185332D01*
G01X8471822Y198207D01*
G37*
G36*
G01X8158149Y240930D02*
G01X8158149Y268436D01*
G01X8171023Y268436D01*
G01X8183898Y268436D01*
G01X8183898Y240930D01*
G01X8183898Y213423D01*
G01X8171023Y213423D01*
G01X8158149Y213423D01*
G01X8158149Y240930D01*
G37*
G36*
G01X8158149Y-258278D02*
G01X8158149Y-245403D01*
G01X8185068Y-245403D01*
G01X8211988Y-245403D01*
G01X8211988Y-258278D01*
G01X8211988Y-271153D01*
G01X8185068Y-271153D01*
G01X8158149Y-271153D01*
G01X8158149Y-258278D01*
G37*
G36*
G01X8214329Y-286955D02*
G01X8214329Y-273494D01*
G01X8227789Y-273494D01*
G01X8241249Y-273494D01*
G01X8241249Y-286955D01*
G01X8241249Y-300415D01*
G01X8227789Y-300415D01*
G01X8214329Y-300415D01*
G01X8214329Y-286955D01*
G37*
G36*
G01X8043447Y-286955D02*
G01X8043447Y-273494D01*
G01X8056907Y-273494D01*
G01X8070367Y-273494D01*
G01X8070367Y-286955D01*
G01X8070367Y-300415D01*
G01X8056907Y-300415D01*
G01X8043447Y-300415D01*
G01X8043447Y-286955D01*
G37*
G36*
G01X7757865Y-144157D02*
G01X7757865Y-130696D01*
G01X7771325Y-130696D01*
G01X7784784Y-130696D01*
G01X7784784Y-144157D01*
G01X7784784Y-157617D01*
G01X7771325Y-157617D01*
G01X7757865Y-157617D01*
G01X7757865Y-144157D01*
G37*
G36*
G01X7900656Y-401076D02*
G01X7900656Y-388201D01*
G01X7914116Y-388201D01*
G01X7927576Y-388201D01*
G01X7927576Y-401076D01*
G01X7927576Y-413951D01*
G01X7914116Y-413951D01*
G01X7900656Y-413951D01*
G01X7900656Y-401076D01*
G37*
G36*
G01X8300940Y-372400D02*
G01X8300940Y-358939D01*
G01X8313815Y-358939D01*
G01X8326689Y-358939D01*
G01X8326689Y-372400D01*
G01X8326689Y-385860D01*
G01X8313815Y-385860D01*
G01X8300940Y-385860D01*
G01X8300940Y-372400D01*
G37*
G36*
G01X8214329Y-343723D02*
G01X8214329Y-330848D01*
G01X8227789Y-330848D01*
G01X8241249Y-330848D01*
G01X8241249Y-343723D01*
G01X8241249Y-356598D01*
G01X8227789Y-356598D01*
G01X8214329Y-356598D01*
G01X8214329Y-343723D01*
G37*
G36*
G01X8043447Y-343723D02*
G01X8043447Y-330848D01*
G01X8056907Y-330848D01*
G01X8070367Y-330848D01*
G01X8070367Y-343723D01*
G01X8070367Y-356598D01*
G01X8056907Y-356598D01*
G01X8043447Y-356598D01*
G01X8043447Y-343723D01*
G37*
G36*
G01X8271680Y-200925D02*
G01X8271680Y-188050D01*
G01X8285139Y-188050D01*
G01X8298599Y-188050D01*
G01X8298599Y-200925D01*
G01X8298599Y-213800D01*
G01X8285139Y-213800D01*
G01X8271680Y-213800D01*
G01X8271680Y-200925D01*
G37*
G36*
G01X8499912Y-172833D02*
G01X8499912Y-159958D01*
G01X8513371Y-159958D01*
G01X8526831Y-159958D01*
G01X8526831Y-172833D01*
G01X8526831Y-185709D01*
G01X8513371Y-185709D01*
G01X8499912Y-185709D01*
G01X8499912Y-172833D01*
G37*
G36*
G01X8529172Y-144157D02*
G01X8529172Y-130696D01*
G01X8542047Y-130696D01*
G01X8554921Y-130696D01*
G01X8554921Y-144157D01*
G01X8554921Y-157617D01*
G01X8542047Y-157617D01*
G01X8529172Y-157617D01*
G01X8529172Y-144157D01*
G37*
G36*
G01X7815215Y-144157D02*
G01X7815215Y-130696D01*
G01X7828090Y-130696D01*
G01X7840965Y-130696D01*
G01X7840965Y-144157D01*
G01X7840965Y-157617D01*
G01X7828090Y-157617D01*
G01X7815215Y-157617D01*
G01X7815215Y-144157D01*
G37*
G36*
G01X8499912Y-115480D02*
G01X8499912Y-102605D01*
G01X8513371Y-102605D01*
G01X8526831Y-102605D01*
G01X8526831Y-115480D01*
G01X8526831Y-128355D01*
G01X8513371Y-128355D01*
G01X8499912Y-128355D01*
G01X8499912Y-115480D01*
G37*
G36*
G01X8043447Y-115480D02*
G01X8043447Y-102605D01*
G01X8056907Y-102605D01*
G01X8070367Y-102605D01*
G01X8070367Y-115480D01*
G01X8070367Y-128355D01*
G01X8056907Y-128355D01*
G01X8043447Y-128355D01*
G01X8043447Y-115480D01*
G37*
G36*
G01X8529172Y-86804D02*
G01X8529172Y-73343D01*
G01X8542047Y-73343D01*
G01X8554921Y-73343D01*
G01X8554921Y-86804D01*
G01X8554921Y-100264D01*
G01X8542047Y-100264D01*
G01X8529172Y-100264D01*
G01X8529172Y-86804D01*
G37*
G36*
G01X8015357Y-86804D02*
G01X8015357Y-73343D01*
G01X8028232Y-73343D01*
G01X8041107Y-73343D01*
G01X8041107Y-86804D01*
G01X8041107Y-100264D01*
G01X8028232Y-100264D01*
G01X8015357Y-100264D01*
G01X8015357Y-86804D01*
G37*
G36*
G01X8471822Y84086D02*
G01X8471822Y97546D01*
G01X8484696Y97546D01*
G01X8497571Y97546D01*
G01X8497571Y84086D01*
G01X8497571Y70625D01*
G01X8484696Y70625D01*
G01X8471822Y70625D01*
G01X8471822Y84086D01*
G37*
G36*
G01X8614613Y141439D02*
G01X8614613Y154900D01*
G01X8627488Y154900D01*
G01X8640362Y154900D01*
G01X8640362Y141439D01*
G01X8640362Y127979D01*
G01X8627488Y127979D01*
G01X8614613Y127979D01*
G01X8614613Y141439D01*
G37*
G36*
G01X7700514Y170116D02*
G01X7700514Y182991D01*
G01X7713974Y182991D01*
G01X7727434Y182991D01*
G01X7727434Y170116D01*
G01X7727434Y157241D01*
G01X7713974Y157241D01*
G01X7700514Y157241D01*
G01X7700514Y170116D01*
G37*
G36*
G01X8357120Y398359D02*
G01X8357120Y411234D01*
G01X8370580Y411234D01*
G01X8384040Y411234D01*
G01X8384040Y398359D01*
G01X8384040Y385483D01*
G01X8370580Y385483D01*
G01X8357120Y385483D01*
G01X8357120Y398359D01*
G37*
G36*
G01X7958007Y-486521D02*
G01X7958007Y-473646D01*
G01X7970881Y-473646D01*
G01X7983756Y-473646D01*
G01X7983756Y-486521D01*
G01X7983756Y-499396D01*
G01X7970881Y-499396D01*
G01X7958007Y-499396D01*
G01X7958007Y-486521D01*
G37*
G36*
G01X8186239Y-401076D02*
G01X8186239Y-388201D01*
G01X8199113Y-388201D01*
G01X8211988Y-388201D01*
G01X8211988Y-401076D01*
G01X8211988Y-413951D01*
G01X8199113Y-413951D01*
G01X8186239Y-413951D01*
G01X8186239Y-401076D01*
G37*
G36*
G01X8329030Y-343723D02*
G01X8329030Y-330848D01*
G01X8341905Y-330848D01*
G01X8354779Y-330848D01*
G01X8354779Y-343723D01*
G01X8354779Y-356598D01*
G01X8341905Y-356598D01*
G01X8329030Y-356598D01*
G01X8329030Y-343723D01*
G37*
G36*
G01X8186239Y-315631D02*
G01X8186239Y-302756D01*
G01X8199113Y-302756D01*
G01X8211988Y-302756D01*
G01X8211988Y-315631D01*
G01X8211988Y-328507D01*
G01X8199113Y-328507D01*
G01X8186239Y-328507D01*
G01X8186239Y-315631D01*
G37*
G36*
G01X8015357Y-315631D02*
G01X8015357Y-302756D01*
G01X8028232Y-302756D01*
G01X8041107Y-302756D01*
G01X8041107Y-315631D01*
G01X8041107Y-328507D01*
G01X8028232Y-328507D01*
G01X8015357Y-328507D01*
G01X8015357Y-315631D01*
G37*
G36*
G01X8471822Y-258278D02*
G01X8471822Y-245403D01*
G01X8484696Y-245403D01*
G01X8497571Y-245403D01*
G01X8497571Y-258278D01*
G01X8497571Y-271153D01*
G01X8484696Y-271153D01*
G01X8471822Y-271153D01*
G01X8471822Y-258278D01*
G37*
G36*
G01X8386381Y-200925D02*
G01X8386381Y-188050D01*
G01X8399255Y-188050D01*
G01X8412130Y-188050D01*
G01X8412130Y-200925D01*
G01X8412130Y-213800D01*
G01X8399255Y-213800D01*
G01X8386381Y-213800D01*
G01X8386381Y-200925D01*
G37*
G36*
G01X8100798Y-115480D02*
G01X8100798Y-102605D01*
G01X8113673Y-102605D01*
G01X8126547Y-102605D01*
G01X8126547Y-115480D01*
G01X8126547Y-128355D01*
G01X8113673Y-128355D01*
G01X8100798Y-128355D01*
G01X8100798Y-115480D01*
G37*
G36*
G01X8186239Y-58127D02*
G01X8186239Y-45252D01*
G01X8199113Y-45252D01*
G01X8211988Y-45252D01*
G01X8211988Y-58127D01*
G01X8211988Y-71002D01*
G01X8199113Y-71002D01*
G01X8186239Y-71002D01*
G01X8186239Y-58127D01*
G37*
G36*
G01X8471822Y-30035D02*
G01X8471822Y-17160D01*
G01X8484696Y-17160D01*
G01X8497571Y-17160D01*
G01X8497571Y-30035D01*
G01X8497571Y-42911D01*
G01X8484696Y-42911D01*
G01X8471822Y-42911D01*
G01X8471822Y-30035D01*
G37*
G36*
G01X8614613Y55409D02*
G01X8614613Y68284D01*
G01X8627488Y68284D01*
G01X8640362Y68284D01*
G01X8640362Y55409D01*
G01X8640362Y42534D01*
G01X8627488Y42534D01*
G01X8614613Y42534D01*
G01X8614613Y55409D01*
G37*
G36*
G01X8386381Y170116D02*
G01X8386381Y182991D01*
G01X8399255Y182991D01*
G01X8412130Y182991D01*
G01X8412130Y170116D01*
G01X8412130Y157241D01*
G01X8399255Y157241D01*
G01X8386381Y157241D01*
G01X8386381Y170116D01*
G37*
G36*
G01X7872566Y255561D02*
G01X7872566Y268436D01*
G01X7885441Y268436D01*
G01X7898315Y268436D01*
G01X7898315Y255561D01*
G01X7898315Y242685D01*
G01X7885441Y242685D01*
G01X7872566Y242685D01*
G01X7872566Y255561D01*
G37*
G36*
G01X8329030Y483803D02*
G01X8329030Y496678D01*
G01X8341905Y496678D01*
G01X8354779Y496678D01*
G01X8354779Y483803D01*
G01X8354779Y470928D01*
G01X8341905Y470928D01*
G01X8329030Y470928D01*
G01X8329030Y483803D01*
G37*
%LPD*%
G36*
G01X8671964Y-429753D02*
G01X8671964Y-328507D01*
G01X8570722Y-328507D01*
G01X8469481Y-328507D01*
G01X8469481Y-429753D01*
G01X8469481Y-530999D01*
G01X8570722Y-530999D01*
G01X8671964Y-530999D01*
G01X8671964Y-429753D01*
G37*
%LPC*%
G36*
G01X8499912Y-429168D02*
G01X8499912Y-358939D01*
G01X8570137Y-358939D01*
G01X8640362Y-358939D01*
G01X8640362Y-429168D01*
G01X8640362Y-499396D01*
G01X8570137Y-499396D01*
G01X8499912Y-499396D01*
G01X8499912Y-429168D01*
G37*
%LPD*%
G36*
G01X8614613Y-429753D02*
G01X8614613Y-385860D01*
G01X8570722Y-385860D01*
G01X8526831Y-385860D01*
G01X8526831Y-429753D01*
G01X8526831Y-473646D01*
G01X8570722Y-473646D01*
G01X8614613Y-473646D01*
G01X8614613Y-429753D01*
G37*
G36*
G01X7815215Y-429753D02*
G01X7815215Y-328507D01*
G01X7713974Y-328507D01*
G01X7612733Y-328507D01*
G01X7612733Y-429753D01*
G01X7612733Y-530999D01*
G01X7713974Y-530999D01*
G01X7815215Y-530999D01*
G01X7815215Y-429753D01*
G37*
%LPC*%
G36*
G01X7644334Y-429168D02*
G01X7644334Y-358939D01*
G01X7714559Y-358939D01*
G01X7784784Y-358939D01*
G01X7784784Y-429168D01*
G01X7784784Y-499396D01*
G01X7714559Y-499396D01*
G01X7644334Y-499396D01*
G01X7644334Y-429168D01*
G37*
%LPD*%
G36*
G01X7757865Y-429753D02*
G01X7757865Y-385860D01*
G01X7713974Y-385860D01*
G01X7670083Y-385860D01*
G01X7670083Y-429753D01*
G01X7670083Y-473646D01*
G01X7713974Y-473646D01*
G01X7757865Y-473646D01*
G01X7757865Y-429753D01*
G37*
G36*
G01X8671964Y427035D02*
G01X8671964Y528281D01*
G01X8570722Y528281D01*
G01X8469481Y528281D01*
G01X8469481Y427035D01*
G01X8469481Y325789D01*
G01X8570722Y325789D01*
G01X8671964Y325789D01*
G01X8671964Y427035D01*
G37*
%LPC*%
G36*
G01X8499912Y426450D02*
G01X8499912Y496678D01*
G01X8570137Y496678D01*
G01X8640362Y496678D01*
G01X8640362Y426450D01*
G01X8640362Y356221D01*
G01X8570137Y356221D01*
G01X8499912Y356221D01*
G01X8499912Y426450D01*
G37*
%LPD*%
G36*
G01X8614613Y427035D02*
G01X8614613Y470928D01*
G01X8570722Y470928D01*
G01X8526831Y470928D01*
G01X8526831Y427035D01*
G01X8526831Y383142D01*
G01X8570722Y383142D01*
G01X8614613Y383142D01*
G01X8614613Y427035D01*
G37*
G36*
G01X7700514Y-158203D02*
G01X7700514Y-100264D01*
G01X7672424Y-100264D01*
G01X7644334Y-100264D01*
G01X7644334Y-86335D01*
G01X7644334Y-86335D01*
G01X7643074Y-72224D01*
G01X7628533Y-71002D01*
G01X7628533Y-71002D01*
G01X7613975Y-72300D01*
G01X7612733Y-87506D01*
G01X7612733Y-102605D01*
G01X7627363Y-102605D01*
G01X7641993Y-102605D01*
G01X7641993Y-115480D01*
G01X7641993Y-128355D01*
G01X7627363Y-128355D01*
G01X7612733Y-128355D01*
G01X7612733Y-158203D01*
G01X7612733Y-188050D01*
G01X7627363Y-188050D01*
G01X7641993Y-188050D01*
G01X7641993Y-202095D01*
G01X7641993Y-216141D01*
G01X7671254Y-216141D01*
G01X7700514Y-216141D01*
G01X7700514Y-158203D01*
G37*
G36*
G01X8642303Y211463D02*
G01X8642303Y211463D01*
G01X8642703Y226104D01*
G01X8642703Y240344D01*
G01X8657333Y240344D01*
G01X8671964Y240344D01*
G01X8671964Y255561D01*
G01X8671964Y270777D01*
G01X8656163Y270777D01*
G01X8640362Y270777D01*
G01X8640362Y256731D01*
G01X8640362Y242685D01*
G01X8627488Y242685D01*
G01X8614613Y242685D01*
G01X8614613Y271362D01*
G01X8614613Y300039D01*
G01X8599397Y300039D01*
G01X8584182Y300039D01*
G01X8584182Y270191D01*
G01X8584182Y240344D01*
G01X8598217Y240344D01*
G01X8612252Y240344D01*
G01X8612408Y225860D01*
G01X8612565Y211375D01*
G01X8627234Y211219D01*
G01X8627234Y211219D01*
G01X8642303Y211463D01*
G37*
G36*
G01X8243589Y-515198D02*
G01X8243589Y-499396D01*
G01X8228959Y-499396D01*
G01X8214329Y-499396D01*
G01X8214329Y-485350D01*
G01X8214329Y-471305D01*
G01X8199113Y-471305D01*
G01X8183898Y-471305D01*
G01X8183898Y-501152D01*
G01X8183898Y-530999D01*
G01X8213744Y-530999D01*
G01X8243589Y-530999D01*
G01X8243589Y-515198D01*
G37*
G36*
G01X8357120Y-486521D02*
G01X8357120Y-471305D01*
G01X8343075Y-471305D01*
G01X8329030Y-471305D01*
G01X8329030Y-457259D01*
G01X8329030Y-443213D01*
G01X8313815Y-443213D01*
G01X8298599Y-443213D01*
G01X8298599Y-472475D01*
G01X8298599Y-501737D01*
G01X8327860Y-501737D01*
G01X8357120Y-501737D01*
G01X8357120Y-486521D01*
G37*
G36*
G01X7729775Y-58127D02*
G01X7729775Y-42911D01*
G01X7699929Y-42911D01*
G01X7670083Y-42911D01*
G01X7670083Y-58127D01*
G01X7670083Y-73343D01*
G01X7699929Y-73343D01*
G01X7729775Y-73343D01*
G01X7729775Y-58127D01*
G37*
G36*
G01X8414471Y-515198D02*
G01X8414471Y-499396D01*
G01X8399255Y-499396D01*
G01X8384040Y-499396D01*
G01X8384040Y-515198D01*
G01X8384040Y-530999D01*
G01X8399255Y-530999D01*
G01X8414471Y-530999D01*
G01X8414471Y-515198D01*
G37*
G36*
G01X7872566Y-486521D02*
G01X7872566Y-471305D01*
G01X7856765Y-471305D01*
G01X7840965Y-471305D01*
G01X7840965Y-486521D01*
G01X7840965Y-501737D01*
G01X7856765Y-501737D01*
G01X7872566Y-501737D01*
G01X7872566Y-486521D01*
G37*
G36*
G01X8443731Y-343723D02*
G01X8443731Y-328507D01*
G01X8427931Y-328507D01*
G01X8412130Y-328507D01*
G01X8412130Y-343723D01*
G01X8412130Y-358939D01*
G01X8427931Y-358939D01*
G01X8443731Y-358939D01*
G01X8443731Y-343723D01*
G37*
G36*
G01X7644334Y398359D02*
G01X7644334Y413575D01*
G01X7628533Y413575D01*
G01X7612733Y413575D01*
G01X7612733Y398359D01*
G01X7612733Y383142D01*
G01X7628533Y383142D01*
G01X7644334Y383142D01*
G01X7644334Y398359D01*
G37*
G36*
G01X7843305Y512480D02*
G01X7843305Y528281D01*
G01X7828090Y528281D01*
G01X7812875Y528281D01*
G01X7812875Y512480D01*
G01X7812875Y496678D01*
G01X7828090Y496678D01*
G01X7843305Y496678D01*
G01X7843305Y512480D01*
G37*
G36*
G01X8414471Y-401076D02*
G01X8414471Y-385860D01*
G01X8399255Y-385860D01*
G01X8384040Y-385860D01*
G01X8384040Y-401076D01*
G01X8384040Y-416292D01*
G01X8399255Y-416292D01*
G01X8414471Y-416292D01*
G01X8414471Y-401076D01*
G37*
G04 Image End*

G04 PolygonModel Start*
G36*
G01X1404181Y1441333D02*
G01X1455346Y1390172D01*
G01X1498985Y1390172D01*
G01X1498985Y1433172D01*
G01X1447180Y1433172D01*
G01X1447180Y1484972D01*
G01X1404181Y1484972D01*
G01X1404181Y1441333D01*
G37*
G36*
G01X1455342Y2233462D02*
G01X1404181Y2182296D01*
G01X1404181Y2138657D01*
G01X1447181Y2138657D01*
G01X1447181Y2190462D01*
G01X1498981Y2190462D01*
G01X1498981Y2233462D01*
G01X1455342Y2233462D01*
G37*
G36*
G01X4818876Y2182300D02*
G01X4767710Y2233462D01*
G01X4724072Y2233461D01*
G01X4724072Y2190461D01*
G01X4775877Y2190461D01*
G01X4775877Y2138661D01*
G01X4818876Y2138661D01*
G01X4818876Y2182300D01*
G37*
G36*
G01X4767715Y1390462D02*
G01X4818876Y1441628D01*
G01X4818876Y1485266D01*
G01X4775876Y1485266D01*
G01X4775876Y1433461D01*
G01X4724076Y1433461D01*
G01X4724076Y1390462D01*
G01X4767715Y1390462D01*
G37*
G36*
G01X9905954Y1390462D02*
G01X9957115Y1441628D01*
G01X9957115Y1485266D01*
G01X9914115Y1485266D01*
G01X9914115Y1433461D01*
G01X9862315Y1433461D01*
G01X9862315Y1390462D01*
G01X9905954Y1390462D01*
G37*
G36*
G01X9957115Y2182300D02*
G01X9905949Y2233462D01*
G01X9862311Y2233461D01*
G01X9862311Y2190461D01*
G01X9914115Y2190461D01*
G01X9914115Y2138661D01*
G01X9957115Y2138661D01*
G01X9957115Y2182300D01*
G37*
G36*
G01X6542419Y1441333D02*
G01X6593585Y1390172D01*
G01X6637224Y1390172D01*
G01X6637224Y1433172D01*
G01X6585419Y1433172D01*
G01X6585419Y1484972D01*
G01X6542419Y1484972D01*
G01X6542419Y1441333D01*
G37*
G36*
G01X6593581Y2233462D02*
G01X6542419Y2182296D01*
G01X6542419Y2138657D01*
G01X6585419Y2138657D01*
G01X6585419Y2190462D01*
G01X6637219Y2190462D01*
G01X6637219Y2233462D01*
G01X6593581Y2233462D01*
G37*
G36*
G01X3887411Y802214D02*
G01X3836249Y751049D01*
G01X3836250Y707410D01*
G01X3879249Y707410D01*
G01X3879250Y759214D01*
G01X3931050Y759214D01*
G01X3931050Y802214D01*
G01X3887411Y802214D01*
G37*
G36*
G01X7522090Y751421D02*
G01X7470924Y802582D01*
G01X7427286Y802582D01*
G01X7427286Y759582D01*
G01X7479090Y759582D01*
G01X7479090Y707782D01*
G01X7522090Y707782D01*
G01X7522090Y751421D01*
G37*
G36*
G01X7470929Y359582D02*
G01X7522090Y410748D01*
G01X7522090Y454386D01*
G01X7479090Y454386D01*
G01X7479090Y402582D01*
G01X7427290Y402582D01*
G01X7427290Y359582D01*
G01X7470929Y359582D01*
G37*
G36*
G01X3836250Y410743D02*
G01X3887415Y359582D01*
G01X3931054Y359582D01*
G01X3931054Y402582D01*
G01X3879249Y402582D01*
G01X3879249Y454382D01*
G01X3836250Y454382D01*
G01X3836250Y410743D01*
G37*
G36*
G01X1455342Y-2233461D02*
G01X1404181Y-2182296D01*
G01X1404181Y-2138657D01*
G01X1447181Y-2138657D01*
G01X1447181Y-2190462D01*
G01X1498981Y-2190462D01*
G01X1498981Y-2233461D01*
G01X1455342Y-2233461D01*
G37*
G36*
G01X1404181Y-1441333D02*
G01X1455346Y-1390172D01*
G01X1498985Y-1390172D01*
G01X1498985Y-1433172D01*
G01X1447180Y-1433172D01*
G01X1447180Y-1484972D01*
G01X1404181Y-1484972D01*
G01X1404181Y-1441333D01*
G37*
G36*
G01X1996155Y-2462073D02*
G01X1907155Y-2462073D01*
G01X1804155Y-2565073D01*
G01X1804155Y-2655073D01*
G01X1804705Y-2655073D01*
G01X1804705Y-2923561D01*
G01X1892605Y-2923561D01*
G01X1892605Y-2655073D01*
G01X1893155Y-2655073D01*
G01X1893155Y-2551073D01*
G01X1996155Y-2551073D01*
G01X1996155Y-2549973D01*
G01X2869101Y-2549973D01*
G01X2869101Y-2550523D01*
G01X2958101Y-2550523D01*
G01X3061101Y-2447523D01*
G01X3061101Y-2357523D01*
G01X2972100Y-2357523D01*
G01X2972101Y-2461523D01*
G01X2869101Y-2461523D01*
G01X2869101Y-2462073D01*
G01X1996155Y-2462073D01*
G37*
G36*
G01X3160600Y-2241623D02*
G01X3160600Y-2285250D01*
G01X3160499Y-2358508D01*
G01X3248500Y-2358508D01*
G01X3248500Y-2330250D01*
G01X3203512Y-2285262D01*
G01X3203600Y-2233462D01*
G01X3255405Y-2233462D01*
G01X3255405Y-2190462D01*
G01X3211766Y-2190461D01*
G01X3160600Y-2241623D01*
G37*
G36*
G01X4224946Y-2462057D02*
G01X4313946Y-2462057D01*
G01X4416946Y-2565057D01*
G01X4416946Y-2655057D01*
G01X4416396Y-2655057D01*
G01X4416396Y-2923546D01*
G01X4328496Y-2923546D01*
G01X4328496Y-2655057D01*
G01X4327946Y-2655057D01*
G01X4327946Y-2551057D01*
G01X4224946Y-2551057D01*
G01X4224946Y-2549957D01*
G01X3352000Y-2549957D01*
G01X3352000Y-2550507D01*
G01X3263000Y-2550507D01*
G01X3160000Y-2447508D01*
G01X3160000Y-2357508D01*
G01X3249000Y-2357508D01*
G01X3249000Y-2461507D01*
G01X3352000Y-2461507D01*
G01X3352000Y-2462057D01*
G01X4224946Y-2462057D01*
G37*
G36*
G01X4818876Y-2182300D02*
G01X4767710Y-2233462D01*
G01X4724072Y-2233461D01*
G01X4724072Y-2190461D01*
G01X4775876Y-2190461D01*
G01X4775876Y-2138661D01*
G01X4818876Y-2138661D01*
G01X4818876Y-2182300D01*
G37*
G36*
G01X4767715Y-1390462D02*
G01X4818876Y-1441627D01*
G01X4818876Y-1485266D01*
G01X4775876Y-1485266D01*
G01X4775876Y-1433461D01*
G01X4724076Y-1433461D01*
G01X4724076Y-1390462D01*
G01X4767715Y-1390462D01*
G37*
G36*
G01X6593581Y-2233461D02*
G01X6542419Y-2182296D01*
G01X6542419Y-2138657D01*
G01X6585419Y-2138657D01*
G01X6585419Y-2190462D01*
G01X6637219Y-2190462D01*
G01X6637219Y-2233461D01*
G01X6593581Y-2233461D01*
G37*
G36*
G01X6542419Y-1441333D02*
G01X6593585Y-1390172D01*
G01X6637224Y-1390172D01*
G01X6637224Y-1433172D01*
G01X6585419Y-1433172D01*
G01X6585419Y-1484972D01*
G01X6542419Y-1484972D01*
G01X6542419Y-1441333D01*
G37*
G36*
G01X7134393Y-2462073D02*
G01X7045393Y-2462073D01*
G01X6942394Y-2565073D01*
G01X6942394Y-2655073D01*
G01X6942944Y-2655073D01*
G01X6942944Y-2923561D01*
G01X7030844Y-2923561D01*
G01X7030844Y-2655073D01*
G01X7031394Y-2655073D01*
G01X7031394Y-2551073D01*
G01X7134393Y-2551073D01*
G01X7134393Y-2549973D01*
G01X8007340Y-2549973D01*
G01X8007340Y-2550523D01*
G01X8096339Y-2550523D01*
G01X8199339Y-2447523D01*
G01X8199339Y-2357523D01*
G01X8110339Y-2357523D01*
G01X8110339Y-2461523D01*
G01X8007340Y-2461523D01*
G01X8007340Y-2462073D01*
G01X7134393Y-2462073D01*
G37*
G36*
G01X8155839Y-2233461D02*
G01X8155839Y-2285266D01*
G01X8110839Y-2330266D01*
G01X8110839Y-2360523D01*
G01X8198839Y-2360523D01*
G01X8198839Y-2241627D01*
G01X8147678Y-2190461D01*
G01X8104039Y-2190461D01*
G01X8104039Y-2233462D01*
G01X8155839Y-2233461D01*
G37*
G36*
G01X8298839Y-2241623D02*
G01X8298839Y-2285250D01*
G01X8298733Y-2361508D01*
G01X8386739Y-2361508D01*
G01X8386739Y-2330250D01*
G01X8341751Y-2285262D01*
G01X8341839Y-2233462D01*
G01X8393644Y-2233462D01*
G01X8393644Y-2190462D01*
G01X8350005Y-2190461D01*
G01X8298839Y-2241623D01*
G37*
G36*
G01X9363185Y-2462057D02*
G01X9452185Y-2462057D01*
G01X9555185Y-2565057D01*
G01X9555185Y-2655057D01*
G01X9554634Y-2655057D01*
G01X9554634Y-2923546D01*
G01X9466734Y-2923546D01*
G01X9466734Y-2655057D01*
G01X9466184Y-2655057D01*
G01X9466185Y-2551057D01*
G01X9363185Y-2551057D01*
G01X9363185Y-2549957D01*
G01X8490239Y-2549957D01*
G01X8490239Y-2550507D01*
G01X8401239Y-2550507D01*
G01X8298239Y-2447508D01*
G01X8298239Y-2357508D01*
G01X8387239Y-2357508D01*
G01X8387239Y-2461507D01*
G01X8490239Y-2461507D01*
G01X8490239Y-2462057D01*
G01X9363185Y-2462057D01*
G37*
G36*
G01X9957115Y-2182300D02*
G01X9905949Y-2233462D01*
G01X9862311Y-2233461D01*
G01X9862311Y-2190461D01*
G01X9914115Y-2190461D01*
G01X9914115Y-2138661D01*
G01X9957115Y-2138661D01*
G01X9957115Y-2182300D01*
G37*
G36*
G01X9905954Y-1390462D02*
G01X9957115Y-1441627D01*
G01X9957115Y-1485266D01*
G01X9914115Y-1485266D01*
G01X9914115Y-1433461D01*
G01X9862315Y-1433461D01*
G01X9862315Y-1390462D01*
G01X9905954Y-1390462D01*
G37*
G36*
G01X3887411Y-802214D02*
G01X3836249Y-751049D01*
G01X3836250Y-707410D01*
G01X3879249Y-707410D01*
G01X3879250Y-759214D01*
G01X3931050Y-759214D01*
G01X3931050Y-802214D01*
G01X3887411Y-802214D01*
G37*
G36*
G01X7522090Y-751421D02*
G01X7470924Y-802582D01*
G01X7427286Y-802582D01*
G01X7427286Y-759582D01*
G01X7479090Y-759582D01*
G01X7479090Y-707782D01*
G01X7522090Y-707782D01*
G01X7522090Y-751421D01*
G37*
G36*
G01X7470929Y-359582D02*
G01X7522090Y-410748D01*
G01X7522090Y-454386D01*
G01X7479090Y-454386D01*
G01X7479090Y-402582D01*
G01X7427290Y-402582D01*
G01X7427290Y-359582D01*
G01X7470929Y-359582D01*
G37*
G36*
G01X3836250Y-410743D02*
G01X3887415Y-359582D01*
G01X3931054Y-359582D01*
G01X3931054Y-402582D01*
G01X3879249Y-402582D01*
G01X3879249Y-454382D01*
G01X3836250Y-454382D01*
G01X3836250Y-410743D01*
G37*
G36*
G01X3017601Y-2233461D02*
G01X3017601Y-2285266D01*
G01X2972600Y-2330266D01*
G01X2972600Y-2358523D01*
G01X3060600Y-2358523D01*
G01X3060600Y-2241627D01*
G01X3009439Y-2190461D01*
G01X2965801Y-2190461D01*
G01X2965801Y-2233462D01*
G01X3017601Y-2233461D01*
G37*
G36*
G01X3625493Y594337D02*
G01X3574327Y645499D01*
G01X3530688Y645499D01*
G01X3530688Y602499D01*
G01X3582493Y602499D01*
G01X3582493Y550699D01*
G01X3625493Y550699D01*
G01X3625493Y594337D01*
G37*
G36*
G01X3574331Y-645499D02*
G01X3625493Y-594333D01*
G01X3625493Y-550694D01*
G01X3582493Y-550694D01*
G01X3582493Y-602499D01*
G01X3530693Y-602499D01*
G01X3530693Y-645499D01*
G01X3574331Y-645499D01*
G37*
G36*
G01X3633654Y-156500D02*
G01X3582493Y-207665D01*
G01X3582493Y-251304D01*
G01X3625493Y-251304D01*
G01X3625493Y-199499D01*
G01X3677293Y-199499D01*
G01X3677293Y-156500D01*
G01X3633654Y-156500D01*
G37*
G36*
G01X3582493Y207661D02*
G01X3633659Y156500D01*
G01X3677297Y156500D01*
G01X3677297Y199499D01*
G01X3625493Y199500D01*
G01X3625493Y251300D01*
G01X3582493Y251300D01*
G01X3582493Y207661D01*
G37*
G36*
G01X2641656Y645499D02*
G01X2590495Y594333D01*
G01X2590495Y550694D01*
G01X2633495Y550694D01*
G01X2633495Y602499D01*
G01X2685295Y602499D01*
G01X2685295Y645499D01*
G01X2641656Y645499D01*
G37*
G36*
G01X2590495Y-594337D02*
G01X2641660Y-645499D01*
G01X2685299Y-645499D01*
G01X2685299Y-602499D01*
G01X2633495Y-602499D01*
G01X2633495Y-550699D01*
G01X2590495Y-550699D01*
G01X2590495Y-594337D01*
G37*
G36*
G01X2972601Y2330266D02*
G01X2972601Y2357523D01*
G01X2972100Y2357523D01*
G01X2972101Y2461523D01*
G01X2869101Y2461523D01*
G01X2869101Y2462073D01*
G01X1907155Y2462073D01*
G01X1804155Y2565073D01*
G01X1804155Y2655073D01*
G01X1804705Y2655073D01*
G01X1804705Y2923561D01*
G01X1892605Y2923561D01*
G01X1892605Y2655073D01*
G01X1893155Y2655073D01*
G01X1893155Y2551073D01*
G01X1996155Y2551073D01*
G01X1996155Y2549973D01*
G01X2869101Y2549973D01*
G01X2869101Y2550523D01*
G01X2958101Y2550523D01*
G01X3061101Y2447523D01*
G01X3061101Y2357523D01*
G01X3060601Y2357523D01*
G01X3060601Y2241627D01*
G01X3009439Y2190462D01*
G01X2965801Y2190462D01*
G01X2965801Y2233462D01*
G01X3017601Y2233461D01*
G01X3017601Y2285266D01*
G01X2972601Y2330266D01*
G37*
G36*
G01X3160600Y2285250D02*
G01X3160500Y2357508D01*
G01X3160000Y2357508D01*
G01X3160000Y2447508D01*
G01X3263000Y2550507D01*
G01X3352000Y2550507D01*
G01X3352000Y2549957D01*
G01X4224946Y2549957D01*
G01X4224946Y2551057D01*
G01X4327946Y2551057D01*
G01X4327946Y2655057D01*
G01X4328496Y2655057D01*
G01X4328496Y2923546D01*
G01X4416396Y2923546D01*
G01X4416396Y2655057D01*
G01X4416946Y2655057D01*
G01X4416946Y2565057D01*
G01X4313946Y2462057D01*
G01X3352000Y2462057D01*
G01X3352000Y2461507D01*
G01X3249000Y2461507D01*
G01X3249000Y2357508D01*
G01X3248500Y2357508D01*
G01X3248500Y2330250D01*
G01X3203512Y2285262D01*
G01X3203600Y2233462D01*
G01X3255405Y2233462D01*
G01X3255405Y2190462D01*
G01X3211766Y2190462D01*
G01X3160600Y2241623D01*
G01X3160600Y2285250D01*
G37*
G36*
G01X8110839Y2330266D02*
G01X8110839Y2357523D01*
G01X8110339Y2357523D01*
G01X8110339Y2461523D01*
G01X8007340Y2461523D01*
G01X8007340Y2462073D01*
G01X7045393Y2462073D01*
G01X6942394Y2565073D01*
G01X6942394Y2655073D01*
G01X6942944Y2655073D01*
G01X6942944Y2923561D01*
G01X7030844Y2923561D01*
G01X7030844Y2655073D01*
G01X7031394Y2655073D01*
G01X7031394Y2551073D01*
G01X7134393Y2551073D01*
G01X7134393Y2549973D01*
G01X8007340Y2549973D01*
G01X8007340Y2550523D01*
G01X8096339Y2550523D01*
G01X8199339Y2447523D01*
G01X8199339Y2357523D01*
G01X8198839Y2357523D01*
G01X8198839Y2241627D01*
G01X8147678Y2190462D01*
G01X8104039Y2190462D01*
G01X8104039Y2233462D01*
G01X8155839Y2233461D01*
G01X8155839Y2285266D01*
G01X8110839Y2330266D01*
G37*
G36*
G01X8298839Y2285250D02*
G01X8298739Y2357508D01*
G01X8298239Y2357508D01*
G01X8298239Y2447508D01*
G01X8401239Y2550507D01*
G01X8490239Y2550507D01*
G01X8490239Y2549957D01*
G01X9363185Y2549957D01*
G01X9363185Y2551057D01*
G01X9466185Y2551057D01*
G01X9466185Y2655057D01*
G01X9466734Y2655057D01*
G01X9466734Y2923546D01*
G01X9554634Y2923546D01*
G01X9554634Y2655057D01*
G01X9555185Y2655057D01*
G01X9555185Y2565057D01*
G01X9452185Y2462057D01*
G01X8490239Y2462057D01*
G01X8490239Y2461507D01*
G01X8387239Y2461507D01*
G01X8387239Y2357508D01*
G01X8386739Y2357508D01*
G01X8386739Y2330250D01*
G01X8341751Y2285262D01*
G01X8341839Y2233462D01*
G01X8393644Y2233462D01*
G01X8393644Y2190462D01*
G01X8350005Y2190462D01*
G01X8298839Y2241623D01*
G01X8298839Y2285250D01*
G37*
G36*
G01X5729070Y926628D02*
G01X5729170Y1112168D01*
G01X5729170Y1114730D01*
G01X5832169Y1217730D01*
G01X8099239Y1217730D01*
G01X8099239Y1218280D01*
G01X8203239Y1218280D01*
G01X8203239Y1324279D01*
G01X8203789Y1324279D01*
G01X8203789Y1390172D01*
G01X8103789Y1390172D01*
G01X8103789Y1433172D01*
G01X8212492Y1433172D01*
G01X8247739Y1412822D01*
G01X8282986Y1433172D01*
G01X8391689Y1433172D01*
G01X8391689Y1390172D01*
G01X8291689Y1390172D01*
G01X8291689Y1324279D01*
G01X8292239Y1324279D01*
G01X8292239Y1232280D01*
G01X8189239Y1129280D01*
G01X8099239Y1129280D01*
G01X8099239Y1129830D01*
G01X5922169Y1129830D01*
G01X5922169Y1128730D01*
G01X5818169Y1128730D01*
G01X5818169Y1025730D01*
G01X5817070Y1025730D01*
G01X5817070Y899371D01*
G01X5772169Y854470D01*
G01X5772169Y802582D01*
G01X5823974Y802582D01*
G01X5823974Y759582D01*
G01X5780335Y759582D01*
G01X5729170Y810744D01*
G01X5729170Y854371D01*
G01X5729070Y926628D01*
G37*
G36*
G01X5437170Y1129282D02*
G01X3258100Y1129282D01*
G01X3258100Y1128732D01*
G01X3169100Y1128732D01*
G01X3066100Y1231732D01*
G01X3066100Y1330732D01*
G01X3066650Y1330732D01*
G01X3066650Y1390462D01*
G01X2966650Y1390462D01*
G01X2966650Y1433462D01*
G01X3075353Y1433461D01*
G01X3110600Y1413111D01*
G01X3145847Y1433461D01*
G01X3254550Y1433462D01*
G01X3254550Y1390462D01*
G01X3154550Y1390462D01*
G01X3154550Y1330732D01*
G01X3155100Y1330732D01*
G01X3155100Y1217732D01*
G01X3258100Y1217732D01*
G01X3258100Y1217182D01*
G01X5437170Y1217182D01*
G01X5437170Y1217732D01*
G01X5526170Y1217732D01*
G01X5629170Y1114732D01*
G01X5629170Y810748D01*
G01X5578009Y759582D01*
G01X5534370Y759582D01*
G01X5534370Y802582D01*
G01X5586170Y802582D01*
G01X5586170Y854387D01*
G01X5541170Y899387D01*
G01X5541170Y926644D01*
G01X5541230Y1024732D01*
G01X5540170Y1024732D01*
G01X5540170Y1128732D01*
G01X5437170Y1128732D01*
G01X5437170Y1129282D01*
G37*
G36*
G01X5723119Y359582D02*
G01X5723120Y240146D01*
G01X5723120Y151146D01*
G01X5620120Y48146D01*
G01X5414236Y48146D01*
G01X5363074Y99311D01*
G01X5363074Y104700D01*
G01X5363058Y156500D01*
G01X5311254Y156500D01*
G01X5311254Y199499D01*
G01X5354893Y199500D01*
G01X5406058Y148338D01*
G01X5406058Y142950D01*
G01X5406074Y91146D01*
G01X5457863Y91146D01*
G01X5503863Y137146D01*
G01X5530120Y137146D01*
G01X5634120Y137146D01*
G01X5634120Y240146D01*
G01X5635220Y240146D01*
G01X5635220Y290853D01*
G01X5635219Y359582D01*
G01X5535219Y359582D01*
G01X5535219Y402582D01*
G01X5643922Y402582D01*
G01X5679169Y382232D01*
G01X5714417Y402582D01*
G01X5823119Y402582D01*
G01X5823119Y359582D01*
G01X5723119Y359582D01*
G37*
G36*
G01X5364489Y-156500D02*
G01X5364489Y-147158D01*
G01X5364063Y-147158D01*
G01X5364062Y-103519D01*
G01X5415224Y-52354D01*
G01X5531120Y-52354D01*
G01X5531120Y-51854D01*
G01X5620120Y-51854D01*
G01X5723120Y-154853D01*
G01X5723119Y-359582D01*
G01X5823119Y-359582D01*
G01X5823119Y-402582D01*
G01X5714417Y-402582D01*
G01X5679169Y-382232D01*
G01X5643922Y-402582D01*
G01X5535219Y-402582D01*
G01X5535219Y-359582D01*
G01X5635219Y-359582D01*
G01X5635220Y-244853D01*
G01X5634120Y-244853D01*
G01X5634120Y-140853D01*
G01X5531120Y-140853D01*
G01X5531120Y-140354D01*
G01X5503863Y-140354D01*
G01X5458863Y-95354D01*
G01X5407063Y-95353D01*
G01X5407063Y-104695D01*
G01X5407489Y-104695D01*
G01X5407489Y-148334D01*
G01X5356328Y-199499D01*
G01X5312689Y-199499D01*
G01X5312689Y-156500D01*
G01X5364489Y-156500D01*
G37*
G36*
G01X5922169Y-1129830D02*
G01X8099239Y-1129830D01*
G01X8099239Y-1129280D01*
G01X8189239Y-1129280D01*
G01X8292239Y-1232280D01*
G01X8292239Y-1317732D01*
G01X8292789Y-1317732D01*
G01X8292789Y-1390462D01*
G01X8392789Y-1390462D01*
G01X8392789Y-1433461D01*
G01X8284086Y-1433461D01*
G01X8248839Y-1413111D01*
G01X8213592Y-1433461D01*
G01X8104889Y-1433461D01*
G01X8104889Y-1390462D01*
G01X8204889Y-1390462D01*
G01X8204889Y-1321279D01*
G01X8203239Y-1321279D01*
G01X8203239Y-1218280D01*
G01X8099239Y-1218280D01*
G01X8099239Y-1217730D01*
G01X5832169Y-1217730D01*
G01X5729170Y-1114730D01*
G01X5729170Y-926628D01*
G01X5729070Y-854371D01*
G01X5729170Y-810744D01*
G01X5780335Y-759582D01*
G01X5823974Y-759582D01*
G01X5823974Y-802582D01*
G01X5772169Y-802582D01*
G01X5772169Y-854470D01*
G01X5817070Y-899371D01*
G01X5817070Y-1025730D01*
G01X5818169Y-1025730D01*
G01X5818169Y-1128730D01*
G01X5922169Y-1128730D01*
G01X5922169Y-1129830D01*
G37*
G36*
G01X5437170Y-1217182D02*
G01X3258100Y-1217182D01*
G01X3258100Y-1217732D01*
G01X3155100Y-1217732D01*
G01X3155100Y-1321732D01*
G01X3154550Y-1321732D01*
G01X3154550Y-1390462D01*
G01X3254550Y-1390462D01*
G01X3254550Y-1433461D01*
G01X3145847Y-1433461D01*
G01X3110600Y-1413111D01*
G01X3075353Y-1433461D01*
G01X2966650Y-1433461D01*
G01X2966650Y-1390462D01*
G01X3066650Y-1390462D01*
G01X3066650Y-1321732D01*
G01X3066100Y-1321732D01*
G01X3066100Y-1231732D01*
G01X3169100Y-1128732D01*
G01X3258100Y-1128732D01*
G01X3258100Y-1129282D01*
G01X5437170Y-1129282D01*
G01X5437170Y-1128732D01*
G01X5540170Y-1128732D01*
G01X5540170Y-1024732D01*
G01X5541270Y-1024732D01*
G01X5541270Y-926644D01*
G01X5541170Y-899387D01*
G01X5586170Y-854387D01*
G01X5586170Y-802582D01*
G01X5534370Y-802582D01*
G01X5534370Y-759582D01*
G01X5578009Y-759582D01*
G01X5629170Y-810748D01*
G01X5629170Y-1114732D01*
G01X5526170Y-1217732D01*
G01X5437170Y-1217732D01*
G01X5437170Y-1217182D01*
G37*
G36*
G01X2534177Y-43950D02*
G01X30942Y-43950D01*
G01X30942Y43950D01*
G01X2590495Y43950D01*
G01X2590495Y143950D01*
G01X2633495Y143950D01*
G01X2633495Y35247D01*
G01X2613145Y0D01*
G01X2633495Y-35247D01*
G01X2633495Y-143950D01*
G01X2590495Y-143950D01*
G01X2590495Y-43950D01*
G01X2534177Y-43950D01*
G37*

G04 Pad Start*
G54D10*
G01X1000000Y900000D03*
G01X1000000Y-900000D03*
G01X5700000Y-2500000D03*
G01X9000000Y-900000D03*
G01X9000000Y900000D03*
G01X5700000Y2500000D03*
G54D11*
G01X3209994Y-2390995D03*
G01X3009994Y-2390995D03*
G01X5778563Y-1003755D03*
G01X5578563Y-1003755D03*
G01X8348232Y-2390995D03*
G01X8148233Y-2390995D03*
G01X5778563Y965364D03*
G01X5578563Y965364D03*
G54D12*
G01X8149506Y2390991D03*
G01X8349506Y2390991D03*
G01X3011207Y2390991D03*
G01X3211207Y2390991D03*
G54D13*
G01X5552752Y-101247D03*
G01X5552752Y98752D03*
G04 Pad End*

G04 Via Start*
G54D14*
G01X665390Y900000D03*
G01X758623Y762425D03*
G01X758623Y1035035D03*
G01X879312Y1062975D03*
G01X879312Y737025D03*
G01X1000000Y1062975D03*
G01X1000000Y737025D03*
G01X1120688Y737025D03*
G01X1120688Y1062975D03*
G01X1241377Y764965D03*
G01X1241377Y1037575D03*
G01X1334610Y900000D03*
G01X665390Y-900000D03*
G01X758623Y-1037575D03*
G01X758623Y-764965D03*
G01X879312Y-737025D03*
G01X879312Y-1062975D03*
G01X1000000Y-737025D03*
G01X1000000Y-1062975D03*
G01X1120688Y-1062975D03*
G01X1120688Y-737025D03*
G01X1241377Y-1035035D03*
G01X1241377Y-762425D03*
G01X1334610Y-900000D03*
G01X5365390Y-2500000D03*
G01X5458623Y-2637575D03*
G01X5458623Y-2364965D03*
G01X5579312Y-2337025D03*
G01X5579312Y-2662975D03*
G01X5700000Y-2337025D03*
G01X5700000Y-2662975D03*
G01X5820688Y-2662975D03*
G01X5820688Y-2337025D03*
G01X5941377Y-2635035D03*
G01X5941377Y-2362425D03*
G01X6034610Y-2500000D03*
G01X8665390Y-900000D03*
G01X8758623Y-1037575D03*
G01X8758623Y-764965D03*
G01X8879312Y-737025D03*
G01X8879312Y-1062975D03*
G01X9000000Y-737025D03*
G01X9000000Y-1062975D03*
G01X9120688Y-1062975D03*
G01X9120688Y-737025D03*
G01X9241377Y-1035035D03*
G01X9241377Y-762425D03*
G01X9334610Y-900000D03*
G01X8665390Y900000D03*
G01X8758623Y762425D03*
G01X8758623Y1035035D03*
G01X8879312Y1062975D03*
G01X8879312Y737025D03*
G01X9000000Y1062975D03*
G01X9000000Y737025D03*
G01X9120688Y737025D03*
G01X9120688Y1062975D03*
G01X9241377Y764965D03*
G01X9241377Y1037575D03*
G01X9334610Y900000D03*
G01X5365390Y2500000D03*
G01X5458623Y2362425D03*
G01X5458623Y2635035D03*
G01X5579312Y2662975D03*
G01X5579312Y2337025D03*
G01X5700000Y2662975D03*
G01X5700000Y2337025D03*
G01X5820688Y2337025D03*
G01X5820688Y2662975D03*
G01X5941377Y2364965D03*
G01X5941377Y2637575D03*
G01X6034610Y2500000D03*
G04 Via End*

G04 Track Start*
G54D16*
G01X3183725Y1411962D02*
G01X4740722Y1411962D01*
G01X4797376Y1473672D02*
G01X4797376Y2151671D01*
G01X1494728Y1411672D02*
G01X3024725Y1411672D01*
G01X1425681Y1456672D02*
G01X1425681Y2150671D01*
G01X1492728Y2211962D02*
G01X2971725Y2211962D01*
G01X3231725Y2211962D02*
G01X4738722Y2211962D01*
G01X8321963Y1411962D02*
G01X9878960Y1411962D01*
G01X9935615Y1473672D02*
G01X9935615Y2151671D01*
G01X6632967Y1411672D02*
G01X8162964Y1411672D01*
G01X6563919Y1456672D02*
G01X6563919Y2150671D01*
G01X6630967Y2211962D02*
G01X8109964Y2211962D01*
G01X8369963Y2211962D02*
G01X9876960Y2211962D01*
G01X3857749Y425849D02*
G01X3857749Y728848D01*
G01X3910828Y781082D02*
G01X5552170Y781082D01*
G01X7441821Y781082D02*
G01X5814169Y781082D01*
G01X7500590Y438849D02*
G01X7500590Y729848D01*
G01X3908828Y381082D02*
G01X5603170Y381082D01*
G01X7449821Y381082D02*
G01X5770170Y381082D01*
G01X3183725Y-1411962D02*
G01X4740722Y-1411962D01*
G01X4797376Y-1473672D02*
G01X4797376Y-2151671D01*
G01X1494728Y-1411672D02*
G01X3024725Y-1411672D01*
G01X1425681Y-1456672D02*
G01X1425681Y-2150671D01*
G01X1492728Y-2211962D02*
G01X2971725Y-2211962D01*
G01X3231725Y-2211962D02*
G01X4738722Y-2211962D01*
G01X8321963Y-1411962D02*
G01X9878960Y-1411962D01*
G01X9935615Y-1473672D02*
G01X9935615Y-2151671D01*
G01X6632967Y-1411672D02*
G01X8162964Y-1411672D01*
G01X6563919Y-1456672D02*
G01X6563919Y-2150671D01*
G01X6630967Y-2211962D02*
G01X8109964Y-2211962D01*
G01X8369963Y-2211962D02*
G01X9876960Y-2211962D01*
G01X3857749Y-425849D02*
G01X3857749Y-728848D01*
G01X3910828Y-781082D02*
G01X5552170Y-781082D01*
G01X7441821Y-781082D02*
G01X5814169Y-781082D01*
G01X7500590Y-438849D02*
G01X7500590Y-729848D01*
G01X3908828Y-381082D02*
G01X5603170Y-381082D01*
G01X7449821Y-381082D02*
G01X5770170Y-381082D01*
G01X3603993Y-237000D02*
G01X3603993Y-563999D01*
G01X3603993Y233000D02*
G01X3603993Y565999D01*
G01X3548993Y623999D02*
G01X2657995Y623999D01*
G01X2611995Y577999D02*
G01X2611995Y104000D01*
G01X3549993Y-623999D02*
G01X2654995Y-623999D01*
G01X2611995Y-580999D02*
G01X2611995Y-69000D01*
G01X5334989Y178000D02*
G01X3658993Y178000D01*
G01X5334989Y-178000D02*
G01X3664993Y-178000D01*
G04 Track End*

M02*

