G04 Layer: TopPasteMaskLayer*
G04 EasyEDA Pro v2.2.32.3, 2024-11-23 22:11:16*
G04 Gerber Generator version 0.3*
G04 Scale: 100 percent, Rotated: No, Reflected: No*
G04 Dimensions in millimeters*
G04 Leading zeros omitted, absolute positions, 3 integers and 5 decimals*
%FSLAX35Y35*%
%MOMM*%
%ADD10C,0.254*%
G75*


G04 PolygonModel Start*
G36*
G01X3172694Y-2447297D02*
G01X3172696Y-2412999D01*
G01X3186793Y-2412999D01*
G01X3186793Y-2368001D01*
G01X3173258Y-2368001D01*
G01X3172849Y-2334696D01*
G01X3236892Y-2334696D01*
G01X3236892Y-2447297D01*
G01X3172694Y-2447297D01*
G37*
G36*
G01X3048443Y-2334695D02*
G01X3048441Y-2368992D01*
G01X3034344Y-2368992D01*
G01X3034344Y-2413991D01*
G01X3047879Y-2413991D01*
G01X3048288Y-2447296D01*
G01X2984245Y-2447296D01*
G01X2984245Y-2334695D01*
G01X3048443Y-2334695D01*
G37*
G36*
G01X5741263Y-1060056D02*
G01X5741265Y-1025759D01*
G01X5755362Y-1025759D01*
G01X5755362Y-980760D01*
G01X5741827Y-980760D01*
G01X5741419Y-947456D01*
G01X5805461Y-947456D01*
G01X5805461Y-1060056D01*
G01X5741263Y-1060056D01*
G37*
G36*
G01X5617012Y-947454D02*
G01X5617010Y-981752D01*
G01X5602913Y-981752D01*
G01X5602913Y-1026751D01*
G01X5616448Y-1026751D01*
G01X5616857Y-1060055D01*
G01X5552814Y-1060055D01*
G01X5552814Y-947454D01*
G01X5617012Y-947454D01*
G37*
G36*
G01X8310932Y-2447297D02*
G01X8310934Y-2412999D01*
G01X8325032Y-2412999D01*
G01X8325032Y-2368001D01*
G01X8311497Y-2368001D01*
G01X8311088Y-2334696D01*
G01X8375131Y-2334696D01*
G01X8375131Y-2447297D01*
G01X8310932Y-2447297D01*
G37*
G36*
G01X8186682Y-2334695D02*
G01X8186680Y-2368992D01*
G01X8172582Y-2368992D01*
G01X8172582Y-2413991D01*
G01X8186117Y-2413991D01*
G01X8186526Y-2447296D01*
G01X8122483Y-2447296D01*
G01X8122483Y-2334695D01*
G01X8186682Y-2334695D01*
G37*
G36*
G01X5741263Y909063D02*
G01X5741265Y943360D01*
G01X5755363Y943360D01*
G01X5755363Y988359D01*
G01X5741827Y988359D01*
G01X5741419Y1021663D01*
G01X5805462Y1021663D01*
G01X5805462Y909063D01*
G01X5741263Y909063D01*
G37*
G36*
G01X5617013Y1021665D02*
G01X5617011Y987367D01*
G01X5602913Y987367D01*
G01X5602913Y942368D01*
G01X5616448Y942368D01*
G01X5616857Y909064D01*
G01X5552814Y909064D01*
G01X5552814Y1021665D01*
G01X5617013Y1021665D01*
G37*
G36*
G01X8186806Y2447293D02*
G01X8186804Y2412995D01*
G01X8172707Y2412995D01*
G01X8172707Y2367996D01*
G01X8186242Y2367996D01*
G01X8186651Y2334692D01*
G01X8122608Y2334692D01*
G01X8122608Y2447293D01*
G01X8186806Y2447293D01*
G37*
G36*
G01X8311057Y2334691D02*
G01X8311059Y2368988D01*
G01X8325156Y2368988D01*
G01X8325156Y2413987D01*
G01X8311621Y2413987D01*
G01X8311212Y2447291D01*
G01X8375255Y2447291D01*
G01X8375255Y2334691D01*
G01X8311057Y2334691D01*
G37*
G36*
G01X3048507Y2447293D02*
G01X3048505Y2412995D01*
G01X3034408Y2412995D01*
G01X3034408Y2367996D01*
G01X3047943Y2367996D01*
G01X3048352Y2334692D01*
G01X2984309Y2334692D01*
G01X2984309Y2447293D01*
G01X3048507Y2447293D01*
G37*
G36*
G01X3172758Y2334691D02*
G01X3172760Y2368988D01*
G01X3186857Y2368988D01*
G01X3186857Y2413987D01*
G01X3173322Y2413987D01*
G01X3172913Y2447291D01*
G01X3236956Y2447291D01*
G01X3236956Y2334691D01*
G01X3172758Y2334691D01*
G37*
G36*
G01X5496450Y-63947D02*
G01X5530748Y-63949D01*
G01X5530748Y-78047D01*
G01X5575747Y-78047D01*
G01X5575747Y-64512D01*
G01X5609051Y-64103D01*
G01X5609051Y-128146D01*
G01X5496450Y-128146D01*
G01X5496450Y-63947D01*
G37*
G36*
G01X5609052Y60303D02*
G01X5574755Y60305D01*
G01X5574755Y74403D01*
G01X5529756Y74403D01*
G01X5529756Y60868D01*
G01X5496452Y60459D01*
G01X5496452Y124502D01*
G01X5609052Y124502D01*
G01X5609052Y60303D01*
G37*

G04 Pad Start*
G04 Pad End*
G54D10*

M02*

