G04 Layer: TopSilkscreenLayer*
G04 EasyEDA Pro v2.2.32.3, 2024-11-02 15:36:31*
G04 Gerber Generator version 0.3*
G04 Scale: 100 percent, Rotated: No, Reflected: No*
G04 Dimensions in millimeters*
G04 Leading zeros omitted, absolute positions, 3 integers and 5 decimals*
%FSLAX35Y35*%
%MOMM*%
%ADD10C,0.254*%
G75*


G04 Image Start*
G36*
G01X-1400754Y-5030647D02*
G01X-1400754Y-5051759D01*
G01X-1380470Y-5051759D01*
G01X-1360187Y-5051759D01*
G01X-1360187Y-5061694D01*
G01X-1360187Y-5071630D01*
G01X-1339903Y-5071630D01*
G01X-1319620Y-5071630D01*
G01X-1319620Y-5081151D01*
G01X-1319620Y-5090672D01*
G01X-1339903Y-5090672D01*
G01X-1360187Y-5090672D01*
G01X-1360187Y-5100608D01*
G01X-1360187Y-5110543D01*
G01X-1369294Y-5110543D01*
G01X-1378401Y-5110543D01*
G01X-1378401Y-5100608D01*
G01X-1378401Y-5090672D01*
G01X-1388742Y-5090672D01*
G01X-1399084Y-5090672D01*
G01X-1399194Y-5080426D01*
G01X-1399305Y-5070181D01*
G01X-1429420Y-5070075D01*
G01X-1459535Y-5069968D01*
G01X-1459535Y-5060036D01*
G01X-1459535Y-5050103D01*
G01X-1470298Y-5050103D01*
G01X-1481061Y-5050103D01*
G01X-1481061Y-5071216D01*
G01X-1481061Y-5092328D01*
G01X-1471126Y-5092328D01*
G01X-1461191Y-5092328D01*
G01X-1461191Y-5101435D01*
G01X-1461191Y-5110543D01*
G01X-1480647Y-5110543D01*
G01X-1500102Y-5110543D01*
G01X-1500102Y-5100608D01*
G01X-1500102Y-5090672D01*
G01X-1510865Y-5090672D01*
G01X-1521628Y-5090672D01*
G01X-1521628Y-5100608D01*
G01X-1521628Y-5110543D01*
G01X-1531563Y-5110543D01*
G01X-1541497Y-5110543D01*
G01X-1541497Y-5120892D01*
G01X-1541497Y-5131241D01*
G01X-1551846Y-5131241D01*
G01X-1562195Y-5131241D01*
G01X-1562195Y-5142005D01*
G01X-1562195Y-5152768D01*
G01X-1551846Y-5152768D01*
G01X-1541497Y-5152768D01*
G01X-1541497Y-5162703D01*
G01X-1541497Y-5172638D01*
G01X-1531563Y-5172638D01*
G01X-1521628Y-5172638D01*
G01X-1521628Y-5192095D01*
G01X-1521628Y-5211552D01*
G01X-1531563Y-5211552D01*
G01X-1541497Y-5211552D01*
G01X-1541497Y-5221901D01*
G01X-1541497Y-5232250D01*
G01X-1551018Y-5232250D01*
G01X-1560539Y-5232250D01*
G01X-1560539Y-5221901D01*
G01X-1560539Y-5211552D01*
G01X-1570474Y-5211552D01*
G01X-1580409Y-5211552D01*
G01X-1580409Y-5201616D01*
G01X-1580409Y-5191681D01*
G01X-1600692Y-5191681D01*
G01X-1620976Y-5191681D01*
G01X-1620976Y-5181332D01*
G01X-1620976Y-5170983D01*
G01X-1631739Y-5170983D01*
G01X-1642502Y-5170983D01*
G01X-1642502Y-5181332D01*
G01X-1642502Y-5191681D01*
G01X-1661957Y-5191681D01*
G01X-1681413Y-5191681D01*
G01X-1681413Y-5181332D01*
G01X-1681413Y-5170983D01*
G01X-1702524Y-5170983D01*
G01X-1723636Y-5170983D01*
G01X-1723636Y-5182160D01*
G01X-1723636Y-5193337D01*
G01X-1703352Y-5193337D01*
G01X-1683069Y-5193337D01*
G01X-1683069Y-5203272D01*
G01X-1683069Y-5213207D01*
G01X-1662785Y-5213207D01*
G01X-1642502Y-5213207D01*
G01X-1642502Y-5222729D01*
G01X-1642502Y-5232250D01*
G01X-1662785Y-5232250D01*
G01X-1683069Y-5232250D01*
G01X-1683069Y-5242185D01*
G01X-1683069Y-5252121D01*
G01X-1692590Y-5252121D01*
G01X-1702110Y-5252121D01*
G01X-1702110Y-5231836D01*
G01X-1702110Y-5211552D01*
G01X-1712873Y-5211552D01*
G01X-1723636Y-5211552D01*
G01X-1723636Y-5221901D01*
G01X-1723636Y-5232250D01*
G01X-1732743Y-5232250D01*
G01X-1741850Y-5232250D01*
G01X-1741850Y-5221901D01*
G01X-1741850Y-5211552D01*
G01X-1753033Y-5211552D01*
G01X-1764217Y-5211552D01*
G01X-1764106Y-5222625D01*
G01X-1763996Y-5233699D01*
G01X-1753751Y-5233810D01*
G01X-1743506Y-5233920D01*
G01X-1743506Y-5243849D01*
G01X-1743506Y-5253777D01*
G01X-1723636Y-5253777D01*
G01X-1703766Y-5253777D01*
G01X-1703766Y-5262884D01*
G01X-1703766Y-5271991D01*
G01X-1733985Y-5271991D01*
G01X-1764203Y-5271991D01*
G01X-1764203Y-5302956D01*
G01X-1764203Y-5302956D01*
G01X-1763706Y-5334418D01*
G01X-1763706Y-5334418D01*
G01X-1742347Y-5334418D01*
G01X-1742347Y-5334418D01*
G01X-1741850Y-5314133D01*
G01X-1741850Y-5294346D01*
G01X-1722808Y-5294346D01*
G01X-1703766Y-5294346D01*
G01X-1703766Y-5303453D01*
G01X-1703766Y-5312560D01*
G01X-1713701Y-5312560D01*
G01X-1723636Y-5312560D01*
G01X-1723636Y-5333673D01*
G01X-1723636Y-5354785D01*
G01X-1713701Y-5354785D01*
G01X-1703766Y-5354785D01*
G01X-1703766Y-5363893D01*
G01X-1703766Y-5373000D01*
G01X-1713701Y-5373000D01*
G01X-1723636Y-5373000D01*
G01X-1723636Y-5383349D01*
G01X-1723636Y-5393699D01*
G01X-1732743Y-5393699D01*
G01X-1741850Y-5393699D01*
G01X-1741850Y-5383349D01*
G01X-1741850Y-5373000D01*
G01X-1753026Y-5373000D01*
G01X-1764203Y-5373000D01*
G01X-1764203Y-5384177D01*
G01X-1764203Y-5395354D01*
G01X-1753854Y-5395354D01*
G01X-1743506Y-5395354D01*
G01X-1743506Y-5404462D01*
G01X-1743506Y-5413569D01*
G01X-1753854Y-5413569D01*
G01X-1764203Y-5413569D01*
G01X-1764203Y-5434682D01*
G01X-1764203Y-5455794D01*
G01X-1753854Y-5455794D01*
G01X-1743506Y-5455794D01*
G01X-1743506Y-5464902D01*
G01X-1743506Y-5474009D01*
G01X-1753854Y-5474009D01*
G01X-1764203Y-5474009D01*
G01X-1764203Y-5485186D01*
G01X-1764203Y-5496363D01*
G01X-1753854Y-5496363D01*
G01X-1743506Y-5496363D01*
G01X-1743506Y-5506299D01*
G01X-1743506Y-5516234D01*
G01X-1732743Y-5516234D01*
G01X-1721980Y-5516234D01*
G01X-1721980Y-5506299D01*
G01X-1721980Y-5496363D01*
G01X-1712881Y-5496363D01*
G01X-1703781Y-5496363D01*
G01X-1703670Y-5506195D01*
G01X-1703559Y-5516027D01*
G01X-1693314Y-5516138D01*
G01X-1683069Y-5516248D01*
G01X-1683069Y-5526176D01*
G01X-1683069Y-5536104D01*
G01X-1673134Y-5536104D01*
G01X-1663199Y-5536104D01*
G01X-1663199Y-5546454D01*
G01X-1663199Y-5556803D01*
G01X-1642915Y-5556803D01*
G01X-1622632Y-5556803D01*
G01X-1622632Y-5565910D01*
G01X-1622632Y-5575018D01*
G01X-1632567Y-5575018D01*
G01X-1642502Y-5575018D01*
G01X-1642502Y-5586195D01*
G01X-1642502Y-5597372D01*
G01X-1631739Y-5597372D01*
G01X-1620976Y-5597372D01*
G01X-1620976Y-5587023D01*
G01X-1620976Y-5576674D01*
G01X-1611041Y-5576674D01*
G01X-1601106Y-5576674D01*
G01X-1601106Y-5546454D01*
G01X-1601106Y-5516234D01*
G01X-1591586Y-5516234D01*
G01X-1582065Y-5516234D01*
G01X-1582065Y-5546454D01*
G01X-1582065Y-5576674D01*
G01X-1572130Y-5576674D01*
G01X-1562195Y-5576674D01*
G01X-1562195Y-5596130D01*
G01X-1562195Y-5615587D01*
G01X-1571302Y-5615587D01*
G01X-1580409Y-5615587D01*
G01X-1580409Y-5605651D01*
G01X-1580409Y-5595716D01*
G01X-1591586Y-5595716D01*
G01X-1602762Y-5595716D01*
G01X-1602762Y-5616415D01*
G01X-1602762Y-5637113D01*
G01X-1592413Y-5637113D01*
G01X-1582065Y-5637113D01*
G01X-1582065Y-5656570D01*
G01X-1582065Y-5676026D01*
G01X-1592413Y-5676026D01*
G01X-1602762Y-5676026D01*
G01X-1602762Y-5697139D01*
G01X-1602762Y-5718251D01*
G01X-1591586Y-5718251D01*
G01X-1580409Y-5718251D01*
G01X-1580409Y-5708316D01*
G01X-1580409Y-5698381D01*
G01X-1571302Y-5698381D01*
G01X-1562195Y-5698381D01*
G01X-1562195Y-5717423D01*
G01X-1562195Y-5736466D01*
G01X-1572130Y-5736466D01*
G01X-1582065Y-5736466D01*
G01X-1582065Y-5747643D01*
G01X-1582065Y-5758821D01*
G01X-1571302Y-5758821D01*
G01X-1560539Y-5758821D01*
G01X-1560539Y-5748471D01*
G01X-1560539Y-5738122D01*
G01X-1551018Y-5738122D01*
G01X-1541497Y-5738122D01*
G01X-1541497Y-5748471D01*
G01X-1541497Y-5758821D01*
G01X-1520800Y-5758821D01*
G01X-1500102Y-5758821D01*
G01X-1500102Y-5748471D01*
G01X-1500102Y-5738122D01*
G01X-1480647Y-5738122D01*
G01X-1461191Y-5738122D01*
G01X-1461191Y-5748471D01*
G01X-1461191Y-5758821D01*
G01X-1430145Y-5758821D01*
G01X-1399098Y-5758821D01*
G01X-1399098Y-5737708D01*
G01X-1399098Y-5716596D01*
G01X-1409861Y-5716596D01*
G01X-1420624Y-5716596D01*
G01X-1420624Y-5726531D01*
G01X-1420624Y-5736466D01*
G01X-1429731Y-5736466D01*
G01X-1438838Y-5736466D01*
G01X-1438838Y-5727028D01*
G01X-1438838Y-5727028D01*
G01X-1439334Y-5717092D01*
G01X-1439334Y-5717092D01*
G01X-1469967Y-5716596D01*
G01X-1500102Y-5716596D01*
G01X-1500102Y-5707495D01*
G01X-1500102Y-5698395D01*
G01X-1489857Y-5698285D01*
G01X-1479612Y-5698174D01*
G01X-1479501Y-5687928D01*
G01X-1479390Y-5677682D01*
G01X-1470298Y-5677682D01*
G01X-1461205Y-5677682D01*
G01X-1461095Y-5687928D01*
G01X-1460984Y-5698174D01*
G01X-1450479Y-5698285D01*
G01X-1450479Y-5698285D01*
G01X-1439759Y-5697540D01*
G01X-1438838Y-5687567D01*
G01X-1438838Y-5677682D01*
G01X-1419803Y-5677682D01*
G01X-1400768Y-5677682D01*
G01X-1400658Y-5687928D01*
G01X-1400547Y-5698174D01*
G01X-1390302Y-5698285D01*
G01X-1380056Y-5698395D01*
G01X-1380056Y-5708323D01*
G01X-1380056Y-5718251D01*
G01X-1370122Y-5718251D01*
G01X-1360187Y-5718251D01*
G01X-1360187Y-5727359D01*
G01X-1360187Y-5736466D01*
G01X-1370122Y-5736466D01*
G01X-1380056Y-5736466D01*
G01X-1380056Y-5747643D01*
G01X-1380056Y-5758821D01*
G01X-1369294Y-5758821D01*
G01X-1358531Y-5758821D01*
G01X-1358531Y-5748471D01*
G01X-1358531Y-5738122D01*
G01X-1339075Y-5738122D01*
G01X-1319620Y-5738122D01*
G01X-1319620Y-5748471D01*
G01X-1319620Y-5758821D01*
G01X-1298508Y-5758821D01*
G01X-1277397Y-5758821D01*
G01X-1277397Y-5748471D01*
G01X-1277397Y-5738122D01*
G01X-1258362Y-5738122D01*
G01X-1239328Y-5738122D01*
G01X-1239217Y-5748368D01*
G01X-1239106Y-5758614D01*
G01X-1228033Y-5758724D01*
G01X-1216960Y-5758834D01*
G01X-1216960Y-5747650D01*
G01X-1216960Y-5736466D01*
G01X-1227308Y-5736466D01*
G01X-1237657Y-5736466D01*
G01X-1237657Y-5727359D01*
G01X-1237657Y-5718251D01*
G01X-1217374Y-5718251D01*
G01X-1197090Y-5718251D01*
G01X-1197090Y-5697967D01*
G01X-1197090Y-5677682D01*
G01X-1177634Y-5677682D01*
G01X-1158179Y-5677682D01*
G01X-1158179Y-5697967D01*
G01X-1158179Y-5718251D01*
G01X-1148244Y-5718251D01*
G01X-1138309Y-5718251D01*
G01X-1138309Y-5738536D01*
G01X-1138309Y-5758821D01*
G01X-1127132Y-5758821D01*
G01X-1115956Y-5758821D01*
G01X-1115956Y-5738536D01*
G01X-1115956Y-5718251D01*
G01X-1106849Y-5718251D01*
G01X-1097742Y-5718251D01*
G01X-1097742Y-5738536D01*
G01X-1097742Y-5758821D01*
G01X-1056347Y-5758821D01*
G01X-1014952Y-5758821D01*
G01X-1014952Y-5747643D01*
G01X-1014952Y-5736466D01*
G01X-1035235Y-5736466D01*
G01X-1055519Y-5736466D01*
G01X-1055519Y-5727359D01*
G01X-1055519Y-5718251D01*
G01X-1045584Y-5718251D01*
G01X-1035649Y-5718251D01*
G01X-1035649Y-5707488D01*
G01X-1035649Y-5696725D01*
G01X-1046412Y-5696725D01*
G01X-1057175Y-5696725D01*
G01X-1057175Y-5706660D01*
G01X-1057175Y-5716596D01*
G01X-1066274Y-5716596D01*
G01X-1075373Y-5716596D01*
G01X-1075484Y-5706764D01*
G01X-1075595Y-5696932D01*
G01X-1085841Y-5696821D01*
G01X-1096086Y-5696711D01*
G01X-1096086Y-5687204D01*
G01X-1096086Y-5677697D01*
G01X-1085841Y-5677586D01*
G01X-1075595Y-5677475D01*
G01X-1075489Y-5647359D01*
G01X-1075383Y-5617243D01*
G01X-1066279Y-5617243D01*
G01X-1057175Y-5617243D01*
G01X-1057175Y-5627178D01*
G01X-1057175Y-5637113D01*
G01X-1036063Y-5637113D01*
G01X-1014952Y-5637113D01*
G01X-1014952Y-5606065D01*
G01X-1014952Y-5575018D01*
G01X-1025300Y-5575018D01*
G01X-1035649Y-5575018D01*
G01X-1035649Y-5555561D01*
G01X-1035649Y-5536104D01*
G01X-1025300Y-5536104D01*
G01X-1014952Y-5536104D01*
G01X-1014952Y-5525341D01*
G01X-1014952Y-5514578D01*
G01X-1025300Y-5514578D01*
G01X-1035649Y-5514578D01*
G01X-1035649Y-5464902D01*
G01X-1035649Y-5415225D01*
G01X-1025300Y-5415225D01*
G01X-1014952Y-5415225D01*
G01X-1014952Y-5384177D01*
G01X-1014952Y-5353129D01*
G01X-1026128Y-5353129D01*
G01X-1037305Y-5353129D01*
G01X-1037305Y-5363065D01*
G01X-1037305Y-5373000D01*
G01X-1047240Y-5373000D01*
G01X-1057175Y-5373000D01*
G01X-1057175Y-5403220D01*
G01X-1057175Y-5433440D01*
G01X-1066279Y-5433440D01*
G01X-1075383Y-5433440D01*
G01X-1075489Y-5403323D01*
G01X-1075595Y-5373207D01*
G01X-1095775Y-5373100D01*
G01X-1115956Y-5372992D01*
G01X-1115956Y-5363061D01*
G01X-1115956Y-5353129D01*
G01X-1137067Y-5353129D01*
G01X-1158179Y-5353129D01*
G01X-1158179Y-5363065D01*
G01X-1158179Y-5373000D01*
G01X-1177634Y-5373000D01*
G01X-1197090Y-5373000D01*
G01X-1197090Y-5353957D01*
G01X-1197090Y-5334915D01*
G01X-1187238Y-5334915D01*
G01X-1187238Y-5334915D01*
G01X-1177262Y-5334045D01*
G01X-1176392Y-5324069D01*
G01X-1176392Y-5314216D01*
G01X-1136239Y-5314216D01*
G01X-1096086Y-5314216D01*
G01X-1096086Y-5263712D01*
G01X-1096086Y-5213207D01*
G01X-1075802Y-5213207D01*
G01X-1055519Y-5213207D01*
G01X-1055519Y-5202444D01*
G01X-1055519Y-5191681D01*
G01X-1075802Y-5191681D01*
G01X-1096086Y-5191681D01*
G01X-1096086Y-5181332D01*
G01X-1096086Y-5170983D01*
G01X-1106849Y-5170983D01*
G01X-1117611Y-5170983D01*
G01X-1117611Y-5182160D01*
G01X-1117611Y-5193337D01*
G01X-1107677Y-5193337D01*
G01X-1097742Y-5193337D01*
G01X-1097742Y-5202444D01*
G01X-1097742Y-5211552D01*
G01X-1118032Y-5211552D01*
G01X-1138323Y-5211552D01*
G01X-1138212Y-5222625D01*
G01X-1138102Y-5233699D01*
G01X-1127857Y-5233810D01*
G01X-1117611Y-5233920D01*
G01X-1117611Y-5243021D01*
G01X-1117611Y-5252121D01*
G01X-1147002Y-5252121D01*
G01X-1176392Y-5252121D01*
G01X-1176392Y-5243021D01*
G01X-1176392Y-5233921D01*
G01X-1166561Y-5233810D01*
G01X-1156730Y-5233699D01*
G01X-1156622Y-5213518D01*
G01X-1156515Y-5193337D01*
G01X-1146584Y-5193337D01*
G01X-1136653Y-5193337D01*
G01X-1136653Y-5182160D01*
G01X-1136653Y-5170983D01*
G01X-1156523Y-5170983D01*
G01X-1176392Y-5170983D01*
G01X-1176392Y-5151112D01*
G01X-1176392Y-5131241D01*
G01X-1187569Y-5131241D01*
G01X-1198746Y-5131241D01*
G01X-1198746Y-5141177D01*
G01X-1198746Y-5151112D01*
G01X-1207853Y-5151112D01*
G01X-1216960Y-5151112D01*
G01X-1216960Y-5131655D01*
G01X-1216960Y-5112199D01*
G01X-1207025Y-5112199D01*
G01X-1197090Y-5112199D01*
G01X-1197090Y-5101435D01*
G01X-1197090Y-5090672D01*
G01X-1207018Y-5090672D01*
G01X-1216945Y-5090672D01*
G01X-1217056Y-5080426D01*
G01X-1217167Y-5070181D01*
G01X-1227412Y-5070070D01*
G01X-1237657Y-5069959D01*
G01X-1237657Y-5050096D01*
G01X-1237657Y-5030233D01*
G01X-1247592Y-5030233D01*
G01X-1257527Y-5030233D01*
G01X-1257527Y-5019883D01*
G01X-1257527Y-5009534D01*
G01X-1278638Y-5009534D01*
G01X-1299750Y-5009534D01*
G01X-1299750Y-5019883D01*
G01X-1299750Y-5030233D01*
G01X-1309685Y-5030233D01*
G01X-1319620Y-5030233D01*
G01X-1319620Y-5040168D01*
G01X-1319620Y-5050103D01*
G01X-1329140Y-5050103D01*
G01X-1338661Y-5050103D01*
G01X-1338661Y-5040168D01*
G01X-1338661Y-5030233D01*
G01X-1348596Y-5030233D01*
G01X-1358531Y-5030233D01*
G01X-1358531Y-5019883D01*
G01X-1358531Y-5009534D01*
G01X-1379643Y-5009534D01*
G01X-1400754Y-5009534D01*
G01X-1400754Y-5030647D01*
G37*
%LPC*%
G36*
G01X-1582065Y-5263712D02*
G01X-1582065Y-5273647D01*
G01X-1561781Y-5273647D01*
G01X-1541497Y-5273647D01*
G01X-1541497Y-5303784D01*
G01X-1541497Y-5303784D01*
G01X-1541001Y-5334418D01*
G01X-1541001Y-5334418D01*
G01X-1531066Y-5334915D01*
G01X-1521628Y-5334915D01*
G01X-1521628Y-5344850D01*
G01X-1521628Y-5354785D01*
G01X-1511693Y-5354785D01*
G01X-1501758Y-5354785D01*
G01X-1501758Y-5364721D01*
G01X-1501758Y-5374656D01*
G01X-1480647Y-5374656D01*
G01X-1459535Y-5374656D01*
G01X-1459535Y-5364721D01*
G01X-1459535Y-5354785D01*
G01X-1450014Y-5354785D01*
G01X-1440493Y-5354785D01*
G01X-1440493Y-5375070D01*
G01X-1440493Y-5395354D01*
G01X-1429731Y-5395354D01*
G01X-1418968Y-5395354D01*
G01X-1418968Y-5385005D01*
G01X-1418968Y-5374656D01*
G01X-1409861Y-5374656D01*
G01X-1400754Y-5374656D01*
G01X-1400754Y-5385005D01*
G01X-1400754Y-5395354D01*
G01X-1360187Y-5395354D01*
G01X-1319620Y-5395354D01*
G01X-1319620Y-5404462D01*
G01X-1319620Y-5413569D01*
G01X-1360187Y-5413569D01*
G01X-1400754Y-5413569D01*
G01X-1400754Y-5423504D01*
G01X-1400754Y-5433440D01*
G01X-1410192Y-5433440D01*
G01X-1410192Y-5433440D01*
G01X-1419781Y-5434316D01*
G01X-1420624Y-5444286D01*
G01X-1420624Y-5454138D01*
G01X-1430559Y-5454138D01*
G01X-1440493Y-5454138D01*
G01X-1440493Y-5515406D01*
G01X-1440493Y-5576674D01*
G01X-1430559Y-5576674D01*
G01X-1420624Y-5576674D01*
G01X-1420624Y-5587023D01*
G01X-1420624Y-5597372D01*
G01X-1409861Y-5597372D01*
G01X-1399098Y-5597372D01*
G01X-1399098Y-5587023D01*
G01X-1399098Y-5576674D01*
G01X-1379643Y-5576674D01*
G01X-1360187Y-5576674D01*
G01X-1360187Y-5586195D01*
G01X-1360187Y-5595716D01*
G01X-1370122Y-5595716D01*
G01X-1380056Y-5595716D01*
G01X-1380056Y-5626764D01*
G01X-1380056Y-5657812D01*
G01X-1370122Y-5657812D01*
G01X-1360187Y-5657812D01*
G01X-1360187Y-5667747D01*
G01X-1360187Y-5677682D01*
G01X-1349424Y-5677682D01*
G01X-1338661Y-5677682D01*
G01X-1338661Y-5667747D01*
G01X-1338661Y-5657812D01*
G01X-1329140Y-5657812D01*
G01X-1319620Y-5657812D01*
G01X-1319620Y-5667747D01*
G01X-1319620Y-5677682D01*
G01X-1308857Y-5677682D01*
G01X-1298094Y-5677682D01*
G01X-1298094Y-5647462D01*
G01X-1298094Y-5617243D01*
G01X-1287745Y-5617243D01*
G01X-1277397Y-5617243D01*
G01X-1277397Y-5596958D01*
G01X-1277397Y-5576674D01*
G01X-1268290Y-5576674D01*
G01X-1259183Y-5576674D01*
G01X-1259183Y-5587023D01*
G01X-1259183Y-5597372D01*
G01X-1248420Y-5597372D01*
G01X-1237657Y-5597372D01*
G01X-1237657Y-5587023D01*
G01X-1237657Y-5576674D01*
G01X-1228136Y-5576674D01*
G01X-1218615Y-5576674D01*
G01X-1218615Y-5587023D01*
G01X-1218615Y-5597372D01*
G01X-1208681Y-5597372D01*
G01X-1198746Y-5597372D01*
G01X-1198746Y-5636699D01*
G01X-1198746Y-5676026D01*
G01X-1207853Y-5676026D01*
G01X-1216960Y-5676026D01*
G01X-1216960Y-5666084D01*
G01X-1216960Y-5656142D01*
G01X-1228033Y-5656253D01*
G01X-1239106Y-5656363D01*
G01X-1239106Y-5666919D01*
G01X-1239106Y-5677475D01*
G01X-1228861Y-5677586D01*
G01X-1218615Y-5677697D01*
G01X-1218615Y-5687204D01*
G01X-1218615Y-5696711D01*
G01X-1228861Y-5696821D01*
G01X-1239106Y-5696932D01*
G01X-1239217Y-5706764D01*
G01X-1239328Y-5716596D01*
G01X-1268711Y-5716596D01*
G01X-1298094Y-5716596D01*
G01X-1298094Y-5706660D01*
G01X-1298094Y-5696725D01*
G01X-1308857Y-5696725D01*
G01X-1319620Y-5696725D01*
G01X-1319620Y-5706660D01*
G01X-1319620Y-5716596D01*
G01X-1339075Y-5716596D01*
G01X-1358531Y-5716596D01*
G01X-1358531Y-5706660D01*
G01X-1358531Y-5696725D01*
G01X-1368466Y-5696725D01*
G01X-1378401Y-5696725D01*
G01X-1378401Y-5686376D01*
G01X-1378401Y-5676026D01*
G01X-1388749Y-5676026D01*
G01X-1399098Y-5676026D01*
G01X-1399098Y-5666091D01*
G01X-1399098Y-5656156D01*
G01X-1419796Y-5656156D01*
G01X-1440493Y-5656156D01*
G01X-1440493Y-5666091D01*
G01X-1440493Y-5676026D01*
G01X-1450014Y-5676026D01*
G01X-1459535Y-5676026D01*
G01X-1459535Y-5666091D01*
G01X-1459535Y-5656156D01*
G01X-1469470Y-5656156D01*
G01X-1479405Y-5656156D01*
G01X-1479405Y-5645807D01*
G01X-1479405Y-5635457D01*
G01X-1490581Y-5635457D01*
G01X-1501758Y-5635457D01*
G01X-1501758Y-5646635D01*
G01X-1501758Y-5657812D01*
G01X-1491409Y-5657812D01*
G01X-1481061Y-5657812D01*
G01X-1481061Y-5666919D01*
G01X-1481061Y-5676026D01*
G01X-1500516Y-5676026D01*
G01X-1519972Y-5676026D01*
G01X-1519972Y-5655742D01*
G01X-1519972Y-5635457D01*
G01X-1529907Y-5635457D01*
G01X-1539842Y-5635457D01*
G01X-1539842Y-5626350D01*
G01X-1539842Y-5617243D01*
G01X-1529907Y-5617243D01*
G01X-1519972Y-5617243D01*
G01X-1519972Y-5596958D01*
G01X-1519972Y-5576674D01*
G01X-1510865Y-5576674D01*
G01X-1501758Y-5576674D01*
G01X-1501758Y-5587023D01*
G01X-1501758Y-5597372D01*
G01X-1491409Y-5597372D01*
G01X-1481061Y-5597372D01*
G01X-1481061Y-5607307D01*
G01X-1481061Y-5617243D01*
G01X-1460777Y-5617243D01*
G01X-1440493Y-5617243D01*
G01X-1440493Y-5627178D01*
G01X-1440493Y-5637113D01*
G01X-1429731Y-5637113D01*
G01X-1418968Y-5637113D01*
G01X-1418968Y-5626350D01*
G01X-1418968Y-5615587D01*
G01X-1428903Y-5615587D01*
G01X-1438838Y-5615587D01*
G01X-1438838Y-5606148D01*
G01X-1438838Y-5606148D01*
G01X-1440362Y-5596481D01*
G01X-1459618Y-5595716D01*
G01X-1479405Y-5595716D01*
G01X-1479405Y-5586195D01*
G01X-1479405Y-5576674D01*
G01X-1469466Y-5576674D01*
G01X-1459528Y-5576674D01*
G01X-1459635Y-5555665D01*
G01X-1459742Y-5534656D01*
G01X-1470298Y-5534656D01*
G01X-1480854Y-5534656D01*
G01X-1480961Y-5554837D01*
G01X-1481068Y-5575018D01*
G01X-1490585Y-5575018D01*
G01X-1500102Y-5575018D01*
G01X-1500102Y-5545626D01*
G01X-1500102Y-5516234D01*
G01X-1489754Y-5516234D01*
G01X-1479405Y-5516234D01*
G01X-1479405Y-5505471D01*
G01X-1479405Y-5494707D01*
G01X-1489754Y-5494707D01*
G01X-1500102Y-5494707D01*
G01X-1500102Y-5485186D01*
G01X-1500102Y-5475665D01*
G01X-1479819Y-5475665D01*
G01X-1459535Y-5475665D01*
G01X-1459535Y-5464902D01*
G01X-1459535Y-5454138D01*
G01X-1480647Y-5454138D01*
G01X-1501758Y-5454138D01*
G01X-1501758Y-5464074D01*
G01X-1501758Y-5474009D01*
G01X-1511693Y-5474009D01*
G01X-1521628Y-5474009D01*
G01X-1521628Y-5484358D01*
G01X-1521628Y-5494707D01*
G01X-1530727Y-5494707D01*
G01X-1539827Y-5494707D01*
G01X-1539938Y-5484462D01*
G01X-1540049Y-5474216D01*
G01X-1560229Y-5474108D01*
G01X-1580409Y-5474001D01*
G01X-1580409Y-5464902D01*
G01X-1580409Y-5455802D01*
G01X-1560229Y-5455695D01*
G01X-1540049Y-5455587D01*
G01X-1539938Y-5445082D01*
G01X-1539938Y-5445082D01*
G01X-1541315Y-5434275D01*
G01X-1560590Y-5433440D01*
G01X-1580409Y-5433440D01*
G01X-1580409Y-5423504D01*
G01X-1580409Y-5413569D01*
G01X-1591586Y-5413569D01*
G01X-1602762Y-5413569D01*
G01X-1602762Y-5423504D01*
G01X-1602762Y-5433440D01*
G01X-1611869Y-5433440D01*
G01X-1620976Y-5433440D01*
G01X-1620976Y-5423504D01*
G01X-1620976Y-5413569D01*
G01X-1630911Y-5413569D01*
G01X-1640846Y-5413569D01*
G01X-1640846Y-5404462D01*
G01X-1640846Y-5395354D01*
G01X-1601520Y-5395354D01*
G01X-1562195Y-5395354D01*
G01X-1562195Y-5405290D01*
G01X-1562195Y-5415225D01*
G01X-1541083Y-5415225D01*
G01X-1519972Y-5415225D01*
G01X-1519972Y-5404462D01*
G01X-1519972Y-5393699D01*
G01X-1540256Y-5393699D01*
G01X-1560539Y-5393699D01*
G01X-1560539Y-5373414D01*
G01X-1560539Y-5353129D01*
G01X-1570474Y-5353129D01*
G01X-1580409Y-5353129D01*
G01X-1580409Y-5344022D01*
G01X-1580409Y-5334915D01*
G01X-1570971Y-5334915D01*
G01X-1570971Y-5334915D01*
G01X-1561370Y-5333985D01*
G01X-1560539Y-5323241D01*
G01X-1560539Y-5312560D01*
G01X-1581651Y-5312560D01*
G01X-1602762Y-5312560D01*
G01X-1602762Y-5332845D01*
G01X-1602762Y-5353129D01*
G01X-1611869Y-5353129D01*
G01X-1620976Y-5353129D01*
G01X-1620976Y-5343194D01*
G01X-1620976Y-5333259D01*
G01X-1630911Y-5333259D01*
G01X-1640846Y-5333259D01*
G01X-1640846Y-5323738D01*
G01X-1640846Y-5314216D01*
G01X-1630911Y-5314216D01*
G01X-1620976Y-5314216D01*
G01X-1620976Y-5303453D01*
G01X-1620976Y-5292690D01*
G01X-1630911Y-5292690D01*
G01X-1640846Y-5292690D01*
G01X-1640846Y-5283168D01*
G01X-1640846Y-5273647D01*
G01X-1620976Y-5273647D01*
G01X-1601106Y-5273647D01*
G01X-1601106Y-5263712D01*
G01X-1601106Y-5253777D01*
G01X-1591586Y-5253777D01*
G01X-1582065Y-5253777D01*
G01X-1582065Y-5263712D01*
G37*
%LPD*%
G36*
G01X-1501758Y-5414397D02*
G01X-1501758Y-5435096D01*
G01X-1480647Y-5435096D01*
G01X-1459535Y-5435096D01*
G01X-1459535Y-5424332D01*
G01X-1459535Y-5413569D01*
G01X-1469470Y-5413569D01*
G01X-1479405Y-5413569D01*
G01X-1479405Y-5403634D01*
G01X-1479405Y-5393699D01*
G01X-1490581Y-5393699D01*
G01X-1501758Y-5393699D01*
G01X-1501758Y-5414397D01*
G37*
G36*
G01X-1239127Y-5616112D02*
G01X-1239127Y-5616112D01*
G01X-1239217Y-5626772D01*
G01X-1239106Y-5636906D01*
G01X-1228033Y-5637016D01*
G01X-1216960Y-5637127D01*
G01X-1216960Y-5626357D01*
G01X-1216960Y-5615587D01*
G01X-1227942Y-5615587D01*
G01X-1227942Y-5615587D01*
G01X-1239127Y-5616112D01*
G37*
%LPC*%
G36*
G01X-1239313Y-5454552D02*
G01X-1239313Y-5474009D01*
G01X-1249248Y-5474009D01*
G01X-1259183Y-5474009D01*
G01X-1259183Y-5485186D01*
G01X-1259183Y-5496363D01*
G01X-1217788Y-5496363D01*
G01X-1176392Y-5496363D01*
G01X-1176392Y-5486014D01*
G01X-1176392Y-5475665D01*
G01X-1156523Y-5475665D01*
G01X-1136653Y-5475665D01*
G01X-1136653Y-5465729D01*
G01X-1136653Y-5455794D01*
G01X-1127132Y-5455794D01*
G01X-1117611Y-5455794D01*
G01X-1117611Y-5465729D01*
G01X-1117611Y-5475665D01*
G01X-1107677Y-5475665D01*
G01X-1097742Y-5475665D01*
G01X-1097742Y-5485186D01*
G01X-1097742Y-5494707D01*
G01X-1107677Y-5494707D01*
G01X-1117611Y-5494707D01*
G01X-1117611Y-5514571D01*
G01X-1117611Y-5534434D01*
G01X-1127857Y-5534545D01*
G01X-1138102Y-5534656D01*
G01X-1138212Y-5545729D01*
G01X-1138323Y-5556803D01*
G01X-1127967Y-5556803D01*
G01X-1117611Y-5556803D01*
G01X-1117611Y-5565910D01*
G01X-1117611Y-5575018D01*
G01X-1137067Y-5575018D01*
G01X-1156523Y-5575018D01*
G01X-1156523Y-5565082D01*
G01X-1156523Y-5555147D01*
G01X-1166458Y-5555147D01*
G01X-1176392Y-5555147D01*
G01X-1176392Y-5545626D01*
G01X-1176392Y-5536104D01*
G01X-1166458Y-5536104D01*
G01X-1156523Y-5536104D01*
G01X-1156523Y-5526169D01*
G01X-1156523Y-5516234D01*
G01X-1146588Y-5516234D01*
G01X-1136653Y-5516234D01*
G01X-1136653Y-5505471D01*
G01X-1136653Y-5494707D01*
G01X-1147416Y-5494707D01*
G01X-1158179Y-5494707D01*
G01X-1158179Y-5504643D01*
G01X-1158179Y-5514578D01*
G01X-1178462Y-5514578D01*
G01X-1198746Y-5514578D01*
G01X-1198746Y-5524509D01*
G01X-1198746Y-5534441D01*
G01X-1218926Y-5534548D01*
G01X-1239106Y-5534656D01*
G01X-1239214Y-5554837D01*
G01X-1239321Y-5575018D01*
G01X-1248420Y-5575018D01*
G01X-1257519Y-5575018D01*
G01X-1257626Y-5554837D01*
G01X-1257734Y-5534656D01*
G01X-1267565Y-5534545D01*
G01X-1277397Y-5534434D01*
G01X-1277397Y-5524506D01*
G01X-1277397Y-5514578D01*
G01X-1288573Y-5514578D01*
G01X-1299750Y-5514578D01*
G01X-1299750Y-5524513D01*
G01X-1299750Y-5534449D01*
G01X-1308857Y-5534449D01*
G01X-1317964Y-5534449D01*
G01X-1317964Y-5524513D01*
G01X-1317964Y-5514578D01*
G01X-1328313Y-5514578D01*
G01X-1338661Y-5514578D01*
G01X-1338661Y-5495121D01*
G01X-1338661Y-5475665D01*
G01X-1328313Y-5475665D01*
G01X-1317964Y-5475665D01*
G01X-1317964Y-5465729D01*
G01X-1317964Y-5455794D01*
G01X-1287745Y-5455794D01*
G01X-1257527Y-5455794D01*
G01X-1257527Y-5445445D01*
G01X-1257527Y-5435096D01*
G01X-1248420Y-5435096D01*
G01X-1239313Y-5435096D01*
G01X-1239313Y-5454552D01*
G37*
%LPD*%
G36*
G01X-1299750Y-5485186D02*
G01X-1299750Y-5496363D01*
G01X-1288573Y-5496363D01*
G01X-1277397Y-5496363D01*
G01X-1277397Y-5485186D01*
G01X-1277397Y-5474009D01*
G01X-1288573Y-5474009D01*
G01X-1299750Y-5474009D01*
G01X-1299750Y-5485186D01*
G37*
%LPC*%
G36*
G01X-1340317Y-5222729D02*
G01X-1340317Y-5232250D01*
G01X-1360187Y-5232250D01*
G01X-1380056Y-5232250D01*
G01X-1380056Y-5243013D01*
G01X-1380056Y-5253777D01*
G01X-1359359Y-5253777D01*
G01X-1338661Y-5253777D01*
G01X-1338661Y-5243841D01*
G01X-1338661Y-5233906D01*
G01X-1329140Y-5233906D01*
G01X-1319620Y-5233906D01*
G01X-1319620Y-5243841D01*
G01X-1319620Y-5253777D01*
G01X-1309685Y-5253777D01*
G01X-1299750Y-5253777D01*
G01X-1299750Y-5262884D01*
G01X-1299750Y-5271991D01*
G01X-1319537Y-5271991D01*
G01X-1319537Y-5271991D01*
G01X-1338803Y-5272782D01*
G01X-1340317Y-5282837D01*
G01X-1340317Y-5292690D01*
G01X-1349424Y-5292690D01*
G01X-1358531Y-5292690D01*
G01X-1358531Y-5282341D01*
G01X-1358531Y-5271991D01*
G01X-1369294Y-5271991D01*
G01X-1380056Y-5271991D01*
G01X-1380056Y-5282341D01*
G01X-1380056Y-5292690D01*
G01X-1400340Y-5292690D01*
G01X-1420624Y-5292690D01*
G01X-1420624Y-5302625D01*
G01X-1420624Y-5312560D01*
G01X-1430559Y-5312560D01*
G01X-1440493Y-5312560D01*
G01X-1440493Y-5322910D01*
G01X-1440493Y-5333259D01*
G01X-1450014Y-5333259D01*
G01X-1459535Y-5333259D01*
G01X-1459535Y-5322910D01*
G01X-1459535Y-5312560D01*
G01X-1470298Y-5312560D01*
G01X-1481061Y-5312560D01*
G01X-1481061Y-5323241D01*
G01X-1481061Y-5323241D01*
G01X-1480230Y-5333985D01*
G01X-1470629Y-5334915D01*
G01X-1461191Y-5334915D01*
G01X-1461191Y-5344022D01*
G01X-1461191Y-5353129D01*
G01X-1480647Y-5353129D01*
G01X-1500102Y-5353129D01*
G01X-1500102Y-5343194D01*
G01X-1500102Y-5333259D01*
G01X-1510037Y-5333259D01*
G01X-1519972Y-5333259D01*
G01X-1519972Y-5323738D01*
G01X-1519972Y-5314216D01*
G01X-1510037Y-5314216D01*
G01X-1500102Y-5314216D01*
G01X-1500102Y-5304281D01*
G01X-1500102Y-5294346D01*
G01X-1489754Y-5294346D01*
G01X-1479405Y-5294346D01*
G01X-1479405Y-5283996D01*
G01X-1479405Y-5273647D01*
G01X-1439251Y-5273647D01*
G01X-1399098Y-5273647D01*
G01X-1399098Y-5262884D01*
G01X-1399098Y-5252121D01*
G01X-1409033Y-5252121D01*
G01X-1418968Y-5252121D01*
G01X-1418968Y-5243021D01*
G01X-1418968Y-5233921D01*
G01X-1409137Y-5233810D01*
G01X-1399305Y-5233699D01*
G01X-1399194Y-5223453D01*
G01X-1399084Y-5213207D01*
G01X-1369700Y-5213207D01*
G01X-1340317Y-5213207D01*
G01X-1340317Y-5222729D01*
G37*
G36*
G01X-1683069Y-5445445D02*
G01X-1683069Y-5455794D01*
G01X-1662785Y-5455794D01*
G01X-1642502Y-5455794D01*
G01X-1642502Y-5465729D01*
G01X-1642502Y-5475665D01*
G01X-1631739Y-5475665D01*
G01X-1620976Y-5475665D01*
G01X-1620976Y-5465729D01*
G01X-1620976Y-5455794D01*
G01X-1611869Y-5455794D01*
G01X-1602762Y-5455794D01*
G01X-1602762Y-5465729D01*
G01X-1602762Y-5475665D01*
G01X-1592413Y-5475665D01*
G01X-1582065Y-5475665D01*
G01X-1582065Y-5485186D01*
G01X-1582065Y-5494707D01*
G01X-1592413Y-5494707D01*
G01X-1602762Y-5494707D01*
G01X-1602762Y-5504643D01*
G01X-1602762Y-5514578D01*
G01X-1611869Y-5514578D01*
G01X-1620976Y-5514578D01*
G01X-1620976Y-5504643D01*
G01X-1620976Y-5494707D01*
G01X-1641260Y-5494707D01*
G01X-1661543Y-5494707D01*
G01X-1661543Y-5484358D01*
G01X-1661543Y-5474009D01*
G01X-1691762Y-5474009D01*
G01X-1721980Y-5474009D01*
G01X-1721980Y-5454552D01*
G01X-1721980Y-5435096D01*
G01X-1702524Y-5435096D01*
G01X-1683069Y-5435096D01*
G01X-1683069Y-5445445D01*
G37*
G36*
G01X-1340317Y-5344353D02*
G01X-1340317Y-5344353D01*
G01X-1339820Y-5354289D01*
G01X-1339820Y-5354289D01*
G01X-1299253Y-5354785D01*
G01X-1259183Y-5354785D01*
G01X-1259183Y-5363893D01*
G01X-1259183Y-5373000D01*
G01X-1269118Y-5373000D01*
G01X-1279052Y-5373000D01*
G01X-1279052Y-5383349D01*
G01X-1279052Y-5393699D01*
G01X-1298508Y-5393699D01*
G01X-1317964Y-5393699D01*
G01X-1317964Y-5383349D01*
G01X-1317964Y-5373000D01*
G01X-1348182Y-5373000D01*
G01X-1378401Y-5373000D01*
G01X-1378401Y-5363893D01*
G01X-1378401Y-5354785D01*
G01X-1368466Y-5354785D01*
G01X-1358531Y-5354785D01*
G01X-1358531Y-5344850D01*
G01X-1358531Y-5334915D01*
G01X-1349424Y-5334915D01*
G01X-1340317Y-5334915D01*
G01X-1340317Y-5344353D01*
G37*
G36*
G01X-1239313Y-5081151D02*
G01X-1239313Y-5090672D01*
G01X-1249248Y-5090672D01*
G01X-1259183Y-5090672D01*
G01X-1259183Y-5100608D01*
G01X-1259183Y-5110543D01*
G01X-1269118Y-5110543D01*
G01X-1279052Y-5110543D01*
G01X-1279052Y-5130827D01*
G01X-1279052Y-5151112D01*
G01X-1288573Y-5151112D01*
G01X-1298094Y-5151112D01*
G01X-1298094Y-5141177D01*
G01X-1298094Y-5131241D01*
G01X-1308029Y-5131241D01*
G01X-1317964Y-5131241D01*
G01X-1317964Y-5121720D01*
G01X-1317964Y-5112199D01*
G01X-1308029Y-5112199D01*
G01X-1298094Y-5112199D01*
G01X-1298094Y-5091914D01*
G01X-1298094Y-5071630D01*
G01X-1268704Y-5071630D01*
G01X-1239313Y-5071630D01*
G01X-1239313Y-5081151D01*
G37*
G36*
G01X-1663199Y-5364721D02*
G01X-1663199Y-5374656D01*
G01X-1652850Y-5374656D01*
G01X-1642502Y-5374656D01*
G01X-1642502Y-5384177D01*
G01X-1642502Y-5393699D01*
G01X-1652850Y-5393699D01*
G01X-1663199Y-5393699D01*
G01X-1663199Y-5404462D01*
G01X-1663199Y-5415225D01*
G01X-1652850Y-5415225D01*
G01X-1642502Y-5415225D01*
G01X-1642502Y-5424332D01*
G01X-1642502Y-5433440D01*
G01X-1661957Y-5433440D01*
G01X-1681413Y-5433440D01*
G01X-1681413Y-5413569D01*
G01X-1681413Y-5393699D01*
G01X-1691762Y-5393699D01*
G01X-1702110Y-5393699D01*
G01X-1702110Y-5384177D01*
G01X-1702110Y-5374656D01*
G01X-1691762Y-5374656D01*
G01X-1681413Y-5374656D01*
G01X-1681413Y-5364721D01*
G01X-1681413Y-5354785D01*
G01X-1672306Y-5354785D01*
G01X-1663199Y-5354785D01*
G01X-1663199Y-5364721D01*
G37*
G36*
G01X-1259183Y-5274061D02*
G01X-1259183Y-5294346D01*
G01X-1249248Y-5294346D01*
G01X-1239313Y-5294346D01*
G01X-1239313Y-5313802D01*
G01X-1239313Y-5333259D01*
G01X-1258355Y-5333259D01*
G01X-1277397Y-5333259D01*
G01X-1277397Y-5322910D01*
G01X-1277397Y-5312560D01*
G01X-1287745Y-5312560D01*
G01X-1298094Y-5312560D01*
G01X-1298094Y-5293104D01*
G01X-1298094Y-5273647D01*
G01X-1287745Y-5273647D01*
G01X-1277397Y-5273647D01*
G01X-1277397Y-5263712D01*
G01X-1277397Y-5253777D01*
G01X-1268290Y-5253777D01*
G01X-1259183Y-5253777D01*
G01X-1259183Y-5274061D01*
G37*
G36*
G01X-1117611Y-5404048D02*
G01X-1117611Y-5433440D01*
G01X-1127463Y-5433440D01*
G01X-1127463Y-5433440D01*
G01X-1137440Y-5434309D01*
G01X-1138309Y-5444286D01*
G01X-1138309Y-5454138D01*
G01X-1147416Y-5454138D01*
G01X-1156523Y-5454138D01*
G01X-1156523Y-5444286D01*
G01X-1156523Y-5444286D01*
G01X-1157365Y-5434316D01*
G01X-1166954Y-5433440D01*
G01X-1176392Y-5433440D01*
G01X-1176392Y-5424332D01*
G01X-1176392Y-5415225D01*
G01X-1166458Y-5415225D01*
G01X-1156523Y-5415225D01*
G01X-1156523Y-5405290D01*
G01X-1156523Y-5395354D01*
G01X-1146588Y-5395354D01*
G01X-1136653Y-5395354D01*
G01X-1136653Y-5385005D01*
G01X-1136653Y-5374656D01*
G01X-1127132Y-5374656D01*
G01X-1117611Y-5374656D01*
G01X-1117611Y-5404048D01*
G37*
G36*
G01X-1037305Y-5525334D02*
G01X-1037305Y-5534434D01*
G01X-1047136Y-5534545D01*
G01X-1056968Y-5534656D01*
G01X-1057075Y-5554837D01*
G01X-1057182Y-5575018D01*
G01X-1066278Y-5575018D01*
G01X-1075373Y-5575018D01*
G01X-1075484Y-5565186D01*
G01X-1075595Y-5555354D01*
G01X-1095775Y-5555247D01*
G01X-1115956Y-5555139D01*
G01X-1115956Y-5545626D01*
G01X-1115956Y-5536112D01*
G01X-1095775Y-5536005D01*
G01X-1075595Y-5535897D01*
G01X-1075484Y-5526066D01*
G01X-1075373Y-5516234D01*
G01X-1056339Y-5516234D01*
G01X-1037305Y-5516234D01*
G01X-1037305Y-5525334D01*
G37*
G36*
G01X-1117611Y-5626764D02*
G01X-1117611Y-5656156D01*
G01X-1147002Y-5656156D01*
G01X-1176392Y-5656156D01*
G01X-1176392Y-5626764D01*
G01X-1176392Y-5597372D01*
G01X-1147002Y-5597372D01*
G01X-1117611Y-5597372D01*
G01X-1117611Y-5626764D01*
G37*
%LPD*%
G36*
G01X-1158179Y-5626350D02*
G01X-1158179Y-5637113D01*
G01X-1147416Y-5637113D01*
G01X-1136653Y-5637113D01*
G01X-1136653Y-5626350D01*
G01X-1136653Y-5615587D01*
G01X-1147416Y-5615587D01*
G01X-1158179Y-5615587D01*
G01X-1158179Y-5626350D01*
G37*
%LPC*%
G36*
G01X-1198746Y-5283996D02*
G01X-1198746Y-5294346D01*
G01X-1188397Y-5294346D01*
G01X-1178048Y-5294346D01*
G01X-1178048Y-5303453D01*
G01X-1178048Y-5312560D01*
G01X-1188397Y-5312560D01*
G01X-1198746Y-5312560D01*
G01X-1198746Y-5322910D01*
G01X-1198746Y-5333259D01*
G01X-1207853Y-5333259D01*
G01X-1216960Y-5333259D01*
G01X-1216960Y-5303453D01*
G01X-1216960Y-5273647D01*
G01X-1207853Y-5273647D01*
G01X-1198746Y-5273647D01*
G01X-1198746Y-5283996D01*
G37*
G36*
G01X-1360187Y-5162289D02*
G01X-1360187Y-5191681D01*
G01X-1379643Y-5191681D01*
G01X-1399098Y-5191681D01*
G01X-1399098Y-5172224D01*
G01X-1399098Y-5152768D01*
G01X-1388749Y-5152768D01*
G01X-1378401Y-5152768D01*
G01X-1378401Y-5142833D01*
G01X-1378401Y-5132897D01*
G01X-1369294Y-5132897D01*
G01X-1360187Y-5132897D01*
G01X-1360187Y-5162289D01*
G37*
G36*
G01X-1279052Y-5222729D02*
G01X-1279052Y-5252121D01*
G01X-1288573Y-5252121D01*
G01X-1298094Y-5252121D01*
G01X-1298094Y-5242185D01*
G01X-1298094Y-5232250D01*
G01X-1308029Y-5232250D01*
G01X-1317964Y-5232250D01*
G01X-1317964Y-5212794D01*
G01X-1317964Y-5193337D01*
G01X-1298508Y-5193337D01*
G01X-1279052Y-5193337D01*
G01X-1279052Y-5222729D01*
G37*
G36*
G01X-1218615Y-5203272D02*
G01X-1218615Y-5213207D01*
G01X-1208681Y-5213207D01*
G01X-1198746Y-5213207D01*
G01X-1198746Y-5232664D01*
G01X-1198746Y-5252121D01*
G01X-1207853Y-5252121D01*
G01X-1216960Y-5252121D01*
G01X-1216960Y-5242185D01*
G01X-1216960Y-5232250D01*
G01X-1227308Y-5232250D01*
G01X-1237657Y-5232250D01*
G01X-1237657Y-5212794D01*
G01X-1237657Y-5193337D01*
G01X-1228136Y-5193337D01*
G01X-1218615Y-5193337D01*
G01X-1218615Y-5203272D01*
G37*
G36*
G01X-1582065Y-5222729D02*
G01X-1582065Y-5232250D01*
G01X-1592413Y-5232250D01*
G01X-1602762Y-5232250D01*
G01X-1602762Y-5242185D01*
G01X-1602762Y-5252121D01*
G01X-1621804Y-5252121D01*
G01X-1640846Y-5252121D01*
G01X-1640846Y-5243021D01*
G01X-1640846Y-5233921D01*
G01X-1631014Y-5233810D01*
G01X-1621183Y-5233699D01*
G01X-1621072Y-5223453D01*
G01X-1620962Y-5213207D01*
G01X-1601513Y-5213207D01*
G01X-1582065Y-5213207D01*
G01X-1582065Y-5222729D01*
G37*
G36*
G01X-1077044Y-5445445D02*
G01X-1077044Y-5455794D01*
G01X-1067109Y-5455794D01*
G01X-1057175Y-5455794D01*
G01X-1057175Y-5464902D01*
G01X-1057175Y-5474009D01*
G01X-1076630Y-5474009D01*
G01X-1096086Y-5474009D01*
G01X-1096086Y-5464074D01*
G01X-1096086Y-5454138D01*
G01X-1106021Y-5454138D01*
G01X-1115956Y-5454138D01*
G01X-1115956Y-5444617D01*
G01X-1115956Y-5435096D01*
G01X-1096500Y-5435096D01*
G01X-1077044Y-5435096D01*
G01X-1077044Y-5445445D01*
G37*
G36*
G01X-1521628Y-5545626D02*
G01X-1521628Y-5575018D01*
G01X-1541083Y-5575018D01*
G01X-1560539Y-5575018D01*
G01X-1560539Y-5565918D01*
G01X-1560539Y-5556817D01*
G01X-1550294Y-5556707D01*
G01X-1540049Y-5556596D01*
G01X-1540049Y-5545626D01*
G01X-1540049Y-5534656D01*
G01X-1550294Y-5534545D01*
G01X-1560539Y-5534434D01*
G01X-1560539Y-5525334D01*
G01X-1560539Y-5516234D01*
G01X-1541083Y-5516234D01*
G01X-1521628Y-5516234D01*
G01X-1521628Y-5545626D01*
G37*
G36*
G01X-1319620Y-5606479D02*
G01X-1319620Y-5615587D01*
G01X-1329472Y-5615587D01*
G01X-1329472Y-5615587D01*
G01X-1339527Y-5617101D01*
G01X-1340317Y-5636368D01*
G01X-1340317Y-5656156D01*
G01X-1349424Y-5656156D01*
G01X-1358531Y-5656156D01*
G01X-1358531Y-5626764D01*
G01X-1358531Y-5597372D01*
G01X-1339075Y-5597372D01*
G01X-1319620Y-5597372D01*
G01X-1319620Y-5606479D01*
G37*
G36*
G01X-1461191Y-5203272D02*
G01X-1461191Y-5213207D01*
G01X-1450842Y-5213207D01*
G01X-1440493Y-5213207D01*
G01X-1440493Y-5222729D01*
G01X-1440493Y-5232250D01*
G01X-1459949Y-5232250D01*
G01X-1479405Y-5232250D01*
G01X-1479405Y-5212794D01*
G01X-1479405Y-5193337D01*
G01X-1470298Y-5193337D01*
G01X-1461191Y-5193337D01*
G01X-1461191Y-5203272D01*
G37*
G36*
G01X-1178048Y-5454552D02*
G01X-1178048Y-5474009D01*
G01X-1197504Y-5474009D01*
G01X-1216960Y-5474009D01*
G01X-1216960Y-5454552D01*
G01X-1216960Y-5435096D01*
G01X-1197504Y-5435096D01*
G01X-1178048Y-5435096D01*
G01X-1178048Y-5454552D01*
G37*
G36*
G01X-1400754Y-5486014D02*
G01X-1400754Y-5496363D01*
G01X-1390405Y-5496363D01*
G01X-1380056Y-5496363D01*
G01X-1380056Y-5505471D01*
G01X-1380056Y-5514578D01*
G01X-1399512Y-5514578D01*
G01X-1418968Y-5514578D01*
G01X-1418968Y-5495121D01*
G01X-1418968Y-5475665D01*
G01X-1409861Y-5475665D01*
G01X-1400754Y-5475665D01*
G01X-1400754Y-5486014D01*
G37*
G36*
G01X-1521628Y-5243841D02*
G01X-1521628Y-5253777D01*
G01X-1511693Y-5253777D01*
G01X-1501758Y-5253777D01*
G01X-1501758Y-5262884D01*
G01X-1501758Y-5271991D01*
G01X-1520800Y-5271991D01*
G01X-1539842Y-5271991D01*
G01X-1539842Y-5252949D01*
G01X-1539842Y-5233906D01*
G01X-1530735Y-5233906D01*
G01X-1521628Y-5233906D01*
G01X-1521628Y-5243841D01*
G37*
G36*
G01X-1481061Y-5162289D02*
G01X-1481061Y-5191681D01*
G01X-1490581Y-5191681D01*
G01X-1500102Y-5191681D01*
G01X-1500102Y-5162289D01*
G01X-1500102Y-5132897D01*
G01X-1490581Y-5132897D01*
G01X-1481061Y-5132897D01*
G01X-1481061Y-5162289D01*
G37*
G36*
G01X-1340317Y-5444617D02*
G01X-1340317Y-5454138D01*
G01X-1369708Y-5454138D01*
G01X-1399098Y-5454138D01*
G01X-1399098Y-5444617D01*
G01X-1399098Y-5435096D01*
G01X-1369708Y-5435096D01*
G01X-1340317Y-5435096D01*
G01X-1340317Y-5444617D01*
G37*
G36*
G01X-1319620Y-5545626D02*
G01X-1319620Y-5555147D01*
G01X-1349010Y-5555147D01*
G01X-1378401Y-5555147D01*
G01X-1378401Y-5545626D01*
G01X-1378401Y-5536104D01*
G01X-1349010Y-5536104D01*
G01X-1319620Y-5536104D01*
G01X-1319620Y-5545626D01*
G37*
G36*
G01X-1178048Y-5192095D02*
G01X-1178048Y-5211552D01*
G01X-1187569Y-5211552D01*
G01X-1197090Y-5211552D01*
G01X-1197090Y-5192095D01*
G01X-1197090Y-5172638D01*
G01X-1187569Y-5172638D01*
G01X-1178048Y-5172638D01*
G01X-1178048Y-5192095D01*
G37*
G36*
G01X-1380056Y-5333673D02*
G01X-1380056Y-5353129D01*
G01X-1389577Y-5353129D01*
G01X-1399098Y-5353129D01*
G01X-1399098Y-5333673D01*
G01X-1399098Y-5314216D01*
G01X-1389577Y-5314216D01*
G01X-1380056Y-5314216D01*
G01X-1380056Y-5333673D01*
G37*
G36*
G01X-1279052Y-5555561D02*
G01X-1279052Y-5575018D01*
G01X-1288573Y-5575018D01*
G01X-1298094Y-5575018D01*
G01X-1298094Y-5555561D01*
G01X-1298094Y-5536104D01*
G01X-1288573Y-5536104D01*
G01X-1279052Y-5536104D01*
G01X-1279052Y-5555561D01*
G37*
G36*
G01X-1218615Y-5353957D02*
G01X-1218615Y-5373000D01*
G01X-1228136Y-5373000D01*
G01X-1237657Y-5373000D01*
G01X-1237657Y-5353957D01*
G01X-1237657Y-5334915D01*
G01X-1228136Y-5334915D01*
G01X-1218615Y-5334915D01*
G01X-1218615Y-5353957D01*
G37*
G36*
G01X-1400754Y-5131655D02*
G01X-1400754Y-5151112D01*
G01X-1409861Y-5151112D01*
G01X-1418968Y-5151112D01*
G01X-1418968Y-5131655D01*
G01X-1418968Y-5112199D01*
G01X-1409861Y-5112199D01*
G01X-1400754Y-5112199D01*
G01X-1400754Y-5131655D01*
G37*
G36*
G01X-1239313Y-5131655D02*
G01X-1239313Y-5151112D01*
G01X-1248420Y-5151112D01*
G01X-1257527Y-5151112D01*
G01X-1257527Y-5131655D01*
G01X-1257527Y-5112199D01*
G01X-1248420Y-5112199D01*
G01X-1239313Y-5112199D01*
G01X-1239313Y-5131655D01*
G37*
G36*
G01X-1259183Y-5172224D02*
G01X-1259183Y-5191681D01*
G01X-1268290Y-5191681D01*
G01X-1277397Y-5191681D01*
G01X-1277397Y-5172224D01*
G01X-1277397Y-5152768D01*
G01X-1268290Y-5152768D01*
G01X-1259183Y-5152768D01*
G01X-1259183Y-5172224D01*
G37*
G36*
G01X-1239313Y-5394113D02*
G01X-1239313Y-5413569D01*
G01X-1248420Y-5413569D01*
G01X-1257527Y-5413569D01*
G01X-1257527Y-5394113D01*
G01X-1257527Y-5374656D01*
G01X-1248420Y-5374656D01*
G01X-1239313Y-5374656D01*
G01X-1239313Y-5394113D01*
G37*
G36*
G01X-1259183Y-5424332D02*
G01X-1259183Y-5433440D01*
G01X-1278638Y-5433440D01*
G01X-1298094Y-5433440D01*
G01X-1298094Y-5424332D01*
G01X-1298094Y-5415225D01*
G01X-1278638Y-5415225D01*
G01X-1259183Y-5415225D01*
G01X-1259183Y-5424332D01*
G37*
G36*
G01X-1622632Y-5525341D02*
G01X-1622632Y-5534449D01*
G01X-1642088Y-5534449D01*
G01X-1661543Y-5534449D01*
G01X-1661543Y-5525341D01*
G01X-1661543Y-5516234D01*
G01X-1642088Y-5516234D01*
G01X-1622632Y-5516234D01*
G01X-1622632Y-5525341D01*
G37*
G36*
G01X-1400754Y-5555561D02*
G01X-1400754Y-5575018D01*
G01X-1409861Y-5575018D01*
G01X-1418968Y-5575018D01*
G01X-1418968Y-5555561D01*
G01X-1418968Y-5536104D01*
G01X-1409861Y-5536104D01*
G01X-1400754Y-5536104D01*
G01X-1400754Y-5555561D01*
G37*
G36*
G01X-1400754Y-5202444D02*
G01X-1400754Y-5211552D01*
G01X-1419796Y-5211552D01*
G01X-1438838Y-5211552D01*
G01X-1438838Y-5202444D01*
G01X-1438838Y-5193337D01*
G01X-1419796Y-5193337D01*
G01X-1400754Y-5193337D01*
G01X-1400754Y-5202444D01*
G37*
G36*
G01X-1440493Y-5182160D02*
G01X-1440493Y-5191681D01*
G01X-1450014Y-5191681D01*
G01X-1459535Y-5191681D01*
G01X-1459535Y-5182160D01*
G01X-1459535Y-5172638D01*
G01X-1450014Y-5172638D01*
G01X-1440493Y-5172638D01*
G01X-1440493Y-5182160D01*
G37*
G36*
G01X-1319620Y-5182160D02*
G01X-1319620Y-5191681D01*
G01X-1329140Y-5191681D01*
G01X-1338661Y-5191681D01*
G01X-1338661Y-5182160D01*
G01X-1338661Y-5172638D01*
G01X-1329140Y-5172638D01*
G01X-1319620Y-5172638D01*
G01X-1319620Y-5182160D01*
G37*
G36*
G01X-1117611Y-5283168D02*
G01X-1117611Y-5292690D01*
G01X-1127132Y-5292690D01*
G01X-1136653Y-5292690D01*
G01X-1136653Y-5283168D01*
G01X-1136653Y-5273647D01*
G01X-1127132Y-5273647D01*
G01X-1117611Y-5273647D01*
G01X-1117611Y-5283168D01*
G37*
G36*
G01X-1218615Y-5101435D02*
G01X-1218615Y-5110543D01*
G01X-1228136Y-5110543D01*
G01X-1237657Y-5110543D01*
G01X-1237657Y-5101435D01*
G01X-1237657Y-5092328D01*
G01X-1228136Y-5092328D01*
G01X-1218615Y-5092328D01*
G01X-1218615Y-5101435D01*
G37*
G36*
G01X-1501758Y-5121720D02*
G01X-1501758Y-5131241D01*
G01X-1510865Y-5131241D01*
G01X-1519972Y-5131241D01*
G01X-1519972Y-5121720D01*
G01X-1519972Y-5112199D01*
G01X-1510865Y-5112199D01*
G01X-1501758Y-5112199D01*
G01X-1501758Y-5121720D01*
G37*
G36*
G01X-1440493Y-5142005D02*
G01X-1440493Y-5151112D01*
G01X-1450014Y-5151112D01*
G01X-1459535Y-5151112D01*
G01X-1459535Y-5142005D01*
G01X-1459535Y-5132897D01*
G01X-1450014Y-5132897D01*
G01X-1440493Y-5132897D01*
G01X-1440493Y-5142005D01*
G37*
G36*
G01X-1319620Y-5142005D02*
G01X-1319620Y-5151112D01*
G01X-1329140Y-5151112D01*
G01X-1338661Y-5151112D01*
G01X-1338661Y-5142005D01*
G01X-1338661Y-5132897D01*
G01X-1329140Y-5132897D01*
G01X-1319620Y-5132897D01*
G01X-1319620Y-5142005D01*
G37*
G36*
G01X-1481061Y-5243013D02*
G01X-1481061Y-5252121D01*
G01X-1490581Y-5252121D01*
G01X-1500102Y-5252121D01*
G01X-1500102Y-5243013D01*
G01X-1500102Y-5233906D01*
G01X-1490581Y-5233906D01*
G01X-1481061Y-5233906D01*
G01X-1481061Y-5243013D01*
G37*
G36*
G01X-1642502Y-5262884D02*
G01X-1642502Y-5271991D01*
G01X-1652022Y-5271991D01*
G01X-1661543Y-5271991D01*
G01X-1661543Y-5262884D01*
G01X-1661543Y-5253777D01*
G01X-1652022Y-5253777D01*
G01X-1642502Y-5253777D01*
G01X-1642502Y-5262884D01*
G37*
G36*
G01X-1663199Y-5283168D02*
G01X-1663199Y-5292690D01*
G01X-1672306Y-5292690D01*
G01X-1681413Y-5292690D01*
G01X-1681413Y-5283168D01*
G01X-1681413Y-5273647D01*
G01X-1672306Y-5273647D01*
G01X-1663199Y-5273647D01*
G01X-1663199Y-5283168D01*
G37*
G36*
G01X-1158179Y-5283168D02*
G01X-1158179Y-5292690D01*
G01X-1167286Y-5292690D01*
G01X-1176392Y-5292690D01*
G01X-1176392Y-5283168D01*
G01X-1176392Y-5273647D01*
G01X-1167286Y-5273647D01*
G01X-1158179Y-5273647D01*
G01X-1158179Y-5283168D01*
G37*
G36*
G01X-1642502Y-5303453D02*
G01X-1642502Y-5312560D01*
G01X-1652022Y-5312560D01*
G01X-1661543Y-5312560D01*
G01X-1661543Y-5303453D01*
G01X-1661543Y-5294346D01*
G01X-1652022Y-5294346D01*
G01X-1642502Y-5294346D01*
G01X-1642502Y-5303453D01*
G37*
G36*
G01X-1319620Y-5303453D02*
G01X-1319620Y-5312560D01*
G01X-1329140Y-5312560D01*
G01X-1338661Y-5312560D01*
G01X-1338661Y-5303453D01*
G01X-1338661Y-5294346D01*
G01X-1329140Y-5294346D01*
G01X-1319620Y-5294346D01*
G01X-1319620Y-5303453D01*
G37*
G36*
G01X-1663199Y-5323738D02*
G01X-1663199Y-5333259D01*
G01X-1672306Y-5333259D01*
G01X-1681413Y-5333259D01*
G01X-1681413Y-5323738D01*
G01X-1681413Y-5314216D01*
G01X-1672306Y-5314216D01*
G01X-1663199Y-5314216D01*
G01X-1663199Y-5323738D01*
G37*
G36*
G01X-1299750Y-5323738D02*
G01X-1299750Y-5333259D01*
G01X-1308857Y-5333259D01*
G01X-1317964Y-5333259D01*
G01X-1317964Y-5323738D01*
G01X-1317964Y-5314216D01*
G01X-1308857Y-5314216D01*
G01X-1299750Y-5314216D01*
G01X-1299750Y-5323738D01*
G37*
G36*
G01X-1622632Y-5444617D02*
G01X-1622632Y-5454138D01*
G01X-1631739Y-5454138D01*
G01X-1640846Y-5454138D01*
G01X-1640846Y-5444617D01*
G01X-1640846Y-5435096D01*
G01X-1631739Y-5435096D01*
G01X-1622632Y-5435096D01*
G01X-1622632Y-5444617D01*
G37*
G36*
G01X-1723636Y-5485186D02*
G01X-1723636Y-5494707D01*
G01X-1732743Y-5494707D01*
G01X-1741850Y-5494707D01*
G01X-1741850Y-5485186D01*
G01X-1741850Y-5475665D01*
G01X-1732743Y-5475665D01*
G01X-1723636Y-5475665D01*
G01X-1723636Y-5485186D01*
G37*
G36*
G01X-1077044Y-5505471D02*
G01X-1077044Y-5514578D01*
G01X-1086565Y-5514578D01*
G01X-1096086Y-5514578D01*
G01X-1096086Y-5505471D01*
G01X-1096086Y-5496363D01*
G01X-1086565Y-5496363D01*
G01X-1077044Y-5496363D01*
G01X-1077044Y-5505471D01*
G37*
G36*
G01X-1541497Y-5666919D02*
G01X-1541497Y-5676026D01*
G01X-1551018Y-5676026D01*
G01X-1560539Y-5676026D01*
G01X-1560539Y-5666919D01*
G01X-1560539Y-5657812D01*
G01X-1551018Y-5657812D01*
G01X-1541497Y-5657812D01*
G01X-1541497Y-5666919D01*
G37*
G36*
G01X-1259183Y-5040996D02*
G01X-1259183Y-5050103D01*
G01X-1268290Y-5050103D01*
G01X-1277397Y-5050103D01*
G01X-1277397Y-5040996D01*
G01X-1277397Y-5031888D01*
G01X-1268290Y-5031888D01*
G01X-1259183Y-5031888D01*
G01X-1259183Y-5040996D01*
G37*
G36*
G01X-1420624Y-5101435D02*
G01X-1420624Y-5110543D01*
G01X-1429731Y-5110543D01*
G01X-1438838Y-5110543D01*
G01X-1438838Y-5101435D01*
G01X-1438838Y-5092328D01*
G01X-1429731Y-5092328D01*
G01X-1420624Y-5092328D01*
G01X-1420624Y-5101435D01*
G37*
G36*
G01X-1521628Y-5142005D02*
G01X-1521628Y-5151112D01*
G01X-1530735Y-5151112D01*
G01X-1539842Y-5151112D01*
G01X-1539842Y-5142005D01*
G01X-1539842Y-5132897D01*
G01X-1530735Y-5132897D01*
G01X-1521628Y-5132897D01*
G01X-1521628Y-5142005D01*
G37*
G36*
G01X-1420624Y-5161875D02*
G01X-1420624Y-5170983D01*
G01X-1429731Y-5170983D01*
G01X-1438838Y-5170983D01*
G01X-1438838Y-5161875D01*
G01X-1438838Y-5152768D01*
G01X-1429731Y-5152768D01*
G01X-1420624Y-5152768D01*
G01X-1420624Y-5161875D01*
G37*
G36*
G01X-1299750Y-5161875D02*
G01X-1299750Y-5170983D01*
G01X-1308857Y-5170983D01*
G01X-1317964Y-5170983D01*
G01X-1317964Y-5161875D01*
G01X-1317964Y-5152768D01*
G01X-1308857Y-5152768D01*
G01X-1299750Y-5152768D01*
G01X-1299750Y-5161875D01*
G37*
G36*
G01X-1622632Y-5202444D02*
G01X-1622632Y-5211552D01*
G01X-1631739Y-5211552D01*
G01X-1640846Y-5211552D01*
G01X-1640846Y-5202444D01*
G01X-1640846Y-5193337D01*
G01X-1631739Y-5193337D01*
G01X-1622632Y-5193337D01*
G01X-1622632Y-5202444D01*
G37*
G36*
G01X-1562195Y-5243013D02*
G01X-1562195Y-5252121D01*
G01X-1571302Y-5252121D01*
G01X-1580409Y-5252121D01*
G01X-1580409Y-5243013D01*
G01X-1580409Y-5233906D01*
G01X-1571302Y-5233906D01*
G01X-1562195Y-5233906D01*
G01X-1562195Y-5243013D01*
G37*
G36*
G01X-1360187Y-5303453D02*
G01X-1360187Y-5312560D01*
G01X-1369294Y-5312560D01*
G01X-1378401Y-5312560D01*
G01X-1378401Y-5303453D01*
G01X-1378401Y-5294346D01*
G01X-1369294Y-5294346D01*
G01X-1360187Y-5294346D01*
G01X-1360187Y-5303453D01*
G37*
G36*
G01X-1420624Y-5344022D02*
G01X-1420624Y-5353129D01*
G01X-1429731Y-5353129D01*
G01X-1438838Y-5353129D01*
G01X-1438838Y-5344022D01*
G01X-1438838Y-5334915D01*
G01X-1429731Y-5334915D01*
G01X-1420624Y-5334915D01*
G01X-1420624Y-5344022D01*
G37*
G36*
G01X-1622632Y-5363893D02*
G01X-1622632Y-5373000D01*
G01X-1631739Y-5373000D01*
G01X-1640846Y-5373000D01*
G01X-1640846Y-5363893D01*
G01X-1640846Y-5354785D01*
G01X-1631739Y-5354785D01*
G01X-1622632Y-5354785D01*
G01X-1622632Y-5363893D01*
G37*
G36*
G01X-1723636Y-5424332D02*
G01X-1723636Y-5433440D01*
G01X-1732743Y-5433440D01*
G01X-1741850Y-5433440D01*
G01X-1741850Y-5424332D01*
G01X-1741850Y-5415225D01*
G01X-1732743Y-5415225D01*
G01X-1723636Y-5415225D01*
G01X-1723636Y-5424332D01*
G37*
G36*
G01X-1562195Y-5505471D02*
G01X-1562195Y-5514578D01*
G01X-1571302Y-5514578D01*
G01X-1580409Y-5514578D01*
G01X-1580409Y-5505471D01*
G01X-1580409Y-5496363D01*
G01X-1571302Y-5496363D01*
G01X-1562195Y-5496363D01*
G01X-1562195Y-5505471D01*
G37*
G36*
G01X-1198746Y-5565910D02*
G01X-1198746Y-5575018D01*
G01X-1207853Y-5575018D01*
G01X-1216960Y-5575018D01*
G01X-1216960Y-5565910D01*
G01X-1216960Y-5556803D01*
G01X-1207853Y-5556803D01*
G01X-1198746Y-5556803D01*
G01X-1198746Y-5565910D01*
G37*
G36*
G01X-1521628Y-5727359D02*
G01X-1521628Y-5736466D01*
G01X-1530735Y-5736466D01*
G01X-1539842Y-5736466D01*
G01X-1539842Y-5727359D01*
G01X-1539842Y-5718251D01*
G01X-1530735Y-5718251D01*
G01X-1521628Y-5718251D01*
G01X-1521628Y-5727359D01*
G37*
%LPD*%
G36*
G01X-1764203Y-5081151D02*
G01X-1764203Y-5152768D01*
G01X-1692590Y-5152768D01*
G01X-1620976Y-5152768D01*
G01X-1620976Y-5081151D01*
G01X-1620976Y-5009534D01*
G01X-1692590Y-5009534D01*
G01X-1764203Y-5009534D01*
G01X-1764203Y-5081151D01*
G37*
%LPC*%
G36*
G01X-1642502Y-5081565D02*
G01X-1642502Y-5131241D01*
G01X-1692176Y-5131241D01*
G01X-1741850Y-5131241D01*
G01X-1741850Y-5081565D01*
G01X-1741850Y-5031888D01*
G01X-1692176Y-5031888D01*
G01X-1642502Y-5031888D01*
G01X-1642502Y-5081565D01*
G37*
%LPD*%
G36*
G01X-1723636Y-5081151D02*
G01X-1723636Y-5112199D01*
G01X-1692590Y-5112199D01*
G01X-1661543Y-5112199D01*
G01X-1661543Y-5081151D01*
G01X-1661543Y-5050103D01*
G01X-1692590Y-5050103D01*
G01X-1723636Y-5050103D01*
G01X-1723636Y-5081151D01*
G37*
G36*
G01X-1158179Y-5081151D02*
G01X-1158179Y-5152768D01*
G01X-1086565Y-5152768D01*
G01X-1014952Y-5152768D01*
G01X-1014952Y-5081151D01*
G01X-1014952Y-5009534D01*
G01X-1086565Y-5009534D01*
G01X-1158179Y-5009534D01*
G01X-1158179Y-5081151D01*
G37*
%LPC*%
G36*
G01X-1037305Y-5081565D02*
G01X-1037305Y-5131241D01*
G01X-1086979Y-5131241D01*
G01X-1136653Y-5131241D01*
G01X-1136653Y-5081565D01*
G01X-1136653Y-5031888D01*
G01X-1086979Y-5031888D01*
G01X-1037305Y-5031888D01*
G01X-1037305Y-5081565D01*
G37*
%LPD*%
G36*
G01X-1117611Y-5081151D02*
G01X-1117611Y-5112199D01*
G01X-1086565Y-5112199D01*
G01X-1055519Y-5112199D01*
G01X-1055519Y-5081151D01*
G01X-1055519Y-5050103D01*
G01X-1086565Y-5050103D01*
G01X-1117611Y-5050103D01*
G01X-1117611Y-5081151D01*
G37*
G36*
G01X-1764203Y-5687204D02*
G01X-1764203Y-5758821D01*
G01X-1692590Y-5758821D01*
G01X-1620976Y-5758821D01*
G01X-1620976Y-5687204D01*
G01X-1620976Y-5615587D01*
G01X-1692590Y-5615587D01*
G01X-1764203Y-5615587D01*
G01X-1764203Y-5687204D01*
G37*
%LPC*%
G36*
G01X-1642502Y-5686790D02*
G01X-1642502Y-5736466D01*
G01X-1692176Y-5736466D01*
G01X-1741850Y-5736466D01*
G01X-1741850Y-5686790D01*
G01X-1741850Y-5637113D01*
G01X-1692176Y-5637113D01*
G01X-1642502Y-5637113D01*
G01X-1642502Y-5686790D01*
G37*
%LPD*%
G36*
G01X-1723636Y-5687204D02*
G01X-1723636Y-5718251D01*
G01X-1692590Y-5718251D01*
G01X-1661543Y-5718251D01*
G01X-1661543Y-5687204D01*
G01X-1661543Y-5656156D01*
G01X-1692590Y-5656156D01*
G01X-1723636Y-5656156D01*
G01X-1723636Y-5687204D01*
G37*
G36*
G01X-1077044Y-5273233D02*
G01X-1077044Y-5314216D01*
G01X-1057175Y-5314216D01*
G01X-1037305Y-5314216D01*
G01X-1037305Y-5324069D01*
G01X-1037305Y-5324069D01*
G01X-1036414Y-5334050D01*
G01X-1026128Y-5334915D01*
G01X-1026128Y-5334915D01*
G01X-1015831Y-5333997D01*
G01X-1014952Y-5323241D01*
G01X-1014952Y-5312560D01*
G01X-1025300Y-5312560D01*
G01X-1035649Y-5312560D01*
G01X-1035649Y-5303453D01*
G01X-1035649Y-5294346D01*
G01X-1025300Y-5294346D01*
G01X-1014952Y-5294346D01*
G01X-1014952Y-5273233D01*
G01X-1014952Y-5252121D01*
G01X-1025300Y-5252121D01*
G01X-1035649Y-5252121D01*
G01X-1035649Y-5242185D01*
G01X-1035649Y-5232250D01*
G01X-1056347Y-5232250D01*
G01X-1077044Y-5232250D01*
G01X-1077044Y-5273233D01*
G37*
G36*
G01X-1743223Y-5534718D02*
G01X-1743223Y-5534718D01*
G01X-1743506Y-5545074D01*
G01X-1743506Y-5555147D01*
G01X-1753854Y-5555147D01*
G01X-1764203Y-5555147D01*
G01X-1764203Y-5565910D01*
G01X-1764203Y-5576674D01*
G01X-1753026Y-5576674D01*
G01X-1741850Y-5576674D01*
G01X-1741850Y-5566738D01*
G01X-1741850Y-5556803D01*
G01X-1732743Y-5556803D01*
G01X-1723636Y-5556803D01*
G01X-1723636Y-5577087D01*
G01X-1723636Y-5597372D01*
G01X-1712873Y-5597372D01*
G01X-1702110Y-5597372D01*
G01X-1702110Y-5576260D01*
G01X-1702110Y-5555147D01*
G01X-1712038Y-5555147D01*
G01X-1721966Y-5555147D01*
G01X-1722076Y-5544901D01*
G01X-1722187Y-5534656D01*
G01X-1732563Y-5534545D01*
G01X-1732563Y-5534545D01*
G01X-1743223Y-5534718D01*
G37*
G36*
G01X-1461191Y-5020711D02*
G01X-1461191Y-5031888D01*
G01X-1450842Y-5031888D01*
G01X-1440493Y-5031888D01*
G01X-1440493Y-5041824D01*
G01X-1440493Y-5051759D01*
G01X-1429731Y-5051759D01*
G01X-1418968Y-5051759D01*
G01X-1418968Y-5030647D01*
G01X-1418968Y-5009534D01*
G01X-1440079Y-5009534D01*
G01X-1461191Y-5009534D01*
G01X-1461191Y-5020711D01*
G37*
G36*
G01X-1541497Y-5040996D02*
G01X-1541497Y-5051759D01*
G01X-1531563Y-5051759D01*
G01X-1521628Y-5051759D01*
G01X-1521628Y-5061694D01*
G01X-1521628Y-5071630D01*
G01X-1510865Y-5071630D01*
G01X-1500102Y-5071630D01*
G01X-1500102Y-5050931D01*
G01X-1500102Y-5030233D01*
G01X-1520800Y-5030233D01*
G01X-1541497Y-5030233D01*
G01X-1541497Y-5040996D01*
G37*
G36*
G01X-1097742Y-5344022D02*
G01X-1097742Y-5354785D01*
G01X-1076630Y-5354785D01*
G01X-1055519Y-5354785D01*
G01X-1055519Y-5344022D01*
G01X-1055519Y-5333259D01*
G01X-1076630Y-5333259D01*
G01X-1097742Y-5333259D01*
G01X-1097742Y-5344022D01*
G37*
G36*
G01X-1582065Y-5020711D02*
G01X-1582065Y-5031888D01*
G01X-1571302Y-5031888D01*
G01X-1560539Y-5031888D01*
G01X-1560539Y-5020711D01*
G01X-1560539Y-5009534D01*
G01X-1571302Y-5009534D01*
G01X-1582065Y-5009534D01*
G01X-1582065Y-5020711D01*
G37*
G36*
G01X-1198746Y-5040996D02*
G01X-1198746Y-5051759D01*
G01X-1187569Y-5051759D01*
G01X-1176392Y-5051759D01*
G01X-1176392Y-5040996D01*
G01X-1176392Y-5030233D01*
G01X-1187569Y-5030233D01*
G01X-1198746Y-5030233D01*
G01X-1198746Y-5040996D01*
G37*
G36*
G01X-1602762Y-5142005D02*
G01X-1602762Y-5152768D01*
G01X-1591586Y-5152768D01*
G01X-1580409Y-5152768D01*
G01X-1580409Y-5142005D01*
G01X-1580409Y-5131241D01*
G01X-1591586Y-5131241D01*
G01X-1602762Y-5131241D01*
G01X-1602762Y-5142005D01*
G37*
G36*
G01X-1037305Y-5666919D02*
G01X-1037305Y-5677682D01*
G01X-1026128Y-5677682D01*
G01X-1014952Y-5677682D01*
G01X-1014952Y-5666919D01*
G01X-1014952Y-5656156D01*
G01X-1026128Y-5656156D01*
G01X-1037305Y-5656156D01*
G01X-1037305Y-5666919D01*
G37*
G36*
G01X-1178048Y-5747643D02*
G01X-1178048Y-5758821D01*
G01X-1167286Y-5758821D01*
G01X-1156523Y-5758821D01*
G01X-1156523Y-5747643D01*
G01X-1156523Y-5736466D01*
G01X-1167286Y-5736466D01*
G01X-1178048Y-5736466D01*
G01X-1178048Y-5747643D01*
G37*
G36*
G01X-1582065Y-5101435D02*
G01X-1582065Y-5112199D01*
G01X-1571302Y-5112199D01*
G01X-1560539Y-5112199D01*
G01X-1560539Y-5101435D01*
G01X-1560539Y-5090672D01*
G01X-1571302Y-5090672D01*
G01X-1582065Y-5090672D01*
G01X-1582065Y-5101435D01*
G37*
G04 Image End*
G54D10*

M02*

