G04 Layer: TopLayer*
G04 EasyEDA Pro v2.2.32.3, 2024-11-02 15:36:31*
G04 Gerber Generator version 0.3*
G04 Scale: 100 percent, Rotated: No, Reflected: No*
G04 Dimensions in millimeters*
G04 Leading zeros omitted, absolute positions, 3 integers and 5 decimals*
%FSLAX35Y35*%
%MOMM*%
%AMPolygonMacro1*4,1,8,0.177,-0.0785,-0.023,-0.0785,-0.023,-0.0115,-0.177,-0.0115,-0.087,0.0785,-0.023,0.0785,0.003,0.0785,0.177,0.0785,0.177,-0.0785,0*%
%AMPolygonMacro2*4,1,8,-0.177,0.0785,-0.077,0.0785,0.023,0.0785,0.087,0.0785,0.177,-0.0115,0.023,-0.0115,0.023,-0.0785,-0.177,-0.0785,-0.177,0.0785,0*%
%AMPolygonMacro3*4,1,8,0.177,-0.0785,-0.023,-0.0785,-0.023,-0.0115,-0.177,-0.0115,-0.087,0.0785,-0.023,0.0785,0.003,0.0785,0.177,0.0785,0.177,-0.0785,0*%
%AMPolygonMacro4*4,1,8,-0.177,0.0785,-0.077,0.0785,0.023,0.0785,0.087,0.0785,0.177,-0.0115,0.023,-0.0115,0.023,-0.0785,-0.177,-0.0785,-0.177,0.0785,0*%
%AMPolygonMacro5*4,1,8,0.177,-0.0785,-0.023,-0.0785,-0.023,-0.0115,-0.177,-0.0115,-0.087,0.0785,-0.023,0.0785,0.003,0.0785,0.177,0.0785,0.177,-0.0785,0*%
%AMPolygonMacro6*4,1,8,-0.177,0.0785,-0.077,0.0785,0.023,0.0785,0.087,0.0785,0.177,-0.0115,0.023,-0.0115,0.023,-0.0785,-0.177,-0.0785,-0.177,0.0785,0*%
%ADD10R,0.349X0.5*%
%ADD11PolygonMacro1*%
%ADD12PolygonMacro2*%
%ADD13PolygonMacro3*%
%ADD14PolygonMacro4*%
%ADD15PolygonMacro5*%
%ADD16PolygonMacro6*%
%ADD17C,4.4024*%
%ADD18C,4.4*%
%ADD19R,0.1X0.1*%
%ADD20C,0.45*%
%ADD21C,0.157*%
G75*


G04 Image Start*
G36*
G01X-8558717Y-4578336D02*
G01X-8558717Y-4578938D01*
G01X-8521096Y-4643983D01*
G01X-8483476Y-4709027D01*
G01X-8459874Y-4749952D01*
G01X-8436272Y-4790877D01*
G01X-8288102Y-4790877D01*
G01X-8139933Y-4790877D01*
G01X-8027870Y-4984977D01*
G01X-7915806Y-5179078D01*
G01X-7915387Y-5179063D01*
G01X-7914968Y-5179049D01*
G01X-7823116Y-5019874D01*
G01X-7731265Y-4860700D01*
G01X-7711204Y-4825820D01*
G01X-7691142Y-4790941D01*
G01X-7542211Y-4790742D01*
G01X-7393279Y-4790543D01*
G01X-7370920Y-4751790D01*
G01X-7348562Y-4713036D01*
G01X-7309890Y-4646078D01*
G01X-7271219Y-4579120D01*
G01X-7271219Y-4578427D01*
G01X-7271219Y-4577734D01*
G01X-7914968Y-4577734D01*
G01X-8558717Y-4577734D01*
G01X-8558717Y-4578336D01*
G37*
G36*
G01X-8364289Y-4914818D02*
G01X-8364289Y-4915155D01*
G01X-8140738Y-5302520D01*
G01X-7917186Y-5689886D01*
G01X-7916055Y-5691703D01*
G01X-7914924Y-5693521D01*
G01X-7861532Y-5601168D01*
G01X-7808140Y-5508814D01*
G01X-7758737Y-5423290D01*
G01X-7709334Y-5337766D01*
G01X-7588091Y-5127629D01*
G01X-7466847Y-4917493D01*
G01X-7465897Y-4915990D01*
G01X-7464947Y-4914486D01*
G01X-7559064Y-4914486D01*
G01X-7653180Y-4914486D01*
G01X-7783639Y-5142162D01*
G01X-7914097Y-5369837D01*
G01X-7914593Y-5370366D01*
G01X-7915089Y-5370894D01*
G01X-8045724Y-5142857D01*
G01X-8176358Y-4914821D01*
G01X-8270324Y-4914651D01*
G01X-8364289Y-4914482D01*
G01X-8364289Y-4914818D01*
G37*
G04 Image End*

G04 Text Start*
G36*
G01X-1299008Y-4645289D02*
G01X-1300371Y-4644380D01*
G01X-1301280Y-4643016D01*
G01X-1301962Y-4641198D01*
G01X-1303326Y-4637107D01*
G01X-1304690Y-4633471D01*
G01X-1325144Y-4572107D01*
G01X-1326053Y-4569834D01*
G01X-1330371Y-4556880D01*
G01X-1330599Y-4555289D01*
G01X-1330371Y-4553243D01*
G01X-1329973Y-4552277D01*
G01X-1329235Y-4551652D01*
G01X-1327644Y-4550971D01*
G01X-1321962Y-4550743D01*
G01X-1316280Y-4550971D01*
G01X-1314690Y-4551198D01*
G01X-1312644Y-4551652D01*
G01X-1311280Y-4552789D01*
G01X-1310599Y-4554152D01*
G01X-1309917Y-4556198D01*
G01X-1309235Y-4558470D01*
G01X-1307871Y-4562561D01*
G01X-1306508Y-4567107D01*
G01X-1305144Y-4571198D01*
G01X-1303780Y-4575743D01*
G01X-1302417Y-4579834D01*
G01X-1301053Y-4584380D01*
G01X-1299690Y-4588471D01*
G01X-1298326Y-4593016D01*
G01X-1296962Y-4597107D01*
G01X-1295599Y-4601652D01*
G01X-1294235Y-4605743D01*
G01X-1292871Y-4610289D01*
G01X-1290826Y-4616425D01*
G01X-1290144Y-4618925D01*
G01X-1287644Y-4626425D01*
G01X-1287360Y-4626766D01*
G01X-1286962Y-4626425D01*
G01X-1286053Y-4624152D01*
G01X-1283326Y-4615289D01*
G01X-1281735Y-4610516D01*
G01X-1281280Y-4608698D01*
G01X-1279917Y-4604607D01*
G01X-1279235Y-4602107D01*
G01X-1277644Y-4597334D01*
G01X-1277189Y-4595516D01*
G01X-1276508Y-4593471D01*
G01X-1275144Y-4588925D01*
G01X-1273780Y-4584834D01*
G01X-1272417Y-4580289D01*
G01X-1271735Y-4578243D01*
G01X-1271053Y-4575743D01*
G01X-1270144Y-4573016D01*
G01X-1268326Y-4567107D01*
G01X-1266735Y-4562334D01*
G01X-1266280Y-4560516D01*
G01X-1265598Y-4558470D01*
G01X-1264235Y-4553925D01*
G01X-1263326Y-4552334D01*
G01X-1261962Y-4551425D01*
G01X-1260371Y-4550971D01*
G01X-1255598Y-4550743D01*
G01X-1250371Y-4550971D01*
G01X-1248099Y-4551425D01*
G01X-1246280Y-4552334D01*
G01X-1245826Y-4553073D01*
G01X-1245826Y-4553925D01*
G01X-1246280Y-4555516D01*
G01X-1246735Y-4557334D01*
G01X-1247417Y-4559834D01*
G01X-1248326Y-4562107D01*
G01X-1264689Y-4611198D01*
G01X-1265598Y-4613471D01*
G01X-1274689Y-4640743D01*
G01X-1275598Y-4643243D01*
G01X-1276735Y-4644834D01*
G01X-1278326Y-4645743D01*
G01X-1288326Y-4646198D01*
G01X-1297871Y-4645970D01*
G01X-1299008Y-4645289D01*
G37*
G36*
G01X-1215826Y-4644607D02*
G01X-1216337Y-4634493D01*
G01X-1216508Y-4605516D01*
G01X-1216508Y-4567107D01*
G01X-1227644Y-4567107D01*
G01X-1239917Y-4566880D01*
G01X-1241508Y-4566198D01*
G01X-1242417Y-4564834D01*
G01X-1242871Y-4560289D01*
G01X-1242644Y-4555061D01*
G01X-1241735Y-4552334D01*
G01X-1241053Y-4551198D01*
G01X-1208098Y-4551198D01*
G01X-1173553Y-4551425D01*
G01X-1172246Y-4551880D01*
G01X-1171508Y-4552789D01*
G01X-1170826Y-4554607D01*
G01X-1170599Y-4558470D01*
G01X-1170826Y-4562334D01*
G01X-1171280Y-4564379D01*
G01X-1171735Y-4565573D01*
G01X-1172644Y-4566425D01*
G01X-1176394Y-4566936D01*
G01X-1185371Y-4567107D01*
G01X-1196962Y-4567107D01*
G01X-1196962Y-4604152D01*
G01X-1197189Y-4642334D01*
G01X-1197871Y-4644380D01*
G01X-1199235Y-4645516D01*
G01X-1200826Y-4645970D01*
G01X-1207189Y-4646198D01*
G01X-1214008Y-4645743D01*
G01X-1215826Y-4644607D01*
G37*
G36*
G01X-1158099Y-4645061D02*
G01X-1159235Y-4644380D01*
G01X-1159235Y-4600516D01*
G01X-1158886Y-4566198D01*
G01X-1140144Y-4566198D01*
G01X-1140144Y-4582107D01*
G01X-1139917Y-4598243D01*
G01X-1136053Y-4598471D01*
G01X-1136053Y-4598471D01*
G01X-1131735Y-4598243D01*
G01X-1129235Y-4598016D01*
G01X-1125826Y-4597561D01*
G01X-1123099Y-4596652D01*
G01X-1121280Y-4595743D01*
G01X-1119917Y-4594834D01*
G01X-1118326Y-4593243D01*
G01X-1116735Y-4590970D01*
G01X-1115598Y-4588471D01*
G01X-1114917Y-4586425D01*
G01X-1114689Y-4582334D01*
G01X-1114917Y-4578243D01*
G01X-1115371Y-4576198D01*
G01X-1116053Y-4574152D01*
G01X-1116735Y-4572561D01*
G01X-1117644Y-4571198D01*
G01X-1119917Y-4568925D01*
G01X-1121280Y-4568016D01*
G01X-1123326Y-4567107D01*
G01X-1125371Y-4566425D01*
G01X-1133099Y-4566198D01*
G01X-1140144Y-4566198D01*
G01X-1158886Y-4566198D01*
G01X-1158780Y-4555743D01*
G01X-1158099Y-4553925D01*
G01X-1156962Y-4552561D01*
G01X-1155144Y-4551652D01*
G01X-1140599Y-4551198D01*
G01X-1126280Y-4551425D01*
G01X-1124462Y-4551652D01*
G01X-1121735Y-4551880D01*
G01X-1119008Y-4552334D01*
G01X-1117190Y-4552789D01*
G01X-1114917Y-4553243D01*
G01X-1112644Y-4553925D01*
G01X-1110598Y-4554834D01*
G01X-1108099Y-4555971D01*
G01X-1105826Y-4557334D01*
G01X-1104235Y-4558470D01*
G01X-1103099Y-4559379D01*
G01X-1099689Y-4562789D01*
G01X-1097417Y-4566425D01*
G01X-1096735Y-4568016D01*
G01X-1096053Y-4569834D01*
G01X-1095371Y-4572107D01*
G01X-1094917Y-4574152D01*
G01X-1094689Y-4579152D01*
G01X-1094917Y-4585061D01*
G01X-1095371Y-4587789D01*
G01X-1096281Y-4591425D01*
G01X-1096962Y-4593471D01*
G01X-1097871Y-4595516D01*
G01X-1099008Y-4597789D01*
G01X-1100371Y-4599834D01*
G01X-1101508Y-4601425D01*
G01X-1105371Y-4605289D01*
G01X-1107644Y-4606880D01*
G01X-1109462Y-4608016D01*
G01X-1111280Y-4608925D01*
G01X-1113326Y-4609834D01*
G01X-1115598Y-4610743D01*
G01X-1117644Y-4611425D01*
G01X-1122190Y-4612334D01*
G01X-1126280Y-4612789D01*
G01X-1133553Y-4613016D01*
G01X-1140144Y-4613016D01*
G01X-1140144Y-4627334D01*
G01X-1140371Y-4643243D01*
G01X-1140826Y-4644550D01*
G01X-1141735Y-4645289D01*
G01X-1143553Y-4645970D01*
G01X-1149917Y-4646198D01*
G01X-1156280Y-4645970D01*
G01X-1158099Y-4645061D01*
G37*
G36*
G01X-1066280Y-4646880D02*
G01X-1070826Y-4645970D01*
G01X-1073326Y-4645289D01*
G01X-1076053Y-4644380D01*
G01X-1078099Y-4643471D01*
G01X-1079917Y-4642561D01*
G01X-1081508Y-4641652D01*
G01X-1082871Y-4640743D01*
G01X-1084235Y-4639152D01*
G01X-1084917Y-4637334D01*
G01X-1085144Y-4632789D01*
G01X-1084689Y-4627334D01*
G01X-1083553Y-4625061D01*
G01X-1082814Y-4624607D01*
G01X-1081962Y-4624607D01*
G01X-1080371Y-4625289D01*
G01X-1078780Y-4626198D01*
G01X-1076962Y-4627334D01*
G01X-1074689Y-4628471D01*
G01X-1072644Y-4629380D01*
G01X-1070826Y-4630061D01*
G01X-1068780Y-4630743D01*
G01X-1066280Y-4631425D01*
G01X-1064008Y-4631879D01*
G01X-1060144Y-4632107D01*
G01X-1055371Y-4631879D01*
G01X-1053098Y-4631425D01*
G01X-1051280Y-4630970D01*
G01X-1049462Y-4630289D01*
G01X-1047644Y-4629152D01*
G01X-1045599Y-4627334D01*
G01X-1044462Y-4625516D01*
G01X-1043780Y-4623925D01*
G01X-1043326Y-4620970D01*
G01X-1043780Y-4617334D01*
G01X-1044690Y-4615289D01*
G01X-1045599Y-4613925D01*
G01X-1046735Y-4612562D01*
G01X-1048553Y-4611198D01*
G01X-1051962Y-4608925D01*
G01X-1053553Y-4608016D01*
G01X-1055826Y-4607107D01*
G01X-1057644Y-4606198D01*
G01X-1060826Y-4604834D01*
G01X-1068553Y-4600970D01*
G01X-1070826Y-4599607D01*
G01X-1072417Y-4598471D01*
G01X-1073780Y-4597561D01*
G01X-1075144Y-4596425D01*
G01X-1077417Y-4594152D01*
G01X-1078326Y-4593016D01*
G01X-1079462Y-4591425D01*
G01X-1080599Y-4589607D01*
G01X-1081508Y-4587789D01*
G01X-1082417Y-4585289D01*
G01X-1083099Y-4583243D01*
G01X-1083553Y-4578698D01*
G01X-1083553Y-4577334D01*
G01X-1083099Y-4572334D01*
G01X-1082644Y-4570289D01*
G01X-1081962Y-4567561D01*
G01X-1081053Y-4565516D01*
G01X-1080144Y-4563698D01*
G01X-1079008Y-4561652D01*
G01X-1077871Y-4560061D01*
G01X-1074008Y-4556198D01*
G01X-1071735Y-4554607D01*
G01X-1069917Y-4553470D01*
G01X-1068099Y-4552561D01*
G01X-1065599Y-4551652D01*
G01X-1063553Y-4550971D01*
G01X-1059462Y-4550062D01*
G01X-1054462Y-4549607D01*
G01X-1052644Y-4549380D01*
G01X-1050826Y-4549607D01*
G01X-1048780Y-4549834D01*
G01X-1045826Y-4550062D01*
G01X-1041280Y-4550971D01*
G01X-1038780Y-4551652D01*
G01X-1036735Y-4552334D01*
G01X-1034917Y-4553016D01*
G01X-1033099Y-4553925D01*
G01X-1031508Y-4554834D01*
G01X-1030371Y-4555743D01*
G01X-1029462Y-4557334D01*
G01X-1029008Y-4559152D01*
G01X-1028781Y-4562334D01*
G01X-1029008Y-4565971D01*
G01X-1029462Y-4568698D01*
G01X-1029803Y-4569948D01*
G01X-1030371Y-4570516D01*
G01X-1032189Y-4570516D01*
G01X-1034235Y-4569607D01*
G01X-1036280Y-4568470D01*
G01X-1040371Y-4566652D01*
G01X-1043098Y-4565743D01*
G01X-1045371Y-4565061D01*
G01X-1049008Y-4564607D01*
G01X-1050599Y-4564379D01*
G01X-1053098Y-4564607D01*
G01X-1055826Y-4565061D01*
G01X-1058098Y-4565743D01*
G01X-1059917Y-4566652D01*
G01X-1061280Y-4567561D01*
G01X-1062417Y-4568925D01*
G01X-1063326Y-4570516D01*
G01X-1064008Y-4573016D01*
G01X-1064008Y-4575516D01*
G01X-1063553Y-4577561D01*
G01X-1062871Y-4579380D01*
G01X-1061735Y-4580971D01*
G01X-1060371Y-4582561D01*
G01X-1058780Y-4583698D01*
G01X-1056962Y-4584834D01*
G01X-1055599Y-4585743D01*
G01X-1054235Y-4586425D01*
G01X-1052644Y-4587107D01*
G01X-1050826Y-4588016D01*
G01X-1042644Y-4591652D01*
G01X-1040826Y-4592561D01*
G01X-1039235Y-4593471D01*
G01X-1037189Y-4594607D01*
G01X-1033099Y-4597334D01*
G01X-1031508Y-4598698D01*
G01X-1030371Y-4599834D01*
G01X-1028553Y-4602107D01*
G01X-1027417Y-4603471D01*
G01X-1026508Y-4605061D01*
G01X-1025599Y-4606880D01*
G01X-1024690Y-4608925D01*
G01X-1024008Y-4611425D01*
G01X-1023553Y-4613698D01*
G01X-1023326Y-4617107D01*
G01X-1023553Y-4620516D01*
G01X-1023781Y-4622107D01*
G01X-1024235Y-4624607D01*
G01X-1024917Y-4626879D01*
G01X-1025599Y-4628925D01*
G01X-1026508Y-4630970D01*
G01X-1027417Y-4632561D01*
G01X-1028781Y-4634607D01*
G01X-1030144Y-4636425D01*
G01X-1033553Y-4639834D01*
G01X-1034690Y-4640743D01*
G01X-1036053Y-4641652D01*
G01X-1037871Y-4642789D01*
G01X-1039690Y-4643698D01*
G01X-1041280Y-4644380D01*
G01X-1043098Y-4645061D01*
G01X-1045144Y-4645743D01*
G01X-1047417Y-4646425D01*
G01X-1049462Y-4646880D01*
G01X-1053098Y-4647334D01*
G01X-1058780Y-4647561D01*
G01X-1064462Y-4647334D01*
G01X-1066280Y-4646880D01*
G37*
G36*
G01X-945826Y-4646880D02*
G01X-950371Y-4645970D01*
G01X-952871Y-4645289D01*
G01X-955144Y-4644380D01*
G01X-957190Y-4643471D01*
G01X-959235Y-4642334D01*
G01X-961053Y-4641198D01*
G01X-962417Y-4640061D01*
G01X-963553Y-4638925D01*
G01X-964917Y-4637334D01*
G01X-966281Y-4635289D01*
G01X-967190Y-4633471D01*
G01X-967871Y-4631652D01*
G01X-968553Y-4629152D01*
G01X-969008Y-4625970D01*
G01X-969008Y-4622789D01*
G01X-968752Y-4620743D01*
G01X-950144Y-4620743D01*
G01X-949917Y-4624152D01*
G01X-949235Y-4626652D01*
G01X-948553Y-4628243D01*
G01X-947644Y-4629380D01*
G01X-946508Y-4630516D01*
G01X-944917Y-4631652D01*
G01X-942871Y-4632561D01*
G01X-940599Y-4633016D01*
G01X-939008Y-4633243D01*
G01X-936053Y-4633471D01*
G01X-936053Y-4633471D01*
G01X-932644Y-4633243D01*
G01X-931053Y-4633016D01*
G01X-928780Y-4632561D01*
G01X-926735Y-4631652D01*
G01X-924917Y-4630516D01*
G01X-923326Y-4629152D01*
G01X-922417Y-4627789D01*
G01X-921735Y-4626198D01*
G01X-921280Y-4624607D01*
G01X-921053Y-4623016D01*
G01X-921280Y-4620970D01*
G01X-921735Y-4618698D01*
G01X-922417Y-4616425D01*
G01X-923326Y-4614834D01*
G01X-924008Y-4613698D01*
G01X-925371Y-4612107D01*
G01X-927644Y-4610289D01*
G01X-929690Y-4608925D01*
G01X-931508Y-4607789D01*
G01X-933553Y-4606652D01*
G01X-935371Y-4605743D01*
G01X-936962Y-4605516D01*
G01X-938553Y-4606198D01*
G01X-940371Y-4607334D01*
G01X-942417Y-4608698D01*
G01X-944008Y-4609834D01*
G01X-947417Y-4613243D01*
G01X-948326Y-4614607D01*
G01X-949235Y-4616425D01*
G01X-949917Y-4618243D01*
G01X-950144Y-4620743D01*
G01X-968752Y-4620743D01*
G01X-968553Y-4619152D01*
G01X-967871Y-4616198D01*
G01X-966962Y-4613925D01*
G01X-965371Y-4610743D01*
G01X-964462Y-4609380D01*
G01X-962644Y-4607107D01*
G01X-961508Y-4605970D01*
G01X-959235Y-4604152D01*
G01X-957644Y-4602789D01*
G01X-956053Y-4601652D01*
G01X-954689Y-4600743D01*
G01X-951508Y-4598925D01*
G01X-950826Y-4598016D01*
G01X-952190Y-4596880D01*
G01X-956281Y-4594152D01*
G01X-957871Y-4592789D01*
G01X-959008Y-4591880D01*
G01X-960144Y-4590743D01*
G01X-962417Y-4588016D01*
G01X-963326Y-4586652D01*
G01X-964235Y-4585061D01*
G01X-965144Y-4582789D01*
G01X-965826Y-4580971D01*
G01X-966281Y-4577334D01*
G01X-966508Y-4575289D01*
G01X-966281Y-4573243D01*
G01X-966248Y-4573016D01*
G01X-947871Y-4573016D01*
G01X-947644Y-4576425D01*
G01X-946962Y-4578698D01*
G01X-946281Y-4580289D01*
G01X-945371Y-4581652D01*
G01X-942644Y-4584380D01*
G01X-940371Y-4585970D01*
G01X-938326Y-4587334D01*
G01X-936280Y-4588471D01*
G01X-934462Y-4588925D01*
G01X-932871Y-4588243D01*
G01X-932871Y-4588243D01*
G01X-931280Y-4587334D01*
G01X-930144Y-4586425D01*
G01X-926962Y-4583698D01*
G01X-925599Y-4581880D01*
G01X-924235Y-4579607D01*
G01X-923553Y-4577789D01*
G01X-923326Y-4575289D01*
G01X-923553Y-4572789D01*
G01X-924008Y-4570743D01*
G01X-924690Y-4568698D01*
G01X-925599Y-4567334D01*
G01X-926735Y-4566198D01*
G01X-928553Y-4565061D01*
G01X-930826Y-4564152D01*
G01X-932644Y-4563698D01*
G01X-935371Y-4563470D01*
G01X-938099Y-4563698D01*
G01X-940371Y-4564152D01*
G01X-942644Y-4564834D01*
G01X-944008Y-4565516D01*
G01X-945599Y-4566880D01*
G01X-946962Y-4568925D01*
G01X-947644Y-4570516D01*
G01X-947871Y-4573016D01*
G01X-966248Y-4573016D01*
G01X-966053Y-4571652D01*
G01X-965599Y-4569152D01*
G01X-964917Y-4566880D01*
G01X-964235Y-4564834D01*
G01X-962644Y-4561652D01*
G01X-961735Y-4560289D01*
G01X-959008Y-4557107D01*
G01X-957190Y-4555743D01*
G01X-955144Y-4554380D01*
G01X-953553Y-4553470D01*
G01X-951735Y-4552561D01*
G01X-949235Y-4551652D01*
G01X-947190Y-4550971D01*
G01X-942644Y-4550062D01*
G01X-937190Y-4549607D01*
G01X-935144Y-4549380D01*
G01X-933099Y-4549607D01*
G01X-930599Y-4549834D01*
G01X-927644Y-4550062D01*
G01X-924917Y-4550516D01*
G01X-921735Y-4551198D01*
G01X-919008Y-4552107D01*
G01X-916962Y-4553016D01*
G01X-915144Y-4553925D01*
G01X-913780Y-4554834D01*
G01X-912644Y-4555516D01*
G01X-911508Y-4556425D01*
G01X-910371Y-4557561D01*
G01X-909008Y-4559152D01*
G01X-907871Y-4560743D01*
G01X-906962Y-4562334D01*
G01X-906053Y-4564834D01*
G01X-905371Y-4566880D01*
G01X-904917Y-4570971D01*
G01X-904917Y-4572334D01*
G01X-905144Y-4574380D01*
G01X-905599Y-4577334D01*
G01X-906508Y-4580289D01*
G01X-907644Y-4582789D01*
G01X-908781Y-4584607D01*
G01X-909690Y-4585970D01*
G01X-911508Y-4588243D01*
G01X-914917Y-4591652D01*
G01X-916735Y-4593016D01*
G01X-919008Y-4594607D01*
G01X-919746Y-4595345D01*
G01X-919690Y-4596198D01*
G01X-918553Y-4597561D01*
G01X-916735Y-4598698D01*
G01X-914690Y-4600061D01*
G01X-913099Y-4600970D01*
G01X-911962Y-4601880D01*
G01X-907417Y-4606425D01*
G01X-906280Y-4608016D01*
G01X-905144Y-4609834D01*
G01X-904235Y-4611425D01*
G01X-903326Y-4613471D01*
G01X-902644Y-4615516D01*
G01X-902189Y-4619607D01*
G01X-902189Y-4620743D01*
G01X-902417Y-4622561D01*
G01X-902644Y-4625061D01*
G01X-903099Y-4627334D01*
G01X-903553Y-4629152D01*
G01X-904235Y-4631198D01*
G01X-905371Y-4633698D01*
G01X-906735Y-4635743D01*
G01X-907871Y-4637334D01*
G01X-910144Y-4639607D01*
G01X-912417Y-4641425D01*
G01X-914008Y-4642561D01*
G01X-917644Y-4644380D01*
G01X-920144Y-4645289D01*
G01X-922189Y-4645970D01*
G01X-926735Y-4646880D01*
G01X-930371Y-4647334D01*
G01X-936962Y-4647561D01*
G01X-943780Y-4647334D01*
G01X-945826Y-4646880D01*
G37*
G36*
G01X-1014235Y-4615289D02*
G01X-1014917Y-4613698D01*
G01X-1015144Y-4610743D01*
G01X-1014917Y-4606425D01*
G01X-1014235Y-4603698D01*
G01X-1013326Y-4602334D01*
G01X-1009235Y-4601823D01*
G01X-997871Y-4601652D01*
G01X-981735Y-4601880D01*
G01X-979689Y-4602562D01*
G01X-978553Y-4603925D01*
G01X-978099Y-4605516D01*
G01X-977871Y-4608243D01*
G01X-978099Y-4610970D01*
G01X-978326Y-4612789D01*
G01X-978780Y-4614607D01*
G01X-979689Y-4615970D01*
G01X-984121Y-4616482D01*
G01X-996508Y-4616652D01*
G01X-1013326Y-4616425D01*
G01X-1014235Y-4615289D01*
G37*
G36*
G01X-674008Y-4646425D02*
G01X-675599Y-4646198D01*
G01X-677417Y-4645743D01*
G01X-679462Y-4645061D01*
G01X-681281Y-4644380D01*
G01X-683099Y-4643471D01*
G01X-685144Y-4642334D01*
G01X-687190Y-4640970D01*
G01X-688780Y-4639607D01*
G01X-689917Y-4638471D01*
G01X-691281Y-4636879D01*
G01X-692417Y-4635061D01*
G01X-693780Y-4631879D01*
G01X-694462Y-4629607D01*
G01X-694917Y-4627334D01*
G01X-695144Y-4625061D01*
G01X-694917Y-4621425D01*
G01X-676053Y-4621425D01*
G01X-675599Y-4625743D01*
G01X-674690Y-4627789D01*
G01X-673780Y-4629152D01*
G01X-672190Y-4630743D01*
G01X-670372Y-4631879D01*
G01X-668780Y-4632561D01*
G01X-666735Y-4633016D01*
G01X-665372Y-4633243D01*
G01X-662644Y-4633471D01*
G01X-662644Y-4633471D01*
G01X-658553Y-4633243D01*
G01X-656281Y-4632789D01*
G01X-654462Y-4632334D01*
G01X-652644Y-4631652D01*
G01X-651053Y-4630743D01*
G01X-649690Y-4629607D01*
G01X-648553Y-4628016D01*
G01X-647644Y-4625743D01*
G01X-647190Y-4623698D01*
G01X-647190Y-4621879D01*
G01X-647644Y-4619152D01*
G01X-648326Y-4616652D01*
G01X-649462Y-4614607D01*
G01X-650826Y-4613016D01*
G01X-653099Y-4610743D01*
G01X-654690Y-4609607D01*
G01X-656508Y-4608471D01*
G01X-657871Y-4607562D01*
G01X-659462Y-4606652D01*
G01X-661281Y-4605743D01*
G01X-662644Y-4605516D01*
G01X-664462Y-4606198D01*
G01X-666508Y-4607334D01*
G01X-668099Y-4608243D01*
G01X-669235Y-4609152D01*
G01X-672417Y-4611880D01*
G01X-673780Y-4613698D01*
G01X-675144Y-4615970D01*
G01X-675826Y-4617789D01*
G01X-676053Y-4621425D01*
G01X-694917Y-4621425D01*
G01X-694462Y-4618698D01*
G01X-694008Y-4616652D01*
G01X-693326Y-4614607D01*
G01X-692417Y-4612789D01*
G01X-691281Y-4610743D01*
G01X-690144Y-4608925D01*
G01X-689008Y-4607562D01*
G01X-686281Y-4604834D01*
G01X-684008Y-4603016D01*
G01X-681735Y-4601425D01*
G01X-679917Y-4600289D01*
G01X-678326Y-4599380D01*
G01X-677190Y-4598471D01*
G01X-677417Y-4597561D01*
G01X-680599Y-4595289D01*
G01X-681735Y-4594607D01*
G01X-682871Y-4593698D01*
G01X-686053Y-4590970D01*
G01X-687871Y-4588698D01*
G01X-689008Y-4587107D01*
G01X-690144Y-4585061D01*
G01X-691053Y-4583243D01*
G01X-691735Y-4580971D01*
G01X-692190Y-4578698D01*
G01X-692417Y-4576425D01*
G01X-692218Y-4573243D01*
G01X-673780Y-4573243D01*
G01X-673553Y-4576880D01*
G01X-672871Y-4579152D01*
G01X-671508Y-4581425D01*
G01X-670144Y-4583016D01*
G01X-668553Y-4584380D01*
G01X-666735Y-4585743D01*
G01X-663099Y-4588016D01*
G01X-661735Y-4588698D01*
G01X-660372Y-4588925D01*
G01X-658780Y-4588243D01*
G01X-658780Y-4588243D01*
G01X-656962Y-4587107D01*
G01X-655599Y-4585970D01*
G01X-652644Y-4583016D01*
G01X-651281Y-4581425D01*
G01X-650144Y-4579380D01*
G01X-649462Y-4577107D01*
G01X-649462Y-4573698D01*
G01X-650144Y-4570289D01*
G01X-651281Y-4567789D01*
G01X-652644Y-4566198D01*
G01X-654462Y-4565061D01*
G01X-656735Y-4564152D01*
G01X-658553Y-4563698D01*
G01X-661053Y-4563470D01*
G01X-664008Y-4563698D01*
G01X-666281Y-4564152D01*
G01X-668553Y-4564834D01*
G01X-670144Y-4565743D01*
G01X-671281Y-4566652D01*
G01X-672417Y-4568016D01*
G01X-673326Y-4569834D01*
G01X-673780Y-4573243D01*
G01X-692218Y-4573243D01*
G01X-692190Y-4572789D01*
G01X-691735Y-4570061D01*
G01X-691281Y-4568016D01*
G01X-690599Y-4565743D01*
G01X-689690Y-4563698D01*
G01X-688553Y-4561652D01*
G01X-687417Y-4560061D01*
G01X-685599Y-4557789D01*
G01X-684462Y-4556652D01*
G01X-683326Y-4555743D01*
G01X-680599Y-4553925D01*
G01X-679235Y-4553243D01*
G01X-677644Y-4552561D01*
G01X-675826Y-4551880D01*
G01X-673780Y-4551198D01*
G01X-671281Y-4550516D01*
G01X-669008Y-4550062D01*
G01X-663099Y-4549607D01*
G01X-661053Y-4549380D01*
G01X-659008Y-4549607D01*
G01X-653553Y-4550062D01*
G01X-651962Y-4550289D01*
G01X-649462Y-4550743D01*
G01X-647190Y-4551425D01*
G01X-645144Y-4552107D01*
G01X-643099Y-4553016D01*
G01X-641281Y-4553925D01*
G01X-639690Y-4554834D01*
G01X-638099Y-4555971D01*
G01X-636053Y-4557789D01*
G01X-634690Y-4559607D01*
G01X-633781Y-4560971D01*
G01X-632871Y-4562789D01*
G01X-631962Y-4565289D01*
G01X-631280Y-4567334D01*
G01X-631053Y-4571880D01*
G01X-631508Y-4577334D01*
G01X-632417Y-4580061D01*
G01X-633326Y-4582107D01*
G01X-634462Y-4584152D01*
G01X-636735Y-4587334D01*
G01X-638099Y-4588925D01*
G01X-640371Y-4591198D01*
G01X-643781Y-4593925D01*
G01X-645371Y-4594834D01*
G01X-646167Y-4595345D01*
G01X-646281Y-4595970D01*
G01X-644917Y-4597334D01*
G01X-641281Y-4599607D01*
G01X-639690Y-4600743D01*
G01X-638553Y-4601425D01*
G01X-637417Y-4602334D01*
G01X-634008Y-4605743D01*
G01X-632644Y-4607334D01*
G01X-631280Y-4609380D01*
G01X-630144Y-4611425D01*
G01X-629235Y-4613925D01*
G01X-628553Y-4615970D01*
G01X-628326Y-4619834D01*
G01X-628553Y-4624607D01*
G01X-629008Y-4626879D01*
G01X-629462Y-4628925D01*
G01X-630144Y-4630970D01*
G01X-631962Y-4634607D01*
G01X-633099Y-4636425D01*
G01X-634462Y-4638016D01*
G01X-636735Y-4640289D01*
G01X-638326Y-4641425D01*
G01X-640144Y-4642561D01*
G01X-641735Y-4643471D01*
G01X-643553Y-4644380D01*
G01X-646053Y-4645289D01*
G01X-648099Y-4645970D01*
G01X-652644Y-4646880D01*
G01X-656281Y-4647334D01*
G01X-662871Y-4647561D01*
G01X-669462Y-4647334D01*
G01X-674008Y-4646425D01*
G37*
G36*
G01X-867190Y-4646880D02*
G01X-869462Y-4646425D01*
G01X-871962Y-4645743D01*
G01X-873781Y-4645061D01*
G01X-875371Y-4644380D01*
G01X-876962Y-4643471D01*
G01X-878326Y-4642561D01*
G01X-879462Y-4641879D01*
G01X-880599Y-4640970D01*
G01X-882871Y-4638698D01*
G01X-884008Y-4637107D01*
G01X-885144Y-4635289D01*
G01X-886053Y-4633698D01*
G01X-886962Y-4631879D01*
G01X-887871Y-4629380D01*
G01X-889462Y-4624607D01*
G01X-890371Y-4619607D01*
G01X-890826Y-4615970D01*
G01X-891280Y-4609152D01*
G01X-891318Y-4608243D01*
G01X-872417Y-4608243D01*
G01X-872190Y-4612789D01*
G01X-871735Y-4616880D01*
G01X-871280Y-4619607D01*
G01X-870826Y-4621879D01*
G01X-870144Y-4624380D01*
G01X-869235Y-4626425D01*
G01X-868326Y-4628243D01*
G01X-867417Y-4629607D01*
G01X-865826Y-4630970D01*
G01X-863781Y-4632107D01*
G01X-861280Y-4632561D01*
G01X-859462Y-4632789D01*
G01X-858099Y-4632789D01*
G01X-858099Y-4632789D01*
G01X-855371Y-4632334D01*
G01X-852871Y-4631652D01*
G01X-851053Y-4630743D01*
G01X-849690Y-4629607D01*
G01X-848553Y-4628471D01*
G01X-847417Y-4626879D01*
G01X-846508Y-4625061D01*
G01X-845826Y-4623243D01*
G01X-845371Y-4621425D01*
G01X-845144Y-4616880D01*
G01X-845371Y-4611880D01*
G01X-845826Y-4609607D01*
G01X-846508Y-4607334D01*
G01X-847417Y-4605516D01*
G01X-848326Y-4604152D01*
G01X-849690Y-4603016D01*
G01X-851053Y-4602107D01*
G01X-852871Y-4601425D01*
G01X-855826Y-4600970D01*
G01X-858099Y-4600970D01*
G01X-859690Y-4601198D01*
G01X-861735Y-4601425D01*
G01X-865371Y-4602334D01*
G01X-867190Y-4603016D01*
G01X-871280Y-4605061D01*
G01X-872133Y-4606198D01*
G01X-872417Y-4608243D01*
G01X-891318Y-4608243D01*
G01X-891508Y-4603698D01*
G01X-891280Y-4598243D01*
G01X-891053Y-4595061D01*
G01X-890826Y-4591425D01*
G01X-889917Y-4585061D01*
G01X-889462Y-4583243D01*
G01X-889008Y-4580971D01*
G01X-888326Y-4578016D01*
G01X-887417Y-4575289D01*
G01X-886508Y-4572789D01*
G01X-885599Y-4570971D01*
G01X-884917Y-4569379D01*
G01X-884008Y-4567334D01*
G01X-882871Y-4565516D01*
G01X-881962Y-4564152D01*
G01X-878326Y-4559607D01*
G01X-877190Y-4558470D01*
G01X-874917Y-4556652D01*
G01X-873553Y-4555743D01*
G01X-870371Y-4553925D01*
G01X-867644Y-4552561D01*
G01X-865826Y-4551880D01*
G01X-863781Y-4551198D01*
G01X-861053Y-4550516D01*
G01X-858553Y-4550062D01*
G01X-852417Y-4549834D01*
G01X-845371Y-4550062D01*
G01X-842644Y-4550516D01*
G01X-840371Y-4550971D01*
G01X-836735Y-4551880D01*
G01X-834917Y-4552561D01*
G01X-833553Y-4553470D01*
G01X-832644Y-4554834D01*
G01X-832190Y-4556425D01*
G01X-831962Y-4559607D01*
G01X-832190Y-4562789D01*
G01X-832644Y-4565061D01*
G01X-833042Y-4566311D01*
G01X-833780Y-4566880D01*
G01X-835826Y-4566880D01*
G01X-838326Y-4566198D01*
G01X-840371Y-4565516D01*
G01X-844917Y-4564607D01*
G01X-849917Y-4564379D01*
G01X-854917Y-4564607D01*
G01X-856508Y-4564834D01*
G01X-858326Y-4565289D01*
G01X-860371Y-4566198D01*
G01X-862190Y-4567107D01*
G01X-863553Y-4568016D01*
G01X-865826Y-4569834D01*
G01X-867644Y-4572107D01*
G01X-868781Y-4573698D01*
G01X-869690Y-4575516D01*
G01X-870599Y-4577561D01*
G01X-871280Y-4579607D01*
G01X-872190Y-4584152D01*
G01X-872417Y-4585970D01*
G01X-872644Y-4588698D01*
G01X-872644Y-4590970D01*
G01X-872303Y-4591368D01*
G01X-871735Y-4591198D01*
G01X-870144Y-4590289D01*
G01X-868326Y-4589380D01*
G01X-864690Y-4588016D01*
G01X-862417Y-4587334D01*
G01X-860371Y-4586880D01*
G01X-856735Y-4586425D01*
G01X-854462Y-4586198D01*
G01X-850826Y-4586425D01*
G01X-847190Y-4586880D01*
G01X-844917Y-4587334D01*
G01X-842871Y-4587789D01*
G01X-840826Y-4588471D01*
G01X-835826Y-4590970D01*
G01X-834689Y-4591880D01*
G01X-831962Y-4594607D01*
G01X-830371Y-4596880D01*
G01X-829235Y-4598698D01*
G01X-828553Y-4600289D01*
G01X-827871Y-4602107D01*
G01X-827190Y-4604380D01*
G01X-826735Y-4606425D01*
G01X-826281Y-4610061D01*
G01X-826053Y-4612789D01*
G01X-826281Y-4616880D01*
G01X-826735Y-4620516D01*
G01X-827190Y-4622789D01*
G01X-827644Y-4624834D01*
G01X-828326Y-4627107D01*
G01X-829235Y-4629380D01*
G01X-830371Y-4631879D01*
G01X-833099Y-4635970D01*
G01X-834462Y-4637561D01*
G01X-837190Y-4640289D01*
G01X-839008Y-4641652D01*
G01X-840371Y-4642561D01*
G01X-843553Y-4644380D01*
G01X-847190Y-4645743D01*
G01X-849235Y-4646425D01*
G01X-851280Y-4646880D01*
G01X-854462Y-4647334D01*
G01X-859917Y-4647561D01*
G01X-865599Y-4647334D01*
G01X-867190Y-4646880D01*
G37*
G36*
G01X-793553Y-4646880D02*
G01X-796281Y-4646425D01*
G01X-799235Y-4645743D01*
G01X-801962Y-4644834D01*
G01X-804008Y-4643925D01*
G01X-805826Y-4643016D01*
G01X-807871Y-4641879D01*
G01X-809462Y-4640743D01*
G01X-812871Y-4637334D01*
G01X-814008Y-4635743D01*
G01X-814917Y-4633925D01*
G01X-815599Y-4632334D01*
G01X-816281Y-4630289D01*
G01X-816735Y-4628243D01*
G01X-816962Y-4623925D01*
G01X-816626Y-4620061D01*
G01X-798099Y-4620061D01*
G01X-798099Y-4622107D01*
G01X-797644Y-4625061D01*
G01X-796962Y-4627334D01*
G01X-796053Y-4628925D01*
G01X-794917Y-4630289D01*
G01X-793553Y-4631198D01*
G01X-792190Y-4631879D01*
G01X-790599Y-4632561D01*
G01X-788553Y-4633016D01*
G01X-787190Y-4633243D01*
G01X-784008Y-4633471D01*
G01X-784008Y-4633471D01*
G01X-780371Y-4633243D01*
G01X-778099Y-4632789D01*
G01X-775599Y-4632107D01*
G01X-774008Y-4631425D01*
G01X-772871Y-4630516D01*
G01X-771735Y-4629380D01*
G01X-770599Y-4628016D01*
G01X-769690Y-4626198D01*
G01X-769235Y-4623471D01*
G01X-769462Y-4619607D01*
G01X-770144Y-4616880D01*
G01X-771053Y-4615061D01*
G01X-772189Y-4613471D01*
G01X-774462Y-4611198D01*
G01X-776280Y-4609834D01*
G01X-778326Y-4608471D01*
G01X-780371Y-4607334D01*
G01X-782190Y-4606198D01*
G01X-783780Y-4605516D01*
G01X-785599Y-4605743D01*
G01X-787644Y-4606880D01*
G01X-789690Y-4608243D01*
G01X-791281Y-4609380D01*
G01X-793553Y-4611198D01*
G01X-794690Y-4612334D01*
G01X-795599Y-4613471D01*
G01X-796281Y-4614607D01*
G01X-796962Y-4615970D01*
G01X-797644Y-4618016D01*
G01X-798099Y-4620061D01*
G01X-816626Y-4620061D01*
G01X-816508Y-4618698D01*
G01X-815826Y-4616425D01*
G01X-815144Y-4614380D01*
G01X-814235Y-4612334D01*
G01X-813099Y-4610516D01*
G01X-811962Y-4608925D01*
G01X-811053Y-4607789D01*
G01X-807644Y-4604380D01*
G01X-805826Y-4603016D01*
G01X-803553Y-4601425D01*
G01X-801508Y-4600061D01*
G01X-799690Y-4599152D01*
G01X-799065Y-4598811D01*
G01X-799008Y-4598243D01*
G01X-800144Y-4596880D01*
G01X-802190Y-4595516D01*
G01X-803780Y-4594380D01*
G01X-804917Y-4593698D01*
G01X-806053Y-4592789D01*
G01X-808780Y-4590061D01*
G01X-810144Y-4588243D01*
G01X-811053Y-4587107D01*
G01X-811962Y-4585516D01*
G01X-812871Y-4583470D01*
G01X-813553Y-4581425D01*
G01X-814008Y-4579607D01*
G01X-814235Y-4576425D01*
G01X-814053Y-4572789D01*
G01X-795826Y-4572789D01*
G01X-795826Y-4574607D01*
G01X-795599Y-4576198D01*
G01X-795144Y-4578243D01*
G01X-794008Y-4580516D01*
G01X-792871Y-4582107D01*
G01X-791962Y-4583243D01*
G01X-790371Y-4584607D01*
G01X-788326Y-4585970D01*
G01X-786508Y-4587107D01*
G01X-785144Y-4588016D01*
G01X-783780Y-4588698D01*
G01X-782417Y-4588925D01*
G01X-781053Y-4588471D01*
G01X-781053Y-4588471D01*
G01X-778326Y-4586652D01*
G01X-776962Y-4585516D01*
G01X-774235Y-4582789D01*
G01X-772871Y-4580743D01*
G01X-771962Y-4578925D01*
G01X-771508Y-4575061D01*
G01X-771962Y-4570516D01*
G01X-772871Y-4568470D01*
G01X-773553Y-4567334D01*
G01X-774917Y-4565971D01*
G01X-776735Y-4564834D01*
G01X-778553Y-4564152D01*
G01X-780371Y-4563698D01*
G01X-783099Y-4563470D01*
G01X-785826Y-4563698D01*
G01X-787417Y-4563925D01*
G01X-789462Y-4564379D01*
G01X-791281Y-4565289D01*
G01X-792644Y-4566198D01*
G01X-793780Y-4567334D01*
G01X-794690Y-4568470D01*
G01X-795371Y-4570289D01*
G01X-795826Y-4572789D01*
G01X-814053Y-4572789D01*
G01X-814008Y-4571880D01*
G01X-813326Y-4568243D01*
G01X-812417Y-4565289D01*
G01X-811281Y-4562789D01*
G01X-809917Y-4560743D01*
G01X-808780Y-4559152D01*
G01X-806508Y-4556880D01*
G01X-804917Y-4555516D01*
G01X-803326Y-4554380D01*
G01X-801735Y-4553470D01*
G01X-799690Y-4552561D01*
G01X-797417Y-4551652D01*
G01X-795371Y-4550971D01*
G01X-790826Y-4550062D01*
G01X-785371Y-4549607D01*
G01X-783099Y-4549380D01*
G01X-780826Y-4549607D01*
G01X-775371Y-4550062D01*
G01X-772644Y-4550516D01*
G01X-769690Y-4551198D01*
G01X-767644Y-4551880D01*
G01X-765826Y-4552561D01*
G01X-764008Y-4553470D01*
G01X-761962Y-4554607D01*
G01X-760371Y-4555743D01*
G01X-756962Y-4559152D01*
G01X-755826Y-4560743D01*
G01X-754917Y-4562561D01*
G01X-754235Y-4564379D01*
G01X-753553Y-4566652D01*
G01X-753099Y-4568698D01*
G01X-752871Y-4572334D01*
G01X-753326Y-4576652D01*
G01X-754690Y-4580743D01*
G01X-755599Y-4582789D01*
G01X-756508Y-4584380D01*
G01X-757417Y-4585743D01*
G01X-760144Y-4589152D01*
G01X-761735Y-4590743D01*
G01X-764008Y-4592561D01*
G01X-766280Y-4594152D01*
G01X-768099Y-4595289D01*
G01X-768440Y-4595800D01*
G01X-768099Y-4596425D01*
G01X-766508Y-4597561D01*
G01X-764690Y-4598698D01*
G01X-762644Y-4600061D01*
G01X-761053Y-4601198D01*
G01X-757644Y-4603925D01*
G01X-756053Y-4605516D01*
G01X-754690Y-4607334D01*
G01X-753553Y-4608925D01*
G01X-752417Y-4610970D01*
G01X-751508Y-4613016D01*
G01X-750826Y-4615061D01*
G01X-750371Y-4616880D01*
G01X-750144Y-4620061D01*
G01X-750371Y-4623698D01*
G01X-750826Y-4626425D01*
G01X-751508Y-4629380D01*
G01X-752417Y-4631879D01*
G01X-753553Y-4634152D01*
G01X-755144Y-4636425D01*
G01X-756508Y-4638243D01*
G01X-758099Y-4639834D01*
G01X-759917Y-4641198D01*
G01X-761508Y-4642334D01*
G01X-763553Y-4643471D01*
G01X-765599Y-4644380D01*
G01X-769690Y-4645743D01*
G01X-772189Y-4646425D01*
G01X-774462Y-4646880D01*
G01X-778099Y-4647334D01*
G01X-784690Y-4647561D01*
G01X-791508Y-4647334D01*
G01X-793553Y-4646880D01*
G37*
G36*
G01X-740599Y-4614380D02*
G01X-741053Y-4610743D01*
G01X-740826Y-4605970D01*
G01X-740144Y-4603471D01*
G01X-739235Y-4602334D01*
G01X-735144Y-4601823D01*
G01X-723781Y-4601652D01*
G01X-707644Y-4601880D01*
G01X-705599Y-4602562D01*
G01X-704860Y-4603186D01*
G01X-704462Y-4604152D01*
G01X-704008Y-4606880D01*
G01X-704008Y-4610061D01*
G01X-704462Y-4613243D01*
G01X-705599Y-4615743D01*
G01X-710371Y-4616425D01*
G01X-722871Y-4616652D01*
G01X-735258Y-4616482D01*
G01X-739690Y-4615970D01*
G01X-740599Y-4614380D01*
G37*
G36*
G01X-771280Y-4830061D02*
G01X-774008Y-4829607D01*
G01X-776053Y-4829152D01*
G01X-778326Y-4828470D01*
G01X-780599Y-4827561D01*
G01X-783099Y-4826425D01*
G01X-785144Y-4825061D01*
G01X-786735Y-4824152D01*
G01X-787871Y-4823243D01*
G01X-790144Y-4820971D01*
G01X-791508Y-4819152D01*
G01X-792871Y-4817107D01*
G01X-793780Y-4815516D01*
G01X-794690Y-4813698D01*
G01X-795599Y-4811198D01*
G01X-796281Y-4809152D01*
G01X-797190Y-4804607D01*
G01X-797644Y-4800970D01*
G01X-797871Y-4795970D01*
G01X-797644Y-4790970D01*
G01X-797417Y-4789380D01*
G01X-797190Y-4786879D01*
G01X-796644Y-4784152D01*
G01X-779008Y-4784152D01*
G01X-779008Y-4786425D01*
G01X-765144Y-4786652D01*
G01X-765144Y-4786652D01*
G01X-751508Y-4786652D01*
G01X-751508Y-4785516D01*
G01X-751735Y-4783698D01*
G01X-751962Y-4782107D01*
G01X-752417Y-4779834D01*
G01X-753326Y-4777334D01*
G01X-754235Y-4775516D01*
G01X-755144Y-4774152D01*
G01X-756735Y-4772561D01*
G01X-758781Y-4771425D01*
G01X-760599Y-4770743D01*
G01X-764917Y-4770289D01*
G01X-769235Y-4770743D01*
G01X-771280Y-4771652D01*
G01X-772871Y-4772561D01*
G01X-774008Y-4773471D01*
G01X-775599Y-4775061D01*
G01X-776962Y-4777107D01*
G01X-777871Y-4779380D01*
G01X-778553Y-4781425D01*
G01X-779008Y-4784152D01*
G01X-796644Y-4784152D01*
G01X-796281Y-4782334D01*
G01X-795599Y-4779834D01*
G01X-794917Y-4777789D01*
G01X-794235Y-4775970D01*
G01X-792417Y-4772334D01*
G01X-791281Y-4770516D01*
G01X-789690Y-4768243D01*
G01X-788326Y-4766425D01*
G01X-787190Y-4765289D01*
G01X-784917Y-4763471D01*
G01X-783326Y-4762334D01*
G01X-781508Y-4761198D01*
G01X-779917Y-4760289D01*
G01X-776280Y-4758925D01*
G01X-774235Y-4758243D01*
G01X-772189Y-4757789D01*
G01X-768553Y-4757334D01*
G01X-765144Y-4757107D01*
G01X-761735Y-4757334D01*
G01X-760144Y-4757561D01*
G01X-758099Y-4757789D01*
G01X-755826Y-4758243D01*
G01X-752190Y-4759152D01*
G01X-750371Y-4759834D01*
G01X-748553Y-4760743D01*
G01X-746508Y-4761879D01*
G01X-744462Y-4763243D01*
G01X-742872Y-4764607D01*
G01X-740599Y-4766879D01*
G01X-739235Y-4768698D01*
G01X-737872Y-4770970D01*
G01X-736962Y-4772789D01*
G01X-736280Y-4774380D01*
G01X-735599Y-4776198D01*
G01X-734917Y-4778470D01*
G01X-734462Y-4780516D01*
G01X-734008Y-4784152D01*
G01X-733781Y-4788698D01*
G01X-734008Y-4793698D01*
G01X-734690Y-4795743D01*
G01X-735599Y-4797107D01*
G01X-736735Y-4798016D01*
G01X-758099Y-4798470D01*
G01X-779008Y-4798925D01*
G01X-779008Y-4800970D01*
G01X-778553Y-4804152D01*
G01X-777871Y-4807107D01*
G01X-776962Y-4809152D01*
G01X-776280Y-4810516D01*
G01X-775371Y-4811652D01*
G01X-773099Y-4813925D01*
G01X-771735Y-4814834D01*
G01X-769690Y-4815743D01*
G01X-767644Y-4816425D01*
G01X-764462Y-4816880D01*
G01X-762189Y-4817107D01*
G01X-759917Y-4816880D01*
G01X-754462Y-4816425D01*
G01X-749917Y-4815516D01*
G01X-747872Y-4815061D01*
G01X-745599Y-4814379D01*
G01X-741508Y-4813016D01*
G01X-739690Y-4812561D01*
G01X-737872Y-4813470D01*
G01X-737190Y-4815061D01*
G01X-736962Y-4818016D01*
G01X-737190Y-4822334D01*
G01X-737644Y-4824152D01*
G01X-738042Y-4825118D01*
G01X-738781Y-4825743D01*
G01X-740371Y-4826652D01*
G01X-742417Y-4827561D01*
G01X-744462Y-4828243D01*
G01X-748099Y-4829152D01*
G01X-753099Y-4830061D01*
G01X-756735Y-4830516D01*
G01X-763099Y-4830743D01*
G01X-769008Y-4830516D01*
G01X-771280Y-4830061D01*
G37*
G36*
G01X-718099Y-4827561D02*
G01X-718610Y-4818868D01*
G01X-718781Y-4794607D01*
G01X-718326Y-4761198D01*
G01X-716962Y-4759380D01*
G01X-715371Y-4758698D01*
G01X-711053Y-4758471D01*
G01X-705826Y-4758925D01*
G01X-703553Y-4760061D01*
G01X-703042Y-4761368D01*
G01X-702871Y-4763925D01*
G01X-702644Y-4767789D01*
G01X-702360Y-4768186D01*
G01X-701962Y-4768016D01*
G01X-700826Y-4767107D01*
G01X-698099Y-4764380D01*
G01X-696281Y-4763016D01*
G01X-694689Y-4761879D01*
G01X-692871Y-4760743D01*
G01X-691281Y-4759834D01*
G01X-689690Y-4759152D01*
G01X-687871Y-4758471D01*
G01X-685372Y-4757789D01*
G01X-683099Y-4757334D01*
G01X-680599Y-4757107D01*
G01X-677644Y-4757334D01*
G01X-674917Y-4757789D01*
G01X-671962Y-4758471D01*
G01X-669462Y-4759380D01*
G01X-667190Y-4760516D01*
G01X-665599Y-4761652D01*
G01X-664462Y-4762334D01*
G01X-662871Y-4763698D01*
G01X-661508Y-4765516D01*
G01X-660372Y-4767107D01*
G01X-659235Y-4769152D01*
G01X-658326Y-4771425D01*
G01X-657644Y-4773243D01*
G01X-656735Y-4777789D01*
G01X-656281Y-4782789D01*
G01X-656053Y-4804380D01*
G01X-656281Y-4826425D01*
G01X-657417Y-4828243D01*
G01X-659008Y-4829152D01*
G01X-665144Y-4829379D01*
G01X-671962Y-4828925D01*
G01X-674008Y-4827789D01*
G01X-674519Y-4821936D01*
G01X-674690Y-4805743D01*
G01X-675144Y-4782789D01*
G01X-676053Y-4779834D01*
G01X-676962Y-4777789D01*
G01X-677871Y-4776425D01*
G01X-679008Y-4775289D01*
G01X-680372Y-4774380D01*
G01X-682190Y-4773698D01*
G01X-684008Y-4773243D01*
G01X-686508Y-4773243D01*
G01X-689462Y-4773925D01*
G01X-691281Y-4774834D01*
G01X-692871Y-4775743D01*
G01X-694235Y-4776879D01*
G01X-696508Y-4778698D01*
G01X-698326Y-4780970D01*
G01X-699462Y-4782107D01*
G01X-699974Y-4787845D01*
G01X-700144Y-4804152D01*
G01X-700371Y-4826880D01*
G01X-700769Y-4827845D01*
G01X-701508Y-4828470D01*
G01X-703099Y-4829152D01*
G01X-709462Y-4829379D01*
G01X-716281Y-4828925D01*
G01X-718099Y-4827561D01*
G37*
G36*
G01X-550826Y-4828016D02*
G01X-551337Y-4819493D01*
G01X-551508Y-4794834D01*
G01X-551281Y-4760970D01*
G01X-550883Y-4760004D01*
G01X-550144Y-4759380D01*
G01X-548553Y-4758698D01*
G01X-545144Y-4758471D01*
G01X-540372Y-4758698D01*
G01X-537190Y-4759607D01*
G01X-536053Y-4760289D01*
G01X-536053Y-4764380D01*
G01X-535940Y-4767391D01*
G01X-535599Y-4768243D01*
G01X-534462Y-4767561D01*
G01X-532190Y-4765289D01*
G01X-528781Y-4762561D01*
G01X-527417Y-4761652D01*
G01X-525599Y-4760516D01*
G01X-523326Y-4759380D01*
G01X-521053Y-4758471D01*
G01X-518553Y-4757789D01*
G01X-516281Y-4757334D01*
G01X-513553Y-4757107D01*
G01X-510826Y-4757334D01*
G01X-507644Y-4757789D01*
G01X-505599Y-4758243D01*
G01X-503553Y-4758925D01*
G01X-499917Y-4760743D01*
G01X-498553Y-4761652D01*
G01X-496281Y-4763471D01*
G01X-494462Y-4765743D01*
G01X-493326Y-4767334D01*
G01X-492417Y-4768925D01*
G01X-491735Y-4770516D01*
G01X-491053Y-4772561D01*
G01X-490371Y-4774834D01*
G01X-489917Y-4776879D01*
G01X-489462Y-4780970D01*
G01X-489235Y-4803243D01*
G01X-489462Y-4826425D01*
G01X-489860Y-4827732D01*
G01X-490599Y-4828470D01*
G01X-492190Y-4829152D01*
G01X-497871Y-4829379D01*
G01X-504008Y-4829152D01*
G01X-506281Y-4828470D01*
G01X-507417Y-4828016D01*
G01X-507417Y-4808698D01*
G01X-507644Y-4788698D01*
G01X-507871Y-4785970D01*
G01X-508326Y-4782334D01*
G01X-509235Y-4779607D01*
G01X-510144Y-4777789D01*
G01X-511053Y-4776425D01*
G01X-512190Y-4775289D01*
G01X-513326Y-4774380D01*
G01X-515144Y-4773698D01*
G01X-517190Y-4773243D01*
G01X-519463Y-4773243D01*
G01X-522417Y-4773925D01*
G01X-524690Y-4775061D01*
G01X-526281Y-4775970D01*
G01X-527417Y-4776879D01*
G01X-532417Y-4781879D01*
G01X-533099Y-4788073D01*
G01X-533326Y-4804380D01*
G01X-533553Y-4826880D01*
G01X-533951Y-4827845D01*
G01X-534690Y-4828470D01*
G01X-536281Y-4829152D01*
G01X-542644Y-4829379D01*
G01X-549235Y-4828925D01*
G01X-550826Y-4828016D01*
G37*
G36*
G01X-891280Y-4830061D02*
G01X-892871Y-4829834D01*
G01X-894690Y-4829379D01*
G01X-896508Y-4828698D01*
G01X-898553Y-4827789D01*
G01X-900599Y-4826425D01*
G01X-902189Y-4825516D01*
G01X-903781Y-4824152D01*
G01X-905144Y-4822334D01*
G01X-906053Y-4821198D01*
G01X-906962Y-4819607D01*
G01X-907871Y-4817107D01*
G01X-908553Y-4815061D01*
G01X-908781Y-4810289D01*
G01X-908635Y-4808470D01*
G01X-891053Y-4808470D01*
G01X-890599Y-4811880D01*
G01X-889690Y-4813925D01*
G01X-888781Y-4815061D01*
G01X-887644Y-4816198D01*
G01X-886053Y-4817107D01*
G01X-883553Y-4817561D01*
G01X-881735Y-4817789D01*
G01X-880371Y-4817789D01*
G01X-880371Y-4817789D01*
G01X-878099Y-4817334D01*
G01X-875826Y-4816652D01*
G01X-874008Y-4815743D01*
G01X-872417Y-4814834D01*
G01X-871053Y-4813698D01*
G01X-868781Y-4811880D01*
G01X-867871Y-4810743D01*
G01X-867417Y-4804607D01*
G01X-867417Y-4798925D01*
G01X-872871Y-4798925D01*
G01X-879008Y-4799152D01*
G01X-880826Y-4799380D01*
G01X-883326Y-4799834D01*
G01X-885826Y-4800743D01*
G01X-887417Y-4801652D01*
G01X-888553Y-4802561D01*
G01X-889690Y-4803925D01*
G01X-890599Y-4805743D01*
G01X-891053Y-4808470D01*
G01X-908635Y-4808470D01*
G01X-908326Y-4804607D01*
G01X-907417Y-4801652D01*
G01X-906508Y-4799607D01*
G01X-905599Y-4798016D01*
G01X-904462Y-4796652D01*
G01X-901735Y-4793925D01*
G01X-899690Y-4792561D01*
G01X-898099Y-4791652D01*
G01X-896280Y-4790743D01*
G01X-893781Y-4789834D01*
G01X-891735Y-4789152D01*
G01X-887189Y-4788243D01*
G01X-883553Y-4787789D01*
G01X-875144Y-4787561D01*
G01X-867417Y-4787561D01*
G01X-867417Y-4785061D01*
G01X-867644Y-4780516D01*
G01X-868326Y-4777334D01*
G01X-869235Y-4775516D01*
G01X-870144Y-4774152D01*
G01X-871735Y-4772789D01*
G01X-873781Y-4771879D01*
G01X-875371Y-4771425D01*
G01X-879690Y-4771198D01*
G01X-884008Y-4771425D01*
G01X-886280Y-4771879D01*
G01X-889462Y-4772561D01*
G01X-892189Y-4773471D01*
G01X-894462Y-4774380D01*
G01X-899917Y-4777107D01*
G01X-901962Y-4777561D01*
G01X-903099Y-4777391D01*
G01X-903781Y-4776879D01*
G01X-904690Y-4775516D01*
G01X-905144Y-4771425D01*
G01X-904917Y-4767334D01*
G01X-904462Y-4765743D01*
G01X-903553Y-4764380D01*
G01X-901962Y-4763243D01*
G01X-900144Y-4762107D01*
G01X-896053Y-4760289D01*
G01X-891508Y-4758925D01*
G01X-888781Y-4758243D01*
G01X-886280Y-4757789D01*
G01X-882189Y-4757334D01*
G01X-878553Y-4757107D01*
G01X-874917Y-4757334D01*
G01X-872871Y-4757561D01*
G01X-870371Y-4757789D01*
G01X-865826Y-4758698D01*
G01X-863326Y-4759380D01*
G01X-861280Y-4760289D01*
G01X-859462Y-4761198D01*
G01X-857871Y-4762107D01*
G01X-856735Y-4763016D01*
G01X-855144Y-4764380D01*
G01X-853780Y-4765970D01*
G01X-852644Y-4767561D01*
G01X-851735Y-4769380D01*
G01X-851053Y-4771198D01*
G01X-850371Y-4773471D01*
G01X-849917Y-4775516D01*
G01X-849462Y-4779152D01*
G01X-849235Y-4802334D01*
G01X-849462Y-4826425D01*
G01X-849917Y-4827789D01*
G01X-850826Y-4828698D01*
G01X-852871Y-4829209D01*
G01X-856735Y-4829379D01*
G01X-862644Y-4828925D01*
G01X-864235Y-4827789D01*
G01X-864690Y-4824607D01*
G01X-864690Y-4822107D01*
G01X-865599Y-4822561D01*
G01X-866962Y-4823698D01*
G01X-868099Y-4824834D01*
G01X-869690Y-4825971D01*
G01X-871508Y-4827107D01*
G01X-873099Y-4828016D01*
G01X-874690Y-4828698D01*
G01X-876508Y-4829379D01*
G01X-878781Y-4830061D01*
G01X-880826Y-4830516D01*
G01X-885599Y-4830743D01*
G01X-890144Y-4830516D01*
G01X-891280Y-4830061D01*
G37*
G36*
G01X-299462Y-4828016D02*
G01X-299974Y-4819493D01*
G01X-300144Y-4794834D01*
G01X-299917Y-4760970D01*
G01X-299519Y-4760004D01*
G01X-298781Y-4759380D01*
G01X-297190Y-4758698D01*
G01X-293781Y-4758471D01*
G01X-289008Y-4758698D01*
G01X-285826Y-4759607D01*
G01X-284690Y-4760289D01*
G01X-284690Y-4764380D01*
G01X-284576Y-4767391D01*
G01X-284235Y-4768243D01*
G01X-283099Y-4767561D01*
G01X-280826Y-4765289D01*
G01X-277417Y-4762561D01*
G01X-276053Y-4761652D01*
G01X-274235Y-4760516D01*
G01X-271962Y-4759380D01*
G01X-269690Y-4758471D01*
G01X-267190Y-4757789D01*
G01X-264917Y-4757334D01*
G01X-262190Y-4757107D01*
G01X-259463Y-4757334D01*
G01X-256281Y-4757789D01*
G01X-254235Y-4758243D01*
G01X-252190Y-4758925D01*
G01X-248553Y-4760743D01*
G01X-247190Y-4761652D01*
G01X-244917Y-4763471D01*
G01X-243099Y-4765743D01*
G01X-241962Y-4767334D01*
G01X-241053Y-4768925D01*
G01X-240372Y-4770516D01*
G01X-239690Y-4772561D01*
G01X-239008Y-4774834D01*
G01X-238553Y-4776879D01*
G01X-238099Y-4780970D01*
G01X-237872Y-4803243D01*
G01X-238099Y-4826425D01*
G01X-238497Y-4827732D01*
G01X-239235Y-4828470D01*
G01X-240826Y-4829152D01*
G01X-246508Y-4829379D01*
G01X-252644Y-4829152D01*
G01X-254917Y-4828470D01*
G01X-256053Y-4828016D01*
G01X-256053Y-4808470D01*
G01X-256281Y-4788243D01*
G01X-256508Y-4785743D01*
G01X-256962Y-4782334D01*
G01X-257871Y-4779607D01*
G01X-258781Y-4777789D01*
G01X-259690Y-4776425D01*
G01X-260826Y-4775289D01*
G01X-261962Y-4774380D01*
G01X-263781Y-4773698D01*
G01X-265826Y-4773243D01*
G01X-268099Y-4773243D01*
G01X-271053Y-4773925D01*
G01X-273326Y-4775061D01*
G01X-274917Y-4775970D01*
G01X-276053Y-4776879D01*
G01X-281053Y-4781879D01*
G01X-281735Y-4788073D01*
G01X-281962Y-4804380D01*
G01X-282190Y-4826880D01*
G01X-282587Y-4827845D01*
G01X-283326Y-4828470D01*
G01X-284917Y-4829152D01*
G01X-291281Y-4829379D01*
G01X-297872Y-4828925D01*
G01X-299462Y-4828016D01*
G37*
G36*
G01X-360826Y-4830061D02*
G01X-362872Y-4829607D01*
G01X-365144Y-4828925D01*
G01X-366962Y-4828243D01*
G01X-368781Y-4827334D01*
G01X-370599Y-4826198D01*
G01X-371962Y-4825061D01*
G01X-374235Y-4822789D01*
G01X-375144Y-4821652D01*
G01X-376053Y-4820061D01*
G01X-376962Y-4818016D01*
G01X-377644Y-4815743D01*
G01X-378099Y-4813698D01*
G01X-378326Y-4810516D01*
G01X-378131Y-4807789D01*
G01X-360144Y-4807789D01*
G01X-359917Y-4811425D01*
G01X-359235Y-4813698D01*
G01X-358326Y-4815061D01*
G01X-356962Y-4816198D01*
G01X-355372Y-4817107D01*
G01X-353099Y-4817561D01*
G01X-351281Y-4817789D01*
G01X-350371Y-4817789D01*
G01X-350371Y-4817789D01*
G01X-347190Y-4817334D01*
G01X-345599Y-4816880D01*
G01X-343553Y-4815971D01*
G01X-340371Y-4813698D01*
G01X-338781Y-4812334D01*
G01X-337644Y-4811198D01*
G01X-337133Y-4809379D01*
G01X-336962Y-4804834D01*
G01X-336962Y-4798925D01*
G01X-342190Y-4798925D01*
G01X-348553Y-4799152D01*
G01X-351281Y-4799607D01*
G01X-354008Y-4800289D01*
G01X-357190Y-4801880D01*
G01X-358326Y-4802789D01*
G01X-359462Y-4804607D01*
G01X-360144Y-4807789D01*
G01X-378131Y-4807789D01*
G01X-378099Y-4807334D01*
G01X-377644Y-4804834D01*
G01X-376962Y-4802107D01*
G01X-376053Y-4800061D01*
G01X-375144Y-4798470D01*
G01X-374463Y-4797334D01*
G01X-373553Y-4796198D01*
G01X-372417Y-4795061D01*
G01X-370826Y-4793698D01*
G01X-369235Y-4792561D01*
G01X-367644Y-4791652D01*
G01X-365372Y-4790743D01*
G01X-362872Y-4789834D01*
G01X-360826Y-4789152D01*
G01X-356281Y-4788243D01*
G01X-352644Y-4787789D01*
G01X-344462Y-4787561D01*
G01X-336962Y-4787561D01*
G01X-336962Y-4783698D01*
G01X-337417Y-4778243D01*
G01X-338553Y-4775516D01*
G01X-339690Y-4774152D01*
G01X-340599Y-4773243D01*
G01X-342417Y-4772107D01*
G01X-344462Y-4771425D01*
G01X-348781Y-4771198D01*
G01X-353553Y-4771425D01*
G01X-355826Y-4771879D01*
G01X-359462Y-4772789D01*
G01X-361508Y-4773471D01*
G01X-363781Y-4774380D01*
G01X-365826Y-4775289D01*
G01X-369463Y-4777107D01*
G01X-371508Y-4777561D01*
G01X-372644Y-4777334D01*
G01X-373326Y-4776652D01*
G01X-374235Y-4774834D01*
G01X-374690Y-4771198D01*
G01X-374235Y-4767107D01*
G01X-373326Y-4765289D01*
G01X-372417Y-4764152D01*
G01X-371053Y-4763016D01*
G01X-369463Y-4762107D01*
G01X-367644Y-4761198D01*
G01X-365144Y-4760289D01*
G01X-360372Y-4758698D01*
G01X-355826Y-4757789D01*
G01X-351735Y-4757334D01*
G01X-347872Y-4757107D01*
G01X-344008Y-4757334D01*
G01X-342190Y-4757561D01*
G01X-339917Y-4757789D01*
G01X-337190Y-4758243D01*
G01X-334235Y-4758925D01*
G01X-331508Y-4759834D01*
G01X-329008Y-4760970D01*
G01X-326963Y-4762334D01*
G01X-325371Y-4763471D01*
G01X-323781Y-4765061D01*
G01X-322190Y-4767334D01*
G01X-321053Y-4769380D01*
G01X-320144Y-4771879D01*
G01X-319462Y-4774152D01*
G01X-319008Y-4777334D01*
G01X-318781Y-4802561D01*
G01X-319235Y-4827789D01*
G01X-320599Y-4828925D01*
G01X-325599Y-4829379D01*
G01X-330826Y-4829152D01*
G01X-332872Y-4828470D01*
G01X-333553Y-4827391D01*
G01X-333781Y-4825061D01*
G01X-333894Y-4822902D01*
G01X-334235Y-4822334D01*
G01X-335826Y-4823470D01*
G01X-338099Y-4825289D01*
G01X-340144Y-4826652D01*
G01X-341735Y-4827561D01*
G01X-343553Y-4828470D01*
G01X-345599Y-4829379D01*
G01X-348099Y-4830061D01*
G01X-350371Y-4830516D01*
G01X-354917Y-4830743D01*
G01X-359462Y-4830516D01*
G01X-360826Y-4830061D01*
G37*
G36*
G01X-219008Y-4828016D02*
G01X-219519Y-4819607D01*
G01X-219690Y-4795289D01*
G01X-219463Y-4761425D01*
G01X-219065Y-4760118D01*
G01X-218326Y-4759380D01*
G01X-216735Y-4758698D01*
G01X-213326Y-4758471D01*
G01X-208553Y-4758698D01*
G01X-205372Y-4759607D01*
G01X-204235Y-4760289D01*
G01X-204235Y-4764380D01*
G01X-204122Y-4767391D01*
G01X-203781Y-4768243D01*
G01X-202644Y-4767561D01*
G01X-200371Y-4765289D01*
G01X-196963Y-4762561D01*
G01X-195599Y-4761652D01*
G01X-193781Y-4760516D01*
G01X-191508Y-4759380D01*
G01X-189235Y-4758471D01*
G01X-186735Y-4757789D01*
G01X-184462Y-4757334D01*
G01X-181735Y-4757107D01*
G01X-179008Y-4757334D01*
G01X-177190Y-4757561D01*
G01X-174462Y-4758016D01*
G01X-171735Y-4758925D01*
G01X-169690Y-4759834D01*
G01X-166508Y-4761652D01*
G01X-165144Y-4762789D01*
G01X-164008Y-4763925D01*
G01X-162644Y-4765516D01*
G01X-161508Y-4767107D01*
G01X-160599Y-4768698D01*
G01X-159690Y-4770970D01*
G01X-159008Y-4772789D01*
G01X-158099Y-4776425D01*
G01X-157644Y-4780516D01*
G01X-157417Y-4803470D01*
G01X-157644Y-4826880D01*
G01X-158042Y-4827845D01*
G01X-158781Y-4828470D01*
G01X-160372Y-4829152D01*
G01X-165599Y-4829379D01*
G01X-171735Y-4829152D01*
G01X-174462Y-4828470D01*
G01X-175599Y-4828016D01*
G01X-175599Y-4808016D01*
G01X-175826Y-4787334D01*
G01X-176053Y-4785061D01*
G01X-176508Y-4782107D01*
G01X-177417Y-4779607D01*
G01X-178326Y-4777789D01*
G01X-179235Y-4776425D01*
G01X-180371Y-4775289D01*
G01X-181508Y-4774380D01*
G01X-183326Y-4773698D01*
G01X-185371Y-4773243D01*
G01X-187644Y-4773243D01*
G01X-190599Y-4773925D01*
G01X-192872Y-4775061D01*
G01X-194462Y-4775970D01*
G01X-195599Y-4776879D01*
G01X-200144Y-4781425D01*
G01X-201053Y-4782561D01*
G01X-201508Y-4804380D01*
G01X-201735Y-4826880D01*
G01X-202133Y-4827845D01*
G01X-202872Y-4828470D01*
G01X-204462Y-4829152D01*
G01X-210826Y-4829379D01*
G01X-217417Y-4828925D01*
G01X-219008Y-4828016D01*
G37*
G36*
G01X-116735Y-4830061D02*
G01X-119008Y-4829607D01*
G01X-122190Y-4828925D01*
G01X-124690Y-4828016D01*
G01X-126735Y-4827107D01*
G01X-128553Y-4826198D01*
G01X-130372Y-4825061D01*
G01X-131962Y-4823925D01*
G01X-133099Y-4823016D01*
G01X-135372Y-4820743D01*
G01X-136735Y-4819152D01*
G01X-137872Y-4817561D01*
G01X-138781Y-4815971D01*
G01X-139690Y-4814152D01*
G01X-140372Y-4812334D01*
G01X-141053Y-4810289D01*
G01X-141735Y-4808016D01*
G01X-142190Y-4805970D01*
G01X-142644Y-4802789D01*
G01X-142872Y-4795743D01*
G01X-142644Y-4788698D01*
G01X-141963Y-4784607D01*
G01X-124235Y-4784607D01*
G01X-124008Y-4786425D01*
G01X-110372Y-4786652D01*
G01X-110372Y-4786652D01*
G01X-96962Y-4786652D01*
G01X-96962Y-4785516D01*
G01X-97190Y-4782334D01*
G01X-97872Y-4778925D01*
G01X-98781Y-4776652D01*
G01X-99917Y-4774607D01*
G01X-101281Y-4773016D01*
G01X-102644Y-4772107D01*
G01X-104008Y-4771425D01*
G01X-105599Y-4770743D01*
G01X-109690Y-4770289D01*
G01X-114235Y-4770743D01*
G01X-116508Y-4771652D01*
G01X-118099Y-4772561D01*
G01X-119463Y-4773471D01*
G01X-120826Y-4775061D01*
G01X-122190Y-4777334D01*
G01X-123326Y-4780061D01*
G01X-124008Y-4782334D01*
G01X-124235Y-4784607D01*
G01X-141963Y-4784607D01*
G01X-141735Y-4783243D01*
G01X-141281Y-4781198D01*
G01X-140599Y-4778925D01*
G01X-139917Y-4777107D01*
G01X-139235Y-4775516D01*
G01X-137190Y-4771425D01*
G01X-136053Y-4769834D01*
G01X-135144Y-4768471D01*
G01X-134008Y-4767107D01*
G01X-131281Y-4764380D01*
G01X-129463Y-4763016D01*
G01X-128326Y-4762107D01*
G01X-126735Y-4761198D01*
G01X-124917Y-4760289D01*
G01X-122871Y-4759380D01*
G01X-119917Y-4758471D01*
G01X-117644Y-4757789D01*
G01X-114008Y-4757334D01*
G01X-110372Y-4757107D01*
G01X-106735Y-4757334D01*
G01X-103099Y-4757789D01*
G01X-101053Y-4758243D01*
G01X-98326Y-4758925D01*
G01X-95826Y-4759834D01*
G01X-93781Y-4760743D01*
G01X-91735Y-4761879D01*
G01X-88554Y-4764152D01*
G01X-86508Y-4765970D01*
G01X-85144Y-4767789D01*
G01X-84008Y-4769380D01*
G01X-82872Y-4771425D01*
G01X-81962Y-4773243D01*
G01X-81281Y-4775061D01*
G01X-80599Y-4777107D01*
G01X-79917Y-4779607D01*
G01X-79463Y-4781879D01*
G01X-79008Y-4788243D01*
G01X-78781Y-4789834D01*
G01X-79008Y-4791425D01*
G01X-79235Y-4793243D01*
G01X-79690Y-4795516D01*
G01X-81281Y-4797561D01*
G01X-87360Y-4798243D01*
G01X-103326Y-4798470D01*
G01X-124235Y-4798470D01*
G01X-124235Y-4799607D01*
G01X-124008Y-4802789D01*
G01X-123326Y-4806198D01*
G01X-122417Y-4808698D01*
G01X-121508Y-4810289D01*
G01X-120372Y-4811880D01*
G01X-118553Y-4813698D01*
G01X-116735Y-4814834D01*
G01X-114917Y-4815743D01*
G01X-113099Y-4816425D01*
G01X-109463Y-4816880D01*
G01X-107417Y-4817107D01*
G01X-105372Y-4816880D01*
G01X-99917Y-4816425D01*
G01X-97190Y-4815971D01*
G01X-93781Y-4815289D01*
G01X-91735Y-4814607D01*
G01X-89917Y-4814152D01*
G01X-86281Y-4812789D01*
G01X-84008Y-4812789D01*
G01X-82644Y-4813698D01*
G01X-82190Y-4815061D01*
G01X-81962Y-4818016D01*
G01X-82190Y-4820971D01*
G01X-82417Y-4822561D01*
G01X-82872Y-4824152D01*
G01X-83781Y-4825516D01*
G01X-85372Y-4826652D01*
G01X-87872Y-4827561D01*
G01X-90826Y-4828470D01*
G01X-93099Y-4829152D01*
G01X-98099Y-4830061D01*
G01X-101735Y-4830516D01*
G01X-108099Y-4830743D01*
G01X-114917Y-4830516D01*
G01X-116735Y-4830061D01*
G37*
G36*
G01X-62644Y-4828243D02*
G01X-63781Y-4827561D01*
G01X-63781Y-4795743D01*
G01X-63553Y-4761879D01*
G01X-63156Y-4760232D01*
G01X-62417Y-4759380D01*
G01X-60826Y-4758698D01*
G01X-56735Y-4758471D01*
G01X-52644Y-4758698D01*
G01X-50599Y-4759152D01*
G01X-49406Y-4759607D01*
G01X-48553Y-4760516D01*
G01X-48042Y-4762164D01*
G01X-47872Y-4764834D01*
G01X-47701Y-4767164D01*
G01X-47190Y-4767789D01*
G01X-43781Y-4765061D01*
G01X-42644Y-4763925D01*
G01X-41508Y-4763016D01*
G01X-39917Y-4761879D01*
G01X-37644Y-4760516D01*
G01X-35372Y-4759380D01*
G01X-33326Y-4758471D01*
G01X-30826Y-4757789D01*
G01X-28553Y-4757334D01*
G01X-26281Y-4757107D01*
G01X-23099Y-4757334D01*
G01X-19917Y-4757789D01*
G01X-16963Y-4758471D01*
G01X-14463Y-4759380D01*
G01X-12417Y-4760516D01*
G01X-10826Y-4761425D01*
G01X-9690Y-4762334D01*
G01X-6963Y-4765061D01*
G01X-5599Y-4767107D01*
G01X-4690Y-4768698D01*
G01X-4008Y-4770289D01*
G01X-3326Y-4772107D01*
G01X-2644Y-4774152D01*
G01X-2190Y-4775970D01*
G01X-1735Y-4779152D01*
G01X-1508Y-4802789D01*
G01X-1735Y-4826880D01*
G01X-2133Y-4827845D01*
G01X-2872Y-4828470D01*
G01X-4463Y-4829152D01*
G01X-9917Y-4829379D01*
G01X-15826Y-4829152D01*
G01X-17644Y-4828698D01*
G01X-19008Y-4828016D01*
G01X-19519Y-4822732D01*
G01X-19690Y-4807789D01*
G01X-19917Y-4785970D01*
G01X-20372Y-4782789D01*
G01X-21054Y-4780289D01*
G01X-21963Y-4778243D01*
G01X-23326Y-4776425D01*
G01X-25144Y-4774607D01*
G01X-27417Y-4773698D01*
G01X-29462Y-4773243D01*
G01X-31735Y-4773243D01*
G01X-34462Y-4773925D01*
G01X-36508Y-4774834D01*
G01X-38553Y-4776198D01*
G01X-40372Y-4777561D01*
G01X-43781Y-4780970D01*
G01X-44690Y-4782107D01*
G01X-45144Y-4803470D01*
G01X-45372Y-4825971D01*
G01X-46281Y-4828016D01*
G01X-47872Y-4828925D01*
G01X-54690Y-4829379D01*
G01X-61053Y-4829152D01*
G01X-62644Y-4828243D01*
G37*
G36*
G01X65083Y-4829607D02*
G01X62810Y-4828925D01*
G01X60537Y-4828016D01*
G01X58492Y-4826880D01*
G01X56901Y-4825971D01*
G01X55765Y-4825061D01*
G01X54628Y-4823925D01*
G01X53265Y-4822334D01*
G01X52128Y-4820516D01*
G01X51219Y-4818698D01*
G01X50310Y-4815971D01*
G01X49628Y-4812334D01*
G01X49628Y-4808698D01*
G01X49758Y-4807789D01*
G01X67583Y-4807789D01*
G01X67810Y-4810971D01*
G01X68492Y-4813243D01*
G01X69174Y-4814607D01*
G01X70537Y-4815971D01*
G01X72583Y-4817107D01*
G01X74856Y-4817561D01*
G01X76447Y-4817789D01*
G01X78037Y-4817789D01*
G01X78037Y-4817789D01*
G01X80537Y-4817334D01*
G01X82810Y-4816652D01*
G01X84628Y-4815743D01*
G01X85992Y-4814834D01*
G01X88265Y-4813016D01*
G01X90538Y-4810743D01*
G01X91049Y-4808982D01*
G01X91219Y-4804607D01*
G01X91219Y-4798925D01*
G01X86447Y-4798925D01*
G01X79628Y-4799152D01*
G01X76447Y-4799607D01*
G01X73947Y-4800289D01*
G01X71901Y-4801198D01*
G01X70537Y-4802107D01*
G01X69174Y-4803470D01*
G01X68037Y-4805289D01*
G01X67583Y-4807789D01*
G01X49758Y-4807789D01*
G01X50083Y-4805516D01*
G01X50765Y-4802561D01*
G01X51674Y-4800516D01*
G01X52355Y-4798925D01*
G01X53265Y-4797561D01*
G01X55083Y-4795289D01*
G01X56219Y-4794380D01*
G01X57810Y-4793243D01*
G01X60083Y-4791879D01*
G01X62356Y-4790743D01*
G01X64856Y-4789834D01*
G01X66901Y-4789152D01*
G01X71446Y-4788243D01*
G01X75083Y-4787789D01*
G01X83492Y-4787561D01*
G01X91219Y-4787561D01*
G01X91219Y-4785061D01*
G01X90992Y-4781425D01*
G01X90538Y-4778698D01*
G01X89856Y-4776425D01*
G01X88946Y-4774834D01*
G01X87810Y-4773471D01*
G01X86447Y-4772561D01*
G01X84856Y-4771879D01*
G01X83265Y-4771425D01*
G01X79174Y-4771198D01*
G01X74174Y-4771425D01*
G01X71901Y-4771879D01*
G01X69856Y-4772334D01*
G01X67583Y-4773016D01*
G01X65310Y-4773925D01*
G01X63265Y-4774834D01*
G01X59628Y-4776652D01*
G01X57583Y-4777334D01*
G01X55310Y-4777107D01*
G01X53947Y-4775516D01*
G01X53265Y-4772789D01*
G01X53265Y-4769152D01*
G01X53947Y-4766198D01*
G01X54856Y-4764607D01*
G01X56446Y-4763243D01*
G01X58265Y-4762107D01*
G01X60310Y-4761198D01*
G01X62583Y-4760289D01*
G01X67128Y-4758925D01*
G01X69856Y-4758243D01*
G01X72356Y-4757789D01*
G01X75992Y-4757334D01*
G01X79174Y-4757107D01*
G01X83719Y-4757334D01*
G01X87810Y-4757789D01*
G01X90538Y-4758243D01*
G01X92810Y-4758698D01*
G01X95310Y-4759380D01*
G01X97356Y-4760289D01*
G01X99174Y-4761198D01*
G01X100992Y-4762334D01*
G01X102583Y-4763698D01*
G01X103719Y-4764834D01*
G01X105083Y-4766425D01*
G01X106219Y-4768243D01*
G01X106901Y-4769834D01*
G01X107583Y-4771652D01*
G01X108265Y-4773925D01*
G01X108719Y-4775970D01*
G01X108946Y-4802107D01*
G01X108492Y-4828016D01*
G01X107128Y-4828925D01*
G01X102128Y-4829379D01*
G01X96901Y-4829152D01*
G01X94856Y-4828470D01*
G01X94174Y-4827391D01*
G01X93946Y-4825061D01*
G01X93776Y-4822902D01*
G01X93265Y-4822334D01*
G01X92128Y-4823243D01*
G01X90992Y-4824379D01*
G01X89401Y-4825516D01*
G01X87356Y-4826880D01*
G01X85537Y-4828016D01*
G01X83946Y-4828698D01*
G01X82128Y-4829379D01*
G01X79628Y-4830061D01*
G01X77356Y-4830516D01*
G01X72810Y-4830743D01*
G01X67583Y-4830289D01*
G01X65083Y-4829607D01*
G37*
G36*
G01X212356Y-4827789D02*
G01X211844Y-4820629D01*
G01X211674Y-4800516D01*
G01X211674Y-4773925D01*
G01X208719Y-4773925D01*
G01X204174Y-4773698D01*
G01X202810Y-4773300D01*
G01X201901Y-4772561D01*
G01X200992Y-4770970D01*
G01X200765Y-4767561D01*
G01X200992Y-4762789D01*
G01X201390Y-4761027D01*
G01X202128Y-4759834D01*
G01X203890Y-4759152D01*
G01X207355Y-4758925D01*
G01X211674Y-4758925D01*
G01X211674Y-4754607D01*
G01X211901Y-4749607D01*
G01X212128Y-4748016D01*
G01X212356Y-4745516D01*
G01X212810Y-4743243D01*
G01X213265Y-4741425D01*
G01X213946Y-4739152D01*
G01X214856Y-4737334D01*
G01X215537Y-4735743D01*
G01X216446Y-4734380D01*
G01X218265Y-4732107D01*
G01X219401Y-4731198D01*
G01X220992Y-4730061D01*
G01X223037Y-4728925D01*
G01X225310Y-4728016D01*
G01X227356Y-4727334D01*
G01X230537Y-4726880D01*
G01X233265Y-4726652D01*
G01X237356Y-4726880D01*
G01X240083Y-4727334D01*
G01X242356Y-4727789D01*
G01X244628Y-4728470D01*
G01X245992Y-4729380D01*
G01X246901Y-4730970D01*
G01X247356Y-4732789D01*
G01X247583Y-4735516D01*
G01X247356Y-4738243D01*
G01X246901Y-4740516D01*
G01X245992Y-4742561D01*
G01X244401Y-4742561D01*
G01X241901Y-4741880D01*
G01X239628Y-4741425D01*
G01X237583Y-4741425D01*
G01X235083Y-4741880D01*
G01X233265Y-4742561D01*
G01X232128Y-4743471D01*
G01X231219Y-4744834D01*
G01X230537Y-4746425D01*
G01X230083Y-4750061D01*
G01X229856Y-4754834D01*
G01X229856Y-4758925D01*
G01X235537Y-4758925D01*
G01X242356Y-4759152D01*
G01X243322Y-4759550D01*
G01X243946Y-4760289D01*
G01X244628Y-4761879D01*
G01X244855Y-4765061D01*
G01X244628Y-4768698D01*
G01X244174Y-4770970D01*
G01X243037Y-4773016D01*
G01X240821Y-4773698D01*
G01X235992Y-4773925D01*
G01X229856Y-4773925D01*
G01X229856Y-4800743D01*
G01X229685Y-4820971D01*
G01X229174Y-4828016D01*
G01X227583Y-4828925D01*
G01X220765Y-4829379D01*
G01X213946Y-4828925D01*
G01X212356Y-4827789D01*
G37*
G36*
G01X144628Y-4830061D02*
G01X142128Y-4829379D01*
G01X140083Y-4828470D01*
G01X138265Y-4827561D01*
G01X136674Y-4826652D01*
G01X135310Y-4825516D01*
G01X132583Y-4822789D01*
G01X131219Y-4820743D01*
G01X130310Y-4819152D01*
G01X129628Y-4817561D01*
G01X128946Y-4815743D01*
G01X128265Y-4813243D01*
G01X127810Y-4810971D01*
G01X127356Y-4805970D01*
G01X127128Y-4784152D01*
G01X127356Y-4761879D01*
G01X128037Y-4760061D01*
G01X129401Y-4759152D01*
G01X130992Y-4758698D01*
G01X135537Y-4758471D01*
G01X140537Y-4758698D01*
G01X142810Y-4759152D01*
G01X144856Y-4760289D01*
G01X145537Y-4766198D01*
G01X145765Y-4782107D01*
G01X145992Y-4804607D01*
G01X146674Y-4807561D01*
G01X147583Y-4809607D01*
G01X148492Y-4810971D01*
G01X149628Y-4812334D01*
G01X151219Y-4813470D01*
G01X153037Y-4814379D01*
G01X155083Y-4814834D01*
G01X157810Y-4814607D01*
G01X160537Y-4813925D01*
G01X162810Y-4812789D01*
G01X164401Y-4811652D01*
G01X165992Y-4810289D01*
G01X167810Y-4808925D01*
G01X170537Y-4805743D01*
G01X171049Y-4800232D01*
G01X171219Y-4784607D01*
G01X171446Y-4761879D01*
G01X171901Y-4760232D01*
G01X172810Y-4759380D01*
G01X174628Y-4758698D01*
G01X179856Y-4758471D01*
G01X185992Y-4758925D01*
G01X188492Y-4759834D01*
G01X189174Y-4768357D01*
G01X189401Y-4793016D01*
G01X189174Y-4826880D01*
G01X188265Y-4828470D01*
G01X186901Y-4829152D01*
G01X182355Y-4829379D01*
G01X177356Y-4829152D01*
G01X175083Y-4828470D01*
G01X173947Y-4828016D01*
G01X173947Y-4824379D01*
G01X173719Y-4820061D01*
G01X173435Y-4819664D01*
G01X173038Y-4819834D01*
G01X171901Y-4820743D01*
G01X169174Y-4823470D01*
G01X167356Y-4824834D01*
G01X165765Y-4825971D01*
G01X163947Y-4827107D01*
G01X162356Y-4828016D01*
G01X160537Y-4828925D01*
G01X158719Y-4829607D01*
G01X155083Y-4830516D01*
G01X150537Y-4830743D01*
G01X146446Y-4830516D01*
G01X144628Y-4830061D01*
G37*
G36*
G01X275537Y-4830061D02*
G01X271901Y-4829379D01*
G01X269628Y-4828698D01*
G01X268037Y-4828243D01*
G01X266447Y-4827561D01*
G01X262810Y-4825743D01*
G01X261219Y-4824834D01*
G01X259855Y-4823698D01*
G01X256447Y-4820289D01*
G01X255083Y-4818698D01*
G01X253946Y-4816880D01*
G01X253037Y-4815061D01*
G01X252128Y-4813016D01*
G01X250765Y-4808925D01*
G01X250083Y-4806198D01*
G01X249628Y-4803698D01*
G01X249401Y-4800970D01*
G01X249174Y-4796880D01*
G01X249174Y-4794152D01*
G01X249628Y-4788243D01*
G01X250083Y-4785516D01*
G01X250253Y-4784607D01*
G01X268037Y-4784607D01*
G01X268265Y-4786425D01*
G01X281901Y-4786652D01*
G01X281901Y-4786652D01*
G01X295310Y-4786652D01*
G01X295310Y-4784834D01*
G01X295083Y-4782334D01*
G01X294856Y-4780743D01*
G01X294401Y-4778925D01*
G01X293492Y-4776879D01*
G01X292583Y-4775289D01*
G01X291674Y-4774152D01*
G01X290083Y-4772561D01*
G01X287810Y-4771198D01*
G01X285992Y-4770516D01*
G01X282810Y-4770289D01*
G01X279174Y-4770516D01*
G01X276674Y-4771198D01*
G01X274401Y-4772334D01*
G01X272810Y-4773471D01*
G01X271674Y-4774607D01*
G01X270537Y-4776425D01*
G01X269401Y-4778470D01*
G01X268719Y-4780516D01*
G01X268265Y-4782334D01*
G01X268037Y-4784607D01*
G01X250253Y-4784607D01*
G01X250765Y-4781879D01*
G01X251674Y-4778925D01*
G01X252583Y-4776425D01*
G01X254401Y-4772789D01*
G01X255537Y-4770743D01*
G01X256447Y-4769152D01*
G01X257356Y-4768016D01*
G01X260765Y-4764607D01*
G01X262356Y-4763243D01*
G01X263946Y-4762107D01*
G01X265537Y-4761198D01*
G01X267356Y-4760289D01*
G01X269401Y-4759380D01*
G01X272356Y-4758471D01*
G01X274628Y-4757789D01*
G01X278265Y-4757334D01*
G01X281901Y-4757107D01*
G01X285537Y-4757334D01*
G01X287583Y-4757561D01*
G01X290537Y-4758016D01*
G01X292810Y-4758698D01*
G01X294628Y-4759152D01*
G01X296446Y-4759834D01*
G01X301446Y-4762334D01*
G01X304856Y-4765061D01*
G01X305765Y-4766198D01*
G01X307128Y-4767789D01*
G01X308492Y-4769834D01*
G01X309401Y-4771425D01*
G01X310310Y-4773243D01*
G01X311219Y-4775743D01*
G01X311901Y-4777789D01*
G01X312810Y-4782334D01*
G01X313037Y-4788470D01*
G01X312583Y-4795289D01*
G01X310992Y-4797561D01*
G01X304912Y-4798243D01*
G01X288946Y-4798470D01*
G01X268037Y-4798470D01*
G01X268037Y-4800516D01*
G01X268265Y-4803243D01*
G01X268492Y-4804834D01*
G01X268946Y-4806652D01*
G01X269855Y-4808698D01*
G01X270992Y-4810743D01*
G01X272128Y-4812334D01*
G01X273719Y-4813698D01*
G01X275537Y-4814834D01*
G01X277356Y-4815743D01*
G01X279174Y-4816425D01*
G01X282810Y-4816880D01*
G01X284856Y-4817107D01*
G01X286901Y-4816880D01*
G01X289174Y-4816652D01*
G01X292356Y-4816425D01*
G01X295083Y-4815971D01*
G01X296901Y-4815516D01*
G01X298947Y-4815061D01*
G01X301674Y-4814379D01*
G01X303947Y-4813470D01*
G01X305992Y-4812789D01*
G01X308265Y-4812789D01*
G01X309174Y-4813243D01*
G01X309628Y-4814152D01*
G01X310083Y-4815971D01*
G01X310310Y-4818016D01*
G01X309856Y-4822107D01*
G01X309401Y-4824152D01*
G01X308492Y-4825516D01*
G01X306901Y-4826652D01*
G01X304401Y-4827561D01*
G01X301446Y-4828470D01*
G01X299174Y-4829152D01*
G01X294174Y-4830061D01*
G01X290083Y-4830516D01*
G01X283946Y-4830743D01*
G01X278037Y-4830516D01*
G01X275537Y-4830061D01*
G37*
G36*
G01X329628Y-4828243D02*
G01X328492Y-4827561D01*
G01X328492Y-4794380D01*
G01X328947Y-4760289D01*
G01X330310Y-4759152D01*
G01X331901Y-4758698D01*
G01X335537Y-4758471D01*
G01X340083Y-4758698D01*
G01X342810Y-4759380D01*
G01X343946Y-4759834D01*
G01X343946Y-4768471D01*
G01X344856Y-4768016D01*
G01X346674Y-4766425D01*
G01X348037Y-4764607D01*
G01X351446Y-4761198D01*
G01X352583Y-4760289D01*
G01X353946Y-4759380D01*
G01X355537Y-4758471D01*
G01X357355Y-4757789D01*
G01X359174Y-4757334D01*
G01X360765Y-4757107D01*
G01X363265Y-4757334D01*
G01X365537Y-4757789D01*
G01X367583Y-4758243D01*
G01X369401Y-4759152D01*
G01X370083Y-4760516D01*
G01X370310Y-4765289D01*
G01X370083Y-4771425D01*
G01X369401Y-4774607D01*
G01X368833Y-4775459D01*
G01X368037Y-4775743D01*
G01X365537Y-4775289D01*
G01X363265Y-4774607D01*
G01X360992Y-4774380D01*
G01X358037Y-4774834D01*
G01X355992Y-4775743D01*
G01X354401Y-4776652D01*
G01X353037Y-4777789D01*
G01X350765Y-4780061D01*
G01X349856Y-4781198D01*
G01X348719Y-4782789D01*
G01X347355Y-4784834D01*
G01X346844Y-4790743D01*
G01X346503Y-4822448D01*
G01X345992Y-4828016D01*
G01X344401Y-4828925D01*
G01X337583Y-4829379D01*
G01X331219Y-4829152D01*
G01X329628Y-4828243D01*
G37*
G36*
G01X-1324690Y-4827789D02*
G01X-1325599Y-4826198D01*
G01X-1326053Y-4821425D01*
G01X-1325599Y-4815971D01*
G01X-1324690Y-4813698D01*
G01X-1324008Y-4812107D01*
G01X-1323098Y-4810743D01*
G01X-1320826Y-4808016D01*
G01X-1316962Y-4804152D01*
G01X-1315599Y-4802334D01*
G01X-1310599Y-4797334D01*
G01X-1309235Y-4795516D01*
G01X-1304235Y-4790516D01*
G01X-1302871Y-4788698D01*
G01X-1300599Y-4786425D01*
G01X-1297871Y-4783016D01*
G01X-1296735Y-4781425D01*
G01X-1295371Y-4779380D01*
G01X-1293099Y-4775743D01*
G01X-1291962Y-4773698D01*
G01X-1291053Y-4771425D01*
G01X-1290144Y-4768698D01*
G01X-1289462Y-4765061D01*
G01X-1289462Y-4760970D01*
G01X-1290144Y-4757561D01*
G01X-1291053Y-4755516D01*
G01X-1291962Y-4754152D01*
G01X-1293780Y-4752334D01*
G01X-1295371Y-4751198D01*
G01X-1297189Y-4750516D01*
G01X-1300371Y-4750061D01*
G01X-1301735Y-4750061D01*
G01X-1303780Y-4750289D01*
G01X-1306280Y-4750516D01*
G01X-1309917Y-4751425D01*
G01X-1311962Y-4752107D01*
G01X-1314008Y-4753016D01*
G01X-1316280Y-4754152D01*
G01X-1318553Y-4755516D01*
G01X-1320371Y-4756652D01*
G01X-1321962Y-4757107D01*
G01X-1322758Y-4756879D01*
G01X-1323326Y-4756198D01*
G01X-1324008Y-4754607D01*
G01X-1324235Y-4749380D01*
G01X-1323780Y-4743925D01*
G01X-1323098Y-4742107D01*
G01X-1322189Y-4740743D01*
G01X-1320599Y-4739607D01*
G01X-1318780Y-4738471D01*
G01X-1317189Y-4737561D01*
G01X-1314008Y-4736198D01*
G01X-1312189Y-4735516D01*
G01X-1309690Y-4734834D01*
G01X-1307644Y-4734152D01*
G01X-1303098Y-4733243D01*
G01X-1301053Y-4733016D01*
G01X-1297644Y-4732789D01*
G01X-1294917Y-4732789D01*
G01X-1292417Y-4733016D01*
G01X-1289462Y-4733243D01*
G01X-1287189Y-4733698D01*
G01X-1283553Y-4734607D01*
G01X-1281508Y-4735289D01*
G01X-1279462Y-4736198D01*
G01X-1276280Y-4737789D01*
G01X-1275144Y-4738698D01*
G01X-1271735Y-4742107D01*
G01X-1270371Y-4743698D01*
G01X-1269235Y-4745516D01*
G01X-1268553Y-4747107D01*
G01X-1267871Y-4748925D01*
G01X-1267189Y-4751198D01*
G01X-1266735Y-4753243D01*
G01X-1266507Y-4757334D01*
G01X-1266735Y-4761425D01*
G01X-1267189Y-4764607D01*
G01X-1267644Y-4766879D01*
G01X-1268326Y-4769834D01*
G01X-1269235Y-4772107D01*
G01X-1270144Y-4774152D01*
G01X-1271280Y-4776425D01*
G01X-1273553Y-4780061D01*
G01X-1274917Y-4782107D01*
G01X-1275826Y-4783698D01*
G01X-1278553Y-4787107D01*
G01X-1284008Y-4793470D01*
G01X-1287417Y-4796880D01*
G01X-1289235Y-4799152D01*
G01X-1301735Y-4811652D01*
G01X-1302644Y-4812789D01*
G01X-1298439Y-4813300D01*
G01X-1285371Y-4813470D01*
G01X-1266280Y-4813698D01*
G01X-1264235Y-4814607D01*
G01X-1263326Y-4816198D01*
G01X-1262871Y-4821425D01*
G01X-1263326Y-4826652D01*
G01X-1264235Y-4828243D01*
G01X-1271905Y-4828755D01*
G01X-1294008Y-4828925D01*
G01X-1323780Y-4828698D01*
G01X-1324690Y-4827789D01*
G37*
G36*
G01X-1229008Y-4829607D02*
G01X-1231053Y-4829152D01*
G01X-1233099Y-4828470D01*
G01X-1237190Y-4826425D01*
G01X-1239462Y-4824834D01*
G01X-1241280Y-4823470D01*
G01X-1242871Y-4821880D01*
G01X-1244235Y-4820061D01*
G01X-1245371Y-4818470D01*
G01X-1246508Y-4816425D01*
G01X-1247417Y-4814607D01*
G01X-1248326Y-4812561D01*
G01X-1249917Y-4807789D01*
G01X-1250826Y-4803698D01*
G01X-1251280Y-4800516D01*
G01X-1251735Y-4796880D01*
G01X-1252190Y-4790970D01*
G01X-1252417Y-4783470D01*
G01X-1252341Y-4780970D01*
G01X-1232871Y-4780970D01*
G01X-1232644Y-4793243D01*
G01X-1232190Y-4797789D01*
G01X-1231735Y-4800970D01*
G01X-1231280Y-4803470D01*
G01X-1230599Y-4806198D01*
G01X-1229917Y-4808016D01*
G01X-1229008Y-4810061D01*
G01X-1227871Y-4811652D01*
G01X-1226962Y-4812789D01*
G01X-1225599Y-4813925D01*
G01X-1223780Y-4814834D01*
G01X-1221280Y-4815289D01*
G01X-1219462Y-4815516D01*
G01X-1218326Y-4815516D01*
G01X-1218326Y-4815516D01*
G01X-1215826Y-4815061D01*
G01X-1213326Y-4814379D01*
G01X-1211280Y-4813243D01*
G01X-1209689Y-4811880D01*
G01X-1208780Y-4810743D01*
G01X-1208098Y-4809607D01*
G01X-1207417Y-4808243D01*
G01X-1206508Y-4806198D01*
G01X-1205826Y-4804152D01*
G01X-1204917Y-4799607D01*
G01X-1204462Y-4795061D01*
G01X-1204235Y-4783016D01*
G01X-1204462Y-4770970D01*
G01X-1204689Y-4769152D01*
G01X-1204917Y-4766425D01*
G01X-1205371Y-4763243D01*
G01X-1205826Y-4760970D01*
G01X-1206280Y-4758925D01*
G01X-1206962Y-4756652D01*
G01X-1207871Y-4754607D01*
G01X-1209008Y-4752334D01*
G01X-1210826Y-4750289D01*
G01X-1212644Y-4749152D01*
G01X-1214235Y-4748471D01*
G01X-1217417Y-4748016D01*
G01X-1221280Y-4748243D01*
G01X-1223780Y-4748925D01*
G01X-1225599Y-4749834D01*
G01X-1227417Y-4751425D01*
G01X-1228780Y-4753471D01*
G01X-1229689Y-4755061D01*
G01X-1230599Y-4757107D01*
G01X-1231280Y-4759152D01*
G01X-1232190Y-4764152D01*
G01X-1232644Y-4768698D01*
G01X-1232871Y-4780970D01*
G01X-1252341Y-4780970D01*
G01X-1252190Y-4775970D01*
G01X-1251735Y-4770516D01*
G01X-1251508Y-4768925D01*
G01X-1251280Y-4766879D01*
G01X-1250826Y-4764152D01*
G01X-1250371Y-4761879D01*
G01X-1249917Y-4759834D01*
G01X-1249235Y-4757107D01*
G01X-1248326Y-4754380D01*
G01X-1247417Y-4752107D01*
G01X-1246508Y-4750061D01*
G01X-1245598Y-4748243D01*
G01X-1244689Y-4746652D01*
G01X-1243780Y-4745289D01*
G01X-1242644Y-4743698D01*
G01X-1241280Y-4742107D01*
G01X-1238553Y-4739380D01*
G01X-1236735Y-4738016D01*
G01X-1234917Y-4736880D01*
G01X-1232871Y-4735743D01*
G01X-1230826Y-4734834D01*
G01X-1229008Y-4734152D01*
G01X-1224917Y-4733243D01*
G01X-1222644Y-4733016D01*
G01X-1219462Y-4732789D01*
G01X-1217189Y-4732789D01*
G01X-1215144Y-4733016D01*
G01X-1211735Y-4733243D01*
G01X-1209008Y-4733698D01*
G01X-1207189Y-4734152D01*
G01X-1204917Y-4734834D01*
G01X-1202644Y-4735743D01*
G01X-1200371Y-4736880D01*
G01X-1198780Y-4738016D01*
G01X-1197417Y-4738925D01*
G01X-1196053Y-4740061D01*
G01X-1193780Y-4742334D01*
G01X-1192644Y-4743925D01*
G01X-1191508Y-4745743D01*
G01X-1190599Y-4747107D01*
G01X-1189690Y-4748925D01*
G01X-1188780Y-4751198D01*
G01X-1187417Y-4755289D01*
G01X-1186735Y-4757789D01*
G01X-1186280Y-4760061D01*
G01X-1185826Y-4763243D01*
G01X-1185371Y-4766879D01*
G01X-1184917Y-4773243D01*
G01X-1184690Y-4780289D01*
G01X-1184917Y-4787334D01*
G01X-1185144Y-4789380D01*
G01X-1185371Y-4792789D01*
G01X-1185826Y-4796880D01*
G01X-1186280Y-4799607D01*
G01X-1186735Y-4801880D01*
G01X-1187417Y-4805061D01*
G01X-1188326Y-4808016D01*
G01X-1189235Y-4810516D01*
G01X-1190144Y-4812789D01*
G01X-1191280Y-4815061D01*
G01X-1192644Y-4817334D01*
G01X-1193780Y-4818925D01*
G01X-1194462Y-4820061D01*
G01X-1195371Y-4821198D01*
G01X-1196508Y-4822334D01*
G01X-1198780Y-4824152D01*
G01X-1200371Y-4825516D01*
G01X-1202189Y-4826652D01*
G01X-1204917Y-4828016D01*
G01X-1206735Y-4828698D01*
G01X-1208780Y-4829379D01*
G01X-1211508Y-4830061D01*
G01X-1214008Y-4830516D01*
G01X-1219689Y-4830743D01*
G01X-1225371Y-4830516D01*
G01X-1229008Y-4829607D01*
G37*
G36*
G01X-1172644Y-4827561D02*
G01X-1173553Y-4825971D01*
G01X-1174008Y-4824152D01*
G01X-1174235Y-4822107D01*
G01X-1174008Y-4819152D01*
G01X-1173553Y-4816425D01*
G01X-1172871Y-4814152D01*
G01X-1171735Y-4811880D01*
G01X-1170599Y-4810289D01*
G01X-1169690Y-4809152D01*
G01X-1168553Y-4808016D01*
G01X-1166735Y-4805743D01*
G01X-1162189Y-4801198D01*
G01X-1160371Y-4798925D01*
G01X-1155826Y-4794380D01*
G01X-1153099Y-4791198D01*
G01X-1149690Y-4787789D01*
G01X-1148780Y-4786652D01*
G01X-1147417Y-4785061D01*
G01X-1144689Y-4781425D01*
G01X-1143099Y-4779152D01*
G01X-1141962Y-4777334D01*
G01X-1140144Y-4774152D01*
G01X-1139462Y-4772561D01*
G01X-1138780Y-4770743D01*
G01X-1138099Y-4768698D01*
G01X-1137644Y-4766879D01*
G01X-1137417Y-4763471D01*
G01X-1137644Y-4759607D01*
G01X-1138099Y-4757789D01*
G01X-1138780Y-4755970D01*
G01X-1139689Y-4754380D01*
G01X-1140599Y-4753243D01*
G01X-1141962Y-4752107D01*
G01X-1143553Y-4751198D01*
G01X-1145599Y-4750516D01*
G01X-1148099Y-4750061D01*
G01X-1149917Y-4750061D01*
G01X-1154008Y-4750516D01*
G01X-1155599Y-4750743D01*
G01X-1157417Y-4751198D01*
G01X-1159235Y-4751879D01*
G01X-1160826Y-4752561D01*
G01X-1164462Y-4754380D01*
G01X-1166053Y-4755289D01*
G01X-1167417Y-4756198D01*
G01X-1168780Y-4756879D01*
G01X-1170599Y-4756652D01*
G01X-1171337Y-4756027D01*
G01X-1171735Y-4755061D01*
G01X-1172189Y-4753243D01*
G01X-1172417Y-4749834D01*
G01X-1172189Y-4746425D01*
G01X-1171962Y-4744834D01*
G01X-1171508Y-4743016D01*
G01X-1170599Y-4741425D01*
G01X-1169008Y-4739834D01*
G01X-1166735Y-4738471D01*
G01X-1163099Y-4736652D01*
G01X-1160599Y-4735743D01*
G01X-1155826Y-4734152D01*
G01X-1150826Y-4733243D01*
G01X-1145826Y-4732789D01*
G01X-1144235Y-4732561D01*
G01X-1142644Y-4732789D01*
G01X-1140599Y-4733016D01*
G01X-1137644Y-4733243D01*
G01X-1134917Y-4733698D01*
G01X-1132190Y-4734380D01*
G01X-1129462Y-4735289D01*
G01X-1125826Y-4737107D01*
G01X-1124235Y-4738016D01*
G01X-1122871Y-4738925D01*
G01X-1121508Y-4740061D01*
G01X-1120371Y-4741198D01*
G01X-1119008Y-4742789D01*
G01X-1117871Y-4744380D01*
G01X-1116962Y-4745970D01*
G01X-1116053Y-4748016D01*
G01X-1115371Y-4750061D01*
G01X-1114917Y-4751879D01*
G01X-1114689Y-4753698D01*
G01X-1114462Y-4755970D01*
G01X-1114462Y-4757789D01*
G01X-1114917Y-4763243D01*
G01X-1115371Y-4765970D01*
G01X-1116053Y-4768925D01*
G01X-1116735Y-4770970D01*
G01X-1117417Y-4772789D01*
G01X-1119462Y-4776879D01*
G01X-1121735Y-4780516D01*
G01X-1123326Y-4782789D01*
G01X-1124689Y-4784607D01*
G01X-1125598Y-4785743D01*
G01X-1126280Y-4786879D01*
G01X-1127190Y-4788016D01*
G01X-1128326Y-4789152D01*
G01X-1130144Y-4791425D01*
G01X-1131280Y-4792561D01*
G01X-1133553Y-4795289D01*
G01X-1144917Y-4806652D01*
G01X-1147189Y-4809379D01*
G01X-1149462Y-4811652D01*
G01X-1150371Y-4812789D01*
G01X-1146053Y-4813300D01*
G01X-1132644Y-4813470D01*
G01X-1113326Y-4813925D01*
G01X-1112190Y-4814550D01*
G01X-1111508Y-4815516D01*
G01X-1110826Y-4817334D01*
G01X-1110598Y-4820743D01*
G01X-1110826Y-4824152D01*
G01X-1111053Y-4825743D01*
G01X-1111735Y-4827789D01*
G01X-1112417Y-4828925D01*
G01X-1141735Y-4828925D01*
G01X-1171508Y-4828470D01*
G01X-1172644Y-4827561D01*
G37*
G36*
G01X-1060826Y-4827789D02*
G01X-1061337Y-4825061D01*
G01X-1061508Y-4818243D01*
G01X-1061508Y-4809379D01*
G01X-1079917Y-4809379D01*
G01X-1099008Y-4809152D01*
G01X-1100371Y-4808470D01*
G01X-1101280Y-4806880D01*
G01X-1101735Y-4805061D01*
G01X-1101962Y-4801652D01*
G01X-1101735Y-4797334D01*
G01X-1101280Y-4794152D01*
G01X-1086280Y-4794152D01*
G01X-1073780Y-4794380D01*
G01X-1073780Y-4794380D01*
G01X-1061508Y-4794380D01*
G01X-1061508Y-4773471D01*
G01X-1061735Y-4751879D01*
G01X-1062019Y-4751539D01*
G01X-1062417Y-4751879D01*
G01X-1063326Y-4753243D01*
G01X-1076962Y-4777107D01*
G01X-1077871Y-4778470D01*
G01X-1086053Y-4792789D01*
G01X-1086280Y-4794152D01*
G01X-1101280Y-4794152D01*
G01X-1100599Y-4791652D01*
G01X-1099917Y-4789834D01*
G01X-1099235Y-4788470D01*
G01X-1098326Y-4786879D01*
G01X-1096053Y-4782789D01*
G01X-1090599Y-4773243D01*
G01X-1088326Y-4769152D01*
G01X-1082871Y-4759607D01*
G01X-1080599Y-4755516D01*
G01X-1071508Y-4739607D01*
G01X-1070371Y-4737334D01*
G01X-1069008Y-4735743D01*
G01X-1067417Y-4734834D01*
G01X-1065371Y-4734380D01*
G01X-1063553Y-4734152D01*
G01X-1057871Y-4733925D01*
G01X-1051280Y-4734152D01*
G01X-1047644Y-4734607D01*
G01X-1044917Y-4735289D01*
G01X-1043553Y-4736198D01*
G01X-1043042Y-4743755D01*
G01X-1042871Y-4765516D01*
G01X-1042871Y-4794380D01*
G01X-1039008Y-4794380D01*
G01X-1034462Y-4794607D01*
G01X-1033099Y-4795289D01*
G01X-1032189Y-4797107D01*
G01X-1031735Y-4799152D01*
G01X-1031508Y-4801198D01*
G01X-1031735Y-4803243D01*
G01X-1031962Y-4805061D01*
G01X-1032417Y-4807107D01*
G01X-1033326Y-4808698D01*
G01X-1034803Y-4809209D01*
G01X-1038326Y-4809379D01*
G01X-1042871Y-4809379D01*
G01X-1042871Y-4817107D01*
G01X-1043098Y-4826425D01*
G01X-1043496Y-4827732D01*
G01X-1044235Y-4828470D01*
G01X-1045826Y-4829152D01*
G01X-1052417Y-4829379D01*
G01X-1059235Y-4828925D01*
G01X-1060826Y-4827789D01*
G37*
G36*
G01X-961735Y-4828243D02*
G01X-963326Y-4826425D01*
G01X-964235Y-4823925D01*
G01X-984235Y-4763925D01*
G01X-986053Y-4758925D01*
G01X-992190Y-4740516D01*
G01X-992644Y-4738471D01*
G01X-992417Y-4735970D01*
G01X-991849Y-4735061D01*
G01X-991053Y-4734607D01*
G01X-989462Y-4734152D01*
G01X-984462Y-4733925D01*
G01X-978099Y-4734152D01*
G01X-974689Y-4734834D01*
G01X-973553Y-4735459D01*
G01X-972871Y-4736425D01*
G01X-971962Y-4739152D01*
G01X-971053Y-4742107D01*
G01X-970144Y-4744834D01*
G01X-968326Y-4750743D01*
G01X-967417Y-4753471D01*
G01X-965599Y-4759380D01*
G01X-964689Y-4762107D01*
G01X-962871Y-4768016D01*
G01X-961962Y-4770743D01*
G01X-960144Y-4776652D01*
G01X-959235Y-4779380D01*
G01X-957417Y-4785289D01*
G01X-956508Y-4788016D01*
G01X-954689Y-4793925D01*
G01X-953780Y-4796652D01*
G01X-951962Y-4802561D01*
G01X-950371Y-4807334D01*
G01X-949917Y-4809152D01*
G01X-949633Y-4809948D01*
G01X-949235Y-4810061D01*
G01X-948326Y-4808243D01*
G01X-945599Y-4799380D01*
G01X-944008Y-4794607D01*
G01X-943553Y-4792789D01*
G01X-942190Y-4788698D01*
G01X-941508Y-4786198D01*
G01X-939917Y-4781425D01*
G01X-939462Y-4779607D01*
G01X-938780Y-4777561D01*
G01X-937417Y-4773016D01*
G01X-936053Y-4768925D01*
G01X-934690Y-4764380D01*
G01X-934008Y-4762334D01*
G01X-933326Y-4759834D01*
G01X-932417Y-4757107D01*
G01X-930599Y-4751198D01*
G01X-929008Y-4746425D01*
G01X-928553Y-4744607D01*
G01X-927871Y-4742561D01*
G01X-926508Y-4738016D01*
G01X-925599Y-4735970D01*
G01X-924974Y-4735061D01*
G01X-924008Y-4734607D01*
G01X-922189Y-4734152D01*
G01X-917644Y-4733925D01*
G01X-912189Y-4734152D01*
G01X-909917Y-4734607D01*
G01X-908553Y-4735289D01*
G01X-908042Y-4735970D01*
G01X-907871Y-4737107D01*
G01X-908326Y-4739380D01*
G01X-924690Y-4788470D01*
G01X-926053Y-4792107D01*
G01X-936962Y-4824834D01*
G01X-937871Y-4826880D01*
G01X-939235Y-4828470D01*
G01X-940826Y-4829152D01*
G01X-950371Y-4829379D01*
G01X-959917Y-4829152D01*
G01X-961735Y-4828243D01*
G37*
G36*
G01X-830371Y-4827561D02*
G01X-830883Y-4815061D01*
G01X-831053Y-4779380D01*
G01X-830826Y-4730516D01*
G01X-830428Y-4729209D01*
G01X-829689Y-4728470D01*
G01X-828099Y-4727789D01*
G01X-824917Y-4727334D01*
G01X-822190Y-4727107D01*
G01X-819462Y-4727334D01*
G01X-817644Y-4727561D01*
G01X-815144Y-4728016D01*
G01X-813099Y-4729152D01*
G01X-812587Y-4741539D01*
G01X-812417Y-4777334D01*
G01X-812644Y-4826425D01*
G01X-813042Y-4827732D01*
G01X-813780Y-4828470D01*
G01X-815371Y-4829152D01*
G01X-821735Y-4829379D01*
G01X-828553Y-4828925D01*
G01X-830371Y-4827561D01*
G37*
G36*
G01X-620371Y-4830061D02*
G01X-622644Y-4829607D01*
G01X-624917Y-4828925D01*
G01X-626735Y-4828016D01*
G01X-628781Y-4826880D01*
G01X-630371Y-4825743D01*
G01X-631508Y-4824607D01*
G01X-632644Y-4823016D01*
G01X-633781Y-4820971D01*
G01X-634690Y-4818925D01*
G01X-635371Y-4816652D01*
G01X-635826Y-4814607D01*
G01X-636280Y-4808698D01*
G01X-636508Y-4790970D01*
G01X-636508Y-4773925D01*
G01X-639462Y-4773925D01*
G01X-644008Y-4773698D01*
G01X-645315Y-4773300D01*
G01X-646053Y-4772561D01*
G01X-646735Y-4770970D01*
G01X-646962Y-4767789D01*
G01X-646735Y-4763243D01*
G01X-645826Y-4760061D01*
G01X-645144Y-4758925D01*
G01X-636508Y-4758925D01*
G01X-636508Y-4753016D01*
G01X-636280Y-4745516D01*
G01X-635599Y-4743016D01*
G01X-634974Y-4742277D01*
G01X-634008Y-4741880D01*
G01X-632190Y-4741425D01*
G01X-627871Y-4741198D01*
G01X-623553Y-4741425D01*
G01X-621280Y-4741880D01*
G01X-618781Y-4743016D01*
G01X-618099Y-4745573D01*
G01X-617872Y-4751425D01*
G01X-617872Y-4758925D01*
G01X-596280Y-4758925D01*
G01X-573326Y-4759380D01*
G01X-571281Y-4760743D01*
G01X-570371Y-4762334D01*
G01X-570144Y-4793925D01*
G01X-570371Y-4826425D01*
G01X-570769Y-4827732D01*
G01X-571508Y-4828470D01*
G01X-573099Y-4829152D01*
G01X-578781Y-4829379D01*
G01X-584917Y-4829152D01*
G01X-587190Y-4828470D01*
G01X-588326Y-4828016D01*
G01X-588326Y-4773925D01*
G01X-617872Y-4773925D01*
G01X-617872Y-4790289D01*
G01X-617644Y-4808243D01*
G01X-616962Y-4810971D01*
G01X-615826Y-4813016D01*
G01X-614462Y-4814379D01*
G01X-612190Y-4815061D01*
G01X-609462Y-4815061D01*
G01X-607190Y-4814607D01*
G01X-603553Y-4813698D01*
G01X-602531Y-4813811D01*
G01X-601735Y-4814607D01*
G01X-601224Y-4816425D01*
G01X-601053Y-4819607D01*
G01X-601280Y-4824607D01*
G01X-601962Y-4826652D01*
G01X-603099Y-4828016D01*
G01X-604690Y-4828925D01*
G01X-606962Y-4829607D01*
G01X-609008Y-4830061D01*
G01X-615826Y-4830743D01*
G01X-618553Y-4830516D01*
G01X-620371Y-4830061D01*
G37*
G36*
G01X-586735Y-4747561D02*
G01X-588326Y-4746198D01*
G01X-589235Y-4744607D01*
G01X-589690Y-4740516D01*
G01X-589462Y-4736425D01*
G01X-589008Y-4734607D01*
G01X-588326Y-4733016D01*
G01X-587417Y-4731880D01*
G01X-585826Y-4730743D01*
G01X-584008Y-4730061D01*
G01X-580371Y-4729834D01*
G01X-576281Y-4730061D01*
G01X-572644Y-4730970D01*
G01X-570599Y-4732334D01*
G01X-569462Y-4734380D01*
G01X-569008Y-4735970D01*
G01X-568781Y-4738925D01*
G01X-569235Y-4742789D01*
G01X-570144Y-4745289D01*
G01X-571053Y-4746652D01*
G01X-571962Y-4747561D01*
G01X-573553Y-4748243D01*
G01X-575371Y-4748698D01*
G01X-579690Y-4748925D01*
G01X-584462Y-4748471D01*
G01X-586735Y-4747561D01*
G37*
G36*
G01X-417644Y-4828243D02*
G01X-418781Y-4827561D01*
G01X-418781Y-4750289D01*
G01X-429462Y-4750289D01*
G01X-442190Y-4750061D01*
G01X-443837Y-4749607D01*
G01X-444690Y-4748698D01*
G01X-445371Y-4746879D01*
G01X-445599Y-4743471D01*
G01X-445371Y-4739607D01*
G01X-444917Y-4737334D01*
G01X-444008Y-4735289D01*
G01X-435258Y-4734607D01*
G01X-410372Y-4734380D01*
G01X-376281Y-4734607D01*
G01X-374690Y-4735289D01*
G01X-373781Y-4736652D01*
G01X-373326Y-4741198D01*
G01X-373553Y-4746425D01*
G01X-374463Y-4748925D01*
G01X-375826Y-4750061D01*
G01X-388099Y-4750289D01*
G01X-399690Y-4750289D01*
G01X-399690Y-4787561D01*
G01X-399917Y-4826425D01*
G01X-400372Y-4827732D01*
G01X-401281Y-4828470D01*
G01X-403099Y-4829152D01*
G01X-409462Y-4829379D01*
G01X-415826Y-4829152D01*
G01X-417644Y-4828243D01*
G37*
G36*
G01X17356Y-4827789D02*
G01X16844Y-4815345D01*
G01X16674Y-4779380D01*
G01X16901Y-4730516D01*
G01X17583Y-4728925D01*
G01X18947Y-4728016D01*
G01X20765Y-4727561D01*
G01X22356Y-4727334D01*
G01X25310Y-4727107D01*
G01X28265Y-4727334D01*
G01X30083Y-4727561D01*
G01X32583Y-4728016D01*
G01X34628Y-4729380D01*
G01X35140Y-4741823D01*
G01X35310Y-4777334D01*
G01X35083Y-4825971D01*
G01X34685Y-4827334D01*
G01X33947Y-4828243D01*
G01X32356Y-4829152D01*
G01X25992Y-4829379D01*
G01X19174Y-4828925D01*
G01X17356Y-4827789D01*
G37*
G36*
G01X60765Y-4746879D02*
G01X59174Y-4745061D01*
G01X58265Y-4741880D01*
G01X58265Y-4739152D01*
G01X58719Y-4735970D01*
G01X59401Y-4734152D01*
G01X60310Y-4732561D01*
G01X61219Y-4731652D01*
G01X62810Y-4730970D01*
G01X65537Y-4730516D01*
G01X67810Y-4730516D01*
G01X69628Y-4730743D01*
G01X72128Y-4731198D01*
G01X74401Y-4732334D01*
G01X75765Y-4733925D01*
G01X76447Y-4735516D01*
G01X76674Y-4738016D01*
G01X76447Y-4741425D01*
G01X75765Y-4744380D01*
G01X74174Y-4746652D01*
G01X72128Y-4747789D01*
G01X70537Y-4748243D01*
G01X67356Y-4748471D01*
G01X63265Y-4748016D01*
G01X60765Y-4746879D01*
G37*
G36*
G01X89401Y-4746879D02*
G01X87810Y-4745061D01*
G01X86901Y-4741880D01*
G01X86901Y-4739152D01*
G01X87128Y-4737107D01*
G01X87583Y-4735061D01*
G01X88265Y-4733470D01*
G01X89174Y-4732107D01*
G01X90765Y-4731198D01*
G01X92583Y-4730743D01*
G01X94174Y-4730516D01*
G01X96447Y-4730516D01*
G01X99628Y-4730970D01*
G01X101901Y-4731652D01*
G01X103265Y-4732561D01*
G01X104174Y-4733698D01*
G01X104856Y-4735289D01*
G01X105310Y-4738016D01*
G01X105083Y-4741425D01*
G01X104401Y-4744380D01*
G01X102810Y-4746652D01*
G01X100765Y-4747789D01*
G01X99174Y-4748243D01*
G01X95992Y-4748471D01*
G01X91901Y-4748016D01*
G01X89401Y-4746879D01*
G37*
G04 Text End*

G04 PolygonModel Start*
G36*
G01X-7120075Y-3287108D02*
G01X-7085175Y-3287108D01*
G01X-7085175Y-3557053D01*
G01X-7100927Y-3557053D01*
G01X-7100839Y-3556965D01*
G01X-7100839Y-3534004D01*
G01X-7100875Y-3534004D01*
G01X-7120075Y-3508048D01*
G01X-7120075Y-3287108D01*
G37*
G36*
G01X-7128311Y-3594501D02*
G01X-7104309Y-3594501D01*
G01X-7085175Y-3575155D01*
G01X-7085175Y-3557153D01*
G01X-7100875Y-3557153D01*
G01X-7100875Y-3578749D01*
G01X-7104367Y-3578749D01*
G01X-7128311Y-3578801D01*
G01X-7128311Y-3594501D01*
G37*
G36*
G01X-7128311Y-3594501D02*
G01X-7104309Y-3594501D01*
G01X-7085175Y-3575155D01*
G01X-7085175Y-3557153D01*
G01X-7100875Y-3557153D01*
G01X-7100875Y-3578749D01*
G01X-7104367Y-3578749D01*
G01X-7128311Y-3578801D01*
G01X-7128311Y-3594501D01*
G37*
G36*
G01X-7128311Y-3594501D02*
G01X-7104309Y-3594501D01*
G01X-7085175Y-3575155D01*
G01X-7085175Y-3557153D01*
G01X-7100875Y-3557153D01*
G01X-7100875Y-3578749D01*
G01X-7104367Y-3578749D01*
G01X-7128311Y-3578801D01*
G01X-7128311Y-3594501D01*
G37*
G36*
G01X-8260634Y-504838D02*
G01X-8260634Y-501346D01*
G01X-8260687Y-477402D01*
G01X-8241486Y-452399D01*
G01X-8241486Y-199923D01*
G01X-8276387Y-199923D01*
G01X-8276387Y-501404D01*
G01X-8257040Y-520538D01*
G01X-7472669Y-520538D01*
G01X-7448725Y-520591D01*
G01X-7445233Y-520591D01*
G01X-7445233Y-2817187D01*
G01X-7445159Y-2826234D01*
G01X-7445159Y-2829727D01*
G01X-8291755Y-2829727D01*
G01X-8291755Y-2845427D01*
G01X-7448753Y-2845427D01*
G01X-7429407Y-2826292D01*
G01X-7429407Y-2802290D01*
G01X-7429533Y-542187D01*
G01X-7429533Y-524185D01*
G01X-7448667Y-504838D01*
G01X-8260634Y-504838D01*
G37*
G36*
G01X-7009075Y-4887701D02*
G01X-4568295Y-4887701D01*
G01X-4568295Y-4852801D01*
G01X-7009075Y-4852801D01*
G01X-7009075Y-4887701D01*
G37*
G36*
G01X-4550956Y-4912958D02*
G01X-4516056Y-4912958D01*
G01X-4516056Y-5232903D01*
G01X-4531808Y-5232903D01*
G01X-4531721Y-5232815D01*
G01X-4531721Y-5209854D01*
G01X-4531756Y-5209854D01*
G01X-4550956Y-5183897D01*
G01X-4550956Y-4912958D01*
G37*
G36*
G01X-4559192Y-5270351D02*
G01X-4535190Y-5270351D01*
G01X-4516056Y-5251004D01*
G01X-4516056Y-5233002D01*
G01X-4531756Y-5233002D01*
G01X-4531756Y-5254599D01*
G01X-4535248Y-5254599D01*
G01X-4559192Y-5254651D01*
G01X-4559192Y-5270351D01*
G37*
G36*
G01X-4556768Y-4852801D02*
G01X-4593304Y-4852801D01*
G01X-4593304Y-4887556D01*
G01X-4550956Y-4887556D01*
G01X-4550956Y-4938166D01*
G01X-4516056Y-4938166D01*
G01X-4516056Y-4893268D01*
G01X-4556768Y-4852801D01*
G37*
G36*
G01X-4556768Y-4852801D02*
G01X-4593304Y-4852801D01*
G01X-4593304Y-4887556D01*
G01X-4550956Y-4887556D01*
G01X-4550956Y-4938166D01*
G01X-4516056Y-4938166D01*
G01X-4516056Y-4893268D01*
G01X-4556768Y-4852801D01*
G37*
G36*
G01X-4556768Y-4852801D02*
G01X-4593304Y-4852801D01*
G01X-4593304Y-4887556D01*
G01X-4550956Y-4887556D01*
G01X-4550956Y-4938166D01*
G01X-4516056Y-4938166D01*
G01X-4516056Y-4893268D01*
G01X-4556768Y-4852801D01*
G37*
G36*
G01X-5453878Y-4394401D02*
G01X-5429876Y-4394401D01*
G01X-5410742Y-4375055D01*
G01X-5410742Y-4357053D01*
G01X-5426442Y-4357053D01*
G01X-5426442Y-4378649D01*
G01X-5429934Y-4378649D01*
G01X-5453878Y-4378701D01*
G01X-5453878Y-4394401D01*
G37*
G36*
G01X-6429378Y-4887701D02*
G01X-4684558Y-4887701D01*
G01X-4684558Y-4852801D01*
G01X-6429378Y-4852801D01*
G01X-6429378Y-4887701D01*
G37*
G36*
G01X-6429378Y-4887701D02*
G01X-4684558Y-4887701D01*
G01X-4684558Y-4852801D01*
G01X-6429378Y-4852801D01*
G01X-6429378Y-4887701D01*
G37*
G36*
G01X-6429378Y-4887701D02*
G01X-4684558Y-4887701D01*
G01X-4684558Y-4852801D01*
G01X-6429378Y-4852801D01*
G01X-6429378Y-4887701D01*
G37*
G36*
G01X-7009075Y-4887701D02*
G01X-4568295Y-4887701D01*
G01X-4568295Y-4852801D01*
G01X-7009075Y-4852801D01*
G01X-7009075Y-4887701D01*
G37*
G36*
G01X-7009075Y-4887701D02*
G01X-4568295Y-4887701D01*
G01X-4568295Y-4852801D01*
G01X-7009075Y-4852801D01*
G01X-7009075Y-4887701D01*
G37*
G36*
G01X-6269473Y-5254551D02*
G01X-6293475Y-5254551D01*
G01X-6312609Y-5273898D01*
G01X-6312609Y-5291900D01*
G01X-6296909Y-5291900D01*
G01X-6296909Y-5270304D01*
G01X-6293417Y-5270304D01*
G01X-6269473Y-5270251D01*
G01X-6269473Y-5254551D01*
G37*
G36*
G01X-6312736Y-5626989D02*
G01X-6312736Y-5650991D01*
G01X-6293389Y-5670125D01*
G01X-6275387Y-5670125D01*
G01X-6275387Y-5654425D01*
G01X-6296984Y-5654425D01*
G01X-6296984Y-5650933D01*
G01X-6297036Y-5626989D01*
G01X-6312736Y-5626989D01*
G37*
G36*
G01X-6976899Y-3594401D02*
G01X-7000901Y-3594401D01*
G01X-7020035Y-3575055D01*
G01X-7020035Y-3557053D01*
G01X-7004335Y-3557053D01*
G01X-7004335Y-3578649D01*
G01X-7000843Y-3578649D01*
G01X-6976899Y-3578701D01*
G01X-6976899Y-3594401D01*
G37*
G36*
G01X-6976899Y-3594401D02*
G01X-7000901Y-3594401D01*
G01X-7020035Y-3575055D01*
G01X-7020035Y-3557053D01*
G01X-7004335Y-3557053D01*
G01X-7004335Y-3578649D01*
G01X-7000843Y-3578649D01*
G01X-6976899Y-3578701D01*
G01X-6976899Y-3594401D01*
G37*
G36*
G01X-6976899Y-3594401D02*
G01X-7000901Y-3594401D01*
G01X-7020035Y-3575055D01*
G01X-7020035Y-3557053D01*
G01X-7004335Y-3557053D01*
G01X-7004335Y-3578649D01*
G01X-7000843Y-3578649D01*
G01X-6976899Y-3578701D01*
G01X-6976899Y-3594401D01*
G37*
G36*
G01X-6985135Y-3307427D02*
G01X-7020035Y-3307427D01*
G01X-7020035Y-3557053D01*
G01X-7004283Y-3557053D01*
G01X-7004371Y-3556965D01*
G01X-7004371Y-3534004D01*
G01X-7004335Y-3534004D01*
G01X-6985135Y-3508048D01*
G01X-6985135Y-3307427D01*
G37*
G36*
G01X-7029323Y-4887701D02*
G01X-6992787Y-4887701D01*
G01X-6992787Y-4852946D01*
G01X-7035135Y-4852946D01*
G01X-7035135Y-4802336D01*
G01X-7070035Y-4802336D01*
G01X-7070035Y-4847234D01*
G01X-7029323Y-4887701D01*
G37*
G36*
G01X-7029323Y-4887701D02*
G01X-6992787Y-4887701D01*
G01X-6992787Y-4852946D01*
G01X-7035135Y-4852946D01*
G01X-7035135Y-4802336D01*
G01X-7070035Y-4802336D01*
G01X-7070035Y-4847234D01*
G01X-7029323Y-4887701D01*
G37*
G36*
G01X-7029323Y-4887701D02*
G01X-6992787Y-4887701D01*
G01X-6992787Y-4852946D01*
G01X-7035135Y-4852946D01*
G01X-7035135Y-4802336D01*
G01X-7070035Y-4802336D01*
G01X-7070035Y-4847234D01*
G01X-7029323Y-4887701D01*
G37*
G36*
G01X-7035135Y-4802336D02*
G01X-7035135Y-4426576D01*
G01X-7070035Y-4426576D01*
G01X-7070035Y-4802336D01*
G01X-7035135Y-4802336D01*
G37*
G36*
G01X-7035135Y-4802336D02*
G01X-7035135Y-4426576D01*
G01X-7070035Y-4426576D01*
G01X-7070035Y-4802336D01*
G01X-7035135Y-4802336D01*
G37*
G36*
G01X-7035135Y-4802336D02*
G01X-7035135Y-4426576D01*
G01X-7070035Y-4426576D01*
G01X-7070035Y-4802336D01*
G01X-7035135Y-4802336D01*
G37*
G36*
G01X-5410616Y-3621964D02*
G01X-5410616Y-3597962D01*
G01X-5429962Y-3578828D01*
G01X-5447964Y-3578828D01*
G01X-5447964Y-3594528D01*
G01X-5426368Y-3594528D01*
G01X-5426368Y-3598020D01*
G01X-5426316Y-3621964D01*
G01X-5410616Y-3621964D01*
G37*
G36*
G01X-8651292Y-3578701D02*
G01X-8675294Y-3578701D01*
G01X-8694428Y-3598048D01*
G01X-8694428Y-3616050D01*
G01X-8678728Y-3616050D01*
G01X-8678728Y-3594454D01*
G01X-8675236Y-3594454D01*
G01X-8651292Y-3594401D01*
G01X-8651292Y-3578701D01*
G37*
G36*
G01X-8694555Y-4351139D02*
G01X-8694555Y-4375141D01*
G01X-8675208Y-4394275D01*
G01X-8657206Y-4394275D01*
G01X-8657206Y-4378575D01*
G01X-8678802Y-4378575D01*
G01X-8678802Y-4375082D01*
G01X-8678855Y-4351139D01*
G01X-8694555Y-4351139D01*
G37*
G36*
G01X-9179323Y-504965D02*
G01X-9198669Y-524099D01*
G01X-9198669Y-548101D01*
G01X-9198543Y-2808204D01*
G01X-9198543Y-2826206D01*
G01X-9179409Y-2845553D01*
G01X-8344038Y-2845553D01*
G01X-8344038Y-2829853D01*
G01X-9155406Y-2829853D01*
G01X-9179350Y-2829801D01*
G01X-9182842Y-2829801D01*
G01X-9182842Y-533204D01*
G01X-9182917Y-524157D01*
G01X-9182917Y-520665D01*
G01X-8371036Y-520665D01*
G01X-8351689Y-501530D01*
G01X-8351689Y-200228D01*
G01X-8386590Y-200228D01*
G01X-8386590Y-452525D01*
G01X-8367389Y-477525D01*
G01X-8367441Y-501472D01*
G01X-8367441Y-504965D01*
G01X-9179323Y-504965D01*
G37*
G36*
G01X-8392157Y-159525D02*
G01X-8351689Y-200237D01*
G01X-8386444Y-200237D01*
G01X-8386444Y-194425D01*
G01X-8437055Y-194408D01*
G01X-8898879Y-194312D01*
G01X-8943777Y-194425D01*
G01X-8984244Y-153713D01*
G01X-8984244Y-117177D01*
G01X-8984354Y-548D01*
G01X-8949509Y-548D01*
G01X-8949534Y-117177D01*
G01X-8949489Y-159525D01*
G01X-8392157Y-159525D01*
G37*
G36*
G01X-8215427Y-194299D02*
G01X-8241486Y-194226D01*
G01X-8241486Y-199938D01*
G01X-8276387Y-199938D01*
G01X-8235674Y-159471D01*
G01X-8215427Y-159471D01*
G01X-7697311Y-159398D01*
G01X-7679204Y-159543D01*
G01X-7679204Y-2408D01*
G01X-7644304Y-2408D01*
G01X-7644304Y-153831D01*
G01X-7685015Y-194299D01*
G01X-8215427Y-194299D01*
G37*
G36*
G01X-8331980Y-2874952D02*
G01X-8297080Y-2874952D01*
G01X-8297080Y-3221853D01*
G01X-8297225Y-3236951D01*
G01X-7125887Y-3236951D01*
G01X-7085175Y-3277418D01*
G01X-7085175Y-3322317D01*
G01X-7120075Y-3322317D01*
G01X-7120075Y-3271706D01*
G01X-7139954Y-3271706D01*
G01X-8291513Y-3271851D01*
G01X-8331981Y-3231139D01*
G01X-8331980Y-2874952D01*
G37*
G36*
G01X-6568907Y-504965D02*
G01X-6588254Y-524099D01*
G01X-6588254Y-548101D01*
G01X-6588128Y-2808204D01*
G01X-6588128Y-2826206D01*
G01X-6568993Y-2845553D01*
G01X-5733623Y-2845553D01*
G01X-5733623Y-2829853D01*
G01X-6544991Y-2829853D01*
G01X-6568935Y-2829801D01*
G01X-6572428Y-2829801D01*
G01X-6572428Y-533204D01*
G01X-6572501Y-524157D01*
G01X-6572501Y-520665D01*
G01X-5760621Y-520665D01*
G01X-5741274Y-501530D01*
G01X-5741274Y-200250D01*
G01X-5776174Y-200250D01*
G01X-5776174Y-452525D01*
G01X-5756974Y-477525D01*
G01X-5757026Y-501472D01*
G01X-5757026Y-504965D01*
G01X-6568907Y-504965D01*
G37*
G36*
G01X-5650219Y-504838D02*
G01X-5650219Y-501346D01*
G01X-5650271Y-477402D01*
G01X-5631071Y-452399D01*
G01X-5631071Y-199913D01*
G01X-5665971Y-199913D01*
G01X-5665971Y-501404D01*
G01X-5646625Y-520538D01*
G01X-4862254Y-520538D01*
G01X-4838310Y-520591D01*
G01X-4834818Y-520591D01*
G01X-4834818Y-2817187D01*
G01X-4834744Y-2826234D01*
G01X-4834744Y-2829727D01*
G01X-5681340Y-2829727D01*
G01X-5681340Y-2845427D01*
G01X-4838338Y-2845427D01*
G01X-4818991Y-2826292D01*
G01X-4818991Y-2802290D01*
G01X-4819118Y-542187D01*
G01X-4819118Y-524185D01*
G01X-4838252Y-504838D01*
G01X-5650219Y-504838D01*
G37*
G36*
G01X-6943835Y-3271851D02*
G01X-6943835Y-3271377D01*
G01X-6985135Y-3271377D01*
G01X-6985135Y-3321987D01*
G01X-7020035Y-3321987D01*
G01X-7020035Y-3277089D01*
G01X-6979323Y-3236622D01*
G01X-6942787Y-3236622D01*
G01X-6942787Y-3236951D01*
G01X-5763913Y-3236951D01*
G01X-5763913Y-3236622D01*
G01X-5721565Y-3236622D01*
G01X-5721565Y-2858259D01*
G01X-5686665Y-2858259D01*
G01X-5686665Y-3230909D01*
G01X-5727377Y-3271377D01*
G01X-5733135Y-3271377D01*
G01X-5733135Y-3271851D01*
G01X-6943835Y-3271851D01*
G37*
G36*
G01X-5781741Y-159525D02*
G01X-5741274Y-200237D01*
G01X-5776029Y-200237D01*
G01X-5776029Y-194425D01*
G01X-5826640Y-194408D01*
G01X-6288463Y-194312D01*
G01X-6333361Y-194425D01*
G01X-6373829Y-153713D01*
G01X-6373829Y-117178D01*
G01X-6373939Y-548D01*
G01X-6339094Y-548D01*
G01X-6339118Y-117178D01*
G01X-6339074Y-159525D01*
G01X-5781741Y-159525D01*
G37*
G36*
G01X-5605011Y-194299D02*
G01X-5631071Y-194226D01*
G01X-5631071Y-199938D01*
G01X-5665971Y-199938D01*
G01X-5625259Y-159471D01*
G01X-5605011Y-159471D01*
G01X-5086896Y-159399D01*
G01X-5068788Y-159544D01*
G01X-5068788Y-2408D01*
G01X-5033888Y-2408D01*
G01X-5033888Y-153832D01*
G01X-5074600Y-194299D01*
G01X-5605011Y-194299D01*
G37*
G36*
G01X-1931797Y-4801788D02*
G01X-1931797Y-4426028D01*
G01X-1896897Y-4426028D01*
G01X-1896897Y-4801788D01*
G01X-1931797Y-4801788D01*
G37*
G36*
G01X-1931797Y-4801788D02*
G01X-1931797Y-4426028D01*
G01X-1896897Y-4426028D01*
G01X-1896897Y-4801788D01*
G01X-1931797Y-4801788D01*
G37*
G36*
G01X-1931797Y-4801788D02*
G01X-1931797Y-4426028D01*
G01X-1896897Y-4426028D01*
G01X-1896897Y-4801788D01*
G01X-1931797Y-4801788D01*
G37*
G36*
G01X-1937609Y-4887154D02*
G01X-1974144Y-4887154D01*
G01X-1974144Y-4852399D01*
G01X-1931797Y-4852399D01*
G01X-1931797Y-4801788D01*
G01X-1896897Y-4801788D01*
G01X-1896897Y-4846687D01*
G01X-1937609Y-4887154D01*
G37*
G36*
G01X-1937609Y-4887154D02*
G01X-1974144Y-4887154D01*
G01X-1974144Y-4852399D01*
G01X-1931797Y-4852399D01*
G01X-1931797Y-4801788D01*
G01X-1896897Y-4801788D01*
G01X-1896897Y-4846687D01*
G01X-1937609Y-4887154D01*
G37*
G36*
G01X-1937609Y-4887154D02*
G01X-1974144Y-4887154D01*
G01X-1974144Y-4852399D01*
G01X-1931797Y-4852399D01*
G01X-1931797Y-4801788D01*
G01X-1896897Y-4801788D01*
G01X-1896897Y-4846687D01*
G01X-1937609Y-4887154D01*
G37*
G36*
G01X-1957857Y-4887154D02*
G01X-4398637Y-4887154D01*
G01X-4398637Y-4852254D01*
G01X-1957857Y-4852254D01*
G01X-1957857Y-4887154D01*
G37*
G36*
G01X-1957857Y-4887154D02*
G01X-4398637Y-4887154D01*
G01X-4398637Y-4852254D01*
G01X-1957857Y-4852254D01*
G01X-1957857Y-4887154D01*
G37*
G36*
G01X-1957857Y-4887154D02*
G01X-4398637Y-4887154D01*
G01X-4398637Y-4852254D01*
G01X-1957857Y-4852254D01*
G01X-1957857Y-4887154D01*
G37*
G36*
G01X-2537554Y-4887154D02*
G01X-4282374Y-4887154D01*
G01X-4282374Y-4852254D01*
G01X-2537554Y-4852254D01*
G01X-2537554Y-4887154D01*
G37*
G36*
G01X-2537554Y-4887154D02*
G01X-4282374Y-4887154D01*
G01X-4282374Y-4852254D01*
G01X-2537554Y-4852254D01*
G01X-2537554Y-4887154D01*
G37*
G36*
G01X-2537554Y-4887154D02*
G01X-4282374Y-4887154D01*
G01X-4282374Y-4852254D01*
G01X-2537554Y-4852254D01*
G01X-2537554Y-4887154D01*
G37*
G36*
G01X-4410164Y-4852253D02*
G01X-4373628Y-4852253D01*
G01X-4373628Y-4887009D01*
G01X-4415976Y-4887009D01*
G01X-4415976Y-4937619D01*
G01X-4450876Y-4937619D01*
G01X-4450876Y-4892721D01*
G01X-4410164Y-4852253D01*
G37*
G36*
G01X-4410164Y-4852253D02*
G01X-4373628Y-4852253D01*
G01X-4373628Y-4887009D01*
G01X-4415976Y-4887009D01*
G01X-4415976Y-4937619D01*
G01X-4450876Y-4937619D01*
G01X-4450876Y-4892721D01*
G01X-4410164Y-4852253D01*
G37*
G36*
G01X-4410164Y-4852253D02*
G01X-4373628Y-4852253D01*
G01X-4373628Y-4887009D01*
G01X-4415976Y-4887009D01*
G01X-4415976Y-4937619D01*
G01X-4450876Y-4937619D01*
G01X-4450876Y-4892721D01*
G01X-4410164Y-4852253D01*
G37*
G36*
G01X-4407739Y-5269804D02*
G01X-4431741Y-5269804D01*
G01X-4450876Y-5250457D01*
G01X-4450876Y-5232455D01*
G01X-4435176Y-5232455D01*
G01X-4435176Y-5254051D01*
G01X-4431683Y-5254051D01*
G01X-4407739Y-5254104D01*
G01X-4407739Y-5269804D01*
G37*
G36*
G01X-4415976Y-4912410D02*
G01X-4450876Y-4912410D01*
G01X-4450876Y-5232355D01*
G01X-4435123Y-5232355D01*
G01X-4435211Y-5232267D01*
G01X-4435211Y-5209306D01*
G01X-4435176Y-5209306D01*
G01X-4415976Y-5183350D01*
G01X-4415976Y-4912410D01*
G37*
G36*
G01X-574775Y-158978D02*
G01X-615242Y-199689D01*
G01X-580487Y-199689D01*
G01X-580487Y-193878D01*
G01X-529877Y-193860D01*
G01X-68053Y-193765D01*
G01X-23155Y-193878D01*
G01X17312Y-153166D01*
G01X17312Y-116630D01*
G01X17423Y0D01*
G01X-17423Y0D01*
G01X-17398Y-116630D01*
G01X-17443Y-158978D01*
G01X-574775Y-158978D01*
G37*
G36*
G01X212391Y-504417D02*
G01X231737Y-523551D01*
G01X231737Y-547553D01*
G01X231611Y-2807657D01*
G01X231611Y-2825659D01*
G01X212477Y-2845005D01*
G01X-622894Y-2845005D01*
G01X-622894Y-2829305D01*
G01X188475Y-2829305D01*
G01X212418Y-2829253D01*
G01X215911Y-2829253D01*
G01X215911Y-532657D01*
G01X215985Y-523610D01*
G01X215985Y-520117D01*
G01X-595896Y-520117D01*
G01X-615242Y-500983D01*
G01X-615243Y-199681D01*
G01X-580342Y-199681D01*
G01X-580342Y-451978D01*
G01X-599542Y-476977D01*
G01X-599490Y-500925D01*
G01X-599490Y-504417D01*
G01X212391Y-504417D01*
G37*
G36*
G01X-751505Y-193751D02*
G01X-725445Y-193679D01*
G01X-725445Y-199391D01*
G01X-690545Y-199391D01*
G01X-731257Y-158923D01*
G01X-751505Y-158923D01*
G01X-1269621Y-158851D01*
G01X-1287728Y-158996D01*
G01X-1287728Y-1860D01*
G01X-1322628Y-1860D01*
G01X-1322628Y-153284D01*
G01X-1281916Y-193751D01*
G01X-751505Y-193751D01*
G37*
G36*
G01X-706298Y-504291D02*
G01X-706298Y-500798D01*
G01X-706245Y-476854D01*
G01X-725445Y-451851D01*
G01X-725445Y-199375D01*
G01X-690545Y-199375D01*
G01X-690545Y-500856D01*
G01X-709892Y-519991D01*
G01X-1494262Y-519991D01*
G01X-1518206Y-520043D01*
G01X-1521699Y-520043D01*
G01X-1521699Y-2816639D01*
G01X-1521773Y-2825686D01*
G01X-1521773Y-2829179D01*
G01X-675176Y-2829179D01*
G01X-675176Y-2844879D01*
G01X-1518179Y-2844879D01*
G01X-1537525Y-2825745D01*
G01X-1537525Y-2801743D01*
G01X-1537399Y-541639D01*
G01X-1537399Y-523637D01*
G01X-1518264Y-504291D01*
G01X-706298Y-504291D01*
G37*
G36*
G01X-634951Y-2874404D02*
G01X-669851Y-2874404D01*
G01X-669851Y-3221305D01*
G01X-669706Y-3236403D01*
G01X-1841045Y-3236403D01*
G01X-1881757Y-3276871D01*
G01X-1881757Y-3321769D01*
G01X-1846857Y-3321769D01*
G01X-1846857Y-3271159D01*
G01X-1826978Y-3271159D01*
G01X-675419Y-3271304D01*
G01X-634951Y-3230592D01*
G01X-634951Y-2874404D01*
G37*
G36*
G01X-1846857Y-3286560D02*
G01X-1881757Y-3286560D01*
G01X-1881757Y-3556505D01*
G01X-1866005Y-3556505D01*
G01X-1866092Y-3556418D01*
G01X-1866092Y-3533456D01*
G01X-1866057Y-3533456D01*
G01X-1846857Y-3507500D01*
G01X-1846857Y-3286560D01*
G37*
G36*
G01X-1981797Y-3306880D02*
G01X-1946897Y-3306880D01*
G01X-1946897Y-3556505D01*
G01X-1962649Y-3556505D01*
G01X-1962561Y-3556418D01*
G01X-1962561Y-3533456D01*
G01X-1962597Y-3533456D01*
G01X-1981797Y-3507500D01*
G01X-1981797Y-3306880D01*
G37*
G36*
G01X-2023097Y-3271304D02*
G01X-2023097Y-3270829D01*
G01X-1981797Y-3270829D01*
G01X-1981797Y-3321440D01*
G01X-1946897Y-3321440D01*
G01X-1946897Y-3276541D01*
G01X-1987608Y-3236074D01*
G01X-2024144Y-3236074D01*
G01X-2024144Y-3236403D01*
G01X-3203019Y-3236403D01*
G01X-3203019Y-3236074D01*
G01X-3245367Y-3236074D01*
G01X-3245367Y-2857711D01*
G01X-3280267Y-2857711D01*
G01X-3280267Y-3230362D01*
G01X-3239555Y-3270829D01*
G01X-3233797Y-3270829D01*
G01X-3233797Y-3271304D01*
G01X-2023097Y-3271304D01*
G37*
G36*
G01X-2398024Y-504417D02*
G01X-2378678Y-523551D01*
G01X-2378678Y-547553D01*
G01X-2378804Y-2807657D01*
G01X-2378804Y-2825659D01*
G01X-2397938Y-2845005D01*
G01X-3233309Y-2845005D01*
G01X-3233309Y-2829305D01*
G01X-2421940Y-2829305D01*
G01X-2397997Y-2829253D01*
G01X-2394504Y-2829253D01*
G01X-2394504Y-532657D01*
G01X-2394430Y-523610D01*
G01X-2394430Y-520117D01*
G01X-3206311Y-520117D01*
G01X-3225658Y-500983D01*
G01X-3225658Y-199702D01*
G01X-3190757Y-199702D01*
G01X-3190757Y-451978D01*
G01X-3209958Y-476977D01*
G01X-3209905Y-500925D01*
G01X-3209905Y-504417D01*
G01X-2398024Y-504417D01*
G37*
G36*
G01X-3185190Y-158978D02*
G01X-3225658Y-199689D01*
G01X-3190903Y-199689D01*
G01X-3190903Y-193878D01*
G01X-3140292Y-193860D01*
G01X-2678469Y-193765D01*
G01X-2633570Y-193878D01*
G01X-2593103Y-153166D01*
G01X-2593103Y-116630D01*
G01X-2592993Y0D01*
G01X-2627838Y0D01*
G01X-2627814Y-116630D01*
G01X-2627858Y-158978D01*
G01X-3185190Y-158978D01*
G37*
G36*
G01X-3361921Y-193751D02*
G01X-3335861Y-193679D01*
G01X-3335861Y-199391D01*
G01X-3300961Y-199391D01*
G01X-3341673Y-158923D01*
G01X-3361921Y-158923D01*
G01X-3880036Y-158851D01*
G01X-3898143Y-158996D01*
G01X-3898144Y-1860D01*
G01X-3933043Y-1860D01*
G01X-3933043Y-153284D01*
G01X-3892332Y-193751D01*
G01X-3361921Y-193751D01*
G37*
G36*
G01X-3316713Y-504291D02*
G01X-3316713Y-500798D01*
G01X-3316660Y-476854D01*
G01X-3335860Y-451851D01*
G01X-3335860Y-199366D01*
G01X-3300960Y-199366D01*
G01X-3300960Y-500856D01*
G01X-3320307Y-519991D01*
G01X-4104678Y-519991D01*
G01X-4128621Y-520043D01*
G01X-4132114Y-520043D01*
G01X-4132114Y-2816639D01*
G01X-4132188Y-2825686D01*
G01X-4132188Y-2829179D01*
G01X-3285592Y-2829179D01*
G01X-3285592Y-2844879D01*
G01X-4128594Y-2844879D01*
G01X-4147940Y-2825745D01*
G01X-4147940Y-2801743D01*
G01X-4147814Y-541639D01*
G01X-4147814Y-523637D01*
G01X-4128680Y-504291D01*
G01X-3316713Y-504291D01*
G37*
G36*
G01X-4466016Y-5713409D02*
G01X-4500916Y-5713409D01*
G01X-4500916Y-5834545D01*
G01X-4466016Y-5834545D01*
G01X-4466016Y-5713409D01*
G37*
G36*
G01X-2697458Y-5254551D02*
G01X-2673456Y-5254551D01*
G01X-2654322Y-5273898D01*
G01X-2654322Y-5291900D01*
G01X-2670022Y-5291900D01*
G01X-2670022Y-5270304D01*
G01X-2673515Y-5270304D01*
G01X-2697458Y-5270251D01*
G01X-2697458Y-5254551D01*
G37*
G36*
G01X-2654196Y-5626989D02*
G01X-2654196Y-5650991D01*
G01X-2673542Y-5670125D01*
G01X-2691544Y-5670125D01*
G01X-2691544Y-5654425D01*
G01X-2669948Y-5654425D01*
G01X-2669948Y-5650933D01*
G01X-2669896Y-5626989D01*
G01X-2654196Y-5626989D01*
G37*
G36*
G01X-272377Y-3621464D02*
G01X-272377Y-3597462D01*
G01X-291724Y-3578328D01*
G01X-309726Y-3578328D01*
G01X-309726Y-3594028D01*
G01X-288129Y-3594028D01*
G01X-288129Y-3597520D01*
G01X-288077Y-3621464D01*
G01X-272377Y-3621464D01*
G37*
G36*
G01X-1838661Y-3593901D02*
G01X-1862663Y-3593901D01*
G01X-1881797Y-3574554D01*
G01X-1881797Y-3556552D01*
G01X-1866097Y-3556552D01*
G01X-1866097Y-3578149D01*
G01X-1862604Y-3578149D01*
G01X-1838661Y-3578201D01*
G01X-1838661Y-3593901D01*
G37*
G36*
G01X-3513054Y-3578201D02*
G01X-3537056Y-3578201D01*
G01X-3556190Y-3597548D01*
G01X-3556190Y-3615550D01*
G01X-3540490Y-3615550D01*
G01X-3540490Y-3593954D01*
G01X-3536997Y-3593954D01*
G01X-3513054Y-3593901D01*
G01X-3513054Y-3578201D01*
G37*
G36*
G01X-3556316Y-4350638D02*
G01X-3556316Y-4374641D01*
G01X-3536970Y-4393775D01*
G01X-3518968Y-4393775D01*
G01X-3518968Y-4378075D01*
G01X-3540564Y-4378075D01*
G01X-3540564Y-4374582D01*
G01X-3540616Y-4350638D01*
G01X-3556316Y-4350638D01*
G37*
G36*
G01X-1990072Y-3594001D02*
G01X-1966071Y-3594001D01*
G01X-1946936Y-3574655D01*
G01X-1946936Y-3556653D01*
G01X-1962636Y-3556653D01*
G01X-1962636Y-3578249D01*
G01X-1966129Y-3578249D01*
G01X-1990072Y-3578301D01*
G01X-1990072Y-3594001D01*
G37*
G36*
G01X-315640Y-4393901D02*
G01X-291638Y-4393901D01*
G01X-272503Y-4374555D01*
G01X-272503Y-4356553D01*
G01X-288203Y-4356553D01*
G01X-288203Y-4378149D01*
G01X-291696Y-4378149D01*
G01X-315640Y-4378201D01*
G01X-315640Y-4393901D01*
G37*

G04 Pad Start*
G54D10*
G01X-4483466Y-5688551D03*
G54D11*
G01X-4465766Y-5662401D03*
G54D12*
G01X-4501166Y-5662401D03*
G54D10*
G01X-8314530Y-2863853D03*
G54D13*
G01X-8296830Y-2837703D03*
G54D14*
G01X-8332230Y-2837703D03*
G54D10*
G01X-5704115Y-2863853D03*
G54D13*
G01X-5686415Y-2837703D03*
G54D14*
G01X-5721815Y-2837703D03*
G54D10*
G01X-7052585Y-4412701D03*
G54D13*
G01X-7034885Y-4386551D03*
G54D14*
G01X-7070285Y-4386551D03*
G54D10*
G01X-652822Y-2863134D03*
G54D11*
G01X-635122Y-2836984D03*
G54D12*
G01X-670522Y-2836984D03*
G54D10*
G01X-3262817Y-2863134D03*
G54D11*
G01X-3245117Y-2836984D03*
G54D12*
G01X-3280517Y-2836984D03*
G54D10*
G01X-1914347Y-4412201D03*
G54D15*
G01X-1896647Y-4386051D03*
G54D16*
G01X-1932047Y-4386051D03*
G54D18*
G01X-8483466Y-5516944D03*
G01X-9083466Y-3280545D03*
G01X-483466Y-5516944D03*
G01X116534Y-3280545D03*
G01X-6983466Y-316944D03*
G01X-1983466Y-316944D03*
G01X-4483466Y-3280545D03*
G54D19*
G01X-4439818Y-5168900D03*
G01X-4526382Y-5168900D03*
G01X-7010243Y-3493274D03*
G01X-7096806Y-3493274D03*
G01X-1872760Y-3485059D03*
G01X-1959323Y-3485059D03*
G01X-8270706Y-426785D03*
G01X-8357269Y-426785D03*
G01X-5660768Y-432948D03*
G01X-5747331Y-432948D03*
G01X-3220640Y-428171D03*
G01X-3307203Y-428171D03*
G01X-609394Y-428325D03*
G01X-695957Y-428325D03*
G04 Pad End*

G04 Via Start*
G54D20*
G01X-9259682Y-5491289D03*
G01X-9259682Y-5291289D03*
G01X-9259682Y-5091289D03*
G01X-9259683Y-4891289D03*
G01X-9259683Y-4691289D03*
G01X-9259683Y-4491289D03*
G01X-9259683Y-4291289D03*
G01X-9259683Y-4091289D03*
G01X-9259683Y-3891289D03*
G01X-9259683Y-3691289D03*
G01X-9259683Y-291287D03*
G01X-9259683Y-91287D03*
G01X-9059682Y-5491289D03*
G01X-9059682Y-5291289D03*
G01X-9059682Y-5091289D03*
G01X-9059682Y-4891289D03*
G01X-9059682Y-4691289D03*
G01X-9059682Y-4491289D03*
G01X-9059682Y-4291289D03*
G01X-9059682Y-4091289D03*
G01X-9059682Y-3891289D03*
G01X-9059682Y-3691289D03*
G01X-8859682Y-5291289D03*
G01X-8859682Y-5091289D03*
G01X-8859682Y-4891289D03*
G01X-8859682Y-4691289D03*
G01X-8859682Y-3091288D03*
G01X-8859682Y-2491288D03*
G01X-8859682Y-2291288D03*
G01X-8859682Y-2091288D03*
G01X-8859682Y-1891288D03*
G01X-8859682Y-1691287D03*
G01X-8859682Y-1491287D03*
G01X-8859682Y-1291287D03*
G01X-8859682Y-1091287D03*
G01X-8859682Y-891287D03*
G01X-8659682Y-5091289D03*
G01X-8659682Y-4891289D03*
G01X-8659682Y-4691289D03*
G01X-8659682Y-3291288D03*
G01X-8659682Y-3091288D03*
G01X-8659682Y-2491288D03*
G01X-8659682Y-2291288D03*
G01X-8659682Y-2091288D03*
G01X-8659682Y-1891288D03*
G01X-8659682Y-1691287D03*
G01X-8659682Y-1491287D03*
G01X-8659682Y-1291287D03*
G01X-8659682Y-1091287D03*
G01X-8659682Y-891287D03*
G01X-8459682Y-5091289D03*
G01X-8459682Y-4891289D03*
G01X-8459682Y-4691289D03*
G01X-8459682Y-4091289D03*
G01X-8459682Y-3891289D03*
G01X-8459682Y-2491288D03*
G01X-8459682Y-2291288D03*
G01X-8459682Y-2091288D03*
G01X-8459682Y-1891288D03*
G01X-8459682Y-1691287D03*
G01X-8459682Y-1491287D03*
G01X-8459682Y-1291287D03*
G01X-8459682Y-1091287D03*
G01X-8459682Y-891287D03*
G01X-8259682Y-5291289D03*
G01X-8259682Y-5091289D03*
G01X-8259682Y-4891289D03*
G01X-8259682Y-4691289D03*
G01X-8259682Y-4091289D03*
G01X-8259682Y-3891289D03*
G01X-8259682Y-2491288D03*
G01X-8259682Y-2291288D03*
G01X-8259682Y-2091288D03*
G01X-8259682Y-1891288D03*
G01X-8259682Y-1691287D03*
G01X-8259682Y-1491287D03*
G01X-8259682Y-1291287D03*
G01X-8259682Y-1091287D03*
G01X-8259682Y-891287D03*
G01X-8059682Y-5491289D03*
G01X-8059682Y-5291289D03*
G01X-8059682Y-5091289D03*
G01X-8059682Y-4891289D03*
G01X-8059682Y-4691289D03*
G01X-8059682Y-4091289D03*
G01X-8059682Y-3891289D03*
G01X-8059682Y-2491288D03*
G01X-8059682Y-2291288D03*
G01X-8059682Y-2091288D03*
G01X-8059682Y-1891288D03*
G01X-8059682Y-1691287D03*
G01X-8059682Y-1491287D03*
G01X-8059682Y-1291287D03*
G01X-8059682Y-1091287D03*
G01X-8059682Y-891287D03*
G01X-7859682Y-5691290D03*
G01X-7859682Y-5491289D03*
G01X-7859682Y-5291289D03*
G01X-7859682Y-5091289D03*
G01X-7859682Y-4891289D03*
G01X-7859682Y-4691289D03*
G01X-7859682Y-4091289D03*
G01X-7859682Y-3891289D03*
G01X-7859682Y-2491288D03*
G01X-7859682Y-2291288D03*
G01X-7859682Y-2091288D03*
G01X-7859682Y-1891288D03*
G01X-7859682Y-1691287D03*
G01X-7859682Y-1491287D03*
G01X-7859682Y-1291287D03*
G01X-7859682Y-1091287D03*
G01X-7859682Y-891287D03*
G01X-7659681Y-5691290D03*
G01X-7659681Y-5491289D03*
G01X-7659681Y-5291289D03*
G01X-7659681Y-5091289D03*
G01X-7659681Y-4891289D03*
G01X-7659681Y-4691289D03*
G01X-7659681Y-4091289D03*
G01X-7659681Y-3891289D03*
G01X-7459681Y-5691290D03*
G01X-7459681Y-5491289D03*
G01X-7459681Y-5291289D03*
G01X-7459681Y-5091289D03*
G01X-7459681Y-4891289D03*
G01X-7459681Y-4691289D03*
G01X-7459681Y-4091289D03*
G01X-7459681Y-3891289D03*
G01X-7259681Y-5691290D03*
G01X-7259681Y-5491289D03*
G01X-7259681Y-5291289D03*
G01X-7259681Y-5091289D03*
G01X-7259681Y-4091289D03*
G01X-7259681Y-3891289D03*
G01X-7059681Y-5691290D03*
G01X-7059681Y-5491289D03*
G01X-7059681Y-5291289D03*
G01X-7059681Y-4091289D03*
G01X-7059681Y-3891289D03*
G01X-7059681Y-2891288D03*
G01X-7059681Y-2691288D03*
G01X-7059681Y-2491288D03*
G01X-7059681Y-2291288D03*
G01X-7059681Y-2091288D03*
G01X-7059681Y-1891288D03*
G01X-7059681Y-1691287D03*
G01X-7059681Y-1491287D03*
G01X-7059681Y-1291287D03*
G01X-7059681Y-1091287D03*
G01X-7059681Y-891287D03*
G01X-7059681Y-691287D03*
G01X-6859681Y-5691290D03*
G01X-6859681Y-5491289D03*
G01X-6859681Y-5291289D03*
G01X-6859681Y-4091289D03*
G01X-6859681Y-3891289D03*
G01X-6859681Y-2891288D03*
G01X-6859681Y-2691288D03*
G01X-6859681Y-2491288D03*
G01X-6859681Y-2291288D03*
G01X-6859681Y-2091288D03*
G01X-6859681Y-1891288D03*
G01X-6859681Y-1691287D03*
G01X-6859681Y-1491287D03*
G01X-6859681Y-1291287D03*
G01X-6859681Y-1091287D03*
G01X-6859681Y-891287D03*
G01X-6859681Y-691287D03*
G01X-6659681Y-5691290D03*
G01X-6659681Y-5491289D03*
G01X-6659681Y-5291289D03*
G01X-6659681Y-4091289D03*
G01X-6659681Y-3891289D03*
G01X-6659681Y-291287D03*
G01X-6459681Y-4091289D03*
G01X-6459681Y-3891289D03*
G01X-6259681Y-4091289D03*
G01X-6259681Y-3891289D03*
G01X-6259681Y-2491288D03*
G01X-6259681Y-2291288D03*
G01X-6259681Y-2091288D03*
G01X-6259681Y-1891288D03*
G01X-6259681Y-1691287D03*
G01X-6259681Y-1491287D03*
G01X-6259681Y-1291287D03*
G01X-6259681Y-1091287D03*
G01X-6259681Y-891287D03*
G01X-6059681Y-4091289D03*
G01X-6059681Y-3891289D03*
G01X-6059681Y-2491288D03*
G01X-6059681Y-2291288D03*
G01X-6059681Y-2091288D03*
G01X-6059681Y-1891288D03*
G01X-6059681Y-1691287D03*
G01X-6059681Y-1491287D03*
G01X-6059681Y-1291287D03*
G01X-6059681Y-1091287D03*
G01X-6059681Y-891287D03*
G01X-5859680Y-4091289D03*
G01X-5859680Y-3891289D03*
G01X-5859680Y-2491288D03*
G01X-5859680Y-2291288D03*
G01X-5859680Y-2091288D03*
G01X-5859680Y-1891288D03*
G01X-5859680Y-1691287D03*
G01X-5859680Y-1491287D03*
G01X-5859680Y-1291287D03*
G01X-5859680Y-1091287D03*
G01X-5859680Y-891287D03*
G01X-5659680Y-4091289D03*
G01X-5659680Y-3891289D03*
G01X-5659680Y-2491288D03*
G01X-5659680Y-2291288D03*
G01X-5659680Y-2091288D03*
G01X-5659680Y-1891288D03*
G01X-5659680Y-1691287D03*
G01X-5659680Y-1491287D03*
G01X-5659680Y-1291287D03*
G01X-5659680Y-1091287D03*
G01X-5659680Y-891287D03*
G01X-5459680Y-3291288D03*
G01X-5459680Y-3091288D03*
G01X-5459680Y-2491288D03*
G01X-5459680Y-2291288D03*
G01X-5459680Y-2091288D03*
G01X-5459680Y-1891288D03*
G01X-5459680Y-1691287D03*
G01X-5459680Y-1491287D03*
G01X-5459680Y-1291287D03*
G01X-5459680Y-1091287D03*
G01X-5459680Y-891287D03*
G01X-5259680Y-3291288D03*
G01X-5259680Y-3091288D03*
G01X-5259680Y-2491288D03*
G01X-5259680Y-2291288D03*
G01X-5259680Y-2091288D03*
G01X-5259680Y-1891288D03*
G01X-5259680Y-1691287D03*
G01X-5259680Y-1491287D03*
G01X-5259680Y-1291287D03*
G01X-5259680Y-1091287D03*
G01X-5259680Y-891287D03*
G01X-5059680Y-4491289D03*
G01X-5059680Y-4291289D03*
G01X-5059680Y-4091289D03*
G01X-5059680Y-3891289D03*
G01X-5059680Y-3691289D03*
G01X-5059680Y-3491288D03*
G01X-5059680Y-3291288D03*
G01X-5059680Y-3091288D03*
G01X-5059680Y-2491288D03*
G01X-5059680Y-2291288D03*
G01X-5059680Y-2091288D03*
G01X-5059680Y-1891288D03*
G01X-5059680Y-1691287D03*
G01X-5059680Y-1491287D03*
G01X-5059680Y-1291287D03*
G01X-5059680Y-1091287D03*
G01X-5059680Y-891287D03*
G01X-4859680Y-4491289D03*
G01X-4859680Y-4291289D03*
G01X-4859680Y-4091289D03*
G01X-4859680Y-3891289D03*
G01X-4859680Y-3691289D03*
G01X-4859680Y-3491288D03*
G01X-4859680Y-3291288D03*
G01X-4859680Y-3091288D03*
G01X-4659680Y-4491289D03*
G01X-4659680Y-4291289D03*
G01X-4659680Y-4091289D03*
G01X-4659680Y-3891289D03*
G01X-4659680Y-3691289D03*
G01X-4659680Y-3491288D03*
G01X-4659680Y-3291288D03*
G01X-4659680Y-3091288D03*
G01X-4659680Y-291287D03*
G01X-4659680Y-91287D03*
G01X-4459680Y-4491289D03*
G01X-4459680Y-4291289D03*
G01X-4459680Y-4091289D03*
G01X-4459680Y-3891289D03*
G01X-4459680Y-3691289D03*
G01X-4459680Y-3491288D03*
G01X-4459680Y-3291288D03*
G01X-4459680Y-3091288D03*
G01X-4459680Y-2891288D03*
G01X-4459680Y-2691288D03*
G01X-4459680Y-2491288D03*
G01X-4459680Y-2291288D03*
G01X-4459680Y-2091288D03*
G01X-4459680Y-1891288D03*
G01X-4459680Y-1691287D03*
G01X-4459680Y-1491287D03*
G01X-4459680Y-1291287D03*
G01X-4459680Y-1091287D03*
G01X-4459680Y-891287D03*
G01X-4459680Y-691287D03*
G01X-4459680Y-491287D03*
G01X-4459680Y-291287D03*
G01X-4459680Y-91287D03*
G01X-4259680Y-4491289D03*
G01X-4259680Y-4291289D03*
G01X-4259680Y-4091289D03*
G01X-4259680Y-3891289D03*
G01X-4259680Y-3691289D03*
G01X-4259680Y-3491288D03*
G01X-4259680Y-3291288D03*
G01X-4259680Y-3091288D03*
G01X-4259680Y-291287D03*
G01X-4259680Y-91287D03*
G01X-4059679Y-4491289D03*
G01X-4059679Y-4291289D03*
G01X-4059679Y-4091289D03*
G01X-4059679Y-3891289D03*
G01X-4059679Y-3691289D03*
G01X-4059679Y-3491288D03*
G01X-4059679Y-3291288D03*
G01X-4059679Y-3091288D03*
G01X-3859679Y-4491289D03*
G01X-3859679Y-4291289D03*
G01X-3859679Y-4091289D03*
G01X-3859679Y-3891289D03*
G01X-3859679Y-3691289D03*
G01X-3859679Y-3491288D03*
G01X-3859679Y-3291288D03*
G01X-3859679Y-3091288D03*
G01X-3859679Y-2491288D03*
G01X-3859679Y-2291288D03*
G01X-3859679Y-2091288D03*
G01X-3859679Y-1891288D03*
G01X-3859679Y-1691287D03*
G01X-3859679Y-1491287D03*
G01X-3859679Y-1291287D03*
G01X-3859679Y-1091287D03*
G01X-3859679Y-891287D03*
G01X-3659679Y-3291288D03*
G01X-3659679Y-3091288D03*
G01X-3659679Y-2491288D03*
G01X-3659679Y-2291288D03*
G01X-3659679Y-2091288D03*
G01X-3659679Y-1891288D03*
G01X-3659679Y-1691287D03*
G01X-3659679Y-1491287D03*
G01X-3659679Y-1291287D03*
G01X-3659679Y-1091287D03*
G01X-3659679Y-891287D03*
G01X-3459679Y-2491288D03*
G01X-3459679Y-2291288D03*
G01X-3459679Y-2091288D03*
G01X-3459679Y-1891288D03*
G01X-3459679Y-1691287D03*
G01X-3459679Y-1491287D03*
G01X-3459679Y-1291287D03*
G01X-3459679Y-1091287D03*
G01X-3459679Y-891287D03*
G01X-3259679Y-4091289D03*
G01X-3259679Y-3891289D03*
G01X-3259679Y-2491288D03*
G01X-3259679Y-2291288D03*
G01X-3259679Y-2091288D03*
G01X-3259679Y-1891288D03*
G01X-3259679Y-1691287D03*
G01X-3259679Y-1491287D03*
G01X-3259679Y-1291287D03*
G01X-3259679Y-1091287D03*
G01X-3259679Y-891287D03*
G01X-3059679Y-4091289D03*
G01X-3059679Y-3891289D03*
G01X-3059679Y-2491288D03*
G01X-3059679Y-2291288D03*
G01X-3059679Y-2091288D03*
G01X-3059679Y-1891288D03*
G01X-3059679Y-1691287D03*
G01X-3059679Y-1491287D03*
G01X-3059679Y-1291287D03*
G01X-3059679Y-1091287D03*
G01X-3059679Y-891287D03*
G01X-2859679Y-4091289D03*
G01X-2859679Y-3891289D03*
G01X-2859679Y-2491288D03*
G01X-2859679Y-2291288D03*
G01X-2859679Y-2091288D03*
G01X-2859679Y-1891288D03*
G01X-2859679Y-1691287D03*
G01X-2859679Y-1491287D03*
G01X-2859679Y-1291287D03*
G01X-2859679Y-1091287D03*
G01X-2859679Y-891287D03*
G01X-2659679Y-4091289D03*
G01X-2659679Y-3891289D03*
G01X-2659679Y-2491288D03*
G01X-2659679Y-2291288D03*
G01X-2659679Y-2091288D03*
G01X-2659679Y-1891288D03*
G01X-2659679Y-1691287D03*
G01X-2659679Y-1491287D03*
G01X-2659679Y-1291287D03*
G01X-2659679Y-1091287D03*
G01X-2659679Y-891287D03*
G01X-2459679Y-4091289D03*
G01X-2459679Y-3891289D03*
G01X-2259679Y-5691290D03*
G01X-2259679Y-5491289D03*
G01X-2259679Y-5291289D03*
G01X-2259679Y-4091289D03*
G01X-2259679Y-3891289D03*
G01X-2059679Y-5691290D03*
G01X-2059679Y-5491289D03*
G01X-2059679Y-5291289D03*
G01X-2059679Y-4091289D03*
G01X-2059679Y-3891289D03*
G01X-2059679Y-2891288D03*
G01X-2059679Y-2691288D03*
G01X-2059679Y-2491288D03*
G01X-2059679Y-2291288D03*
G01X-2059679Y-2091288D03*
G01X-2059679Y-1891288D03*
G01X-2059679Y-1691287D03*
G01X-2059679Y-1491287D03*
G01X-2059679Y-1291287D03*
G01X-2059679Y-1091287D03*
G01X-2059679Y-891287D03*
G01X-2059679Y-691287D03*
G01X-1859679Y-5691290D03*
G01X-1859679Y-5491289D03*
G01X-1859679Y-5291289D03*
G01X-1859679Y-4091289D03*
G01X-1859679Y-3891289D03*
G01X-1859679Y-2891288D03*
G01X-1859679Y-2691288D03*
G01X-1859679Y-2491288D03*
G01X-1859679Y-2291288D03*
G01X-1859679Y-2091288D03*
G01X-1859679Y-1891288D03*
G01X-1859679Y-1691287D03*
G01X-1859679Y-1491287D03*
G01X-1859679Y-1291287D03*
G01X-1859679Y-1091287D03*
G01X-1859679Y-891287D03*
G01X-1859679Y-691287D03*
G01X-1659678Y-4891289D03*
G01X-1659678Y-4691289D03*
G01X-1659678Y-4091289D03*
G01X-1659678Y-3891289D03*
G01X-1659678Y-291287D03*
G01X-1459678Y-4891289D03*
G01X-1459678Y-4691289D03*
G01X-1459678Y-4091289D03*
G01X-1459678Y-3891289D03*
G01X-1259678Y-4891289D03*
G01X-1259678Y-4691289D03*
G01X-1259678Y-4091289D03*
G01X-1259678Y-3891289D03*
G01X-1259678Y-2491288D03*
G01X-1259678Y-2291288D03*
G01X-1259678Y-2091288D03*
G01X-1259678Y-1891288D03*
G01X-1259678Y-1691287D03*
G01X-1259678Y-1491287D03*
G01X-1259678Y-1291287D03*
G01X-1259678Y-1091287D03*
G01X-1259678Y-891287D03*
G01X-1059678Y-4891289D03*
G01X-1059678Y-4691289D03*
G01X-1059678Y-4091289D03*
G01X-1059678Y-3891289D03*
G01X-1059678Y-2491288D03*
G01X-1059678Y-2291288D03*
G01X-1059678Y-2091288D03*
G01X-1059678Y-1891288D03*
G01X-1059678Y-1691287D03*
G01X-1059678Y-1491287D03*
G01X-1059678Y-1291287D03*
G01X-1059678Y-1091287D03*
G01X-1059678Y-891287D03*
G01X-859678Y-5291289D03*
G01X-859678Y-5091289D03*
G01X-859678Y-4891289D03*
G01X-859678Y-4691289D03*
G01X-859678Y-4091289D03*
G01X-859678Y-3891289D03*
G01X-859678Y-2491288D03*
G01X-859678Y-2291288D03*
G01X-859678Y-2091288D03*
G01X-859678Y-1891288D03*
G01X-859678Y-1691287D03*
G01X-859678Y-1491287D03*
G01X-859678Y-1291287D03*
G01X-859678Y-1091287D03*
G01X-859678Y-891287D03*
G01X-659678Y-5091289D03*
G01X-659678Y-4891289D03*
G01X-659678Y-4691289D03*
G01X-659678Y-4091289D03*
G01X-659678Y-3891289D03*
G01X-659678Y-2491288D03*
G01X-659678Y-2291288D03*
G01X-659678Y-2091288D03*
G01X-659678Y-1891288D03*
G01X-659678Y-1691287D03*
G01X-659678Y-1491287D03*
G01X-659678Y-1291287D03*
G01X-659678Y-1091287D03*
G01X-659678Y-891287D03*
G01X-459678Y-5091289D03*
G01X-459678Y-4891289D03*
G01X-459678Y-4691289D03*
G01X-459678Y-4091289D03*
G01X-459678Y-3891289D03*
G01X-459678Y-2491288D03*
G01X-459678Y-2291288D03*
G01X-459678Y-2091288D03*
G01X-459678Y-1891288D03*
G01X-459678Y-1691287D03*
G01X-459678Y-1491287D03*
G01X-459678Y-1291287D03*
G01X-459678Y-1091287D03*
G01X-459678Y-891287D03*
G01X-259678Y-5291289D03*
G01X-259678Y-5091289D03*
G01X-259678Y-4891289D03*
G01X-259678Y-4691289D03*
G01X-259678Y-2491288D03*
G01X-259678Y-2291288D03*
G01X-259678Y-2091288D03*
G01X-259678Y-1891288D03*
G01X-259678Y-1691287D03*
G01X-259678Y-1491287D03*
G01X-259678Y-1291287D03*
G01X-259678Y-1091287D03*
G01X-259678Y-891287D03*
G01X-59678Y-5491289D03*
G01X-59678Y-5291289D03*
G01X-59678Y-5091289D03*
G01X-59678Y-4891289D03*
G01X-59678Y-4691289D03*
G01X-59678Y-2491288D03*
G01X-59678Y-2291288D03*
G01X-59678Y-2091288D03*
G01X-59678Y-1891288D03*
G01X-59678Y-1691287D03*
G01X-59678Y-1491287D03*
G01X-59678Y-1291287D03*
G01X-59678Y-1091287D03*
G01X-59678Y-891287D03*
G01X140323Y-5691290D03*
G01X140323Y-5491289D03*
G01X140323Y-5291289D03*
G01X140323Y-5091289D03*
G01X140323Y-4891289D03*
G01X140323Y-4691289D03*
G01X140323Y-4491289D03*
G01X140323Y-4291289D03*
G01X140323Y-4091289D03*
G01X140323Y-3891289D03*
G01X340323Y-5691290D03*
G01X340323Y-5491289D03*
G01X340323Y-5291289D03*
G01X340323Y-5091289D03*
G01X340323Y-4891289D03*
G01X340323Y-4691289D03*
G01X340323Y-4491289D03*
G01X340323Y-4291289D03*
G01X340323Y-4091289D03*
G01X340323Y-3891289D03*
G01X340323Y-3691289D03*
G01X340323Y-291287D03*
G01X340323Y-91287D03*
G01X-8843131Y-38100D03*
G01X-9090732Y-38100D03*
G01X-7537953Y-38100D03*
G01X-7785554Y-38100D03*
G01X-6232716Y-38100D03*
G01X-6480316Y-38100D03*
G01X-4927538Y-38100D03*
G01X-5175138Y-38100D03*
G01X-3791793Y-38100D03*
G01X-4039393Y-38100D03*
G01X-2486615Y-38100D03*
G01X-2734216Y-38100D03*
G01X-1181378Y-38100D03*
G01X-1428978Y-38100D03*
G01X123800Y-38100D03*
G01X-123800Y-38100D03*
G01X-4607266Y-5798853D03*
G01X-4359666Y-5798853D03*
G01X-8483466Y-5351944D03*
G01X-8318466Y-5516944D03*
G01X-8483466Y-5681944D03*
G01X-8648466Y-5516944D03*
G01X-8366793Y-5400271D03*
G01X-8600138Y-5400271D03*
G01X-8600138Y-5633616D03*
G01X-8366793Y-5633616D03*
G01X-8331026Y-5580087D03*
G01X-8331025Y-5453802D03*
G01X-8420322Y-5364504D03*
G01X-8546608Y-5364503D03*
G01X-8635906Y-5453800D03*
G01X-8635906Y-5580086D03*
G01X-8546609Y-5669384D03*
G01X-8420324Y-5669384D03*
G01X-9083466Y-3115545D03*
G01X-8918466Y-3280545D03*
G01X-9083466Y-3445545D03*
G01X-9248466Y-3280545D03*
G01X-8966793Y-3163873D03*
G01X-9200138Y-3163873D03*
G01X-9200138Y-3397218D03*
G01X-8966793Y-3397218D03*
G01X-8931026Y-3343689D03*
G01X-8931025Y-3217403D03*
G01X-9020322Y-3128105D03*
G01X-9146608Y-3128105D03*
G01X-9235906Y-3217402D03*
G01X-9235906Y-3343687D03*
G01X-9146609Y-3432985D03*
G01X-9020324Y-3432986D03*
G01X-483466Y-5351944D03*
G01X-318466Y-5516944D03*
G01X-483466Y-5681944D03*
G01X-648466Y-5516944D03*
G01X-366793Y-5400271D03*
G01X-600138Y-5400271D03*
G01X-600138Y-5633616D03*
G01X-366793Y-5633616D03*
G01X-331026Y-5580087D03*
G01X-331025Y-5453802D03*
G01X-420323Y-5364504D03*
G01X-546608Y-5364503D03*
G01X-635906Y-5453800D03*
G01X-635906Y-5580086D03*
G01X-546609Y-5669384D03*
G01X-420324Y-5669384D03*
G01X116534Y-3115545D03*
G01X281534Y-3280545D03*
G01X116534Y-3445545D03*
G01X-48466Y-3280545D03*
G01X233207Y-3163873D03*
G01X-138Y-3163873D03*
G01X-138Y-3397218D03*
G01X233207Y-3397218D03*
G01X268974Y-3343689D03*
G01X268975Y-3217403D03*
G01X179678Y-3128105D03*
G01X53392Y-3128105D03*
G01X-35906Y-3217402D03*
G01X-35906Y-3343687D03*
G01X53391Y-3432985D03*
G01X179676Y-3432986D03*
G01X-6983466Y-151944D03*
G01X-6818466Y-316944D03*
G01X-6983466Y-481944D03*
G01X-7148466Y-316944D03*
G01X-6866793Y-200271D03*
G01X-7100138Y-200271D03*
G01X-7100138Y-433616D03*
G01X-6866793Y-433616D03*
G01X-6831026Y-380087D03*
G01X-6831025Y-253802D03*
G01X-6920322Y-164504D03*
G01X-7046608Y-164503D03*
G01X-7135906Y-253800D03*
G01X-7135906Y-380086D03*
G01X-7046609Y-469384D03*
G01X-6920324Y-469384D03*
G01X-1983466Y-151944D03*
G01X-1818466Y-316944D03*
G01X-1983466Y-481944D03*
G01X-2148466Y-316944D03*
G01X-1866793Y-200271D03*
G01X-2100138Y-200271D03*
G01X-2100138Y-433616D03*
G01X-1866793Y-433616D03*
G01X-1831026Y-380087D03*
G01X-1831025Y-253802D03*
G01X-1920322Y-164504D03*
G01X-2046608Y-164503D03*
G01X-2135906Y-253800D03*
G01X-2135906Y-380086D03*
G01X-2046609Y-469384D03*
G01X-1920324Y-469384D03*
G01X-4483466Y-3115545D03*
G01X-4318466Y-3280545D03*
G01X-4483466Y-3445545D03*
G01X-4648466Y-3280545D03*
G01X-4366793Y-3163873D03*
G01X-4600138Y-3163873D03*
G01X-4600138Y-3397218D03*
G01X-4366793Y-3397218D03*
G01X-4331026Y-3343689D03*
G01X-4331025Y-3217403D03*
G01X-4420322Y-3128105D03*
G01X-4546608Y-3128105D03*
G01X-4635906Y-3217402D03*
G01X-4635906Y-3343687D03*
G01X-4546609Y-3432985D03*
G01X-4420324Y-3432986D03*
G04 Via End*

G04 Track Start*
G54D21*
G01X-8686705Y-4366106D02*
G01X-8686705Y-3616706D01*
G01X-5418465Y-4366106D02*
G01X-5418465Y-3616706D01*
G01X-6304886Y-5641956D02*
G01X-6304886Y-5282756D01*
G01X-6285417Y-5262401D02*
G01X-4546864Y-5262401D01*
G01X-6285417Y-5662401D02*
G01X-4501166Y-5662401D01*
G01X-2681515Y-5662401D02*
G01X-4465766Y-5662401D01*
G01X-2662045Y-5641956D02*
G01X-2662045Y-5282756D01*
G01X-2681515Y-5262401D02*
G01X-4420067Y-5262401D01*
G01X-8661766Y-3586551D02*
G01X-7126866Y-3586551D01*
G01X-8661766Y-4386551D02*
G01X-7070285Y-4386551D01*
G01X-5443385Y-4386552D02*
G01X-7034885Y-4386552D01*
G01X-6985366Y-3586551D02*
G01X-5435966Y-3586551D01*
G01X-3523527Y-4386051D02*
G01X-1932047Y-4386051D01*
G01X-305147Y-4386051D02*
G01X-1896647Y-4386051D01*
G01X-3548466Y-4365606D02*
G01X-3548466Y-3616206D01*
G01X-3523527Y-3586051D02*
G01X-1988627Y-3586051D01*
G01X-1847127Y-3586051D02*
G01X-297727Y-3586051D01*
G01X-280227Y-4365606D02*
G01X-280227Y-3616206D01*
G04 Track End*

M02*

