G04 Layer: InnerLayer1*
G04 EasyEDA Pro v2.2.32.3, 2024-11-02 15:36:31*
G04 Gerber Generator version 0.3*
G04 Scale: 100 percent, Rotated: No, Reflected: No*
G04 Dimensions in millimeters*
G04 Leading zeros omitted, absolute positions, 3 integers and 5 decimals*
%FSLAX35Y35*%
%MOMM*%
%ADD10C,4.4*%
%ADD11C,0.45*%
G75*


G04 PlaneZone Start*
G36*
G01X-9459683Y-167944D02*
G02X-9285337Y6402I174346J0D01*
G01X314663Y6402D01*
G02X489009Y-167944I0J-174346D01*
G01X489009Y-5667943D01*
G02X314663Y-5842290I-174346J0D01*
G01X-9285337Y-5842290D01*
G02X-9459683Y-5667943I0J174346D01*
G01X-9459683Y-167944D01*
G37*
G04 PlaneZone End*

G04 Pad Start*
G54D10*
G01X-8483466Y-5516944D03*
G01X-9083466Y-3280545D03*
G01X-483466Y-5516944D03*
G01X116534Y-3280545D03*
G01X-6983466Y-316944D03*
G01X-1983466Y-316944D03*
G01X-4483466Y-3280545D03*
G04 Pad End*

G04 Via Start*
G54D11*
G01X-9259682Y-5491289D03*
G01X-9259682Y-5291289D03*
G01X-9259682Y-5091289D03*
G01X-9259683Y-4891289D03*
G01X-9259683Y-4691289D03*
G01X-9259683Y-4491289D03*
G01X-9259683Y-4291289D03*
G01X-9259683Y-4091289D03*
G01X-9259683Y-3891289D03*
G01X-9259683Y-3691289D03*
G01X-9259683Y-291287D03*
G01X-9259683Y-91287D03*
G01X-9059682Y-5491289D03*
G01X-9059682Y-5291289D03*
G01X-9059682Y-5091289D03*
G01X-9059682Y-4891289D03*
G01X-9059682Y-4691289D03*
G01X-9059682Y-4491289D03*
G01X-9059682Y-4291289D03*
G01X-9059682Y-4091289D03*
G01X-9059682Y-3891289D03*
G01X-9059682Y-3691289D03*
G01X-8859682Y-5291289D03*
G01X-8859682Y-5091289D03*
G01X-8859682Y-4891289D03*
G01X-8859682Y-4691289D03*
G01X-8859682Y-3091288D03*
G01X-8859682Y-2491288D03*
G01X-8859682Y-2291288D03*
G01X-8859682Y-2091288D03*
G01X-8859682Y-1891288D03*
G01X-8859682Y-1691287D03*
G01X-8859682Y-1491287D03*
G01X-8859682Y-1291287D03*
G01X-8859682Y-1091287D03*
G01X-8859682Y-891287D03*
G01X-8659682Y-5091289D03*
G01X-8659682Y-4891289D03*
G01X-8659682Y-4691289D03*
G01X-8659682Y-3291288D03*
G01X-8659682Y-3091288D03*
G01X-8659682Y-2491288D03*
G01X-8659682Y-2291288D03*
G01X-8659682Y-2091288D03*
G01X-8659682Y-1891288D03*
G01X-8659682Y-1691287D03*
G01X-8659682Y-1491287D03*
G01X-8659682Y-1291287D03*
G01X-8659682Y-1091287D03*
G01X-8659682Y-891287D03*
G01X-8459682Y-5091289D03*
G01X-8459682Y-4891289D03*
G01X-8459682Y-4691289D03*
G01X-8459682Y-4091289D03*
G01X-8459682Y-3891289D03*
G01X-8459682Y-2491288D03*
G01X-8459682Y-2291288D03*
G01X-8459682Y-2091288D03*
G01X-8459682Y-1891288D03*
G01X-8459682Y-1691287D03*
G01X-8459682Y-1491287D03*
G01X-8459682Y-1291287D03*
G01X-8459682Y-1091287D03*
G01X-8459682Y-891287D03*
G01X-8259682Y-5291289D03*
G01X-8259682Y-5091289D03*
G01X-8259682Y-4891289D03*
G01X-8259682Y-4691289D03*
G01X-8259682Y-4091289D03*
G01X-8259682Y-3891289D03*
G01X-8259682Y-2491288D03*
G01X-8259682Y-2291288D03*
G01X-8259682Y-2091288D03*
G01X-8259682Y-1891288D03*
G01X-8259682Y-1691287D03*
G01X-8259682Y-1491287D03*
G01X-8259682Y-1291287D03*
G01X-8259682Y-1091287D03*
G01X-8259682Y-891287D03*
G01X-8059682Y-5491289D03*
G01X-8059682Y-5291289D03*
G01X-8059682Y-5091289D03*
G01X-8059682Y-4891289D03*
G01X-8059682Y-4691289D03*
G01X-8059682Y-4091289D03*
G01X-8059682Y-3891289D03*
G01X-8059682Y-2491288D03*
G01X-8059682Y-2291288D03*
G01X-8059682Y-2091288D03*
G01X-8059682Y-1891288D03*
G01X-8059682Y-1691287D03*
G01X-8059682Y-1491287D03*
G01X-8059682Y-1291287D03*
G01X-8059682Y-1091287D03*
G01X-8059682Y-891287D03*
G01X-7859682Y-5691290D03*
G01X-7859682Y-5491289D03*
G01X-7859682Y-5291289D03*
G01X-7859682Y-5091289D03*
G01X-7859682Y-4891289D03*
G01X-7859682Y-4691289D03*
G01X-7859682Y-4091289D03*
G01X-7859682Y-3891289D03*
G01X-7859682Y-2491288D03*
G01X-7859682Y-2291288D03*
G01X-7859682Y-2091288D03*
G01X-7859682Y-1891288D03*
G01X-7859682Y-1691287D03*
G01X-7859682Y-1491287D03*
G01X-7859682Y-1291287D03*
G01X-7859682Y-1091287D03*
G01X-7859682Y-891287D03*
G01X-7659681Y-5691290D03*
G01X-7659681Y-5491289D03*
G01X-7659681Y-5291289D03*
G01X-7659681Y-5091289D03*
G01X-7659681Y-4891289D03*
G01X-7659681Y-4691289D03*
G01X-7659681Y-4091289D03*
G01X-7659681Y-3891289D03*
G01X-7459681Y-5691290D03*
G01X-7459681Y-5491289D03*
G01X-7459681Y-5291289D03*
G01X-7459681Y-5091289D03*
G01X-7459681Y-4891289D03*
G01X-7459681Y-4691289D03*
G01X-7459681Y-4091289D03*
G01X-7459681Y-3891289D03*
G01X-7259681Y-5691290D03*
G01X-7259681Y-5491289D03*
G01X-7259681Y-5291289D03*
G01X-7259681Y-5091289D03*
G01X-7259681Y-4091289D03*
G01X-7259681Y-3891289D03*
G01X-7059681Y-5691290D03*
G01X-7059681Y-5491289D03*
G01X-7059681Y-5291289D03*
G01X-7059681Y-4091289D03*
G01X-7059681Y-3891289D03*
G01X-7059681Y-2891288D03*
G01X-7059681Y-2691288D03*
G01X-7059681Y-2491288D03*
G01X-7059681Y-2291288D03*
G01X-7059681Y-2091288D03*
G01X-7059681Y-1891288D03*
G01X-7059681Y-1691287D03*
G01X-7059681Y-1491287D03*
G01X-7059681Y-1291287D03*
G01X-7059681Y-1091287D03*
G01X-7059681Y-891287D03*
G01X-7059681Y-691287D03*
G01X-6859681Y-5691290D03*
G01X-6859681Y-5491289D03*
G01X-6859681Y-5291289D03*
G01X-6859681Y-4091289D03*
G01X-6859681Y-3891289D03*
G01X-6859681Y-2891288D03*
G01X-6859681Y-2691288D03*
G01X-6859681Y-2491288D03*
G01X-6859681Y-2291288D03*
G01X-6859681Y-2091288D03*
G01X-6859681Y-1891288D03*
G01X-6859681Y-1691287D03*
G01X-6859681Y-1491287D03*
G01X-6859681Y-1291287D03*
G01X-6859681Y-1091287D03*
G01X-6859681Y-891287D03*
G01X-6859681Y-691287D03*
G01X-6659681Y-5691290D03*
G01X-6659681Y-5491289D03*
G01X-6659681Y-5291289D03*
G01X-6659681Y-4091289D03*
G01X-6659681Y-3891289D03*
G01X-6659681Y-291287D03*
G01X-6459681Y-4091289D03*
G01X-6459681Y-3891289D03*
G01X-6259681Y-4091289D03*
G01X-6259681Y-3891289D03*
G01X-6259681Y-2491288D03*
G01X-6259681Y-2291288D03*
G01X-6259681Y-2091288D03*
G01X-6259681Y-1891288D03*
G01X-6259681Y-1691287D03*
G01X-6259681Y-1491287D03*
G01X-6259681Y-1291287D03*
G01X-6259681Y-1091287D03*
G01X-6259681Y-891287D03*
G01X-6059681Y-4091289D03*
G01X-6059681Y-3891289D03*
G01X-6059681Y-2491288D03*
G01X-6059681Y-2291288D03*
G01X-6059681Y-2091288D03*
G01X-6059681Y-1891288D03*
G01X-6059681Y-1691287D03*
G01X-6059681Y-1491287D03*
G01X-6059681Y-1291287D03*
G01X-6059681Y-1091287D03*
G01X-6059681Y-891287D03*
G01X-5859680Y-4091289D03*
G01X-5859680Y-3891289D03*
G01X-5859680Y-2491288D03*
G01X-5859680Y-2291288D03*
G01X-5859680Y-2091288D03*
G01X-5859680Y-1891288D03*
G01X-5859680Y-1691287D03*
G01X-5859680Y-1491287D03*
G01X-5859680Y-1291287D03*
G01X-5859680Y-1091287D03*
G01X-5859680Y-891287D03*
G01X-5659680Y-4091289D03*
G01X-5659680Y-3891289D03*
G01X-5659680Y-2491288D03*
G01X-5659680Y-2291288D03*
G01X-5659680Y-2091288D03*
G01X-5659680Y-1891288D03*
G01X-5659680Y-1691287D03*
G01X-5659680Y-1491287D03*
G01X-5659680Y-1291287D03*
G01X-5659680Y-1091287D03*
G01X-5659680Y-891287D03*
G01X-5459680Y-3291288D03*
G01X-5459680Y-3091288D03*
G01X-5459680Y-2491288D03*
G01X-5459680Y-2291288D03*
G01X-5459680Y-2091288D03*
G01X-5459680Y-1891288D03*
G01X-5459680Y-1691287D03*
G01X-5459680Y-1491287D03*
G01X-5459680Y-1291287D03*
G01X-5459680Y-1091287D03*
G01X-5459680Y-891287D03*
G01X-5259680Y-3291288D03*
G01X-5259680Y-3091288D03*
G01X-5259680Y-2491288D03*
G01X-5259680Y-2291288D03*
G01X-5259680Y-2091288D03*
G01X-5259680Y-1891288D03*
G01X-5259680Y-1691287D03*
G01X-5259680Y-1491287D03*
G01X-5259680Y-1291287D03*
G01X-5259680Y-1091287D03*
G01X-5259680Y-891287D03*
G01X-5059680Y-4491289D03*
G01X-5059680Y-4291289D03*
G01X-5059680Y-4091289D03*
G01X-5059680Y-3891289D03*
G01X-5059680Y-3691289D03*
G01X-5059680Y-3491288D03*
G01X-5059680Y-3291288D03*
G01X-5059680Y-3091288D03*
G01X-5059680Y-2491288D03*
G01X-5059680Y-2291288D03*
G01X-5059680Y-2091288D03*
G01X-5059680Y-1891288D03*
G01X-5059680Y-1691287D03*
G01X-5059680Y-1491287D03*
G01X-5059680Y-1291287D03*
G01X-5059680Y-1091287D03*
G01X-5059680Y-891287D03*
G01X-4859680Y-4491289D03*
G01X-4859680Y-4291289D03*
G01X-4859680Y-4091289D03*
G01X-4859680Y-3891289D03*
G01X-4859680Y-3691289D03*
G01X-4859680Y-3491288D03*
G01X-4859680Y-3291288D03*
G01X-4859680Y-3091288D03*
G01X-4659680Y-4491289D03*
G01X-4659680Y-4291289D03*
G01X-4659680Y-4091289D03*
G01X-4659680Y-3891289D03*
G01X-4659680Y-3691289D03*
G01X-4659680Y-3491288D03*
G01X-4659680Y-3291288D03*
G01X-4659680Y-3091288D03*
G01X-4659680Y-291287D03*
G01X-4659680Y-91287D03*
G01X-4459680Y-4491289D03*
G01X-4459680Y-4291289D03*
G01X-4459680Y-4091289D03*
G01X-4459680Y-3891289D03*
G01X-4459680Y-3691289D03*
G01X-4459680Y-3491288D03*
G01X-4459680Y-3291288D03*
G01X-4459680Y-3091288D03*
G01X-4459680Y-2891288D03*
G01X-4459680Y-2691288D03*
G01X-4459680Y-2491288D03*
G01X-4459680Y-2291288D03*
G01X-4459680Y-2091288D03*
G01X-4459680Y-1891288D03*
G01X-4459680Y-1691287D03*
G01X-4459680Y-1491287D03*
G01X-4459680Y-1291287D03*
G01X-4459680Y-1091287D03*
G01X-4459680Y-891287D03*
G01X-4459680Y-691287D03*
G01X-4459680Y-491287D03*
G01X-4459680Y-291287D03*
G01X-4459680Y-91287D03*
G01X-4259680Y-4491289D03*
G01X-4259680Y-4291289D03*
G01X-4259680Y-4091289D03*
G01X-4259680Y-3891289D03*
G01X-4259680Y-3691289D03*
G01X-4259680Y-3491288D03*
G01X-4259680Y-3291288D03*
G01X-4259680Y-3091288D03*
G01X-4259680Y-291287D03*
G01X-4259680Y-91287D03*
G01X-4059679Y-4491289D03*
G01X-4059679Y-4291289D03*
G01X-4059679Y-4091289D03*
G01X-4059679Y-3891289D03*
G01X-4059679Y-3691289D03*
G01X-4059679Y-3491288D03*
G01X-4059679Y-3291288D03*
G01X-4059679Y-3091288D03*
G01X-3859679Y-4491289D03*
G01X-3859679Y-4291289D03*
G01X-3859679Y-4091289D03*
G01X-3859679Y-3891289D03*
G01X-3859679Y-3691289D03*
G01X-3859679Y-3491288D03*
G01X-3859679Y-3291288D03*
G01X-3859679Y-3091288D03*
G01X-3859679Y-2491288D03*
G01X-3859679Y-2291288D03*
G01X-3859679Y-2091288D03*
G01X-3859679Y-1891288D03*
G01X-3859679Y-1691287D03*
G01X-3859679Y-1491287D03*
G01X-3859679Y-1291287D03*
G01X-3859679Y-1091287D03*
G01X-3859679Y-891287D03*
G01X-3659679Y-3291288D03*
G01X-3659679Y-3091288D03*
G01X-3659679Y-2491288D03*
G01X-3659679Y-2291288D03*
G01X-3659679Y-2091288D03*
G01X-3659679Y-1891288D03*
G01X-3659679Y-1691287D03*
G01X-3659679Y-1491287D03*
G01X-3659679Y-1291287D03*
G01X-3659679Y-1091287D03*
G01X-3659679Y-891287D03*
G01X-3459679Y-2491288D03*
G01X-3459679Y-2291288D03*
G01X-3459679Y-2091288D03*
G01X-3459679Y-1891288D03*
G01X-3459679Y-1691287D03*
G01X-3459679Y-1491287D03*
G01X-3459679Y-1291287D03*
G01X-3459679Y-1091287D03*
G01X-3459679Y-891287D03*
G01X-3259679Y-4091289D03*
G01X-3259679Y-3891289D03*
G01X-3259679Y-2491288D03*
G01X-3259679Y-2291288D03*
G01X-3259679Y-2091288D03*
G01X-3259679Y-1891288D03*
G01X-3259679Y-1691287D03*
G01X-3259679Y-1491287D03*
G01X-3259679Y-1291287D03*
G01X-3259679Y-1091287D03*
G01X-3259679Y-891287D03*
G01X-3059679Y-4091289D03*
G01X-3059679Y-3891289D03*
G01X-3059679Y-2491288D03*
G01X-3059679Y-2291288D03*
G01X-3059679Y-2091288D03*
G01X-3059679Y-1891288D03*
G01X-3059679Y-1691287D03*
G01X-3059679Y-1491287D03*
G01X-3059679Y-1291287D03*
G01X-3059679Y-1091287D03*
G01X-3059679Y-891287D03*
G01X-2859679Y-4091289D03*
G01X-2859679Y-3891289D03*
G01X-2859679Y-2491288D03*
G01X-2859679Y-2291288D03*
G01X-2859679Y-2091288D03*
G01X-2859679Y-1891288D03*
G01X-2859679Y-1691287D03*
G01X-2859679Y-1491287D03*
G01X-2859679Y-1291287D03*
G01X-2859679Y-1091287D03*
G01X-2859679Y-891287D03*
G01X-2659679Y-4091289D03*
G01X-2659679Y-3891289D03*
G01X-2659679Y-2491288D03*
G01X-2659679Y-2291288D03*
G01X-2659679Y-2091288D03*
G01X-2659679Y-1891288D03*
G01X-2659679Y-1691287D03*
G01X-2659679Y-1491287D03*
G01X-2659679Y-1291287D03*
G01X-2659679Y-1091287D03*
G01X-2659679Y-891287D03*
G01X-2459679Y-4091289D03*
G01X-2459679Y-3891289D03*
G01X-2259679Y-5691290D03*
G01X-2259679Y-5491289D03*
G01X-2259679Y-5291289D03*
G01X-2259679Y-4091289D03*
G01X-2259679Y-3891289D03*
G01X-2059679Y-5691290D03*
G01X-2059679Y-5491289D03*
G01X-2059679Y-5291289D03*
G01X-2059679Y-4091289D03*
G01X-2059679Y-3891289D03*
G01X-2059679Y-2891288D03*
G01X-2059679Y-2691288D03*
G01X-2059679Y-2491288D03*
G01X-2059679Y-2291288D03*
G01X-2059679Y-2091288D03*
G01X-2059679Y-1891288D03*
G01X-2059679Y-1691287D03*
G01X-2059679Y-1491287D03*
G01X-2059679Y-1291287D03*
G01X-2059679Y-1091287D03*
G01X-2059679Y-891287D03*
G01X-2059679Y-691287D03*
G01X-1859679Y-5691290D03*
G01X-1859679Y-5491289D03*
G01X-1859679Y-5291289D03*
G01X-1859679Y-4091289D03*
G01X-1859679Y-3891289D03*
G01X-1859679Y-2891288D03*
G01X-1859679Y-2691288D03*
G01X-1859679Y-2491288D03*
G01X-1859679Y-2291288D03*
G01X-1859679Y-2091288D03*
G01X-1859679Y-1891288D03*
G01X-1859679Y-1691287D03*
G01X-1859679Y-1491287D03*
G01X-1859679Y-1291287D03*
G01X-1859679Y-1091287D03*
G01X-1859679Y-891287D03*
G01X-1859679Y-691287D03*
G01X-1659678Y-4891289D03*
G01X-1659678Y-4691289D03*
G01X-1659678Y-4091289D03*
G01X-1659678Y-3891289D03*
G01X-1659678Y-291287D03*
G01X-1459678Y-4891289D03*
G01X-1459678Y-4691289D03*
G01X-1459678Y-4091289D03*
G01X-1459678Y-3891289D03*
G01X-1259678Y-4891289D03*
G01X-1259678Y-4691289D03*
G01X-1259678Y-4091289D03*
G01X-1259678Y-3891289D03*
G01X-1259678Y-2491288D03*
G01X-1259678Y-2291288D03*
G01X-1259678Y-2091288D03*
G01X-1259678Y-1891288D03*
G01X-1259678Y-1691287D03*
G01X-1259678Y-1491287D03*
G01X-1259678Y-1291287D03*
G01X-1259678Y-1091287D03*
G01X-1259678Y-891287D03*
G01X-1059678Y-4891289D03*
G01X-1059678Y-4691289D03*
G01X-1059678Y-4091289D03*
G01X-1059678Y-3891289D03*
G01X-1059678Y-2491288D03*
G01X-1059678Y-2291288D03*
G01X-1059678Y-2091288D03*
G01X-1059678Y-1891288D03*
G01X-1059678Y-1691287D03*
G01X-1059678Y-1491287D03*
G01X-1059678Y-1291287D03*
G01X-1059678Y-1091287D03*
G01X-1059678Y-891287D03*
G01X-859678Y-5291289D03*
G01X-859678Y-5091289D03*
G01X-859678Y-4891289D03*
G01X-859678Y-4691289D03*
G01X-859678Y-4091289D03*
G01X-859678Y-3891289D03*
G01X-859678Y-2491288D03*
G01X-859678Y-2291288D03*
G01X-859678Y-2091288D03*
G01X-859678Y-1891288D03*
G01X-859678Y-1691287D03*
G01X-859678Y-1491287D03*
G01X-859678Y-1291287D03*
G01X-859678Y-1091287D03*
G01X-859678Y-891287D03*
G01X-659678Y-5091289D03*
G01X-659678Y-4891289D03*
G01X-659678Y-4691289D03*
G01X-659678Y-4091289D03*
G01X-659678Y-3891289D03*
G01X-659678Y-2491288D03*
G01X-659678Y-2291288D03*
G01X-659678Y-2091288D03*
G01X-659678Y-1891288D03*
G01X-659678Y-1691287D03*
G01X-659678Y-1491287D03*
G01X-659678Y-1291287D03*
G01X-659678Y-1091287D03*
G01X-659678Y-891287D03*
G01X-459678Y-5091289D03*
G01X-459678Y-4891289D03*
G01X-459678Y-4691289D03*
G01X-459678Y-4091289D03*
G01X-459678Y-3891289D03*
G01X-459678Y-2491288D03*
G01X-459678Y-2291288D03*
G01X-459678Y-2091288D03*
G01X-459678Y-1891288D03*
G01X-459678Y-1691287D03*
G01X-459678Y-1491287D03*
G01X-459678Y-1291287D03*
G01X-459678Y-1091287D03*
G01X-459678Y-891287D03*
G01X-259678Y-5291289D03*
G01X-259678Y-5091289D03*
G01X-259678Y-4891289D03*
G01X-259678Y-4691289D03*
G01X-259678Y-2491288D03*
G01X-259678Y-2291288D03*
G01X-259678Y-2091288D03*
G01X-259678Y-1891288D03*
G01X-259678Y-1691287D03*
G01X-259678Y-1491287D03*
G01X-259678Y-1291287D03*
G01X-259678Y-1091287D03*
G01X-259678Y-891287D03*
G01X-59678Y-5491289D03*
G01X-59678Y-5291289D03*
G01X-59678Y-5091289D03*
G01X-59678Y-4891289D03*
G01X-59678Y-4691289D03*
G01X-59678Y-2491288D03*
G01X-59678Y-2291288D03*
G01X-59678Y-2091288D03*
G01X-59678Y-1891288D03*
G01X-59678Y-1691287D03*
G01X-59678Y-1491287D03*
G01X-59678Y-1291287D03*
G01X-59678Y-1091287D03*
G01X-59678Y-891287D03*
G01X140323Y-5691290D03*
G01X140323Y-5491289D03*
G01X140323Y-5291289D03*
G01X140323Y-5091289D03*
G01X140323Y-4891289D03*
G01X140323Y-4691289D03*
G01X140323Y-4491289D03*
G01X140323Y-4291289D03*
G01X140323Y-4091289D03*
G01X140323Y-3891289D03*
G01X340323Y-5691290D03*
G01X340323Y-5491289D03*
G01X340323Y-5291289D03*
G01X340323Y-5091289D03*
G01X340323Y-4891289D03*
G01X340323Y-4691289D03*
G01X340323Y-4491289D03*
G01X340323Y-4291289D03*
G01X340323Y-4091289D03*
G01X340323Y-3891289D03*
G01X340323Y-3691289D03*
G01X340323Y-291287D03*
G01X340323Y-91287D03*
G01X-8843131Y-38100D03*
G01X-9090732Y-38100D03*
G01X-7537953Y-38100D03*
G01X-7785554Y-38100D03*
G01X-6232716Y-38100D03*
G01X-6480316Y-38100D03*
G01X-4927538Y-38100D03*
G01X-5175138Y-38100D03*
G01X-3791793Y-38100D03*
G01X-4039393Y-38100D03*
G01X-2486615Y-38100D03*
G01X-2734216Y-38100D03*
G01X-1181378Y-38100D03*
G01X-1428978Y-38100D03*
G01X123800Y-38100D03*
G01X-123800Y-38100D03*
G01X-4607266Y-5798853D03*
G01X-4359666Y-5798853D03*
G01X-8483466Y-5351944D03*
G01X-8318466Y-5516944D03*
G01X-8483466Y-5681944D03*
G01X-8648466Y-5516944D03*
G01X-8366793Y-5400271D03*
G01X-8600138Y-5400271D03*
G01X-8600138Y-5633616D03*
G01X-8366793Y-5633616D03*
G01X-8331026Y-5580087D03*
G01X-8331025Y-5453802D03*
G01X-8420322Y-5364504D03*
G01X-8546608Y-5364503D03*
G01X-8635906Y-5453800D03*
G01X-8635906Y-5580086D03*
G01X-8546609Y-5669384D03*
G01X-8420324Y-5669384D03*
G01X-9083466Y-3115545D03*
G01X-8918466Y-3280545D03*
G01X-9083466Y-3445545D03*
G01X-9248466Y-3280545D03*
G01X-8966793Y-3163873D03*
G01X-9200138Y-3163873D03*
G01X-9200138Y-3397218D03*
G01X-8966793Y-3397218D03*
G01X-8931026Y-3343689D03*
G01X-8931025Y-3217403D03*
G01X-9020322Y-3128105D03*
G01X-9146608Y-3128105D03*
G01X-9235906Y-3217402D03*
G01X-9235906Y-3343687D03*
G01X-9146609Y-3432985D03*
G01X-9020324Y-3432986D03*
G01X-483466Y-5351944D03*
G01X-318466Y-5516944D03*
G01X-483466Y-5681944D03*
G01X-648466Y-5516944D03*
G01X-366793Y-5400271D03*
G01X-600138Y-5400271D03*
G01X-600138Y-5633616D03*
G01X-366793Y-5633616D03*
G01X-331026Y-5580087D03*
G01X-331025Y-5453802D03*
G01X-420323Y-5364504D03*
G01X-546608Y-5364503D03*
G01X-635906Y-5453800D03*
G01X-635906Y-5580086D03*
G01X-546609Y-5669384D03*
G01X-420324Y-5669384D03*
G01X116534Y-3115545D03*
G01X281534Y-3280545D03*
G01X116534Y-3445545D03*
G01X-48466Y-3280545D03*
G01X233207Y-3163873D03*
G01X-138Y-3163873D03*
G01X-138Y-3397218D03*
G01X233207Y-3397218D03*
G01X268974Y-3343689D03*
G01X268975Y-3217403D03*
G01X179678Y-3128105D03*
G01X53392Y-3128105D03*
G01X-35906Y-3217402D03*
G01X-35906Y-3343687D03*
G01X53391Y-3432985D03*
G01X179676Y-3432986D03*
G01X-6983466Y-151944D03*
G01X-6818466Y-316944D03*
G01X-6983466Y-481944D03*
G01X-7148466Y-316944D03*
G01X-6866793Y-200271D03*
G01X-7100138Y-200271D03*
G01X-7100138Y-433616D03*
G01X-6866793Y-433616D03*
G01X-6831026Y-380087D03*
G01X-6831025Y-253802D03*
G01X-6920322Y-164504D03*
G01X-7046608Y-164503D03*
G01X-7135906Y-253800D03*
G01X-7135906Y-380086D03*
G01X-7046609Y-469384D03*
G01X-6920324Y-469384D03*
G01X-1983466Y-151944D03*
G01X-1818466Y-316944D03*
G01X-1983466Y-481944D03*
G01X-2148466Y-316944D03*
G01X-1866793Y-200271D03*
G01X-2100138Y-200271D03*
G01X-2100138Y-433616D03*
G01X-1866793Y-433616D03*
G01X-1831026Y-380087D03*
G01X-1831025Y-253802D03*
G01X-1920322Y-164504D03*
G01X-2046608Y-164503D03*
G01X-2135906Y-253800D03*
G01X-2135906Y-380086D03*
G01X-2046609Y-469384D03*
G01X-1920324Y-469384D03*
G01X-4483466Y-3115545D03*
G01X-4318466Y-3280545D03*
G01X-4483466Y-3445545D03*
G01X-4648466Y-3280545D03*
G01X-4366793Y-3163873D03*
G01X-4600138Y-3163873D03*
G01X-4600138Y-3397218D03*
G01X-4366793Y-3397218D03*
G01X-4331026Y-3343689D03*
G01X-4331025Y-3217403D03*
G01X-4420322Y-3128105D03*
G01X-4546608Y-3128105D03*
G01X-4635906Y-3217402D03*
G01X-4635906Y-3343687D03*
G01X-4546609Y-3432985D03*
G01X-4420324Y-3432986D03*
G04 Via End*

M02*

