G04 Layer: TopPasteMaskLayer*
G04 EasyEDA Pro v2.2.32.3, 2024-11-02 15:36:31*
G04 Gerber Generator version 0.3*
G04 Scale: 100 percent, Rotated: No, Reflected: No*
G04 Dimensions in millimeters*
G04 Leading zeros omitted, absolute positions, 3 integers and 5 decimals*
%FSLAX35Y35*%
%MOMM*%
%AMPolygonMacro1*4,1,8,0.177,-0.0785,-0.023,-0.0785,-0.023,-0.0115,-0.177,-0.0115,-0.087,0.0785,-0.023,0.0785,0.003,0.0785,0.177,0.0785,0.177,-0.0785,0*%
%AMPolygonMacro2*4,1,8,-0.177,0.0785,-0.077,0.0785,0.023,0.0785,0.087,0.0785,0.177,-0.0115,0.023,-0.0115,0.023,-0.0785,-0.177,-0.0785,-0.177,0.0785,0*%
%AMPolygonMacro3*4,1,8,0.177,-0.0785,-0.023,-0.0785,-0.023,-0.0115,-0.177,-0.0115,-0.087,0.0785,-0.023,0.0785,0.003,0.0785,0.177,0.0785,0.177,-0.0785,0*%
%AMPolygonMacro4*4,1,8,-0.177,0.0785,-0.077,0.0785,0.023,0.0785,0.087,0.0785,0.177,-0.0115,0.023,-0.0115,0.023,-0.0785,-0.177,-0.0785,-0.177,0.0785,0*%
%AMPolygonMacro5*4,1,8,0.177,-0.0785,-0.023,-0.0785,-0.023,-0.0115,-0.177,-0.0115,-0.087,0.0785,-0.023,0.0785,0.003,0.0785,0.177,0.0785,0.177,-0.0785,0*%
%AMPolygonMacro6*4,1,8,-0.177,0.0785,-0.077,0.0785,0.023,0.0785,0.087,0.0785,0.177,-0.0115,0.023,-0.0115,0.023,-0.0785,-0.177,-0.0785,-0.177,0.0785,0*%
%ADD10R,0.349X0.5*%
%ADD11PolygonMacro1*%
%ADD12PolygonMacro2*%
%ADD13PolygonMacro3*%
%ADD14PolygonMacro4*%
%ADD15PolygonMacro5*%
%ADD16PolygonMacro6*%
G75*


G04 PolygonModel Start*
G36*
G01X-4457979Y-5192090D02*
G01X-4457979Y-5145710D01*
G01X-4424426Y-5145710D01*
G01X-4424426Y-5192090D01*
G01X-4457979Y-5192090D01*
G37*
G36*
G01X-4506951Y-5192090D02*
G01X-4506951Y-5145710D01*
G01X-4541774Y-5145710D01*
G01X-4541774Y-5192090D01*
G01X-4506951Y-5192090D01*
G37*
G36*
G01X-7028403Y-3516464D02*
G01X-7028403Y-3470084D01*
G01X-6994850Y-3470084D01*
G01X-6994850Y-3516464D01*
G01X-7028403Y-3516464D01*
G37*
G36*
G01X-7077375Y-3516464D02*
G01X-7077375Y-3470084D01*
G01X-7112198Y-3470084D01*
G01X-7112198Y-3516464D01*
G01X-7077375Y-3516464D01*
G37*
G36*
G01X-1890921Y-3508249D02*
G01X-1890921Y-3461869D01*
G01X-1857368Y-3461869D01*
G01X-1857368Y-3508249D01*
G01X-1890921Y-3508249D01*
G37*
G36*
G01X-1939892Y-3508249D02*
G01X-1939892Y-3461869D01*
G01X-1974716Y-3461869D01*
G01X-1974716Y-3508249D01*
G01X-1939892Y-3508249D01*
G37*
G36*
G01X-8288867Y-449975D02*
G01X-8288867Y-403595D01*
G01X-8255314Y-403595D01*
G01X-8255314Y-449975D01*
G01X-8288867Y-449975D01*
G37*
G36*
G01X-8337838Y-449975D02*
G01X-8337838Y-403595D01*
G01X-8372662Y-403595D01*
G01X-8372662Y-449975D01*
G01X-8337838Y-449975D01*
G37*
G36*
G01X-5678929Y-456138D02*
G01X-5678929Y-409758D01*
G01X-5645375Y-409758D01*
G01X-5645375Y-456138D01*
G01X-5678929Y-456138D01*
G37*
G36*
G01X-5727900Y-456138D02*
G01X-5727900Y-409758D01*
G01X-5762723Y-409758D01*
G01X-5762723Y-456138D01*
G01X-5727900Y-456138D01*
G37*
G36*
G01X-3238801Y-451361D02*
G01X-3238801Y-404981D01*
G01X-3205248Y-404981D01*
G01X-3205248Y-451361D01*
G01X-3238801Y-451361D01*
G37*
G36*
G01X-3287772Y-451361D02*
G01X-3287772Y-404981D01*
G01X-3322596Y-404981D01*
G01X-3322596Y-451361D01*
G01X-3287772Y-451361D01*
G37*
G36*
G01X-627555Y-451515D02*
G01X-627555Y-405135D01*
G01X-594001Y-405135D01*
G01X-594001Y-451515D01*
G01X-627555Y-451515D01*
G37*
G36*
G01X-676526Y-451515D02*
G01X-676526Y-405135D01*
G01X-711349Y-405135D01*
G01X-711349Y-451515D01*
G01X-676526Y-451515D01*
G37*

G04 Pad Start*
G54D10*
G01X-4483466Y-5688551D03*
G54D11*
G01X-4465766Y-5662401D03*
G54D12*
G01X-4501166Y-5662401D03*
G54D10*
G01X-8314530Y-2863853D03*
G54D13*
G01X-8296830Y-2837703D03*
G54D14*
G01X-8332230Y-2837703D03*
G54D10*
G01X-5704115Y-2863853D03*
G54D13*
G01X-5686415Y-2837703D03*
G54D14*
G01X-5721815Y-2837703D03*
G54D10*
G01X-7052585Y-4412701D03*
G54D13*
G01X-7034885Y-4386551D03*
G54D14*
G01X-7070285Y-4386551D03*
G54D10*
G01X-652822Y-2863134D03*
G54D11*
G01X-635122Y-2836984D03*
G54D12*
G01X-670522Y-2836984D03*
G54D10*
G01X-3262817Y-2863134D03*
G54D11*
G01X-3245117Y-2836984D03*
G54D12*
G01X-3280517Y-2836984D03*
G54D10*
G01X-1914347Y-4412201D03*
G54D15*
G01X-1896647Y-4386051D03*
G54D16*
G01X-1932047Y-4386051D03*
G04 Pad End*

M02*

