G04 Layer: BottomLayer*
G04 EasyEDA Pro v2.2.32.3, 2024-11-23 22:11:16*
G04 Gerber Generator version 0.3*
G04 Scale: 100 percent, Rotated: No, Reflected: No*
G04 Dimensions in millimeters*
G04 Leading zeros omitted, absolute positions, 3 integers and 5 decimals*
%FSLAX35Y35*%
%MOMM*%
%ADD10C,0.2032*%
%ADD11O,8.0X4.4*%
%ADD12C,0.61*%
G75*


G04 Copper Start*
G36*
G01X36826Y1450000D02*
G03X36114Y1457104I-35814J0D01*
G02X200023Y1611761I163909J-9529D01*
G03X1299375Y2711113I0J1099352D01*
G01X1299375Y2747575D01*
G02X1463561Y2911761I164186J0D01*
G01X9800000Y2911761D01*
G02X9964186Y2747575I0J-164186D01*
G01X9964186Y-2752425D01*
G02X9800000Y-2916611I-164186J0D01*
G01X1463561Y-2916611D01*
G02X1299375Y-2752425I0J164186D01*
G01X1299375Y-2712573D01*
G03X200988Y-1614186I-1098387J0D01*
G02X36802Y-1450000I0J164186D01*
G01X36826Y1450000D01*
G37*
G54D10*
G01X36826Y1450000D02*
G03X36114Y1457104I-35814J0D01*
G02X200023Y1611761I163909J-9529D01*
G03X1299375Y2711113I0J1099352D01*
G01X1299375Y2747575D01*
G02X1463561Y2911761I164186J0D01*
G01X9800000Y2911761D01*
G02X9964186Y2747575I0J-164186D01*
G01X9964186Y-2752425D01*
G02X9800000Y-2916611I-164186J0D01*
G01X1463561Y-2916611D01*
G02X1299375Y-2752425I0J164186D01*
G01X1299375Y-2712573D01*
G03X200988Y-1614186I-1098387J0D01*
G02X36802Y-1450000I0J164186D01*
G01X36826Y1450000D01*
G04 Copper End*

G04 Pad Start*
G54D11*
G01X1000000Y900000D03*
G01X1000000Y-900000D03*
G01X5700000Y-2500000D03*
G01X9000000Y-900000D03*
G01X9000000Y900000D03*
G01X5700000Y2500000D03*
G04 Pad End*

G04 Via Start*
G54D12*
G01X665390Y900000D03*
G01X758623Y762425D03*
G01X758623Y1035035D03*
G01X879312Y1062975D03*
G01X879312Y737025D03*
G01X1000000Y1062975D03*
G01X1000000Y737025D03*
G01X1120688Y737025D03*
G01X1120688Y1062975D03*
G01X1241377Y764965D03*
G01X1241377Y1037575D03*
G01X1334610Y900000D03*
G01X665390Y-900000D03*
G01X758623Y-1037575D03*
G01X758623Y-764965D03*
G01X879312Y-737025D03*
G01X879312Y-1062975D03*
G01X1000000Y-737025D03*
G01X1000000Y-1062975D03*
G01X1120688Y-1062975D03*
G01X1120688Y-737025D03*
G01X1241377Y-1035035D03*
G01X1241377Y-762425D03*
G01X1334610Y-900000D03*
G01X5365390Y-2500000D03*
G01X5458623Y-2637575D03*
G01X5458623Y-2364965D03*
G01X5579312Y-2337025D03*
G01X5579312Y-2662975D03*
G01X5700000Y-2337025D03*
G01X5700000Y-2662975D03*
G01X5820688Y-2662975D03*
G01X5820688Y-2337025D03*
G01X5941377Y-2635035D03*
G01X5941377Y-2362425D03*
G01X6034610Y-2500000D03*
G01X8665390Y-900000D03*
G01X8758623Y-1037575D03*
G01X8758623Y-764965D03*
G01X8879312Y-737025D03*
G01X8879312Y-1062975D03*
G01X9000000Y-737025D03*
G01X9000000Y-1062975D03*
G01X9120688Y-1062975D03*
G01X9120688Y-737025D03*
G01X9241377Y-1035035D03*
G01X9241377Y-762425D03*
G01X9334610Y-900000D03*
G01X8665390Y900000D03*
G01X8758623Y762425D03*
G01X8758623Y1035035D03*
G01X8879312Y1062975D03*
G01X8879312Y737025D03*
G01X9000000Y1062975D03*
G01X9000000Y737025D03*
G01X9120688Y737025D03*
G01X9120688Y1062975D03*
G01X9241377Y764965D03*
G01X9241377Y1037575D03*
G01X9334610Y900000D03*
G01X5365390Y2500000D03*
G01X5458623Y2362425D03*
G01X5458623Y2635035D03*
G01X5579312Y2662975D03*
G01X5579312Y2337025D03*
G01X5700000Y2662975D03*
G01X5700000Y2337025D03*
G01X5820688Y2337025D03*
G01X5820688Y2662975D03*
G01X5941377Y2364965D03*
G01X5941377Y2637575D03*
G01X6034610Y2500000D03*
G04 Via End*

M02*

